<svg width="596" height="492" viewBox="0 0 596 492" fill="none" xmlns="http://www.w3.org/2000/svg">
<path fill-rule="evenodd" clip-rule="evenodd" d="M168.558 439.93C118.722 408.665 57.3995 390.246 30.6296 336.88C1.89259 279.592 -14.8441 202.172 20.4079 144.59C55.7088 86.9289 137.285 92.9031 197.354 64.5485C238.673 45.0447 272.855 12.4311 317.069 4.55727C365.714 -4.1058 414.238 -0.258338 458.609 18.0222C511.458 39.7959 575.226 62.0025 592.228 117.921C609.219 173.804 563.142 231.002 540.489 287.328C519.985 338.308 505.293 391.518 466.504 430.524C424.077 473.188 374.719 489.471 317.069 491.291C259.903 493.096 215.933 469.651 168.558 439.93Z" fill="#FBCFD8"/>
</svg>
