<svg width="507" height="360" viewBox="0 0 507 360" fill="none" xmlns="http://www.w3.org/2000/svg">
<g clip-path="url(#clip0)">
<path d="M311.378 200.315C311.39 193.078 311.519 185.763 311.001 178.625C310.425 171.271 309.24 163.899 310.409 156.484C310.565 155.7 310.074 155.092 309.426 154.759C309.151 154.603 308.877 154.446 308.367 154.447C258.929 156.952 209.45 158.634 159.913 160.61C158.894 160.611 158.404 161.533 158.562 162.278C158.543 162.376 158.523 162.474 158.504 162.572C159.202 191.871 160.705 221.228 161.914 250.527C160.913 250.43 159.718 251.314 160.21 252.431C162.372 257.449 173.843 255.142 177.882 254.824C181.628 254.447 185.295 253.953 188.981 253.361C195.412 252.295 202.022 252.385 208.493 252.143C225.672 251.379 242.891 250.929 260.148 250.283C277.19 249.695 294.014 247.637 311.017 246.736C311.862 248.128 314.372 247.811 314.252 245.85C313.608 230.632 311.277 215.691 311.378 200.315ZM303.487 157.963C299.686 160.673 296.434 164.207 292.22 166.427C286.202 169.513 280.165 172.697 274.148 175.782C268.013 178.946 262.192 182.581 256.45 186.333C253.276 188.455 250.199 190.596 247.122 192.737C244.261 194.819 241.225 197.783 237.99 199.179C226.803 191.347 213.755 185.183 201.315 179.549C194.957 176.653 188.483 174.346 181.891 172.117C178.36 170.905 174.946 169.615 171.571 168.128C169.315 167.169 164.959 165.488 163.152 163.293C209.865 161.673 256.638 160.269 303.487 157.963ZM218.001 248.426C206.803 248.85 195.703 249.294 184.585 250.855C180.605 251.389 176.643 251.825 172.604 252.143C171.466 252.223 167.8 252.717 165.309 252.426C165.107 247.287 164.905 242.149 164.703 237.011C165.096 237.089 165.449 236.854 165.723 236.5C170.578 228.494 175.865 220.879 180.445 212.715C180.758 212.166 180.012 211.813 179.719 212.265C174.706 219.527 169.222 226.593 164.661 234.148C164.6 232.403 164.52 230.756 164.459 229.01C167.965 224.711 171.137 220.04 174.466 215.605C176.836 212.405 180.558 209.067 181.908 205.359C182.064 205.084 181.515 204.771 181.358 205.046C175.992 212.034 169.802 218.551 164.338 225.519C164.218 223.558 164.196 221.617 164.077 219.656C164.469 219.734 164.802 219.596 165.076 219.243C167.446 216.044 169.815 212.844 172.381 209.684C172.91 209.076 172.066 208.194 171.439 208.783C168.833 211.629 166.424 214.515 163.996 217.499C163.896 215.949 163.914 214.322 163.814 212.772C168.613 207.609 172.804 201.917 177.152 196.461C177.563 195.931 176.797 195.167 176.386 195.697C172.155 200.565 167.925 205.433 163.694 210.302C163.129 195.711 162.466 181.101 161.704 166.472C164.708 169.312 169.476 170.974 172.85 172.461C180.09 175.532 187.604 177.74 194.864 180.713C202.123 183.686 209.031 187.405 215.977 190.927C223.492 194.665 230.772 198.559 237.544 203.475C238.878 204.454 240.191 202.981 239.954 201.609C241.306 200.96 242.502 200.076 243.932 199.035C247.028 196.796 250.105 194.655 253.182 192.514C259.316 188.33 265.685 183.989 272.29 180.511C278.876 177.13 285.383 173.632 291.969 170.252C297.437 167.363 301.394 162.848 306.705 159.724C306.705 159.724 306.705 159.724 306.725 159.626C306.182 164.922 306.639 170.314 307.115 175.609C307.731 183.277 307.74 190.925 307.63 198.652C307.49 213.714 309.546 228.499 310.445 243.462C295.501 244.262 280.559 246.083 265.636 246.786C249.927 247.332 233.944 247.722 218.001 248.426Z" fill="#F47892"/>
<path d="M262.081 188.778C254.614 193.003 245.991 198.425 240.409 204.962C240.252 205.237 240.507 205.491 240.762 205.236C247.129 198.855 255.459 194.904 262.71 189.719C263.298 189.326 262.767 188.405 262.081 188.778Z" fill="#F47892"/>
<path d="M256.931 195.197C254.637 195.964 252.795 197.535 250.796 198.871C248.425 200.541 246.368 202.171 244.33 204.212C244.193 204.389 244.35 204.624 244.585 204.467C248.603 201.698 252.678 198.124 257.304 196.393C257.99 196.02 257.597 194.922 256.931 195.197Z" fill="#F47892"/>
<path d="M156.498 229.568C156.586 238.864 157.498 248.119 157.587 257.415C157.588 258.435 159.314 258.472 159.234 257.335C158.753 247.961 158.018 238.843 157.125 229.489C157.203 229.097 156.497 229.058 156.498 229.568Z" fill="#F47892"/>
<path d="M188.984 255.91C179.748 257.234 170.472 257.225 161.197 258.235C160.785 258.255 160.766 258.863 161.178 258.843C170.474 259.264 179.75 259.274 188.986 257.95C190.241 257.792 190.239 255.752 188.984 255.91Z" fill="#F47892"/>
<path d="M194.69 255.414C194.18 255.414 193.749 255.532 193.298 255.749C192.612 256.122 193.241 257.063 193.907 256.787C194.24 256.65 194.574 256.512 194.907 256.374C195.456 256.178 195.2 255.413 194.69 255.414Z" fill="#F47892"/>
<path d="M200.593 254.956C200.122 254.761 199.592 254.859 199.063 254.958L197.279 255.215C196.651 255.294 196.672 256.216 197.28 256.234C197.79 256.234 198.28 256.331 198.79 256.331C199.398 256.35 199.986 256.467 200.535 256.27C201.202 255.995 201.26 255.191 200.593 254.956Z" fill="#F47892"/>
<path d="M166.868 243.559C171.919 235.592 176.421 227.31 181.648 219.48C181.962 218.93 181.137 218.461 180.726 218.99C175.42 226.704 169.427 234.28 165.298 242.737C164.809 243.66 166.281 244.462 166.868 243.559Z" fill="#F47892"/>
<path d="M179.775 228.386C175.076 235.098 170.651 241.967 166.403 248.973C165.659 250.15 167.602 251.148 168.248 249.951C172.3 242.906 176.548 235.9 181.07 229.051C181.638 228.246 180.343 227.581 179.775 228.386Z" fill="#F47892"/>
<path d="M183.918 232.676C182.921 235.128 180.687 237.131 179.14 239.271C177.456 241.587 175.851 244.02 174.245 246.454C173.521 247.533 175.307 248.806 176.012 247.825C177.813 245.43 179.163 242.742 180.69 240.191C182.178 237.836 184.216 235.794 185.076 233.008C185.447 232.164 184.27 231.93 183.918 232.676Z" fill="#F47892"/>
<path d="M186.942 236.438C185.102 239.539 182.987 242.483 181.147 245.583C180.54 246.584 182.189 247.524 182.796 246.523C184.459 243.285 186.378 240.302 188.12 237.182C188.492 236.338 187.393 235.712 186.942 236.438Z" fill="#F47892"/>
<path d="M190.808 238.532C189.986 240.102 189.164 241.672 188.244 243.222C187.187 244.949 185.855 246.52 184.975 248.384C184.642 249.031 185.525 249.717 186.035 249.206C188.699 246.575 190.048 242.357 191.632 239.002C191.828 238.531 191.102 238.081 190.808 238.532Z" fill="#F47892"/>
<path d="M194.417 238.332C193.714 241.353 191.677 243.905 190.307 246.691C189.955 247.437 191.073 247.965 191.406 247.318C192.599 244.394 194.557 241.725 195.182 238.586C195.279 238.096 194.514 237.842 194.417 238.332Z" fill="#F47892"/>
<path d="M197.614 239.172C197.088 241.82 195.227 243.999 193.955 246.295C193.465 247.217 194.839 248 195.328 247.078C196.639 244.586 198.422 242.289 198.87 239.524C199.045 238.641 197.79 238.289 197.614 239.172Z" fill="#F47892"/>
<path d="M200.401 241.052C200.206 242.033 199.913 242.994 199.541 243.838C199.169 244.681 200.386 245.229 200.738 244.483C201.149 243.444 201.462 242.384 201.578 241.286C201.616 240.58 200.557 240.267 200.401 241.052Z" fill="#F47892"/>
<path d="M171.765 166.637C177.16 168.22 182.85 170.371 188.049 172.425C194.858 175.104 201.9 177.116 208.708 179.796C209.65 180.187 210.276 178.578 209.334 178.187C202.997 175.703 196.484 173.592 190.107 171.304C186.772 170.131 183.476 168.762 179.984 167.864C177.375 167.141 174.589 165.771 171.823 165.833C171.412 165.853 171.393 166.461 171.765 166.637Z" fill="#F47892"/>
<path d="M212.496 181.772C212.751 182.027 213.124 182.203 213.555 182.085C213.771 182.026 213.888 181.947 214.123 181.79C214.613 181.378 214.436 180.731 214.102 180.358C213.69 179.869 213.16 179.967 212.631 180.066C212.219 180.086 211.906 180.635 211.926 181.047C212.064 181.38 212.221 181.616 212.496 181.772Z" fill="#F47892"/>
<path d="M307.266 224.579C307.084 218.833 306.587 213.127 305.993 207.401C305.953 207.087 305.541 207.107 305.483 207.401C305.469 213.108 305.554 218.835 305.639 224.561C305.742 229.68 305.14 235.27 305.872 240.309C306.089 241.78 308.206 241.385 307.773 239.974C306.474 235.229 307.409 229.502 307.266 224.579Z" fill="#F47892"/>
<path d="M302.415 218.211C302.322 222.27 302.346 226.252 302.448 230.35C302.57 233.841 302.201 237.744 302.97 241.058C303.108 241.901 304.579 241.683 304.44 240.84C303.888 237.468 304.237 233.663 304.096 230.27C303.875 226.25 303.753 222.249 303.749 218.17C303.826 217.268 302.493 217.308 302.415 218.211Z" fill="#F47892"/>
<path d="M298.754 223.294C298.753 222.784 297.949 222.726 297.93 223.334C298.012 226.511 297.996 229.669 298.078 232.846C298.139 235.101 297.592 237.337 298.497 239.454C298.831 240.337 300.125 239.982 299.908 239.021C298.863 234.022 299.171 228.373 298.754 223.294Z" fill="#F47892"/>
<path d="M294.29 230.359C294.352 233.124 294.041 236.223 294.613 238.988C294.81 240.047 296.222 239.614 296.299 238.711C296.532 236.005 296.097 233.064 295.918 230.377C295.838 229.24 294.191 229.32 294.29 230.359Z" fill="#F47892"/>
<path d="M313.068 149.774C312.931 149.441 312.676 149.186 312.381 149.128C312.224 148.893 311.949 148.736 311.538 148.756C306.164 149.115 300.752 149.67 295.36 150.127C289.967 150.584 284.534 150.217 279.319 151.831C278.672 152.008 278.987 152.988 279.614 152.909C284.732 151.786 290.224 152.368 295.381 152.068C300.656 151.69 305.951 151.214 311.207 150.933C311.897 154.639 311.784 158.797 312.161 162.542C312.636 166.817 313.209 171.111 313.685 175.386C313.783 175.916 314.509 175.856 314.508 175.346C314.562 170.463 314.419 165.54 313.982 160.56C313.841 157.167 314.249 153.068 313.068 149.774Z" fill="#F47892"/>
<path d="M317.261 146.122C317.339 145.22 316.279 144.907 315.593 145.28C315.495 145.261 315.495 145.261 315.397 145.241C306.847 145.682 298.159 145.79 289.57 146.427C288.844 146.486 288.963 147.427 289.571 147.446C298.221 148.045 306.594 147.467 315.242 147.046C316.309 154.497 316.73 162.125 317.464 169.714C317.464 170.224 318.19 170.165 318.287 169.674C318.298 161.928 316.819 153.987 317.261 146.122Z" fill="#F47892"/>
<path d="M442.56 200.506C436.166 181.391 422.576 164.109 403.524 156.343C387.671 149.928 366.701 144.636 350.136 151.538C349.816 145.969 350.124 140.32 349.294 134.751C348.405 128.457 346.319 122.027 344.253 116.008C340.122 103.971 333.226 93.0157 324.195 84.0826C306.192 66.4322 278.746 57.8134 254.384 53.6822C228.158 49.1805 201.574 57.7602 180.587 73.5704C170.398 81.23 162.309 91.1427 155.319 101.682C148.877 111.514 142.496 122.582 139.273 134.176C124.619 130.956 109.417 127.423 94.3162 127.989C96.2739 124.809 98.0549 121.493 98.9923 117.805C99.0703 117.413 98.5994 117.217 98.4233 117.59C96.6623 121.318 94.4499 124.753 92.0414 128.148C91.8258 128.207 91.5315 128.149 91.3159 128.208C88.9235 128.446 86.5311 128.684 84.0998 129.118C85.8619 126.409 87.722 123.72 89.6608 121.149C90.6399 119.815 88.8338 118.13 87.7566 119.445C85.1519 122.802 82.7239 126.295 80.2958 129.789C70.2962 131.878 60.6905 135.576 52.0673 140.998C28.6475 155.713 14.2665 186.499 16.5908 213.776C17.6835 226.738 22.2308 242.325 31.6938 251.649C42.0601 262.071 57.0322 269.841 70.3353 275.749C77.3597 278.879 84.6187 281.343 92.0142 283.119C100.665 285.247 109.746 285.728 118.573 286.973C136.01 289.523 153.311 292.76 170.749 295.31C206.408 300.566 241.715 306.058 276.79 314.257C294.033 318.298 311.393 321.75 328.636 325.791C344.604 329.578 359.392 330.582 375.548 327.27C389.45 324.528 403.074 318.571 414.066 309.44C424.666 300.74 432.047 288.75 437.289 276.232C447.538 251.353 451.238 226.599 442.56 200.506ZM421.538 291.35C413.432 303.4 401.654 311.356 388.206 316.43C383.246 318.299 378.168 319.736 373.09 320.663C378.929 316.421 383.688 310.434 388.605 305.192C389.643 304.073 387.916 302.506 386.878 303.625C381.765 308.828 376.593 313.815 370.989 318.41C370.009 319.235 370.265 320.509 370.972 321.058C364.756 322.065 358.344 322.523 351.989 322.177C356.241 318.23 359.923 313.559 364.017 309.377C367.994 305.274 371.872 301.151 374.867 296.343C375.318 295.617 374.121 294.971 373.67 295.697C366.994 305.687 356.391 311.837 348.948 321.062C348.694 321.317 348.635 321.612 348.577 321.906C345.066 321.615 341.692 321.148 338.259 320.466C330.021 318.827 321.723 316.973 313.523 315.139C318.636 309.426 323.866 303.635 328.978 297.923C331.994 294.546 334.854 290.934 337.517 287.284C339.475 284.614 341.748 282.415 342.803 279.159C343.135 278.001 341.232 277.317 340.802 278.455C339.531 281.771 336.572 284.343 334.477 287.189C331.637 290.703 328.621 294.079 325.506 297.436C320.472 302.756 313.613 308.02 309.6 314.359C307.364 313.812 305.108 313.363 302.97 312.836C304.85 310.559 306.553 308.145 308.453 305.77C311.508 301.687 315.27 298.153 318.757 294.462C326.259 286.472 333.703 278.267 340.773 269.885C341.831 268.668 340.005 267.081 338.967 268.2C331.72 276.445 324.217 284.435 316.519 292.386C312.934 296.057 309.27 299.611 306.058 303.458C303.767 306.265 301.671 309.111 299.301 311.801C296.967 311.235 294.632 310.668 292.278 310.2C300.777 298.738 310.022 288.137 320.17 278.124C321.424 276.946 319.422 275.223 318.286 276.322C307.608 286.434 296.912 297.153 288.492 309.243C288.002 309.146 287.512 309.048 286.943 308.833C284.216 308.189 281.587 307.564 278.841 307.018C279.585 306.351 280.232 305.663 280.859 305.074C283.719 302.483 286.423 299.656 289.028 296.809C294.435 291.155 299.566 285.344 305.209 280.043C306.463 278.865 304.48 277.043 303.226 278.221C297.897 282.973 292.901 288.097 287.926 293.123C283.459 297.639 278.698 301.586 274.074 305.866C271.053 305.164 268.111 304.578 265.07 303.974C269.421 301.576 273.339 297.258 276.61 293.626C280.783 289.052 285.426 285.183 288.46 279.669C289.243 278.295 287.104 277.258 286.341 278.534C283.366 283.754 278.741 287.524 274.549 291.687C270.866 295.338 266.947 298.637 262.773 301.682C262.166 302.173 261.951 302.742 262.167 303.192C259.813 302.724 257.361 302.237 255.007 301.769C257.907 299.491 260.61 296.663 263.334 294.248C267.664 290.419 271.817 286.453 275.892 282.37C276.911 281.349 275.262 279.899 274.243 280.92C270.109 284.788 265.799 288.519 261.508 292.152C258.079 295.038 253.983 297.691 250.888 300.949C248.142 300.403 245.395 299.857 242.649 299.311C245.452 298.033 247.881 295.56 250.115 293.557C254.229 289.787 257.853 285.409 263.125 282.991C264.36 282.421 263.77 280.265 262.417 280.913C258.203 282.624 254.891 285.432 251.541 288.436C249.562 290.184 247.681 291.951 245.624 293.581C243.566 295.211 241.253 296.077 239.039 297.471C238.686 297.707 238.51 298.08 238.432 298.472C219.463 294.904 200.398 291.826 181.175 289.023C163.639 286.453 146.045 283.668 128.568 280.804C111.091 277.94 94.0471 276.998 77.4093 270.427C63.0474 264.716 48.1338 256.652 36.532 246.29C30.9961 241.315 28.3006 233.336 26.0966 226.474C23.5778 218.632 22.5491 210.475 22.8539 202.277C23.4843 186.803 30.8798 170.635 40.4766 158.779C49.564 147.433 62.3824 140.398 76.1258 136.402C75.695 137.03 75.3818 137.58 74.951 138.208C73.9134 139.837 76.5822 141.285 77.6198 139.656C78.5204 138.204 79.3033 136.83 80.2039 135.378C82.7723 134.767 85.3999 134.372 88.0274 133.977C86.0301 136.843 84.0134 139.806 82.448 143.063C81.6065 144.731 84.3143 145.983 84.9401 144.375C86.4068 140.588 88.5406 137.036 90.8316 133.719C106.696 132.388 122.879 135.606 138.532 138.413C138.318 139.492 138.103 140.571 137.987 141.669C137.675 143.748 140.598 144.432 141.204 142.411C144.955 129.699 151.199 118.297 158.11 107.131C164.903 96.0428 173.502 86.1296 183.75 78.1757C203.991 62.5232 229.95 55.5524 255.156 60.0552C277.596 64.1099 301.159 72.7722 318.277 88.2075C327.268 96.3169 333.418 106.92 337.49 118.232C339.654 124.27 341.524 130.759 342.394 137.151C343.342 143.661 342.349 150.193 343.396 156.723C343.632 158.095 344.477 158.977 345.379 159.564C346.498 160.602 348.068 160.915 349.675 160.011C361.023 153.193 375.401 155.747 387.524 158.871C399.942 162.054 410.91 166.886 419.98 176.133C438.986 195.41 444.288 220.527 438.923 245.969C435.509 262.113 430.779 277.69 421.538 291.35Z" fill="#3F92D1"/>
<path d="M68.5065 217.269C67.9142 213.583 65.6361 210.683 62.5354 208.843C61.4755 208.02 60.0628 207.433 58.6111 207.043C57.3556 206.691 56.1787 206.457 54.9822 206.321C49.4708 205.837 44.9034 207.783 41.7103 211.023C40.1036 212.437 38.9094 214.34 38.049 216.616C36.191 221.344 36.4128 226.894 39.2816 231.951C39.5173 232.304 39.7726 232.558 40.1649 232.636C40.5968 233.028 41.0286 233.42 41.5781 233.733C42.4614 234.419 43.5993 234.849 44.7373 235.279C50.3885 238.136 58.1346 237.637 63.8366 233.062C67.5792 230.136 69.139 221.779 68.5065 217.269ZM62.9299 228.905C60.8563 233.693 52.6594 234.407 48.3439 233.549C42.4397 232.477 40.1393 227.126 39.9766 221.791C39.9754 220.772 40.0919 219.673 40.2675 218.791L40.287 218.692C40.3455 218.398 40.3845 218.202 40.5411 217.927C40.5606 217.829 40.5996 217.633 40.7172 217.555C41.6166 215.082 43.3208 213.178 45.4373 211.764C47.7304 210.487 50.397 209.895 52.9069 209.579C58.2406 208.906 61.4404 211.786 64.4452 215.646C67.0376 219.016 64.4167 225.53 62.9299 228.905Z" fill="#3F92D1"/>
<path d="M73.5487 237.032C72.9206 236.602 72.2731 236.269 71.5865 236.132C70.4291 235.8 69.1936 235.86 68.0763 236.352L67.9587 236.43C65.4493 237.257 63.1567 239.044 62.2567 241.006C60.2611 245.401 63.131 251.478 67.7803 252.708C73.4104 254.134 77.4846 249.54 77.8318 244.205C77.9466 241.577 76.0998 238.559 73.5487 237.032ZM68.1905 251.159C64.4044 250.202 62.6345 245.771 63.4348 242.26C63.9229 240.318 65.9999 238.59 68.176 237.901C68.2741 237.921 68.3722 237.94 68.4898 237.862C68.7054 237.802 68.9211 237.743 69.1368 237.684C69.4505 237.645 69.7642 237.605 70.078 237.566C73.2355 237.582 76.1422 241.422 76.165 244.384C76.4442 248.62 72.3689 252.193 68.1905 251.159Z" fill="#3F92D1"/>
<path d="M59.0018 205.591C59.8455 205.963 60.5109 204.668 59.6672 204.296C50.1708 200.266 36.7639 207.184 34.3821 217.11C34.3236 217.405 34.716 217.483 34.8725 217.208C37.7854 208.713 50.251 201.914 59.0018 205.591Z" fill="#3F92D1"/>
<path d="M36.3354 209.852C37.1763 207.674 40.9791 205.983 42.9195 204.942C46.0358 203.115 49.1732 202.719 52.762 202.617C53.5857 202.577 53.7412 201.282 52.839 201.205C49.3282 200.914 46.1127 201.702 43.0355 203.334C40.6442 204.591 36.4301 206.812 35.6683 209.617C35.4727 210.088 36.1398 210.323 36.3354 209.852Z" fill="#3F92D1"/>
<path d="M37.8595 204.751C40.1315 202.042 44.7792 201.743 48.0537 201.171C48.7987 201.013 48.7976 199.993 47.9935 199.935C45.8558 199.918 43.6407 200.803 41.6607 201.531C40.014 202.121 38.3282 202.907 37.4277 204.36C37.2516 204.732 37.7029 205.026 37.8595 204.751Z" fill="#3F92D1"/>
<path d="M89.5845 285.083C71.928 279.532 53.0338 272.003 37.9993 260.958C30.5213 255.495 24.1595 248.52 20.4827 239.836C16.8649 231.368 15.2076 222.27 12.3349 213.644C12.1973 213.31 11.7464 213.527 11.9036 213.762C14.0518 223.467 15.6506 232.859 19.4261 242.073C22.6705 249.855 28.7765 256.065 35.1756 261.314C42.5365 267.366 51.0326 271.299 59.4898 275.428C69.1634 280.104 78.9145 283.879 89.1944 287.045C90.509 287.612 90.9186 285.552 89.5845 285.083Z" fill="#3F92D1"/>
<path d="M49.5642 273.556C41.4599 269.191 33.7868 264.708 27.6602 257.577C24.7736 254.148 21.8674 250.817 19.5687 246.995C17.5843 243.644 16.7556 239.095 14.3795 236.175C13.9671 235.685 13.2616 236.157 13.5564 236.725C15.1089 239.685 15.368 243.509 16.9991 246.586C19.2199 250.8 21.9694 254.406 25.0132 258.07C31.6113 265.907 39.5596 271.056 48.351 276.067C49.7442 276.752 51.036 274.358 49.5642 273.556Z" fill="#3F92D1"/>
<path d="M166.518 102.278C166.929 101.748 165.948 101.043 165.536 101.573C160.425 108.305 155.687 115.723 151.753 123.2C147.663 130.951 145.378 139.367 142.916 147.645C142.505 149.195 144.859 149.663 145.368 148.133C148.006 139.991 150.116 131.948 153.794 124.217C157.336 116.663 161.681 109.167 166.518 102.278Z" fill="#3F92D1"/>
<path d="M163.469 111.969C155.207 124.804 150.359 139.44 147.571 154.485C147.278 155.956 149.613 156.522 149.925 154.953C153.164 140.201 157.051 125.783 164.764 112.634C165.136 111.791 163.939 111.145 163.469 111.969Z" fill="#3F92D1"/>
<path d="M217.65 52.8006C231.943 48.6077 246.965 48.9443 261.657 50.9483C269.895 52.0768 278.115 54.3232 285.884 57.2957C292.221 59.7795 298.05 63.2836 304.25 65.944C305.564 66.5113 306.661 64.5882 305.267 63.9033C298.439 60.8121 291.905 57.2695 284.881 54.6492C277.582 51.8723 269.775 50.1158 262.027 49.0848C247.159 46.9437 231.411 47.1766 217.296 52.0165C216.767 52.1151 217.101 52.9973 217.65 52.8006Z" fill="#3F92D1"/>
<path d="M228.742 44.7085C239.879 42.5391 252.098 43.6436 263.278 44.8474C275.046 46.1681 285.014 50.9033 295.884 55.206C297.394 55.8123 298.549 53.5949 297.038 52.9886C285.109 48.3733 274.593 43.8348 261.589 42.5742C250.664 41.6252 239.112 41.2651 228.486 43.9439C227.956 44.0425 228.212 44.8071 228.742 44.7085Z" fill="#3F92D1"/>
<path d="M347.538 286.626C341.504 292.359 335.902 298.994 330.653 305.393C328.362 308.2 324.247 311.46 322.779 314.737C322.447 315.384 322.742 316.462 323.644 316.54C326.822 316.968 329.796 310.728 331.343 308.589C336.689 301.189 342.82 294.456 348.5 287.429C348.813 286.879 348.047 286.115 347.538 286.626Z" fill="#3F92D1"/>
<path d="M354.779 290.717C349.824 297.174 344.104 302.868 338.364 308.659C336.209 310.78 332.055 313.726 331.332 316.845C331.176 317.63 331.707 318.551 332.511 318.609C332.609 318.628 332.609 318.628 332.707 318.648C333.609 318.725 334.217 318.234 334.353 317.548C336.272 314.565 339.27 311.796 341.62 309.205C346.615 303.571 351.786 298.074 356.251 292.029C356.858 291.028 355.582 289.755 354.779 290.717Z" fill="#3F92D1"/>
<path d="M363.47 293.159C358.813 303.244 347.346 308.101 341.452 317.226C340.708 318.404 342.122 320.011 343.436 319.558C347.082 318.142 350.273 312.863 352.878 310.016C357.462 304.912 362.968 300.808 365.589 294.294C366.176 292.881 364.155 291.765 363.47 293.159Z" fill="#3F92D1"/>
<path d="M378.714 299.045C375.62 302.814 372.29 306.23 368.685 309.489C365.197 312.67 360.788 315.872 358.518 320.11C357.715 321.582 359.619 322.776 360.755 321.677C364.164 318.378 367.18 314.492 370.51 311.076C373.958 307.581 377.425 303.989 379.637 299.534C379.93 299.083 379.126 298.515 378.714 299.045Z" fill="#3F92D1"/>
<path d="M245.905 281.402C243.396 283.248 240.986 285.114 238.733 287.215C235.892 289.709 232.757 292.144 230.269 294.912C229.349 295.952 230.802 297.873 231.919 296.871C234.349 294.908 236.287 292.336 238.462 290.118C241.028 287.467 243.771 284.954 246.691 282.578C247.317 281.989 246.63 280.833 245.905 281.402Z" fill="#3F92D1"/>
<path d="M232.512 283.123C230.532 284.361 228.553 285.598 226.495 286.718C224.516 287.956 222.379 288.959 220.557 290.431C219.205 291.59 220.443 293.569 222.03 292.764C224.088 291.644 225.93 290.073 227.733 288.698C229.634 287.343 231.554 285.889 233.357 284.514C234.395 283.905 233.453 282.494 232.512 283.123Z" fill="#3F92D1"/>
<path d="M340.527 170.121C339.939 170.514 340.489 171.337 341.058 171.042C373.437 153.827 424.877 169.97 428.843 210.013C429.081 212.915 433.611 212.694 433.373 209.792C428.953 166.906 374.472 149.648 340.527 170.121Z" fill="#3F92D1"/>
<path d="M400.998 177.762C394.974 174.219 387.853 172.599 381.066 171.351C373.788 170.006 365.789 171.78 358.375 171.631C357.552 171.671 357.396 172.966 358.279 173.141C363.889 174.155 369.537 173.953 375.244 173.966C382.363 174.056 389.759 176.343 396.136 179.14C408.792 184.716 415.001 195.535 418.584 208.278C419.312 210.768 422.821 209.529 422.289 207.078C419.628 194.314 412.008 184.438 400.998 177.762Z" fill="#3F92D1"/>
<path d="M456.318 335.379C454.571 333.91 452.706 332.52 450.959 331.051C453.271 329.166 455.505 327.163 457.798 325.376C459.953 323.765 457.792 320.277 455.538 321.868C452.716 323.754 450.228 326.012 447.72 328.368C447.367 328.094 447.014 327.819 446.66 327.545C444.56 325.802 440.457 321.825 437.457 322.554C436.928 322.653 436.556 323.497 436.968 323.986C439.089 326.651 442.014 328.864 444.507 331.195C444.605 331.215 444.684 331.332 444.684 331.332C442.274 333.708 439.865 336.084 437.298 338.224C436.063 339.304 437.282 341.382 438.693 340.439C441.73 338.494 444.513 336.294 447.315 333.997C449.278 335.916 451.32 337.954 453.537 339.109C455.97 340.204 458.438 337.024 456.318 335.379Z" fill="#3F92D1"/>
<path d="M121.209 94.8715C119.688 93.5926 118.065 92.3821 116.544 91.1033C118.557 89.462 120.502 87.7184 122.497 86.1625C124.374 84.7604 122.493 81.7234 120.531 83.1085C118.074 84.7502 115.908 86.716 113.724 88.7673C113.417 88.5286 113.109 88.2899 112.802 88.0512C110.973 86.5336 107.401 83.0716 104.789 83.7061C104.329 83.792 104.005 84.5265 104.364 84.953C106.21 87.273 108.756 89.1995 110.927 91.2289C111.012 91.2459 111.081 91.3483 111.081 91.3483C108.983 93.4165 106.885 95.4847 104.651 97.3481C103.576 98.2884 104.637 100.097 105.865 99.2761C108.509 97.5829 110.932 95.6681 113.371 93.6678C115.08 95.3391 116.858 97.1129 118.788 98.1181C120.907 99.0719 123.055 96.3037 121.209 94.8715Z" fill="#3F92D1"/>
<path d="M415.131 116.951C414.246 114.736 413.655 112.579 413.182 110.344C414.025 110.206 414.868 110.067 415.731 109.831C417.417 109.555 419.123 109.18 420.711 108.884C422.103 108.549 423.083 107.725 423.239 106.43C423.531 104.959 422.706 103.469 421.43 102.706C420.802 102.275 420.017 102.119 419.174 102.257C417.723 102.376 416.331 102.711 414.41 103.145C413.665 103.303 412.92 103.46 412.175 103.618L411.429 103.776C411.016 102.266 410.563 100.953 410.091 99.7372C410.012 99.1097 410.051 98.4036 409.972 97.7762C409.97 96.2465 409.282 95.0901 408.007 94.3267C406.633 93.5437 404.711 93.4673 403.418 94.3317C402.261 95.0193 401.615 96.2163 401.715 97.7655C401.835 100.236 402.231 102.864 402.92 105.55C402.175 105.708 401.528 105.885 400.802 105.945C399.116 106.221 397.704 106.654 396.47 107.224C396.038 107.342 395.587 107.558 395.254 107.696C394.803 107.912 394.333 108.227 394.059 108.58C393.804 108.835 393.647 109.11 393.589 109.404C392.983 110.915 393.73 112.797 395.28 113.717C396.281 114.324 397.399 114.342 398.516 113.851C400.437 112.907 402.672 112.434 404.888 112.059C405.852 114.902 407.13 117.705 408.427 120.41C408.801 121.096 409.292 121.703 409.841 122.016C411.019 122.76 412.685 122.582 413.92 121.502C415.272 120.343 415.74 118.499 415.131 116.951ZM413.115 120.424C412.37 121.092 411.311 121.289 410.585 120.839C410.212 120.663 409.878 120.29 409.662 119.84C408.188 116.997 406.95 113.998 406.005 111.058L405.71 110.489L405.181 110.588C402.749 111.022 400.2 111.535 397.946 112.616C397.143 113.068 396.476 112.833 396.024 112.539C395.121 111.952 394.551 110.717 394.923 109.873L394.982 109.579L395.099 109.501C395.256 109.226 395.491 109.069 395.824 108.931C396.157 108.793 396.608 108.577 397.04 108.459C398.157 107.967 399.451 107.613 401.157 107.239C402.117 107.022 402.961 106.884 403.921 106.667L404.568 106.49L404.391 105.843C403.741 102.96 403.267 100.215 403.068 97.6268C403.008 96.3913 403.635 95.8023 404.105 95.488C405.026 94.9575 406.36 94.9168 407.361 95.5237C407.91 95.8369 408.597 96.4833 408.638 97.8168C408.6 98.5229 408.659 99.2485 408.719 99.974L408.778 100.19C409.329 101.523 409.762 102.934 410.215 104.758L410.392 105.405L412.411 104.991C413.156 104.833 413.901 104.675 414.647 104.517C416.47 104.064 417.941 103.847 419.313 103.61C420.882 103.412 422.119 104.882 421.944 106.275C421.846 106.765 421.514 107.413 420.435 107.708C418.73 108.082 417.141 108.378 415.455 108.655C414.396 108.852 413.239 109.03 412.181 109.227L411.534 109.404L411.711 110.051C412.282 112.306 412.971 114.992 413.915 117.423C414.368 118.736 413.84 119.855 413.115 120.424Z" fill="#3F92D1"/>
</g>
<defs>
<clipPath id="clip0">
<rect width="460.8" height="274" fill="white" transform="translate(54.1308 0.909912) rotate(11.2475)"/>
</clipPath>
</defs>
</svg>
