<svg width="199" height="165" viewBox="0 0 199 165" fill="none" xmlns="http://www.w3.org/2000/svg">
<path d="M149.776 30.8279C147.707 31.1513 144.605 31.6363 142.536 31.9597C141.502 32.1213 139.596 33.4855 138.725 34.688C138.562 33.6472 139.433 32.4447 141.502 32.1213C134.262 33.2531 126.86 33.3441 120.655 34.3141C111.184 34.7285 100.842 36.3453 91.3711 36.7596C87.0715 36.3655 83.9688 36.8505 81.9004 37.1739C80.8662 37.3356 78.7977 37.6589 77.7635 37.8206C76.7293 37.9823 74.6608 38.3057 73.4639 37.4266L73.3012 36.3858C74.1727 35.1833 75.3696 36.0624 76.4039 35.9007C77.4381 35.739 78.4723 35.5774 80.5407 35.254C82.6092 34.9306 85.7119 34.4456 87.7803 34.1222C93.1141 34.3546 97.251 33.7079 102.585 33.9403C112.927 32.3235 122.398 31.9092 132.903 31.3332C137.04 30.6865 141.339 31.0806 146.51 30.2722L147.545 30.1105L148.579 29.9488C150.647 29.6254 150.81 30.6662 149.776 30.8279Z" fill="white"/>
<path d="M155.54 40.5891C150.368 41.3975 145.197 42.2059 139.863 41.9735C134.692 42.7819 129.359 42.5495 124.187 43.3579C113.683 43.9339 103.178 44.5099 91.8011 46.2884C85.5958 47.2585 79.2278 47.1878 74.0567 47.9962C73.0224 48.1578 72.697 46.0762 73.7312 45.9146C78.9024 45.1062 84.2362 45.3386 89.4073 44.5302C94.5784 43.7218 99.9122 43.9542 105.083 43.1458C115.588 42.5698 126.093 41.9938 137.632 41.2561C141.769 40.6094 146.94 39.801 151.24 40.195C152.274 40.0334 154.343 39.71 155.54 40.5891C155.377 39.5483 155.377 39.5483 155.54 40.5891C155.377 39.5483 155.377 39.5483 155.54 40.5891C155.377 39.5483 155.54 40.5891 155.54 40.5891Z" fill="white"/>
<path d="M71.0588 55.9284C74.1615 55.4434 77.2642 54.9583 80.5295 55.5141C83.6322 55.0291 86.7349 54.544 88.966 55.2615C95.1714 54.2914 100.342 53.483 106.711 53.5537C118.25 52.816 129.789 52.0783 141.328 51.3406C147.533 50.3706 154.936 50.2796 161.304 50.3503L161.466 51.3911C160.432 51.5528 160.432 51.5528 159.398 51.7145C154.227 52.5229 148.893 52.2905 143.722 53.0989C137.516 54.069 132.183 53.8366 125.977 54.8066C114.275 54.5035 102.736 55.2412 91.1972 55.9789C88.0945 56.4639 84.8291 55.9082 81.7265 56.3932C78.6238 56.8782 75.5211 57.3633 71.2215 56.9692C70.35 58.1717 70.0246 56.0901 71.0588 55.9284Z" fill="white"/>
<path d="M19.918 115.102C22.916 107.17 31.7358 102.593 39.6842 99.2175C48.6668 95.6808 59.009 94.064 69.3512 92.4472C72.4539 91.9622 76.7535 92.3563 80.0189 92.912C72.2912 90.9214 64.5635 88.9308 59.4504 83.3327C55.8596 80.6954 54.1745 76.6939 52.4895 72.6924C50.8044 68.6909 50.1536 64.5277 50.537 60.2029C51.3038 51.5531 54.3017 43.6209 60.5651 36.2444C64.9226 30.232 73.5798 24.6137 82.7251 22.1178C99.6561 15.2061 120.503 13.0133 139.061 16.5095C147.823 18.3384 156.91 22.2489 165.126 27.3619C173.342 32.475 179.978 41.0337 179.373 50.7242C179.699 52.8058 178.827 54.0083 178.119 56.2515C178.119 56.2515 178.119 56.2515 178.281 57.2923C174.412 66.4271 166.08 74.127 157.097 77.6637C161.339 84.4642 165.581 91.2647 170.856 97.9035C171.019 98.9443 170.148 100.147 169.113 100.308C159.863 95.3572 150.613 90.4058 141.201 84.4137C125.467 92.2045 108.048 95.9939 90.8492 94.4176C95.3115 95.8525 98.5769 96.4082 102.005 98.0048C103.039 97.8431 102.168 99.0456 102.168 99.0456C103.202 98.8839 104.399 99.763 105.433 99.6013C109.024 102.239 112.615 104.876 116.205 107.513C119.796 110.151 121.481 114.152 123.166 118.154C123.817 122.317 123.271 125.601 122.888 129.926C118.635 143.385 105.841 149.65 92.3958 151.752C96.5327 151.106 101.704 150.297 105.678 148.61C107.746 148.286 109.652 146.922 111.721 146.599C112.755 146.437 113.789 146.275 114.661 145.073C115.695 144.911 116.566 143.709 117.601 143.547C117.601 143.547 117.601 143.547 117.763 144.588C116.892 145.79 116.892 145.79 115.858 145.952C114.823 146.114 113.952 147.316 112.918 147.478C111.012 148.842 108.943 149.165 106.875 149.489C102.901 151.176 98.7639 151.823 94.7897 153.51C86.6786 155.845 78.2421 156.097 69.6429 155.309C67.5745 155.633 65.3433 154.915 62.078 154.359C59.8468 153.642 57.7784 153.965 55.5472 153.248C54.513 153.41 55.2218 151.166 56.4187 152.045C58.4872 151.722 60.7183 152.439 62.9495 153.157C65.1806 153.874 67.2491 153.551 69.4802 154.268C73.7798 154.662 78.0794 155.057 81.1821 154.571C84.2848 154.086 88.4216 153.44 91.5243 152.955C87.3874 153.601 83.2505 154.248 78.9509 153.854C68.446 154.43 58.6499 152.763 48.6911 150.055C48.145 153.339 48.7958 157.502 49.2839 160.624C49.6093 162.706 47.5409 163.029 47.2155 160.948C46.5646 156.785 43.8454 152.945 40.2546 150.307C36.6638 147.67 33.073 145.033 29.4822 142.395C20.7783 134.16 16.0486 124.237 19.918 115.102ZM134.995 85.3838C136.901 84.0196 138.807 82.6555 140.875 82.3321L141.909 82.1704C149.091 87.4451 155.947 90.6382 164 94.7104C160.956 88.789 158.074 83.9084 153.995 78.1487C153.832 77.1079 153.669 76.0671 154.704 75.9054C164.72 72.207 172.018 64.6688 175.725 54.4933L176.759 54.3316C177.142 50.0068 177.688 46.7227 176.003 42.7212C174.318 38.7197 171.599 34.8799 168.008 32.2426C160.664 25.9271 152.774 22.8957 143.849 20.0259C126.162 15.3272 106.187 16.3176 88.9304 21.1477C72.7083 25.8162 56.2655 35.8503 51.7919 54.6755C49.8282 62.4461 51.1299 70.7725 56.4057 77.4113C61.6815 84.0502 69.7346 88.1224 77.4623 90.113C86.2242 91.9419 95.8576 92.5684 105.328 92.1541C115.833 91.5781 126.013 88.9205 134.995 85.3838ZM45.7511 151.581C45.4257 149.499 45.263 148.458 45.9718 146.215C45.8091 145.174 46.8433 145.012 47.8775 144.851C56.8021 147.721 65.4013 148.509 75.0347 149.135C83.4712 148.882 92.9419 148.468 101.053 146.134C108.13 143.961 115.916 139.546 120.11 132.492C123.271 125.601 124.201 117.992 118.925 111.353C116.205 107.513 111.58 105.038 107.99 102.4C102.493 101.127 97.8681 98.6515 92.697 99.4599L92.5343 98.4191C93.5685 98.2574 95.7996 98.9748 96.8339 98.8132C93.5685 98.2574 90.1404 96.6609 86.875 96.1051C82.5754 95.711 77.2416 95.4786 71.9078 95.2462C62.4371 95.6606 52.2576 98.3182 43.1123 100.814C36.0354 102.987 27.0528 106.523 22.858 113.576C18.8258 121.67 22.5213 131.755 28.6687 137.191C33.7818 142.789 41.6722 145.821 45.7511 151.581Z" fill="white"/>
<path d="M107.769 107.766C105.701 108.089 103.632 108.413 101.401 107.695C99.3326 108.019 97.1014 107.301 95.033 107.625C90.7334 107.23 85.5623 108.039 81.2627 107.645C71.792 108.059 63.1928 107.271 53.7221 107.685C51.6536 108.009 48.3883 107.453 46.3198 107.776C44.2514 108.1 40.986 107.544 38.9175 107.867C37.8833 108.029 37.5579 105.947 38.5921 105.786C40.6606 105.462 42.8917 106.18 44.9602 105.856C47.1913 106.574 49.2598 106.25 51.3282 105.927C55.6278 106.321 60.7989 105.513 65.0985 105.907C74.5692 105.493 83.1684 106.281 92.6391 105.866C94.7076 105.543 97.9729 106.099 100.041 105.775C102.11 105.452 105.375 106.008 107.444 105.684C108.641 106.564 108.803 107.604 107.769 107.766Z" fill="white"/>
<path d="M97.5314 116.83C92.1976 116.598 88.0607 117.244 82.7269 117.012C73.2562 117.426 62.5886 116.961 53.1179 117.376C49.8525 116.82 46.7498 117.305 44.6814 117.628C41.5787 118.113 38.3133 117.558 36.2449 117.881C35.2107 118.043 34.8852 115.961 35.9195 115.799C37.9879 115.476 41.2533 116.032 43.3217 115.708C45.3902 115.385 48.6555 115.941 50.724 115.618C56.0578 115.85 60.1947 115.203 65.5285 115.436C74.9992 115.021 85.6669 115.486 95.1376 115.072C98.2402 114.587 100.471 115.304 103.574 114.819C104.608 114.657 106.677 114.334 107.874 115.213C108.908 115.051 110.976 114.728 112.173 115.607C113.207 115.446 113.37 116.486 112.336 116.648C110.267 116.971 107.165 117.456 104.934 116.739C101.831 117.224 99.7626 117.547 97.5314 116.83Z" fill="white"/>
<path d="M92.3023 124.045C97.6361 124.277 102.97 124.51 108.304 124.742C109.338 124.58 109.501 125.621 108.466 125.783C107.432 125.945 107.432 125.945 106.398 126.106C96.9273 126.521 88.4909 126.773 79.8917 125.985C70.421 126.399 60.7875 125.773 51.3168 126.187C45.983 125.955 40.6492 125.722 34.4439 126.692C33.4096 126.854 33.0842 124.773 35.1527 124.449C54.2568 124.661 73.1982 123.833 92.3023 124.045Z" fill="white"/>
<path d="M53.1403 76.8555L54.3372 77.7347C54.3372 77.7347 54.4999 78.7755 55.5342 78.6138C55.6969 79.6546 54.8254 80.857 54.6627 79.8162C53.4657 78.9371 53.4657 78.9371 52.2688 78.058C52.1061 77.0172 50.9092 76.1381 50.7464 75.0973C49.3868 73.1774 49.0614 71.0958 47.7018 69.1759C46.0167 65.1744 45.3659 61.0112 45.7493 56.6864C45.5866 55.6456 46.6208 55.4839 46.7835 56.5247C47.4343 60.6879 48.0851 64.8511 48.5733 67.9734C48.8987 70.055 50.2583 71.9749 51.4553 72.8541C51.9434 75.9764 53.1403 76.8555 53.1403 76.8555Z" fill="white"/>
<path d="M181.221 55.7664C181.93 53.5232 181.605 51.4416 181.279 49.36C180.628 45.1968 179.978 41.0337 177.258 37.1938C172.854 29.3525 163.441 23.3604 155.551 20.329C153.157 18.5708 150.926 17.8533 147.66 17.2976C144.395 16.7418 141.13 16.1861 138.899 15.4686C137.864 15.6303 138.736 14.4278 138.736 14.4278C141.838 13.9428 144.07 14.6602 147.335 15.216C150.6 15.7717 152.832 16.4892 156.097 17.0449C160.559 18.4798 165.184 20.9555 168.775 23.5928C176.991 28.7058 183.626 37.2646 184.219 47.8342C184.545 49.9158 183.998 53.1998 183.29 55.4431C183.452 56.4839 182.581 57.6864 181.709 58.8888C180.838 60.0913 179.966 61.2938 178.932 61.4555C179.966 61.2938 179.804 60.253 180.675 59.0505C180.512 58.0097 181.384 56.8072 181.221 55.7664Z" fill="white"/>
<path d="M131.171 13.478C129.974 12.5989 129.974 12.5989 131.171 13.478C129.974 12.5989 129.974 12.5989 130.846 11.3965L131.88 11.2348C132.914 11.0731 134.111 11.9522 135.145 11.7905C136.342 12.6696 136.505 13.7104 135.471 13.8721C133.402 14.1955 132.205 13.3164 131.171 13.478Z" fill="white"/>
<path d="M119.424 94.2154C125.955 95.3269 131.835 92.2752 137.715 89.2236C139.62 87.8594 140.655 87.6977 141.852 88.5769C144.083 89.2943 145.28 90.1734 147.511 90.8908C149.905 92.6491 153.333 94.2456 156.761 95.8422C157.958 96.7213 160.189 97.4387 162.583 99.197C163.78 100.076 166.011 100.794 167.208 101.673C168.405 102.552 167.37 102.713 166.336 102.875C163.071 102.319 160.514 99.5203 157.249 98.9646C153.821 97.368 151.427 95.6098 147.999 94.0132C145.768 93.2958 144.571 92.4167 143.374 91.5376C142.34 91.6992 142.177 90.6585 141.143 90.8201C140.108 90.9818 139.074 91.1435 139.074 91.1435C136.134 92.6693 133.194 94.1952 129.22 95.8827C126.28 97.4085 122.143 98.0552 118.715 96.4587C117.681 96.6204 118.39 94.3771 119.424 94.2154Z" fill="white"/>
<path d="M13.8754 117.113C14.4215 113.829 15.1303 111.586 16.8733 109.181C18.6163 106.776 21.3936 104.209 23.2993 102.845C26.0766 100.279 30.0508 98.591 33.1534 98.106C36.0934 96.5801 40.0676 94.8926 43.1702 94.4076C47.1444 92.7201 51.2813 92.0734 55.4182 91.4266C57.4866 91.1033 59.5551 90.7799 61.6235 90.4566C63.692 90.1332 65.7604 89.8098 67.9916 90.5273C67.9916 90.5273 67.9916 90.5273 68.1543 91.5681C66.0858 91.8914 65.0516 92.0531 62.9832 92.3765C60.9147 92.6998 59.8805 92.8615 57.8121 93.1849C54.7094 93.6699 50.5725 94.3166 47.6325 95.8425C40.5557 98.015 34.5131 100.026 28.6331 103.078C25.6932 104.603 22.7532 106.129 21.0102 108.534C19.2672 110.939 17.5241 113.344 16.8153 115.587C15.5604 121.115 16.5367 127.359 19.4187 132.24C20.941 135.201 23.4976 138 25.0199 140.96C26.2168 141.84 27.5765 143.759 28.7734 144.639C29.9703 145.518 31.33 147.438 32.5269 148.317C32.6896 149.358 32.6896 149.358 31.6554 149.519C30.4584 148.64 29.2615 147.761 28.0646 146.882C26.8676 146.003 25.6707 145.124 24.3111 143.204C21.7545 140.405 20.3949 138.485 18.8725 135.524C14.6309 128.724 13.8174 123.52 13.8754 117.113Z" fill="white"/>
<path d="M116.204 12.6191C114.135 12.9425 113.101 13.1042 111.033 13.4275C107.93 13.9126 104.827 14.3976 100.69 15.0443C94.485 16.0144 87.4081 18.187 81.5282 21.2386C79.4598 21.562 78.5883 22.7645 76.6825 24.1286C74.7768 25.4928 73.9053 26.6952 71.8368 27.0186C70.8026 27.1803 70.6399 26.1395 70.4772 25.0987C71.3487 23.8962 73.2544 22.5321 74.2887 22.3704C76.1944 21.0062 78.2629 20.6829 79.1344 19.4804C82.0743 17.9546 85.0143 16.4287 89.1512 15.782C92.2538 15.297 96.228 13.6095 99.3307 13.1244C102.433 12.6394 106.57 11.9927 109.673 11.5076C111.741 11.1843 113.81 10.8609 115.007 11.74C117.075 11.4167 119.306 12.1341 120.503 13.0132C119.306 12.1341 117.238 12.4575 116.204 12.6191Z" fill="white"/>
<path d="M64.9228 30.232C64.9228 30.232 63.8886 30.3937 64.9228 30.232C63.8886 30.3937 63.8886 30.3937 64.9228 30.232C63.7259 29.3529 64.5974 28.1504 64.7601 29.1912C64.7601 29.1912 64.7601 29.1912 65.7943 29.0295C65.6316 27.9887 66.6658 27.827 66.6658 27.827C66.8285 28.8678 66.9913 29.9086 65.957 30.0703C66.1197 31.1111 65.0855 31.2728 64.9228 30.232Z" fill="white"/>
</svg>
