<svg width="40" height="34" viewBox="0 0 40 34" fill="none" xmlns="http://www.w3.org/2000/svg">
<path opacity="0.3" d="M35.6583 0.574718C29.7583 1.97472 25.3583 7.47472 20.7583 11.0747C20.4583 11.3747 20.0583 11.5747 19.7583 11.8747C16.4583 8.27472 12.8583 4.87472 9.55833 1.27472C6.75833 -1.72528 1.85833 2.67472 4.25833 5.97472C7.05833 9.77472 10.6583 12.9747 14.1583 16.3747C9.85833 19.7747 5.55833 23.3747 1.55833 27.0747C-0.441667 27.9747 0.958333 32.1747 3.55833 30.6747C8.65833 27.6747 13.5583 24.1747 18.3583 20.5747C22.7583 25.5747 27.3583 30.4747 33.5583 33.1747C35.6583 34.0747 37.5583 31.4747 35.7583 29.8747C31.3583 25.8747 27.6583 21.1747 23.8583 16.5747C28.5583 13.0747 32.8583 9.37472 38.1583 6.67472C41.5583 4.87472 39.2583 -0.225282 35.6583 0.574718Z" fill="#FBCFD8"/>
</svg>
