<svg width="41" height="34" viewBox="0 0 41 34" fill="none" xmlns="http://www.w3.org/2000/svg">
<path d="M35.9865 0.414562C30.0865 1.81456 25.6865 7.31456 21.0865 10.9146C20.7865 11.2146 20.3865 11.4146 20.0865 11.7146C16.7865 8.11456 13.1865 4.71456 9.88652 1.11456C7.08652 -1.88544 2.18652 2.51456 4.58652 5.81456C7.38652 9.61456 10.9865 12.8146 14.4865 16.2146C10.1865 19.6146 5.88652 23.2146 1.88652 26.9146C-0.113481 27.8146 1.28652 32.0146 3.88652 30.5146C8.98652 27.5146 13.8865 24.0146 18.6865 20.4146C23.0865 25.4146 27.6865 30.3146 33.8865 33.0146C35.9865 33.9146 37.8865 31.3146 36.0865 29.7146C31.6865 25.7146 27.9865 21.0146 24.1865 16.4146C28.8865 12.9146 33.1865 9.21456 38.4865 6.51456C41.8865 4.71456 39.5865 -0.385438 35.9865 0.414562Z" fill="white"/>
</svg>
