<svg width="23" height="19" viewBox="0 0 23 19" fill="none" xmlns="http://www.w3.org/2000/svg">
<path d="M18.6841 1.12378C18.6565 1.12378 18.6289 1.12378 18.6013 1.12378C18.5461 1.09686 18.4633 1.12378 18.4081 1.17762C17.4696 2.14677 16.7243 3.27744 15.8685 4.32735C14.9852 5.37725 14.1019 6.42716 13.2186 7.47707C12.3353 8.5539 11.4796 9.63073 10.6515 10.7345C10.265 11.246 9.90619 11.7575 9.54734 12.2959C9.27131 12.6997 8.88486 13.1573 8.69163 13.615C7.86353 12.9689 7.22865 12.1882 6.56616 11.3806C6.0693 10.7614 5.48963 9.92686 4.77193 9.49613C4.79954 9.36152 4.66152 9.22692 4.4959 9.30768C3.88862 9.60381 3.33655 10.1153 2.81208 10.5191C2.20481 11.0037 1.56993 11.4883 1.07306 12.0805C1.01786 12.0805 0.962649 12.1613 0.990252 12.2151C1.84596 13.4804 3.06052 14.4495 4.24747 15.4187C5.57244 16.4955 6.98022 17.5185 8.24998 18.6761C8.33279 18.7569 8.4432 18.7569 8.52601 18.703C8.52601 18.703 8.52601 18.703 8.55362 18.703C8.85725 18.6492 9.16089 18.2454 9.35412 18.03C9.76817 17.5993 10.127 17.1416 10.5135 16.684C10.9827 16.1455 11.5072 15.634 11.9765 15.1226C12.6665 14.3688 13.329 13.5881 14.0191 12.8074C16.6691 9.76533 19.8711 7.26171 22.245 4.05814C22.3554 4.0043 22.4382 3.84277 22.3002 3.73509C21.1684 2.79287 20.1195 1.55451 18.6841 1.12378ZM13.8811 12.3497C13.2462 13.0766 12.6389 13.8304 12.0041 14.5303C11.5072 15.0956 10.9551 15.6341 10.4583 16.2263C10.127 16.6301 9.79577 17.0339 9.46453 17.4377C9.27131 17.6531 8.94007 18.1915 8.63643 18.4069C8.63643 18.38 8.60882 18.353 8.58122 18.353C6.23492 16.2263 3.33655 14.638 1.26629 12.2151C1.84596 11.7844 2.34282 11.2998 2.8949 10.8691C3.44697 10.4653 3.99904 9.92686 4.63392 9.60381C5.18599 10.3037 5.82087 10.9498 6.34533 11.6767C6.95261 12.4843 7.6151 13.3189 8.4432 13.938C8.60882 14.0457 8.80205 13.938 8.80205 13.7765C9.40933 12.6728 10.2926 11.6229 11.0655 10.5999C11.866 9.54997 12.7217 8.52698 13.5499 7.53091C14.378 6.53485 15.2337 5.53878 16.0894 4.54271C16.9727 3.51973 17.718 2.38906 18.6565 1.41991C18.6841 1.39299 18.6841 1.36607 18.7117 1.33915C19.8987 1.95832 20.7544 2.95439 21.7481 3.78893C19.5122 6.96558 16.4206 9.41536 13.8811 12.3497Z" fill="#3F92D1"/>
<path d="M2.0943 10.9229C2.53596 10.546 3.03282 10.1691 3.50208 9.84608C3.83332 9.60379 4.24738 9.41535 4.57862 9.14614C4.66143 9.06538 4.55102 8.93077 4.4406 9.01154C4.08176 9.30766 3.6401 9.52303 3.25365 9.79224C2.81199 10.1153 2.39794 10.4653 2.01149 10.8421C1.98389 10.9229 2.0391 10.9767 2.0943 10.9229Z" fill="#3F92D1"/>
<path d="M2.17718 10.573C2.48081 10.223 2.95007 9.95379 3.30892 9.65766C3.61256 9.44229 3.99901 9.22693 4.27504 8.98464C4.35785 8.90388 4.24744 8.76928 4.13703 8.85004C3.80578 9.14617 3.39173 9.36153 3.06049 9.63074C2.72925 9.89995 2.31519 10.1692 2.06676 10.5191C2.03916 10.573 2.12197 10.6268 2.17718 10.573Z" fill="#3F92D1"/>
<path d="M2.14964 10.1961C2.64651 9.68459 3.3366 9.33462 3.91627 8.93081C3.99908 8.85005 3.88867 8.71544 3.77825 8.7962C3.19858 9.22694 2.5913 9.63075 2.09444 10.1422C2.06683 10.1692 2.12204 10.223 2.14964 10.1961Z" fill="#3F92D1"/>
<path d="M8.52593 13.3189C8.47073 13.3727 8.55354 13.4804 8.63635 13.4265C8.82957 13.265 8.96759 12.9958 9.10561 12.7804C9.27123 12.5112 9.46445 12.242 9.63007 11.9459C9.65768 11.919 9.60247 11.8921 9.57487 11.919C9.43685 12.1344 9.24362 12.3228 9.10561 12.5382C8.91238 12.7804 8.74676 13.1035 8.52593 13.3189Z" fill="#3F92D1"/>
<path d="M8.44329 13.1573C8.71933 12.7535 9.07817 12.4036 9.3266 11.9998C9.35421 11.9459 9.299 11.919 9.2714 11.9728C8.96776 12.3766 8.58131 12.6997 8.30527 13.1035C8.25006 13.1573 8.38808 13.2381 8.44329 13.1573Z" fill="#3F92D1"/>
<path d="M8.24987 13.0227C8.4431 12.8612 8.58112 12.6189 8.71913 12.4305C8.74674 12.3766 8.96757 12.1613 8.93996 12.1074C8.85715 12.1074 8.74674 12.2959 8.69153 12.3497C8.52591 12.5382 8.36029 12.7804 8.16706 12.915C8.05665 12.9689 8.16706 13.1035 8.24987 13.0227Z" fill="#3F92D1"/>
<path d="M11.0654 15.2302C10.5962 15.7417 10.1545 16.2801 9.65766 16.7916C9.40923 17.0608 9.1608 17.2762 8.93997 17.5454C8.82955 17.68 8.66393 17.7877 8.60873 17.9492C8.22228 17.6262 7.80822 17.33 7.42177 16.9801C6.95251 16.5493 6.37284 16.2532 5.90358 15.8494C5.87598 15.8494 5.87598 15.8494 5.87598 15.8763C6.17962 16.2532 6.62127 16.5763 7.03532 16.8724C7.55979 17.2493 8.08426 17.7069 8.55352 18.1377C8.60872 18.1915 8.66393 18.1646 8.69154 18.1107C8.71914 18.1107 8.74674 18.0838 8.74674 18.0569C8.80195 17.8415 9.1608 17.5723 9.29881 17.4377C9.54724 17.1685 9.82328 16.9262 10.0441 16.657C10.4306 16.2263 10.7618 15.7417 11.1482 15.311C11.1759 15.2302 11.093 15.1764 11.0654 15.2302Z" fill="#3F92D1"/>
<path d="M7.39419 16.7647C7.72543 17.0339 8.08428 17.33 8.41552 17.5992C8.44312 17.6262 8.47073 17.6262 8.52593 17.6262C8.55354 17.6262 8.58114 17.6262 8.60875 17.5992C9.29883 16.8455 10.2097 16.2263 10.7618 15.3648C10.7894 15.3379 10.7342 15.2841 10.7066 15.311C9.98892 16.0109 9.21602 16.6839 8.52593 17.4108C8.2499 17.1954 8.00147 16.9801 7.72543 16.7647C7.39419 16.5224 6.95253 16.2801 6.6765 15.984C6.6489 15.9571 6.59369 15.984 6.62129 16.0378C6.73171 16.3609 7.11816 16.5493 7.39419 16.7647Z" fill="#3F92D1"/>
<path d="M7.78074 16.5763C8.02917 16.7109 8.2224 16.8993 8.44323 17.0339C8.44323 17.0339 8.47083 17.0339 8.47083 17.0609C8.49843 17.0609 8.55364 17.0609 8.55364 17.0339C8.77447 16.7378 9.07811 16.5224 9.32654 16.2532C9.54737 16.0379 9.7958 15.8494 9.96142 15.6071C9.98902 15.5802 9.93382 15.5264 9.90621 15.5533C9.71299 15.7956 9.40935 15.984 9.16092 16.1994C8.94009 16.4148 8.69166 16.6301 8.47083 16.8724C8.30521 16.7647 8.11199 16.6301 7.94636 16.5224C7.75314 16.4148 7.53231 16.3071 7.33909 16.1725C7.31148 16.1456 7.28388 16.1725 7.31148 16.1994C7.4219 16.3609 7.58752 16.4686 7.78074 16.5763Z" fill="#3F92D1"/>
<path d="M18.9049 5.99646C18.132 6.21183 17.3315 6.48103 16.5862 6.80408C16.531 6.831 16.5586 6.88484 16.6138 6.88484C17.3867 6.61564 18.1596 6.40027 18.9325 6.13106C18.9877 6.10414 18.9878 5.99646 18.9049 5.99646Z" fill="#3F92D1"/>
<path d="M18.2148 6.56174C17.4419 6.75019 16.669 7.0194 15.9789 7.39629C15.9237 7.42321 15.9789 7.50397 16.0341 7.47705C16.7518 7.12708 17.4971 6.93863 18.27 6.69635C18.3252 6.64251 18.2976 6.53482 18.2148 6.56174Z" fill="#3F92D1"/>
<path d="M17.856 7.04639C16.8622 7.20791 15.8961 7.5848 14.9576 7.96169C14.9024 7.98861 14.93 8.06937 14.9852 8.04245C15.9513 7.69248 16.9174 7.4502 17.8836 7.15407C17.9664 7.15407 17.9388 7.04639 17.856 7.04639Z" fill="#3F92D1"/>
<path d="M17.4695 7.58474C16.669 7.88087 15.7581 8.12316 14.9024 8.28468C14.8472 8.28468 14.8748 8.39236 14.93 8.39236C15.4545 8.3116 15.9513 8.177 16.4482 8.04239C16.807 7.93471 17.1935 7.88087 17.5523 7.74627C17.6076 7.71934 17.5523 7.55782 17.4695 7.58474Z" fill="#3F92D1"/>
<path d="M16.8621 8.1501C16.1997 8.36546 15.5372 8.55391 14.9023 8.76927C14.8195 8.79619 14.8471 8.90388 14.9299 8.87696C15.5924 8.66159 16.2825 8.52699 16.9174 8.25778C16.9726 8.23086 16.9174 8.12318 16.8621 8.1501Z" fill="#3F92D1"/>
<path d="M16.2273 8.7962C15.5096 8.87697 14.8471 9.17309 14.1846 9.38846C14.1294 9.41538 14.157 9.49614 14.2122 9.49614C14.9023 9.28078 15.5648 9.06541 16.2549 8.93081C16.3101 8.90389 16.3101 8.7962 16.2273 8.7962Z" fill="#3F92D1"/>
<path d="M15.5373 9.4423C14.9576 9.60382 14.3779 9.81919 13.8259 10.0615C13.7707 10.0884 13.8259 10.1422 13.8535 10.1422C14.4331 9.92687 15.0404 9.81919 15.5925 9.5769C15.6477 9.52306 15.5925 9.41538 15.5373 9.4423Z" fill="#3F92D1"/>
<path d="M15.0127 9.98073C14.4606 10.1423 13.9086 10.3307 13.3565 10.5191C13.3013 10.5461 13.3289 10.6268 13.3841 10.5999C13.9362 10.4115 14.4883 10.2769 15.0403 10.0884C15.1231 10.0884 15.0955 9.95381 15.0127 9.98073Z" fill="#3F92D1"/>
<path d="M14.6816 10.4384C14.1571 10.573 13.6603 10.7883 13.1634 10.9498C13.1082 10.9768 13.1358 11.0575 13.191 11.0575C13.7155 10.896 14.2123 10.7345 14.7368 10.573C14.792 10.546 14.7644 10.4114 14.6816 10.4384Z" fill="#3F92D1"/>
<path d="M13.8258 11.1383C13.4946 11.2191 13.1633 11.3806 12.8321 11.5152C12.7769 11.5421 12.8045 11.6498 12.8597 11.6229C13.1909 11.5152 13.5498 11.4075 13.881 11.2729C13.9362 11.246 13.9086 11.1383 13.8258 11.1383Z" fill="#3F92D1"/>
<path d="M13.191 11.7036C12.9701 11.7844 12.7217 11.8651 12.5009 11.9459C12.4457 11.9728 12.4457 12.0805 12.5285 12.0536C12.7769 11.9997 12.9977 11.919 13.2186 11.8382C13.3014 11.8113 13.2738 11.6767 13.191 11.7036Z" fill="#3F92D1"/>
<path d="M12.7217 12.1344C12.6388 12.1344 12.556 12.1882 12.5008 12.2421C12.418 12.2959 12.3352 12.3228 12.2524 12.3498C12.2248 12.3498 12.2248 12.3767 12.2524 12.3767C12.3352 12.4305 12.418 12.3767 12.5008 12.3498C12.5836 12.3228 12.694 12.2959 12.7769 12.2421C12.8045 12.2152 12.7769 12.1344 12.7217 12.1344Z" fill="#3F92D1"/>
<path d="M19.2913 5.45801C18.3804 5.80798 17.4143 5.99642 16.5033 6.34639C16.4481 6.37331 16.5033 6.45408 16.5585 6.42716C17.4695 6.05026 18.4356 5.94258 19.3465 5.59261C19.4293 5.56569 19.3741 5.43109 19.2913 5.45801Z" fill="#3F92D1"/>
<path d="M19.4294 4.83887C18.6841 5.02731 17.9389 5.29652 17.1936 5.53881C17.1107 5.56573 17.1383 5.67341 17.2212 5.64649C17.9665 5.4042 18.7117 5.18884 19.457 4.97347C19.5675 4.94655 19.5123 4.81195 19.4294 4.83887Z" fill="#3F92D1"/>
<path d="M19.6225 4.30042C19.1256 4.43502 18.6288 4.59655 18.1319 4.73115C18.0767 4.75807 18.1043 4.83883 18.1595 4.83883C18.6564 4.73115 19.1808 4.62347 19.6501 4.46194C19.7329 4.38118 19.7053 4.2735 19.6225 4.30042Z" fill="#3F92D1"/>
<path d="M18.8497 4.21967C19.0981 4.16582 19.3466 4.11198 19.595 4.05814C19.6778 4.05814 19.6502 3.92354 19.5674 3.95046C19.3189 4.0043 19.0705 4.05814 18.8221 4.1389C18.7669 4.1389 18.7945 4.21967 18.8497 4.21967Z" fill="#3F92D1"/>
<path d="M15.1785 4.86576C15.3993 4.51579 15.7581 4.21966 16.0342 3.92353C16.2826 3.65433 16.531 3.33128 16.7519 3.03515C17.3039 2.30829 17.8284 1.52759 18.4633 0.881491C18.5461 0.800729 18.4081 0.666126 18.3253 0.746888C17.7732 1.33914 17.3039 2.01216 16.8071 2.65826C16.4758 3.08899 16.1446 3.54664 15.7857 3.95045C15.5373 4.21966 15.2613 4.51579 15.0956 4.83884C15.068 4.89268 15.1509 4.9196 15.1785 4.86576Z" fill="#3F92D1"/>
<path d="M15.2613 4.24659C15.7581 3.70818 16.1998 3.11592 16.669 2.55059C16.9175 2.22754 17.1935 1.93141 17.4971 1.63528C17.7456 1.36608 17.9388 1.06995 18.1872 0.800742C18.27 0.71998 18.132 0.585376 18.0492 0.666138C17.8284 0.881504 17.6628 1.12379 17.4695 1.36608C17.2211 1.63528 16.9727 1.87757 16.7519 2.1737C16.2274 2.84672 15.7581 3.54666 15.2061 4.19275C15.2061 4.21967 15.2337 4.27351 15.2613 4.24659Z" fill="#3F92D1"/>
<path d="M21.5274 2.6852C21.1409 2.36215 20.8097 1.9045 20.3128 1.7699C20.2576 1.7699 20.23 1.82374 20.2852 1.85066C20.7545 2.09295 21.1409 2.5506 21.5274 2.90057C21.9138 3.22362 22.3003 3.51974 22.6591 3.84279C22.7419 3.92356 22.8799 3.78895 22.7971 3.73511C22.3831 3.35822 21.969 3.00825 21.5274 2.6852Z" fill="#3F92D1"/>
<path d="M22.9627 3.38514C22.3278 2.92749 21.7757 2.30831 21.1132 1.87758C21.058 1.85066 21.0028 1.9045 21.058 1.95835C21.3617 2.22755 21.6653 2.52368 21.9965 2.79289C22.1346 2.90057 22.2726 3.00825 22.4106 3.08902C22.6038 3.22362 22.7142 3.38514 22.9075 3.51975C22.9627 3.62743 23.0731 3.46591 22.9627 3.38514Z" fill="#3F92D1"/>
<path d="M17.5523 9.25388C16.8898 10.0077 16.1445 10.6807 15.5096 11.4345C14.8471 12.2152 13.9914 12.8343 13.4394 13.7227C13.4118 13.7496 13.467 13.7766 13.467 13.7496C14.1295 12.9689 14.9576 12.3228 15.62 11.5421C16.2825 10.7884 17.0278 10.1153 17.6627 9.36157C17.7455 9.30773 17.6351 9.17312 17.5523 9.25388Z" fill="#3F92D1"/>
<path d="M17.4971 9.73844C16.8899 10.3576 16.3654 11.0037 15.7581 11.6229C15.2336 12.1344 14.6816 12.592 14.2951 13.2381C14.2675 13.2651 14.3227 13.292 14.3503 13.2651C14.792 12.6997 15.3717 12.2421 15.8961 11.7306C16.5034 11.1383 17.0555 10.4653 17.6351 9.84613C17.6904 9.76536 17.5799 9.65768 17.4971 9.73844Z" fill="#3F92D1"/>
</svg>
