<svg width="493" height="704" viewBox="0 0 493 704" fill="none" xmlns="http://www.w3.org/2000/svg">
<path d="M20.9148 119.301C42.4953 138.996 64.0758 158.69 87.2406 178.434C98.0308 188.281 108.821 198.128 119.611 207.975C128.867 216.189 139.707 224.454 147.279 235.783C162.472 256.86 156.818 285.199 154.483 308.89C151.998 337.329 149.463 367.351 148.563 395.84C145.127 454.351 144.86 512.963 146.227 570.042C147.361 584.336 146.861 600.164 147.995 614.458C149.229 625.588 148.829 638.25 151.597 651.012C154.416 662.191 160.503 670.305 171.493 673.821C182.434 678.92 196.793 676.205 209.468 676.606C266.554 676.826 325.275 675.514 383.946 675.785C391.868 676.035 398.206 676.235 406.177 674.903C409.346 675.003 409.446 671.838 407.912 670.205C420.387 676.937 438.115 667.991 444.852 655.53C448.271 647.716 450.156 638.27 450.456 628.773C450.756 619.277 451.106 608.198 451.407 598.701C452.808 554.385 454.159 511.651 457.144 467.384C459.896 380.333 462.698 291.7 465.45 204.649C466.201 180.908 467.001 155.585 467.752 131.843C468.102 120.764 468.502 108.102 468.853 97.0232C469.153 87.5267 466.334 76.3474 461.832 68.2835C460.297 66.6506 457.128 66.5504 455.544 66.5003C458.913 60.2696 457.579 52.3058 452.976 47.4073C448.473 39.3433 439.017 37.4601 431.095 37.2096C421.589 36.9091 412.033 38.1913 400.942 37.8407C391.436 37.5401 380.296 38.7723 370.79 38.4718C329.497 40.335 286.619 42.1481 245.326 44.0113C227.848 45.0431 210.42 44.4921 192.892 47.1066C180.117 49.8714 167.292 54.2189 157.486 63.4148C146.045 74.1434 144.011 88.338 146.729 102.683C149.497 115.445 158.503 131.573 148.597 143.934C142.009 151.648 132.653 146.599 126.416 143.233C115.425 139.717 104.435 136.201 93.4447 132.685C71.4639 125.652 47.8988 118.57 25.918 111.538C21.215 109.805 16.2618 115.986 20.9148 119.301ZM110.372 149.063C119.778 152.529 129.184 155.995 138.64 157.878C154.434 159.962 164.39 146.018 164.841 131.773C165.091 123.859 163.707 117.478 160.788 109.465C157.87 101.451 154.951 93.4368 156.836 83.9904C158.77 72.9613 168.526 65.3482 178.183 60.9005C189.423 56.5029 203.732 55.3709 216.457 54.1889C256.166 52.2756 297.409 51.9952 337.118 50.0819C359.349 49.2003 381.58 48.3189 405.395 47.4874C411.733 47.6878 416.486 47.838 422.873 46.4556C427.626 46.6059 432.429 45.1734 437.132 46.9064C440.301 47.0066 445.004 48.7396 446.488 51.9552C447.973 55.1707 449.507 56.8036 446.238 59.8689C444.554 62.9843 446.038 66.1998 447.572 67.8327C450.691 69.5155 452.325 67.9829 453.96 66.4503C453.91 68.033 452.325 67.9829 452.275 69.5656C456.778 77.6296 458.112 85.5933 457.812 95.0898C457.512 104.586 457.212 114.083 456.912 123.579C456.261 144.155 455.561 166.313 454.91 186.889C453.609 228.04 452.258 270.774 450.957 311.925C448.305 395.81 445.653 479.695 443.001 563.581C442.651 574.66 442.251 587.322 441.901 598.401C441.55 609.48 441.2 620.559 440.85 631.638C438.965 641.085 437.081 650.531 428.959 656.612C422.421 662.742 414.449 664.074 406.578 662.241C404.993 662.191 404.943 663.774 404.893 665.357C347.707 668.302 290.62 668.081 231.899 669.394C217.64 668.943 203.33 670.075 189.071 669.624C177.981 669.273 166.94 667.34 160.953 656.06C156.5 646.414 155.316 633.702 155.617 624.205C154.483 609.911 154.933 595.666 153.799 581.371C152.431 524.292 152.698 465.681 156.134 407.17C157.035 378.68 159.57 348.658 162.055 320.219C164.04 307.607 164.49 293.363 166.475 280.751C166.875 268.089 167.275 255.427 162.872 244.198C158.47 232.968 150.848 223.221 141.592 215.007C130.802 205.16 120.012 195.313 110.756 187.099C90.7095 169.038 69.129 149.343 49.0829 131.282C60.0733 134.798 72.648 138.364 83.6384 141.881C91.5101 143.714 100.916 147.18 110.372 149.063Z" fill="white"/>
<path d="M471.47 415.553C471.57 412.387 466.767 413.82 466.717 415.402C464.382 439.093 466.8 462.935 467.684 485.143C468.518 508.934 467.817 531.093 465.482 554.784C464.732 578.525 462.397 602.216 460.112 624.324C458.177 635.353 457.827 646.432 455.843 659.044C455.692 663.792 453.958 668.49 452.274 671.606C448.955 676.254 445.786 676.154 440.983 677.586C426.624 680.301 413.899 681.483 401.174 682.665C394.837 682.465 388.449 683.847 382.112 683.647C375.774 683.446 369.437 683.246 364.584 686.261C362.999 686.211 362.949 687.794 364.484 689.427C367.602 691.109 372.406 689.677 378.743 689.877C385.08 690.078 391.418 690.278 397.805 688.896C408.896 689.246 421.62 688.064 434.345 686.882C443.901 685.6 455.042 684.368 460.095 675.022C463.564 665.625 463.914 654.546 465.799 645.1C472.103 596.185 475.239 547.17 476.79 498.106C477.24 483.861 476.056 471.149 476.506 456.904C475.372 442.609 474.238 428.315 471.47 415.553Z" fill="white"/>
<path d="M145.694 386.243C147.879 367.3 148.479 348.307 150.664 329.365C150.965 319.868 152.849 310.422 153.199 299.343C153.5 289.846 155.334 281.983 154.05 272.436C152.716 264.472 151.432 254.926 146.929 246.862C142.376 240.381 136.239 233.849 128.317 233.599C125.148 233.499 125.048 236.664 126.582 238.297C129.701 239.98 132.82 241.663 134.304 244.878C137.423 246.561 138.907 249.777 140.391 252.992C144.944 259.474 146.278 267.437 146.028 275.351C145.728 284.848 145.478 292.761 145.178 302.258C144.877 311.754 142.993 321.2 142.743 329.114C140.007 365.467 137.272 401.82 134.487 439.756C132.252 460.281 130.017 480.807 132.536 501.482C132.536 501.482 134.07 503.115 134.12 501.533C139.473 482.69 140.074 463.697 140.674 444.704C142.909 424.179 143.509 405.186 145.694 386.243Z" fill="white"/>
<path d="M115.626 133.386C123.497 135.219 131.419 135.469 139.391 134.137C142.56 134.237 144.294 129.539 142.76 127.906C133.804 110.195 124.898 90.902 131.836 72.1095C137.04 58.0151 151.549 50.5522 165.958 46.2548C183.586 40.4748 202.648 39.4931 220.126 38.4613C242.407 35.9971 264.638 35.1156 286.869 34.234C299.544 34.6347 310.684 33.4026 323.359 33.8033C329.697 34.0037 336.034 34.204 340.787 34.3543C347.125 34.5547 353.462 34.755 359.799 34.9554C361.384 35.0054 361.434 33.4227 359.849 33.3726C353.512 33.1723 348.809 31.4393 342.472 31.2389C336.134 31.0386 331.381 30.8883 325.044 30.6879C313.953 30.3373 301.278 29.9366 290.188 29.586C266.373 30.4174 244.142 31.299 220.276 33.7131C201.214 34.6948 180.518 37.2092 162.89 42.9892C148.48 47.2866 132.337 56.2822 125.549 70.3265C117.027 89.0689 124.248 111.478 133.204 129.188C122.063 130.42 109.438 128.437 100.132 121.806C97.0136 120.123 93.6949 124.771 96.8135 126.454C101.517 128.187 107.754 131.552 115.626 133.386Z" fill="white"/>
<path d="M395.055 23.3954C398.224 23.4956 402.977 23.6458 406.196 22.1633C414.118 22.4137 420.505 21.0313 428.377 22.8645C441.001 24.8479 453.576 28.4142 462.832 36.6284C484.463 54.7397 478.759 84.6615 479.543 110.035C478.992 127.446 478.442 144.856 479.526 160.733C479.476 162.316 482.645 162.416 482.695 160.833C484.779 145.056 485.33 127.646 485.83 111.818C486.28 97.5738 488.315 83.3793 485.647 67.4517C484.463 54.7397 480.11 41.9275 469.32 32.0805C460.064 23.8662 449.123 18.7674 436.549 15.2012C428.677 13.368 419.171 13.0676 411.249 12.8171C406.496 12.6669 401.743 12.5166 398.524 13.9991C393.771 13.8489 389.018 13.6986 385.749 16.7639C384.115 18.2966 384.065 19.8793 385.599 21.5121C387.084 24.7277 391.837 24.878 395.055 23.3954Z" fill="white"/>
<path d="M166.29 687.915C156.834 686.032 150.646 681.083 146.144 673.019C135.603 655.259 147.394 633.451 138.439 615.74C136.954 612.525 133.686 615.59 133.636 617.173C134.87 628.302 134.52 639.381 135.754 650.51C135.453 660.007 138.272 671.186 144.359 679.3C150.496 685.832 158.268 690.83 167.724 692.713C174.011 694.497 185.102 694.847 193.124 691.932C194.708 691.982 194.758 690.399 193.174 690.349C183.668 690.049 175.696 691.381 166.29 687.915Z" fill="white"/>
</svg>
