<svg width="165" height="184" viewBox="0 0 165 184" fill="none" xmlns="http://www.w3.org/2000/svg">
<path d="M105.386 27.4643C91.0534 19.9665 75.0586 21.9883 62.5771 32.2858C52.3747 40.6392 45.3147 54.3381 45.6597 67.6269C45.8466 74.6194 48.4617 81.1976 50.2825 87.8374C51.4411 92.0627 51.6487 95.5809 49.8121 99.7304C48.7939 102.131 47.319 104.445 45.7889 106.556C44.0888 105.682 42.1449 106.284 40.6313 107.47C40.0113 107.971 39.6197 108.515 39.3836 109.232C39.3196 109.195 39.2557 109.159 39.1553 109.188C36.9366 109.38 35.0303 110.515 33.8102 112.376C32.845 113.787 32.8384 115.144 33.2246 116.552C33.1606 116.516 33.0967 116.48 32.9963 116.508C28.7686 116.672 28.5659 120.469 29.7498 123.603C29.0835 123.737 28.4635 124.237 27.8071 124.802C26.4491 126.16 26.6444 128.056 27.3506 129.645C27.5889 130.12 27.8273 130.595 28.102 131.005C26.9789 131.051 26.3689 131.982 26.1704 133.23C25.9278 135.304 27.703 137.242 29.0115 138.661C29.7254 139.489 30.576 140.224 31.4267 140.96C28.6148 146.089 36.7792 151.209 40.8907 147.664C41.0275 147.571 41.1004 147.442 41.1092 147.277C43.5132 148.55 46.0541 149.729 48.7218 150.385C50.5124 150.801 54.3472 150.586 53.7304 147.942C57.2188 148.041 62.1106 146.552 61.8654 142.502C64.5209 141.536 66.7636 139.656 65.9272 136.803C68.8651 135.486 72.1184 131.967 70.1588 129.16C72.2648 127.373 73.2918 124.807 70.849 122.407C70.7851 122.371 70.6571 122.299 70.5931 122.263C73.052 118.805 75.3642 115.009 78.8294 112.459C82.6045 109.659 87.118 110.932 91.2927 111.759C98.8291 113.209 106.444 112.577 113.469 109.402C129.782 102.033 134.887 82.9787 132.235 66.6018C129.774 49.7373 120.167 35.2151 105.386 27.4643ZM34.5591 145.874C32.795 144.963 31.8604 143.33 32.3226 141.465C34.5358 143.225 37.059 144.735 39.4906 146.108C37.8115 146.69 36.2593 146.749 34.5591 145.874ZM51.1378 148.348C50.0786 148.431 49.0736 148.118 48.0685 147.806C45.8939 147.173 43.865 146.282 41.8449 145.227C39.6604 144.163 37.5211 142.87 35.4823 141.549C33.5714 140.3 31.7333 138.922 30.1048 137.322C29.4185 136.595 25.3737 132.1 28.5599 131.689C28.5599 131.689 28.5599 131.689 28.6603 131.66C29.7405 133.035 31.0942 134.225 32.4204 135.314C34.8256 137.182 37.1944 139.115 39.636 140.919C43.2846 143.574 47.4727 146.619 52.0402 147.498C51.9133 148.021 51.8681 148.251 51.1378 148.348ZM51.6616 145.328C48.4732 144.548 45.6388 142.693 42.9325 140.909C39.6866 138.736 36.6867 136.277 33.614 133.947C32.0319 132.714 30.5866 131.387 29.4876 129.747C29.0297 129.063 28.6722 128.351 28.4515 127.546C28.2308 126.741 29.0758 124.498 30.2353 124.387C30.3269 124.524 30.3545 124.624 30.446 124.761C33.2409 129.825 38.316 133.541 43.0613 136.646C47.459 139.469 52.2219 142.244 57.4646 142.823C58.1861 142.89 59.1448 142.837 60.0759 142.682C59.5344 146.032 54.0369 145.904 51.6616 145.328ZM60.8393 140.732C58.9318 141.271 56.904 140.976 55.0494 140.524C51.2762 139.584 47.7656 137.432 44.4745 135.488C40.7718 133.227 37.2512 130.644 34.3594 127.396C32.1175 124.94 27.6313 118.836 33.153 117.277C33.3538 117.22 33.3902 117.156 33.399 116.991C33.6925 117.667 33.986 118.342 34.4163 118.926C37.9702 124.588 43.8496 128.673 49.3992 132.147C53.7693 134.87 59.0253 137.668 64.4025 136.963C64.7259 138.931 62.4456 140.279 60.8393 140.732ZM66.9442 133.806C65.4218 135.158 63.3676 135.358 61.4314 135.2C57.2942 134.905 53.2716 132.463 49.8249 130.347C45.5828 127.696 41.5227 124.724 38.1553 121.122C36.6272 119.494 34.2849 117.066 34.3807 114.654C34.4402 112.307 37.1397 110.515 39.1476 109.949C38.8675 111.491 39.3 113.266 39.7866 114.646C41.6228 119.764 46.4607 123.601 50.8584 126.424C55.0002 129.103 60.0367 131.692 65.1767 131.108C66.3362 130.997 67.6137 130.528 68.8361 129.858C69.6879 131.189 67.8466 132.956 66.9442 133.806ZM68.1475 127.939C66.6064 129.024 64.7165 129.233 62.9083 129.147C59.2918 128.975 55.7999 127.089 52.7648 125.29C49.3457 123.274 46.145 120.872 43.6736 117.776C42.3739 116.192 41.4205 114.293 40.9328 112.317C40.1967 109.436 42.5388 106.932 45.2429 107.524C44.8149 108.132 44.3228 108.705 43.8308 109.277C43.3752 109.785 43.6323 110.525 44.0438 110.843C44.2105 112.042 45.1627 113.345 45.8401 114.238C47.6893 116.642 49.7205 118.724 52.1985 120.464C54.4206 122.059 56.9338 123.138 59.4923 123.987C61.6304 124.684 65.824 125.777 68.0139 124.888C68.1143 124.859 68.1506 124.795 68.251 124.766C68.625 124.552 69.2086 124.117 69.8099 123.351C71.4207 125.281 69.8255 126.761 68.1475 127.939ZM76.6232 80.9442C77.1439 81.0682 77.6283 81.2566 78.085 81.3445C78.9621 81.5847 80.0124 81.6676 81.1267 81.7866C81.4953 83.5252 82.2655 85.1504 83.3092 86.59C80.0537 88.918 77.1644 91.793 74.2564 94.4022C66.362 101.508 59.027 109.865 53.8213 119.084C53.7485 119.213 53.7121 119.278 53.7033 119.443C52.4599 118.656 51.3533 117.776 50.2831 116.831C53.8574 114.088 56.2049 109.632 59.2121 106.399C62.7114 102.593 66.0827 98.7146 68.9785 94.483C71.8467 90.1507 74.5593 85.6456 76.6232 80.9442ZM90.3968 72.9918C93.3492 74.4888 90.1863 77.5493 88.8912 78.3485C87.8332 79.0265 86.6009 79.2659 85.3962 79.606C84.593 79.8327 83.7987 79.8943 82.9403 79.9198C82.9833 78.4986 83.3274 76.9924 83.9915 75.6669C85.2104 73.2092 87.8283 71.7115 90.3968 72.9918ZM123.039 99.9259C115.511 107.579 104.417 112.878 92.1013 109.58C87.1311 108.219 83.0578 107.96 78.5523 110.857C73.7369 114.005 71.6255 117.744 68.3469 122.355C68.1009 122.641 67.9189 122.963 67.7732 123.221C67.6089 123.213 67.5449 123.177 67.3441 123.234C63.6471 123.952 58.795 122.233 55.3306 120.447C55.3671 120.382 55.5038 120.29 55.5767 120.161C60.3455 111.715 66.8057 104.309 73.7237 97.5875C77.0962 94.3052 80.6694 90.9662 84.5085 88.2025C85.2864 89.0669 86.2374 89.7739 87.2249 90.4165C90.8271 92.7056 99.0264 92.2338 98.2207 86.3373C97.4889 80.9075 90.3146 82.5533 87.3679 84.0353C86.4556 84.4555 85.5708 84.9762 84.75 85.533C83.9534 84.403 83.394 83.1518 83.1721 81.7512C88.1941 81.526 93.8702 79.5444 93.4948 74.2309C93.381 72.041 91.1049 70.8409 89.2415 70.5539C86.5286 70.1274 84.3586 71.878 82.865 73.9255C81.4441 75.844 80.8727 77.9021 80.9313 79.8907C79.7166 79.8001 78.5108 79.5443 77.3777 79.1596C78.9948 74.8011 79.6333 69.635 76.1656 66.0614C72.7618 62.524 64.3253 63.1169 64.0631 69.2607C63.9189 75.0461 69.8248 78.636 75.0334 80.4716C73.1063 85.0802 70.2745 89.348 67.5795 93.523C64.8845 97.698 61.5496 101.512 58.2511 105.261C55.3355 108.631 52.5489 112.669 49.1941 115.621C48.755 115.203 48.3523 114.721 47.9131 114.303C47.0713 113.402 45.69 112.112 45.103 110.761L45.1394 110.696C50.6772 103.28 53.145 99.6568 52.8014 91.8955C52.6114 88.0471 50.4124 84.1696 49.4557 80.4835C48.2694 76.1575 47.7814 69.25 47.6907 64.7774C47.3223 48.8397 62.4644 30.6917 77.294 25.8013C93.5015 20.4135 115.02 32.2239 123.255 45.8868C132.04 60.3701 135.762 86.9589 123.039 99.9259ZM86.0861 87.0527C86.3597 86.8671 86.7337 86.6531 87.0073 86.4675C89.1872 85.1477 92.1339 83.6656 94.6384 84.9097C96.8869 86.0092 96.3795 88.1035 94.4091 89.2016C92.0648 90.5136 89.4236 89.3623 87.3847 88.041C86.9368 87.7881 86.5252 87.4707 86.0861 87.0527ZM75.7239 78.6509C74.1065 78.0777 72.5983 77.3111 71.1905 76.5162C67.6711 74.5289 62.3354 68.2852 68.8323 65.7468C72.6009 64.3037 76.0862 67.5471 76.8598 70.9598C77.3851 73.467 76.5777 76.2421 75.7239 78.6509Z" fill="white"/>
<path d="M101.671 32.8486C95.6015 29.8468 88.9047 28.106 82.122 29.2077C76.1701 30.1832 68.1707 34.9341 65.3412 40.3935C65.0864 40.8448 65.7263 41.2061 65.9811 40.7548C69.4141 35.7212 76.7306 32.0301 82.5634 30.8173C89.0626 29.4706 95.1857 32.0778 100.961 34.4037C101.921 34.9457 102.567 33.3545 101.671 32.8486Z" fill="white"/>
<path d="M105.619 34.8232C105.272 34.5419 104.888 34.3251 104.395 34.3018C104.002 34.25 103.646 34.1338 103.244 34.2472C102.842 34.3605 102.752 34.8196 102.999 35.1292C103.219 35.3382 103.475 35.4828 103.63 35.6556C103.941 36.0014 104.225 36.2465 104.682 36.3344C105.486 36.7035 106.278 35.4502 105.619 34.8232Z" fill="white"/>
<path d="M93.9969 21.6286C94.746 21.7965 95.1089 20.556 94.3234 20.4525C87.4082 19.0986 80.2415 19.9834 73.8638 22.7591C69.9496 24.4601 66.2649 26.8009 62.7082 29.2139C59.7714 31.1267 56.9539 33.2769 55.1425 36.3353C54.9605 36.6577 55.4084 36.9106 55.6544 36.6244C59.3974 31.3407 66.5496 27.6418 72.2422 24.7343C78.8835 21.3422 86.6977 20.0578 93.9969 21.6286Z" fill="white"/>
<path d="M47.6933 90.0315C48.2683 94.6925 46.5585 98.3185 45.1422 102.62C44.8697 103.402 46.1032 103.758 46.3756 102.977C47.6463 98.9327 49.1466 95.5285 48.983 91.1849C48.8283 86.6762 46.776 83.1367 45.2798 79.0608C45.197 78.759 44.7955 78.8724 44.8142 79.1381C45.4058 82.8731 47.1745 86.1675 47.6933 90.0315Z" fill="white"/>
<path d="M44.9692 88.5784C45.6911 93.5774 43.2973 97.6673 42.0277 102.307C41.8192 103.125 42.9611 103.344 43.1972 102.627C44.7679 97.9025 46.6586 93.3584 45.608 88.3439C45.5252 88.0421 44.9229 88.2121 44.9692 88.5784Z" fill="white"/>
<path d="M38.9343 103.451C38.5338 104.16 39.6217 104.775 40.0221 104.066C40.9962 102.49 41.8423 100.842 42.2316 99.1062C42.7026 97.0765 42.4244 94.8788 42.7674 92.7768C42.8215 92.3822 42.1727 92.1859 42.1187 92.5805C41.8022 94.1873 41.65 95.8019 41.3975 97.4449C41.146 99.6836 39.9624 101.481 38.9343 103.451Z" fill="white"/>
<path d="M117.314 109.617C118.335 109.003 121.601 107.106 121.964 105.866C122.146 105.543 121.899 105.234 121.606 105.154C121.414 105.045 121.15 105.066 121.004 105.324C116.901 108.704 112.687 111.086 107.475 112.394C102.163 113.731 96.4185 113.293 91.0302 112.971C90.6374 112.92 90.6386 113.515 91.0313 113.567C97.0231 114.315 102.969 114.696 108.911 113.29C111.886 112.504 114.659 111.179 117.314 109.617Z" fill="white"/>
<path d="M118.102 110.912C111.828 115.447 103.984 115.439 96.5863 115.088C96.1935 115.037 96.1947 115.632 96.5874 115.684C104.095 116.437 112.104 116.453 118.551 111.761C119.162 111.426 118.649 110.541 118.102 110.912Z" fill="white"/>
<path d="M34.108 148.766C31.758 147.098 28.8762 144.281 29.838 141.083C29.956 140.724 29.3437 140.464 29.1617 140.786C27.5059 144.017 30.6008 148.401 33.4252 149.825C34.1931 150.259 34.7755 149.227 34.108 148.766Z" fill="white"/>
<path d="M30.6659 149.033C28.5255 147.144 26.1368 144.35 27.0622 141.216C27.1439 140.922 26.7511 140.87 26.6055 141.128C25.4793 144.318 27.6407 147.664 29.9731 149.662C30.4486 150.015 31.041 149.414 30.6659 149.033Z" fill="white"/>
<path d="M68.4106 136.59C68.4282 136.26 67.9351 136.237 67.9175 136.567C67.5304 139.494 65.6991 141.691 63.09 143.024C62.6156 143.266 63.0371 144.014 63.5115 143.772C66.3578 142.318 68.2707 139.827 68.4106 136.59Z" fill="white"/>
<path d="M69.3892 137.398C68.8344 138.53 68.6999 139.814 68.2454 140.918C67.7181 142.151 66.1946 142.906 65.1918 143.785C64.745 144.128 65.3397 144.719 65.7864 144.376C66.8168 143.598 67.9752 142.891 68.7584 141.803C69.5141 140.614 69.4743 138.891 69.8736 137.586C69.9552 137.292 69.5349 137.14 69.3892 137.398Z" fill="white"/>
<path d="M132.308 52.2737C135.364 50.5982 138.447 49.0233 141.558 47.549C143.42 46.6443 147.799 44.8661 148.16 42.4339C148.25 41.9748 147.784 41.4562 147.273 41.763C146.352 42.3482 145.614 43.2068 144.692 43.792C143.16 44.7123 141.536 45.4958 139.885 46.1788C137.047 47.4675 133.433 48.4876 131.109 50.6612C130.179 51.4115 131.222 52.8511 132.308 52.2737Z" fill="white"/>
<path d="M134.851 59.5766C140.675 58.5288 146.568 54.9688 151.813 52.4042C152.625 52.0124 151.929 50.8541 151.154 51.1814C145.551 53.6298 139.72 55.4385 134.154 57.8224C133.041 58.2992 133.82 59.7594 134.851 59.5766Z" fill="white"/>
<path d="M137.452 68.2724C142.984 67.1446 148.783 67.1878 154.213 65.4925C155.153 65.173 154.83 63.8007 153.799 63.9835C148.231 65.1758 142.422 64.7017 136.882 65.9947C135.348 66.3191 135.955 68.5324 137.452 68.2724Z" fill="white"/>
<path d="M149.438 75.8906C148.633 74.9257 146.633 74.7316 145.527 74.4475C143.545 73.9232 141.526 73.4634 139.47 73.068C137.835 72.825 137.174 75.3422 138.809 75.5852C140.836 75.8799 142.928 76.2108 144.956 76.5056C146.198 76.6969 148.172 77.3862 149.294 76.7444C149.668 76.5304 149.686 76.2002 149.438 75.8906Z" fill="white"/>
</svg>
