<svg width="105" height="73" viewBox="0 0 105 73" fill="none" xmlns="http://www.w3.org/2000/svg">
<path d="M90.0999 1.09972C89.8852 1.19096 89.794 0.97629 89.5792 1.06753C74.4029 4.72747 59.0442 7.95792 43.8679 11.6179C36.5401 13.4639 28.9976 15.4013 21.4873 16.8179C17.7778 17.6336 14.0683 18.4493 10.3588 19.265C7.59947 19.9304 4.80786 21.1166 1.7748 21.1378C1.25409 21.1056 1.13059 21.4115 1.00709 21.7175C0.486377 21.6852 0.14817 22.0825 0.330656 22.5119C4.47907 38.2412 8.504 54.2765 11.7022 70.156C11.7935 70.3707 11.5787 70.462 11.8847 70.5855C11.976 70.8002 12.0672 71.0149 11.9437 71.3209C12.0027 72.0564 12.7059 72.5181 13.6561 72.3679C20.2807 70.0601 27.9734 69.0728 34.963 67.6239C42.1673 66.0838 49.248 64.8497 56.5436 63.5243C70.1844 61.0238 84.3728 59.8118 97.5897 55.7169C97.8045 55.6257 98.2339 55.4431 98.3574 55.1371C100.596 54.4394 103.479 53.468 104.096 51.9381C104.714 50.4082 104.381 49.0286 103.957 47.4342C103.2 44.4601 102.352 41.2713 101.596 38.2973C99.8087 31.7049 97.8981 25.4185 96.111 18.8261C95.3543 15.8521 94.3829 12.9693 93.8409 9.90401C93.2078 6.62396 92.8805 3.46735 91.6031 0.461034C91.5118 0.246297 90.5617 0.396515 90.0999 1.09972ZM6.91747 22.5017C10.627 21.686 14.1217 20.9616 17.8313 20.1459C25.771 18.5468 33.6196 16.733 41.6828 14.8279C57.0738 11.0768 72.6473 7.75502 88.1295 4.21858C86.2237 6.29594 84.1353 7.94376 82.0469 9.59164C78.9761 11.9105 76.3938 14.7824 73.5967 17.7454C68.0025 23.6715 62.6231 29.5063 56.9377 35.2177C48.585 31.6686 39.3033 31.3029 30.3332 29.2837C24.9758 28.011 19.9244 26.8617 14.567 25.589C10.6482 24.719 6.14425 24.8583 2.50474 22.8557C3.94339 23.2584 5.53781 22.8344 6.91747 22.5017ZM2.68177 25.0621C5.31209 26.4795 8.00688 26.8555 10.7929 27.4462C16.3651 28.6277 21.9962 30.5445 27.6596 31.9407C32.711 33.0899 37.8859 33.9332 42.8461 34.8676C37.3164 39.7523 32.49 45.0987 27.9373 51.0893C23.5993 56.9887 18.4668 62.2115 13.9463 67.6813C11.172 53.3962 7.14167 39.138 2.68177 25.0621ZM95.1151 53.4727C94.6856 53.6552 94.4709 53.7465 94.1327 54.1437C81.6835 57.6589 68.5366 58.9354 56.0606 61.1945C48.7651 62.5198 41.7755 63.9688 34.5712 65.5089C31.2912 66.1421 27.8877 67.0813 24.6077 67.7145C21.3276 68.3477 18.0153 69.5016 14.5206 70.226C14.4293 70.0113 14.3381 69.7965 14.2468 69.5818C18.9821 64.0207 24.2057 59.0125 28.9409 53.4514C31.5555 50.0588 34.1701 46.6663 37.1819 43.612C39.7643 40.7402 42.835 38.4214 45.7234 35.6731C49.1214 36.5108 52.5195 37.3486 55.8852 38.707C56.4972 38.954 57.1414 38.6802 57.4796 38.283C57.6944 38.1917 57.9091 38.1005 58.1238 38.0092C60.1209 36.1466 61.8121 34.1605 63.8093 32.2979C68.5437 36.8774 74.384 40.4799 80.1331 43.8677C86.403 47.2878 93.0756 49.2692 99.3454 52.6893C98.0892 52.716 96.4948 53.14 95.1151 53.4727ZM92.7452 17.4678C93.9848 22.7717 95.348 27.7696 96.8024 32.9823C98.1655 37.9802 99.0079 42.9459 100.586 47.8526C100.86 48.4968 101.224 49.3558 101.283 50.0912C95.3196 46.7946 88.8618 44.7221 82.7745 41.7315C76.3812 38.6174 70.5408 35.0147 64.7327 30.8914C68.6357 26.9515 72.4475 22.7968 76.0446 18.7334C78.6269 15.8616 81.3005 13.2045 84.0653 10.7622C86.4919 8.71707 88.7038 6.7632 90.4272 4.25637C91.5166 8.6101 91.8705 13.0228 92.7452 17.4678Z" fill="white"/>
</svg>
