<svg width="20" height="16" viewBox="0 0 20 16" fill="none" xmlns="http://www.w3.org/2000/svg">
<path d="M18.2607 0.77832H2.60059C1.68094 0.77832 0.930664 1.52778 0.930664 2.44824V13.5811C0.930664 14.4984 1.6776 15.251 2.60059 15.251H18.2607C19.1781 15.251 19.9307 14.504 19.9307 13.5811V2.44824C19.9307 1.5309 19.1837 0.77832 18.2607 0.77832ZM18.0301 1.8916L10.4661 9.45572L2.83656 1.8916H18.0301ZM2.04395 13.3505V2.67346L7.40547 7.98901L2.04395 13.3505ZM2.83115 14.1377L8.19605 8.77279L10.0759 10.6365C10.2935 10.8523 10.6447 10.8515 10.8614 10.6348L12.6943 8.80185L18.0302 14.1377H2.83115ZM18.8174 13.3505L13.4815 8.01465L18.8174 2.67877V13.3505Z" fill="#3F92D1"/>
</svg>
