<svg width="174" height="127" viewBox="0 0 174 127" fill="none" xmlns="http://www.w3.org/2000/svg">
<path opacity="0.5" d="M169.396 37.2797C164.063 29.089 154.253 24.8031 144.729 24.6126C139.205 24.4221 131.585 25.565 127.014 29.4699C125.871 24.9936 125.109 20.422 122.347 16.6124C119.299 12.6122 115.299 9.37401 111.013 6.89774C102.632 2.04043 93.0126 0.0403585 83.3932 0.802289C73.9643 1.46898 64.2497 4.61194 57.1066 11.1836C53.5827 14.517 51.0112 18.8029 49.1063 23.2792C48.0587 25.8508 47.1063 28.9937 47.2015 31.9462C39.9632 30.0414 32.1534 30.2319 25.1055 33.1843C16.1528 36.8035 9.77166 44.7086 6.15248 53.4708C3.29524 60.3281 3.00952 68.2332 5.29531 75.281C3.67621 76.5192 2.15235 77.8525 0.818968 79.4716C0.533244 79.8526 1.00945 80.4241 1.39042 80.0431C2.62855 78.6145 4.15242 77.3763 5.67628 76.1382C5.86676 76.6144 6.05724 77.0906 6.24773 77.5668C5.20007 78.424 4.24766 79.2812 3.2 80.0431C2.7238 80.4241 3.10476 81.186 3.67621 80.9003C4.81911 80.3288 5.77152 79.5669 6.81917 78.805C7.20014 79.5669 7.5811 80.3288 7.96207 80.9955C11.9622 87.9481 19.1053 94.4245 27.2961 95.4722C26.5341 102.806 31.5819 109.092 38.0583 111.854C44.8205 114.711 53.0112 114.997 59.9638 112.52C60.821 115.187 61.4877 117.854 63.1068 120.235C64.9164 122.902 67.4879 124.807 70.0594 126.521C70.1547 126.616 70.2499 126.616 70.3451 126.616C70.8214 126.997 71.6785 126.616 71.4881 125.854C70.8214 122.711 70.2499 119.663 70.4404 116.33C70.6309 113.759 72.4405 112.235 74.1548 110.616C75.3929 112.806 77.4883 114.616 79.3931 116.235C82.7265 118.997 86.8219 119.949 91.0125 119.663C96.6318 119.187 103.87 116.806 107.965 112.235C107.965 112.235 108.061 112.33 108.156 112.33C114.728 116.901 122.442 119.092 130.442 118.235C138.062 117.378 145.491 114.139 151.3 109.092C156.062 104.901 158.729 99.0914 158.824 92.8054C158.824 89.2815 158.539 84.3289 156.253 81.186C173.111 76.4239 178.635 51.4707 169.396 37.2797ZM153.205 77.0906C151.872 77.3763 151.396 78.424 151.396 79.4716C151.015 80.1383 151.015 81.0907 151.777 81.567C155.3 83.6623 154.824 90.4244 154.539 93.9483C154.062 99.3771 151.3 103.758 147.11 107.092C142.252 111.092 135.776 113.568 129.585 114.235C122.537 114.997 115.966 112.901 110.251 108.901C110.061 108.711 109.775 108.616 109.585 108.616C109.013 107.568 107.299 107.092 106.442 108.425C103.394 113.187 97.0127 114.901 91.8697 116.14C85.679 117.568 78.8216 113.949 75.3929 108.711C75.2977 108.33 75.1072 107.949 74.8215 107.758C74.7263 107.663 74.7262 107.473 74.631 107.377C74.25 106.711 73.2024 106.901 73.1071 107.663C73.0119 107.758 72.9167 107.758 72.8214 107.854C70.3452 109.949 68.1546 112.235 67.5832 115.473C67.2022 117.473 67.2974 119.759 67.8689 121.854C66.9165 120.806 65.9641 119.663 65.1069 118.425C63.3925 115.759 63.0116 112.425 61.9639 109.473C61.9639 109.377 61.8687 109.187 61.7734 109.092V108.996C61.5829 108.616 61.3925 108.33 61.1067 108.235C60.7258 107.949 60.1543 107.949 59.4876 108.139C53.5827 110.425 47.011 110.52 41.0108 108.616C38.2488 107.758 35.4868 106.234 33.4868 104.044C31.1057 101.568 30.3438 98.3294 30.1533 94.996C30.3438 94.4245 30.0581 93.5674 29.2009 93.4721C21.3911 92.615 14.8194 85.7576 11.105 79.1859C10.6288 78.3288 10.1526 77.3763 9.77166 76.4239C10.6288 75.8525 11.486 75.281 12.4384 74.8048C13.1051 74.5191 12.6289 73.3762 11.9622 73.6619C11.0098 74.0429 10.0574 74.5191 9.20021 75.0905C9.00972 74.7096 8.91448 74.2334 8.81924 73.8524C9.96214 73.0905 11.0098 72.4238 12.1527 71.6618C12.7241 71.2809 12.1527 70.3285 11.6765 70.7094C10.6288 71.3761 9.58117 72.1381 8.53352 72.8048C6.72393 66.995 7.29538 60.5186 9.67641 54.5184C12.8194 46.6134 19.1053 39.4703 27.1056 36.3273C33.8677 33.6606 41.2965 34.0415 48.0587 36.2321C48.1539 36.5178 48.2492 36.7083 48.4396 36.994C48.9158 37.8512 49.9635 37.6607 50.4397 37.0892C52.7255 37.7559 53.6779 34.1368 51.3921 33.1843C51.0112 33.0891 50.7254 32.8986 50.3445 32.8034C50.2492 25.3746 55.1065 17.7552 60.6305 13.1837C67.1069 7.85015 76.1549 5.56436 84.3456 5.18339C92.8221 4.80243 100.822 6.89774 108.251 11.0884C111.87 13.1837 115.204 15.8504 117.775 19.0886C120.918 22.9935 121.109 28.4223 122.537 32.9939C122.728 33.5653 123.014 34.0415 123.395 34.3272C123.014 35.5654 124.918 36.2321 125.585 35.1844C125.68 34.9939 125.776 34.8987 125.871 34.7082C126.728 34.4225 127.395 33.7558 127.585 32.8986C132.062 29.089 139.395 28.6128 144.919 28.9937C152.729 29.4699 160.634 33.5653 164.92 40.3274C168.92 46.6134 168.825 55.1851 166.92 62.1377C165.206 69.2808 160.443 75.281 153.205 77.0906Z" fill="white"/>
<path opacity="0.5" d="M9.8669 42.5179C13.2004 35.7558 20.5339 31.8509 27.5818 30.1365C30.3438 29.4698 33.1058 29.0889 35.963 28.8984C38.5345 28.7079 41.6775 28.4222 43.8681 29.946C44.63 30.4222 45.3919 29.2794 44.63 28.7079C42.3442 27.184 39.2012 27.2793 36.5345 27.4698C33.3915 27.6603 30.3438 28.2317 27.2961 28.8984C20.153 30.6127 12.2479 34.9938 9.58118 42.3274C9.48594 42.5179 9.77166 42.6131 9.8669 42.5179Z" fill="white"/>
<path opacity="0.5" d="M16.2481 31.1843C23.1055 29.1842 29.4867 25.565 36.9155 26.8984C37.6774 27.0889 38.0584 25.8507 37.2964 25.6603C29.7724 23.9459 23.0102 28.2318 16.1529 30.6128C15.8671 30.8033 15.9624 31.2795 16.2481 31.1843Z" fill="white"/>
<path opacity="0.5" d="M149.3 96.9008C147.967 100.329 145.872 103.187 143.014 105.568C140.252 107.854 136.728 109.282 133.395 110.52C131.585 111.187 129.776 111.663 127.776 111.758C126.252 111.854 124.728 111.663 123.204 112.044C122.918 112.139 123.014 112.616 123.299 112.52C125.299 112.235 127.3 112.711 129.3 112.52C131.3 112.235 133.109 111.663 135.014 111.092C138.157 109.949 141.11 108.52 143.776 106.52C146.634 104.33 148.634 101.377 150.062 98.1389C151.586 94.9007 151.872 91.6625 152.253 88.1386C152.348 87.3767 151.015 87.1862 150.919 87.9481C150.538 90.9958 150.443 93.8531 149.3 96.9008Z" fill="white"/>
<path opacity="0.5" d="M129.3 109.282C139.205 110.235 149.11 100.425 149.3 90.8053C149.3 89.8529 147.872 89.8529 147.872 90.8053C147.681 100.615 138.252 107.663 129.3 108.806C128.919 108.806 129.014 109.282 129.3 109.282Z" fill="white"/>
<path opacity="0.5" d="M93.2031 121.854C89.6792 122.044 86.2505 121.854 82.917 120.711C79.2026 119.473 76.6311 116.901 74.4406 113.758C74.3453 113.568 73.9643 113.663 74.0596 113.949C76.4406 121.663 86.06 124.045 93.2031 123.283C94.0603 123.092 94.0603 121.759 93.2031 121.854Z" fill="white"/>
<path opacity="0.5" d="M59.1067 115.473C59.2019 115.473 59.2972 115.378 59.3924 115.378C59.9639 115.092 59.5829 114.14 59.0115 114.33C58.9162 114.33 58.9162 114.33 58.821 114.425C58.44 114.14 57.7733 114.235 57.7733 114.806C53.2017 116.235 48.1539 116.711 43.5824 115.187C43.2014 115.092 43.0109 115.568 43.2966 115.759C47.5825 117.854 53.297 117.663 57.8686 115.949C58.7257 120.044 62.1544 122.806 65.0117 125.568C65.2021 125.759 65.5831 125.473 65.3926 125.283C63.1068 122.33 59.6781 119.283 59.1067 115.473Z" fill="white"/>
<path opacity="0.5" d="M165.682 45.5657C163.205 46.6133 160.824 48.3277 158.824 50.042C158.443 50.3278 159.015 50.8992 159.396 50.6135C161.491 48.8991 163.967 47.9467 166.158 46.4229C166.634 46.0419 166.253 45.3752 165.682 45.5657Z" fill="white"/>
<path opacity="0.5" d="M156.634 55.566C159.301 53.9469 162.063 52.4231 164.634 50.804C165.015 50.5183 164.825 49.8516 164.348 50.0421C161.396 51.0897 158.824 53.3755 156.348 55.0898C156.062 55.2803 156.348 55.7565 156.634 55.566Z" fill="white"/>
<path opacity="0.5" d="M165.11 53.7564C161.586 53.8517 158.348 56.6137 155.586 58.4232C155.396 58.6137 155.586 58.8994 155.777 58.8042C158.824 57.0899 161.682 55.2803 165.206 54.7088C165.777 54.7088 165.587 53.7564 165.11 53.7564Z" fill="white"/>
<path opacity="0.5" d="M153.3 62.8044C154.92 61.852 156.634 61.09 158.348 60.5186C159.205 60.2329 160.158 59.9471 161.015 59.6614C161.301 59.5662 162.539 58.9947 163.11 58.8995C163.301 59.09 163.682 59.1852 163.872 58.9947L163.967 58.8995C164.348 58.709 164.348 58.1376 163.967 57.9471C162.92 57.2804 160.444 58.8043 159.396 59.1852C157.11 60.0424 154.92 61.09 152.919 62.4234C152.729 62.5187 153.015 62.8996 153.3 62.8044Z" fill="white"/>
<path opacity="0.5" d="M164.253 61.09C162.92 60.7091 161.491 61.471 160.348 62.0424C157.967 63.0901 155.491 64.1378 153.11 65.2807C152.919 65.3759 153.015 65.5664 153.205 65.5664C155.396 65.0902 157.396 64.1378 159.491 63.3758C160.729 62.9949 162.444 61.852 163.872 62.1377C164.634 62.4234 164.92 61.2805 164.253 61.09Z" fill="white"/>
<path opacity="0.5" d="M162.634 65.7568C158.539 66.0425 154.348 67.6616 150.824 69.5664C150.443 69.7569 150.729 70.4236 151.205 70.2331C154.92 68.4235 158.729 67.7568 162.729 66.8044C163.301 66.7092 163.206 65.7568 162.634 65.7568Z" fill="white"/>
<path opacity="0.5" d="M161.586 68.6141C156.92 69.8522 152.824 72.519 148.824 75.1858C148.443 75.4715 148.729 76.0429 149.205 75.8525C153.3 73.4714 157.396 71.1856 161.967 69.9475C162.634 69.5665 162.348 68.3284 161.586 68.6141Z" fill="white"/>
<path opacity="0.5" d="M160.348 47.0895C161.015 46.5181 161.777 45.9466 162.539 45.4704C163.206 44.9942 164.063 44.7085 164.634 44.2323C165.015 43.8513 164.634 43.2799 164.158 43.3751C163.301 43.5656 162.539 44.2323 161.777 44.7085C161.015 45.1847 160.348 45.7561 159.682 46.4228C159.205 46.8038 159.872 47.3752 160.348 47.0895Z" fill="white"/>
<path opacity="0.5" d="M127.585 26.0412C127.585 26.3269 127.871 26.4222 128.062 26.4222C128.157 26.5174 128.347 26.5174 128.538 26.4222C134.443 23.3745 141.014 22.2316 147.586 22.6125C147.872 22.6125 147.872 22.1363 147.586 22.1363C141.3 21.4696 133.966 22.0411 128.442 25.3745C128.252 20.8982 124.919 17.7552 122.918 13.9456C122.728 13.6598 122.347 13.9456 122.442 14.2313C124.252 18.2314 127.395 21.3744 127.585 26.0412Z" fill="white"/>
<path opacity="0.5" d="M29.8676 91.2816C26.3437 90.4244 22.915 89.5672 20.3435 86.8052C18.1529 84.6147 16.7243 81.9479 13.9623 80.3288C13.8671 80.3288 13.7718 80.424 13.8671 80.424C16.4386 82.7098 18.0577 85.948 20.534 88.4243C22.915 90.8053 26.4389 91.5673 29.5819 92.3292C30.2486 92.5197 30.6296 91.3768 29.8676 91.2816Z" fill="white"/>
<g opacity="0.5" clip-path="url(#clip0)">
<path d="M111.562 47.7223C109.612 43.0056 107.568 38.3235 105.371 33.8044C104.388 31.7153 103.327 29.1223 101.357 27.8232C97.2528 25.0719 90.501 30.7555 87.1079 32.5379C78.361 37.1446 68.8982 40.0968 60.3143 44.8567C59.3512 45.4245 59.0152 46.827 59.3608 47.7654C62.3082 56.0578 66.5002 63.6786 70.1291 71.5068C70.7414 72.8798 71.8374 75.5666 72.884 78.6978C70.3754 77.3838 67.3233 76.9093 63.9106 78.0596C56.5566 80.6614 57.5977 88.6967 61.9234 93.4976C63.074 94.8855 64.5307 95.9475 66.2246 96.4959C68.5012 97.4691 71.1928 97.5435 73.7758 96.1659C79.7865 93.0997 79.0318 86.1312 77.6249 80.575C76.0453 74.5497 73.6211 68.8354 71.0092 63.1902C83.0649 59.1765 95.0467 53.8047 106.085 47.608C108.016 51.6925 110.085 56.1524 111.427 60.6665C104.874 58.4976 96.5124 63.2821 97.835 71.2138C98.5802 75.8414 103.513 80.8448 108.452 80.9442C114.561 81.0387 118.305 75.2906 118.128 69.6013C117.857 61.9216 114.307 54.5972 111.562 47.7223ZM74.4778 90.2593C72.4081 93.8989 66.4027 94.0858 63.9634 90.9347C62.4178 89.0529 61.6971 86.2279 62.4481 83.9266C62.8037 83.1562 63.3471 82.3167 64.088 81.7241C67.5108 78.8651 72.3553 81.0238 74.3007 84.57C74.6511 86.6788 74.7447 88.6691 74.4778 90.2593ZM112.937 70.5538C112.423 78.4161 102.027 74.7849 103.001 68.4586C103.668 64.4831 109.368 64.6221 111.343 67.0916C111.772 67.6794 112.32 68.0103 112.928 68.2129C112.923 69.0673 113.012 69.8871 112.937 70.5538ZM69.8193 60.538C68.0172 56.5128 66.1805 52.3937 64.7537 48.2303C72.256 44.2951 80.5236 41.5699 88.1543 37.694C91.6412 35.877 95.0837 33.6501 98.7089 32.2084C99.0842 32.0702 102.758 40.3083 103.913 42.8667L103.819 42.9012C92.5385 48.441 80.6506 53.7783 69.8193 60.538Z" fill="white"/>
<path d="M58.9168 43.6663C58.4821 43.9329 58.8179 44.5552 59.2871 44.3824C63.584 42.1606 68.182 40.4672 72.316 38.0922C72.5037 38.0231 72.3654 37.6477 72.1777 37.7168C69.9602 38.6401 67.7426 39.5633 65.6534 40.5459C63.342 41.5037 60.9615 42.2738 58.9168 43.6663Z" fill="white"/>
<path d="M70.637 37.0054C70.8247 36.9363 70.7556 36.7487 70.5679 36.8178C66.6267 38.2693 62.1817 39.7997 58.6799 42.155C58.3391 42.3871 58.6156 43.1378 59.0502 42.8712C62.9125 40.9159 66.7304 38.5508 70.637 37.0054Z" fill="white"/>
<path d="M57.8997 41.4833C59.6728 40.5106 61.6434 39.7848 63.4165 38.8121C65.7526 37.6321 68.1134 36.2298 70.6223 35.5189C70.9039 35.4152 70.7656 35.0399 70.4841 35.1436C67.9061 35.6667 65.4168 37.0098 63.0807 38.1898C61.2731 39.0687 59.1395 39.6413 57.4701 40.8955C57.0009 41.0683 57.465 41.7499 57.8997 41.4833Z" fill="white"/>
<path d="M97.312 66.6109C97.5496 62.0476 104.232 58.2012 108.371 59.0215C109.072 59.1895 109.23 58.1722 108.529 58.0042C105.571 57.4951 102.765 58.848 100.38 60.4725C98.6757 61.6329 96.2604 64.334 96.7737 66.596C96.9119 66.9714 97.3219 66.927 97.312 66.6109Z" fill="white"/>
<path d="M96.8681 62.5118C98.9328 59.7266 103.413 56.2652 107.097 56.72C107.763 56.7941 107.922 55.7768 107.255 55.7026C103.185 55.07 98.3402 58.9858 96.5767 62.2994C96.5174 62.4278 96.7149 62.6747 96.8681 62.5118Z" fill="white"/>
<path d="M97.6833 59.2277C99.743 57.2969 102.109 55.0402 105.186 55.2925C105.724 55.3073 105.951 54.4777 105.378 54.369C102.326 53.8945 99.022 56.4968 97.4512 58.8869C97.2734 59.2721 97.5302 59.3906 97.6833 59.2277Z" fill="white"/>
<path d="M75.7858 96.7045C73.2274 97.8598 70.7185 98.5707 67.8294 98.2493C64.6836 97.8094 61.1873 95.2606 59.2467 92.8849C59.0838 92.7318 58.8368 92.9293 58.9059 93.117C62.7672 99.2611 69.8293 100.497 76.0375 97.6774C76.6598 97.3416 76.3488 96.4971 75.7858 96.7045Z" fill="white"/>
<path d="M73.2173 99.5686C69.3256 100.576 64.9154 100.175 61.5228 97.9078C61.3944 97.8485 61.1475 98.046 61.3104 98.1991C64.8067 100.748 69.3205 101.43 73.5629 100.507C74.2544 100.359 73.9088 99.4205 73.2173 99.5686Z" fill="white"/>
</g>
<defs>
<clipPath id="clip0">
<rect width="65.4" height="62.6" fill="white" transform="translate(41.4189 45.6347) rotate(-20.218)"/>
</clipPath>
</defs>
</svg>
