<svg width="269" height="141" viewBox="0 0 269 141" fill="none" xmlns="http://www.w3.org/2000/svg">
<g clip-path="url(#clip0)">
<path d="M95.1915 94.2407C95.518 94.1981 95.8304 94.0467 95.7737 93.6112C95.8116 93.0527 95.8353 92.3854 95.7643 91.8411C96.8201 88.0501 97.6581 84.2875 98.728 80.6053C99.9163 76.1328 101.076 71.4425 101.474 66.8516C101.692 66.8232 101.895 66.6859 101.976 66.454C104.65 59.795 110.397 54.6175 111.557 47.3809C111.689 46.6994 110.653 46.3917 110.397 46.9786C110.274 46.8839 110.151 46.7892 110.028 46.6946C106.005 45.5584 101.769 45.3356 97.6278 44.9898C93.1599 44.6866 88.7441 43.9337 84.2337 43.3039C74.9667 41.8549 65.6997 40.406 56.4752 39.2836C53.8863 38.9568 51.4063 38.6159 48.8316 38.398C48.9263 38.2749 49.0351 38.2608 49.1298 38.1377C49.6315 37.7402 49.0967 37.0349 48.5808 37.3236C48.1596 37.4892 47.7525 37.7637 47.2366 38.0524C47.0047 37.9719 46.6781 38.0145 46.4462 37.934C46.9479 37.5365 47.4497 37.1389 47.8283 36.6467C48.1123 36.2776 47.6059 35.7901 47.1989 36.0645C46.3848 36.6135 45.6795 37.1483 44.8796 37.8061C39.593 37.1668 34.3205 36.6363 29.048 36.1058C24.6748 35.6795 20.3821 35.0213 16.0894 34.3631C12.2462 33.7571 7.7737 32.5688 3.81688 33.6381C3.70802 33.6523 3.61335 33.7754 3.61335 33.7754C3.50449 33.7895 3.30097 33.9268 3.31516 34.0356C3.09744 34.064 2.9223 34.419 3.05954 34.6225C6.69875 40.4585 12.1555 44.9505 16.3911 50.2659C21.0384 56.1919 25.6716 62.009 30.21 67.9492C34.4882 73.5911 38.7806 79.342 42.6517 85.2584C44.7103 88.3113 46.3477 91.5299 47.9992 94.8573C49.3621 97.6687 50.5073 100.509 52.3861 103.031C52.1163 103.509 52.8404 103.969 53.3421 103.571C55.9691 100.793 59.3911 99.0183 62.5671 97.0544C66.0554 94.939 69.5295 92.7148 73.0037 90.4906C75.6637 88.8153 78.3238 87.14 81.0927 85.4506C82.9952 87.306 85.2763 88.6693 87.4487 90.0467C89.5121 91.4383 90.9934 93.4594 93.3267 94.3731C93.4355 94.3589 93.5586 94.4535 93.6675 94.4393C94.2827 94.9127 94.9358 94.8275 95.1915 94.2407ZM91.0078 91.022C91.5237 90.7333 92.1485 90.4304 92.6644 90.1418C93.0714 89.8673 93.6015 89.6875 94.0086 89.413C94.037 89.6307 93.9707 89.9715 93.9991 90.1892C93.2938 90.7239 92.5886 91.2587 91.8691 91.6846C91.6372 91.6042 91.3769 91.306 91.0078 91.022ZM85.4184 87.2115C87.0892 86.4402 88.7316 85.4511 90.374 84.462C91.7987 83.5014 93.3607 82.7442 94.7853 81.7835C94.7474 82.342 94.6149 83.0235 94.577 83.582C93.299 83.97 92.0921 84.9023 90.9656 85.6027C89.5125 86.3457 88.3055 87.278 86.9755 88.1156C86.3745 87.7512 85.8965 87.4813 85.4184 87.2115ZM83.8472 86.1986C85.5701 84.9776 87.5249 83.8371 89.385 82.8196C91.3398 81.6791 93.2662 80.3209 95.0979 79.0858C95.0458 79.5354 94.9937 79.985 94.8328 80.4488C94.8328 80.4488 94.8328 80.4488 94.7239 80.463C91.5763 82.6447 88.3483 85.0582 84.9404 86.9417C84.6943 86.7524 84.3252 86.4684 83.8472 86.1986ZM97.4975 79.6586C97.043 81.2678 96.4938 83 95.9305 84.6234C96.0112 81.8451 96.106 79.1758 96.2956 76.3833C97.015 75.9574 96.7642 74.883 96.0827 74.7505C95.9596 74.6558 95.8366 74.5611 95.6047 74.4806C91.842 73.6426 88.2783 71.7823 84.9464 70.0025C81.0277 67.967 77.1231 66.0405 73.1097 64.1281C65.4521 60.5873 57.4583 57.8652 49.6255 54.6794C41.8069 51.6024 34.1493 48.0616 26.5863 44.3978C19.9651 41.1647 13.3014 37.605 6.50511 34.7269C9.13658 35.3802 11.3752 36.4169 13.8315 37.4252C16.9978 38.7838 20.5285 39.5413 23.7894 40.7768C32.4126 44.0811 41.0216 47.2764 49.7252 50.3487C58.197 53.3406 66.6546 56.2236 75.0979 58.9977C83.3094 61.6913 91.7528 64.4654 100.272 66.1226C100.381 66.1084 100.49 66.0942 100.599 66.08C100.599 66.08 100.599 66.08 100.613 66.1889C99.9166 71.0401 98.8088 75.2807 97.4975 79.6586ZM16.6951 35.6127C21.002 36.3797 25.2947 37.0379 29.6821 37.5731C34.1784 38.094 38.6889 38.7238 43.294 39.2306C42.9011 39.6139 42.4941 39.8884 42.1012 40.2718C41.803 40.532 42.2005 41.0338 42.4987 40.7735C43.0951 40.2529 43.8146 39.827 44.4251 39.4153C44.7659 39.4815 45.2155 39.5336 45.5563 39.5999C44.7564 40.2577 43.9707 41.0244 43.0477 41.5876C42.7353 41.739 43.024 42.2549 43.3364 42.1035C44.5859 41.4978 45.8071 40.6743 47.014 39.742C50.3933 40.1872 53.6496 40.5376 57.0289 40.9828C66.0356 42.1335 75.0849 43.6109 84.0111 44.9935C88.4127 45.6375 92.9373 46.3762 97.4052 46.6794C101.547 47.0253 105.782 47.248 109.805 48.3842C109.914 48.37 110.037 48.4647 110.146 48.4505C108.38 54.4375 103.557 59.0518 100.973 64.7028C100.864 64.717 100.849 64.6081 100.741 64.6223C92.5055 62.596 84.3366 60.2289 76.2481 57.6299C76.996 57.4218 77.6207 57.1189 78.3686 56.9107C80.1766 56.3429 82.1219 55.9786 83.7784 55.0984C83.982 54.9611 83.8447 54.7576 83.6412 54.8948C80.9907 55.7939 78.2171 56.5983 75.5524 57.3885C74.7478 57.1613 73.9291 56.8252 73.1245 56.5979C74.2935 56.2241 75.4484 55.7414 76.6175 55.3676C78.3166 54.814 79.9211 54.3834 81.4689 53.5174C81.5777 53.5032 81.5494 53.2855 81.3316 53.3139C79.7555 53.9622 78.151 54.3927 76.4377 54.8375C74.942 55.2539 73.5694 55.765 72.1968 56.276C71.6242 56.1293 71.0373 55.8736 70.4646 55.7269C73.3329 54.7994 76.078 53.7773 78.8374 52.8641C78.9463 52.8499 78.9179 52.6321 78.8232 52.7552C75.7089 53.4933 72.6371 54.558 69.5512 55.5138C68.8555 55.2724 68.1597 55.031 67.3551 54.8037C70.3606 54.0798 73.4324 53.0151 76.258 51.7611C76.3669 51.7469 76.3385 51.5292 76.1208 51.5576C72.9402 52.6364 69.6223 53.5118 66.4417 54.5907C65.6371 54.3634 64.9414 54.122 64.1226 53.7859C67.1281 53.062 70.1999 51.9973 72.9025 50.6486C73.0113 50.6344 72.8883 50.5397 72.8883 50.5397C69.6509 51.1832 66.3898 52.494 63.195 53.464C62.7312 53.3031 62.1585 53.1563 61.6947 52.9953C64.454 52.0821 66.9248 50.6529 69.8498 50.1609C70.0675 50.1325 70.0249 49.8059 69.8072 49.8343C68.2832 50.033 66.9106 50.544 65.538 51.0551C64.0565 51.5804 62.452 52.0109 61.1078 52.7397C61.1078 52.7397 61.1078 52.7397 60.999 52.7539C60.4121 52.4983 59.8394 52.3515 59.2525 52.0959C61.6853 51.2252 63.9809 50.151 66.4279 49.3892C66.6456 49.3608 66.603 49.0342 66.3853 49.0626C63.7064 49.7439 61.0843 50.8607 58.3249 51.774C57.738 51.5184 57.1654 51.3716 56.4696 51.1302C58.7131 50.5056 60.8477 49.8952 62.9397 48.9582C63.1433 48.821 62.9918 48.5086 62.7741 48.537C60.4644 49.5023 58.0032 50.1553 55.542 50.8083C55.0782 50.6473 54.6144 50.4864 54.0417 50.3396C55.9586 49.7576 57.7666 49.1898 59.6835 48.6077C59.9012 48.5794 59.8444 48.1439 59.6409 48.2812C57.5063 48.8916 55.4948 49.5966 53.3602 50.207C52.8963 50.0461 52.5414 49.8709 52.0918 49.8188C53.5874 49.4024 55.1635 48.7541 56.6592 48.3377C56.8769 48.3094 56.7254 47.997 56.5077 48.0254C54.8086 48.579 52.9721 48.9291 51.2872 49.5916C50.7145 49.4448 50.2365 49.175 49.6638 49.0283C51.1595 48.6119 52.532 48.1008 54.0277 47.6844C54.2454 47.656 54.2028 47.3295 53.9851 47.3578C52.2718 47.8026 50.5726 48.3562 48.8592 48.801C48.7362 48.7063 48.5185 48.7347 48.3954 48.6401C48.0546 48.5738 47.8085 48.3844 47.4678 48.3182C48.4333 48.0816 49.2758 47.7503 50.1325 47.5279C50.3502 47.4996 50.3076 47.173 50.0899 47.2014C48.9067 47.4663 47.7234 47.7313 46.5401 47.9962C46.1994 47.93 45.9533 47.7406 45.6125 47.6743C46.1426 47.4945 46.5639 47.3289 47.094 47.1491C47.2975 47.0118 47.1461 46.6995 46.9283 46.7278C46.1947 47.0449 45.5557 47.2389 44.7937 47.3382C44.4388 47.1631 44.098 47.0968 43.7431 46.9217L43.8519 46.9075C44.1785 46.8649 44.5997 46.6993 44.9263 46.6567C45.144 46.6283 45.1015 46.3017 44.8837 46.3301C44.2306 46.4153 43.5774 46.5004 42.9385 46.6944C36.1043 44.3748 29.3647 41.9321 22.611 39.3805C16.8938 37.1367 9.78507 34.41 4.63565 33.9742C8.59714 33.7899 12.7289 34.9119 16.6951 35.6127ZM72.9281 89.0612C69.2504 91.4227 65.6816 93.77 62.0039 96.1314C59.1404 97.9439 56.2626 99.6476 53.9054 101.948C52.0408 99.5337 50.8815 96.585 49.5328 93.8824C48.0326 90.8674 46.4237 87.8666 44.5023 85.0172C40.6312 79.1007 36.2299 73.3641 32.0606 67.7079C27.5222 61.7677 22.7802 55.9648 18.1329 50.0388C13.9256 44.9411 9.23088 40.3498 4.82014 35.3894C11.73 39.1384 18.9096 42.4094 26.0088 45.9123C33.709 49.7796 41.5986 53.4009 49.5544 56.6814C57.3872 59.8673 65.2721 62.6035 72.9439 66.2531C76.9573 68.1655 80.8619 70.0921 84.7948 72.2364C87.5256 73.6518 90.4883 75.1476 93.4889 76.085C90.3793 77.7081 87.421 79.6437 84.5858 81.6739C80.7047 84.1726 76.8093 86.5625 72.9281 89.0612ZM82.1529 85.0909C82.8581 84.5562 83.6864 84.1161 84.3917 83.5813C88.0551 81.111 91.6098 78.6548 95.5761 76.8092C95.5098 77.15 95.4577 77.5996 95.3914 77.9404L95.2826 77.9546C93.342 79.204 91.5244 80.548 89.5838 81.7973C87.5344 83.0609 85.4849 84.3244 83.6011 86.0092C83.0142 85.7536 82.6451 85.4696 82.1529 85.0909ZM87.2216 88.305C88.3765 87.8223 89.503 87.1219 90.6437 86.5304C91.8932 85.9246 93.1144 85.1012 94.3781 84.6043C94.326 85.054 94.2739 85.5036 94.2076 85.8443C92.3617 86.9707 90.53 88.2058 88.5468 89.1286C88.1776 88.8446 87.6996 88.5748 87.2216 88.305ZM89.2709 89.5877C90.1134 89.2565 90.9417 88.8164 91.7558 88.2674C92.5841 87.8273 93.4124 87.3872 94.2407 86.9471C94.1886 87.3967 94.1507 87.9552 94.2074 88.3907C92.9721 89.1053 91.7367 89.8198 90.6103 90.5202C90.1322 90.2504 89.64 89.8717 89.2709 89.5877ZM92.6074 92.2526C93.1233 91.964 93.6392 91.6753 94.1552 91.3866C93.9942 91.8504 93.9563 92.4089 93.8095 92.9816C93.3315 92.7118 92.9766 92.5366 92.6074 92.2526Z" fill="#3F92D1"/>
<path d="M262.73 73.2859C248.616 72.0259 233.267 74.0268 220.403 79.8001C214.969 82.2797 209.554 85.7533 206.108 90.7416C204.788 90.803 203.482 90.9733 202.175 91.1436C196.202 92.033 190.399 94.2286 185.146 97.2384C182.268 98.9421 179.665 101.053 176.924 102.96C173.369 105.416 169.706 107.886 165.986 109.921C158.858 113.84 150.12 117.304 141.937 114.828C140.328 114.373 138.799 113.687 137.351 112.768C143.76 109.276 148.915 102.958 148.929 95.4278C148.92 88.565 141.963 83.6044 135.408 85.1232C130.254 86.3487 128.431 91.9003 128.17 96.6947C127.967 101.925 129.306 107.95 132.907 111.798C133.153 111.987 133.29 112.191 133.551 112.489C133.129 112.655 132.708 112.82 132.287 112.986C125.642 115.513 117.525 115.242 110.88 112.677C104.126 110.125 98.9913 104.705 96.0289 98.117C95.7261 97.4922 94.6658 97.8519 94.9829 98.5855C98.1393 105.813 103.766 111.611 111.107 114.418C118.571 117.32 127.61 117.027 134.947 113.857L135.056 113.843C140.318 117.696 147.389 118.435 153.755 117.162C161.943 115.43 169.313 110.816 176.233 106.15C181.728 102.444 186.636 98.4833 192.737 96.0273C196.529 94.5367 200.58 93.3443 204.745 93.0228C201.9 98.3755 201.445 105.077 204.578 110.426C208.274 116.697 217.134 115.874 221.82 111.057C226.506 106.239 223.085 97.8281 218.627 94.2023C215.782 91.9161 212.223 90.9408 208.546 90.756C208.64 90.6329 208.83 90.3868 208.924 90.2638C212.848 85.5453 218.646 82.4646 224.34 80.2831C236.149 75.7545 249.771 74.0895 262.332 75.3305C263.79 75.4726 264.079 73.4422 262.73 73.2859ZM133.205 108.991C131.587 106.767 130.768 103.884 130.305 101.177C129.586 96.5102 129.875 89.3872 134.916 87.2909C137.334 86.3113 140.415 87.0167 142.668 88.1623C145.863 89.7386 147.107 93.3404 146.88 96.6913C146.411 103.284 141.223 108.5 135.52 111.457C134.644 110.686 133.877 109.9 133.205 108.991ZM211.187 93.1794C217.306 94.2637 222.919 99.9531 221.892 106.508C221.219 110.692 216.273 112.665 212.529 112.821C208.894 112.963 206.415 110.076 205.227 106.909C203.5 102.153 204.603 97.0268 207.154 92.8194C208.489 92.8669 209.838 93.0232 211.187 93.1794Z" fill="#3F92D1"/>
<path d="M71.6593 93.7657C68.6443 95.2658 65.5063 96.6713 62.5196 98.3891C59.2348 100.367 56.1298 102.875 52.8734 105.071C52.8734 105.071 52.7646 105.086 52.7787 105.194C51.4489 103.486 50.6066 101.271 49.4803 99.4247C48.0653 97.0628 46.5557 94.824 45.046 92.5852C41.9984 87.8899 39.4524 82.7971 36.2012 78.239C36.0781 78.1444 35.9835 78.2674 35.9977 78.3763C38.2975 83.2798 41.2222 87.8804 44.0379 92.4952C45.4529 94.8571 46.9625 97.0959 48.4864 99.4435C49.873 101.588 50.7437 104.02 52.3196 105.918C52.4568 106.122 52.7834 106.079 52.9869 105.942C53.11 106.037 53.4508 106.103 53.6543 105.966C56.6267 104.139 59.2158 101.92 62.0652 99.9983C65.2127 97.8166 68.4975 95.8385 71.8107 94.0781C71.9054 93.955 71.7682 93.7515 71.6593 93.7657Z" fill="#3F92D1"/>
<path d="M69.6997 96.5674C66.4244 97.7694 63.7406 100.112 60.877 101.924C57.81 103.874 54.7571 105.933 51.8272 108.086L51.7325 108.209C50.6914 107.016 50.1519 105.426 49.5178 103.959C48.8553 102.274 47.7858 100.863 46.7021 99.344C44.2317 95.6805 41.8703 92.0029 39.807 88.0649C39.7928 87.956 39.5751 87.9844 39.5893 88.0933C40.7817 92.1448 43.1431 95.8224 45.4762 99.2824C46.7114 101.114 47.9182 102.728 48.7321 104.726C49.3804 106.302 50.0145 107.769 51.2876 109.042C51.4248 109.246 51.7372 109.094 51.8319 108.971C51.9549 109.066 52.1726 109.037 52.3762 108.9C55.1025 106.884 57.9519 104.963 60.8012 103.041C63.7595 101.106 66.5237 98.5314 69.8937 97.2064C70.4238 97.0266 70.2298 96.3876 69.6997 96.5674Z" fill="#3F92D1"/>
<path d="M90.7012 76.7805C90.81 76.7663 90.9047 76.6432 90.9852 76.4113C91.094 76.3971 91.2171 76.4918 91.2171 76.4918C91.7898 76.6386 91.8939 75.7393 91.3213 75.5926C86.3991 74.3522 82.4047 70.8874 77.6577 69.292C77.4258 69.2115 77.2507 69.5665 77.4826 69.647C81.6332 71.7629 85.4336 74.5888 89.9487 76.1036C88.3063 77.0927 86.8011 78.2853 85.1729 79.3832C82.8394 81.0159 80.4776 82.4309 78.1299 83.9547C77.9264 84.092 78.0778 84.4043 78.2814 84.2671C80.345 83.1124 82.4087 81.9577 84.4581 80.6942C86.536 79.6484 88.5287 77.9494 90.7012 76.7805Z" fill="#3F92D1"/>
<path d="M24.0635 46.2766C19.0278 44.1653 14.6122 40.8661 9.65698 38.523C9.17897 38.2531 8.73402 39.0861 9.32088 39.3417C14.2761 41.6849 18.7722 44.7522 23.8884 46.6315C24.1345 46.8209 24.4043 46.3429 24.0635 46.2766Z" fill="#3F92D1"/>
<path d="M5.99883 39.3319C4.29985 37.3392 2.58668 35.2377 1.09122 33.1077C1.06284 32.89 0.859312 33.0273 0.887694 33.245C1.83886 35.4459 3.53784 37.4386 5.00491 39.3508C6.62342 41.5754 8.64898 43.5255 10.1728 45.8732C10.4473 46.2802 11.0579 45.8685 10.7834 45.4614C9.38261 43.2085 7.4801 41.353 5.99883 39.3319Z" fill="#3F92D1"/>
<path d="M5.40663 40.7377C4.10518 39.2467 2.13638 37.732 1.33665 35.8435C1.29408 35.5169 0.981695 35.6684 1.01008 35.8861C1.44066 37.4906 2.83678 38.8585 4.00099 40.1459C5.56273 41.9351 7.00142 43.6296 8.4685 45.5418C8.85184 45.9347 9.44823 45.4141 9.17375 45.0071C7.98115 43.5019 6.69389 42.1198 5.40663 40.7377Z" fill="#3F92D1"/>
<path d="M102.71 58.498C101.602 60.1923 100.618 61.9813 99.8509 63.7419C99.6758 64.0969 100.263 64.3525 100.438 63.9975C101.38 61.882 102.634 59.615 103.931 57.6746C105.039 55.9803 106.501 54.4611 107.254 52.5916C107.335 52.3597 106.994 52.2934 106.899 52.4165C105.862 54.6551 104.102 56.4345 102.71 58.498Z" fill="#3F92D1"/>
<path d="M98.4736 63.3679C98.2985 63.7229 98.8854 63.9785 99.0605 63.6235C100.703 60.0881 103.07 57.0119 105.313 53.841C105.408 53.7179 105.148 53.4197 105.067 53.6516C102.686 56.619 100.102 59.7236 98.4736 63.3679Z" fill="#3F92D1"/>
<path d="M97.3425 63.1832C97.1673 63.5382 97.7542 63.7938 97.9294 63.4389C99.4394 60.585 100.987 57.1727 103.236 54.8868C103.344 54.8726 103.221 54.778 103.113 54.7921C101.958 55.2748 100.973 57.0638 100.325 58.034C99.2028 59.6195 98.3271 61.3943 97.3425 63.1832Z" fill="#3F92D1"/>
<path d="M97.9344 59.2312C97.177 60.2156 96.325 61.3231 95.9226 62.4826C95.7475 62.8376 96.3344 63.0932 96.5095 62.7383C96.9119 61.5787 97.7781 60.5801 98.4266 59.6099C99.2644 58.3936 100.211 57.1631 101.172 56.0415C101.361 55.7954 101.006 55.6202 100.912 55.7433C99.7331 56.8933 98.7722 58.0149 97.9344 59.2312Z" fill="#3F92D1"/>
<path d="M95.5014 62.6483C96.2399 60.67 97.8918 58.9047 98.5073 56.8317L98.4931 56.7228C97.963 56.9027 97.4659 58.1853 97.1819 58.5544C96.4529 59.7565 95.3974 61.0012 95.0092 62.2696C94.8483 62.7334 95.3263 63.0032 95.5014 62.6483Z" fill="#3F92D1"/>
<path d="M94.233 62.2601C94.6117 61.7679 94.8531 61.0722 95.1229 60.5942C95.5821 59.87 95.9182 59.0513 96.3773 58.3272C96.4578 58.0953 96.2117 57.9059 96.0224 58.152C95.1845 59.3683 94.5928 60.774 93.755 61.9903C93.6745 62.2222 94.0437 62.5062 94.233 62.2601Z" fill="#3F92D1"/>
<path d="M108.139 57.6796C107.003 59.1562 106.099 60.7133 105.086 62.2845C104.058 63.7469 103.046 65.3182 102.373 66.9557C102.388 67.0646 102.388 67.0646 102.402 67.1735C102.07 68.8773 101.834 70.4581 101.611 72.1477C101.455 73.4966 101.066 74.765 101.142 76.1944C101.156 76.3032 101.374 76.2748 101.36 76.166C101.535 73.2647 102.444 70.0464 103.069 67.1972C103.055 67.0883 103.055 67.0883 103.041 66.9795C104.276 63.7185 106.917 61.0494 108.371 57.7601C108.356 57.6512 108.233 57.5565 108.139 57.6796Z" fill="#3F92D1"/>
</g>
<defs>
<clipPath id="clip0">
<rect width="255.458" height="108.682" fill="white" transform="translate(0.641113 33.0557) rotate(-7.42725)"/>
</clipPath>
</defs>
</svg>
