<svg width="297" height="526" viewBox="0 0 297 526" fill="none" xmlns="http://www.w3.org/2000/svg">
<g clip-path="url(#clip0)">
<path opacity="0.2" d="M189.042 522.677L274.929 475.799C281.836 471.726 281.023 464.599 272.898 459.915L126.851 376.42C118.726 371.736 106.539 371.329 99.4294 375.198L13.5416 422.076C6.63536 426.149 7.44786 433.276 15.5729 437.96L161.62 521.455C169.745 526.343 181.932 526.75 189.042 522.677Z" fill="#92B4D1"/>
<path d="M174.62 514.124L40.1509 436.331C24.9166 427.574 12.7291 403.951 12.7291 383.587V24.1509C12.7291 13.7649 4.19782 11.5248 9.47907 7.85918C9.68219 7.65554 21.4634 2.36073 21.6666 2.15709C27.1509 0.120625 33.0416 -0.897606 40.1509 3.17532L174.62 80.9682C189.854 89.725 202.042 113.348 202.042 133.713V492.945C202.042 503.738 198.588 511.476 193.104 514.938C192.698 515.142 178.479 521.862 178.073 522.066C173.198 523.899 181.323 517.789 174.62 514.124Z" fill="#516372"/>
<path d="M164.057 518.808L29.5884 441.015C14.354 432.258 2.1665 408.635 2.1665 388.27V29.0384C2.1665 8.67376 14.354 -0.490318 29.5884 8.26647L164.057 86.0593C179.291 94.8161 191.479 118.439 191.479 138.804V498.036C191.682 518.197 179.291 527.564 164.057 518.808Z" fill="white"/>
<path d="M161.823 520.03L27.354 442.237C12.1196 433.48 -0.270996 409.857 -0.270996 389.492V30.2603C-0.270996 10.0993 12.1196 0.731572 27.1509 9.48836L161.62 87.2812C176.854 96.038 189.042 119.661 189.042 140.026V499.258C189.245 519.622 176.854 528.99 161.823 520.03Z" fill="#6A737B"/>
<path d="M170.963 516.16C168.323 516.16 165.479 515.346 162.432 513.513L28.5728 436.127C15.979 428.796 5.82275 409.042 5.82275 391.936V32.2967C5.82275 20.8925 10.4946 13.3576 18.0103 13.3576C20.6509 13.3576 23.4946 14.1722 26.5415 16.005L160.401 93.3906C172.995 100.722 183.354 120.476 183.354 137.582V497.425C183.151 508.829 178.479 516.16 170.963 516.16Z" fill="#B0BCC8"/>
<path d="M8.86963 394.176V36.3697C8.86963 21.5035 17.8071 14.5795 28.979 21.0962L159.995 96.8526C171.166 103.369 180.104 120.679 180.104 135.545V493.352C180.104 508.218 171.166 515.142 159.995 508.625L28.979 432.869C17.8071 426.352 8.86963 409.042 8.86963 394.176Z" fill="#A5A9AD"/>
<path d="M11.5103 392.14L177.463 488.261V182.384L11.5103 86.4666V392.14Z" fill="#F5FBFF"/>
<path d="M148.213 116.199L164.87 125.77C165.479 126.178 166.088 125.77 166.088 125.159C166.088 124.345 165.479 123.53 164.87 123.123L148.213 113.552C147.604 113.144 146.995 113.552 146.995 114.163C147.198 114.977 147.604 115.792 148.213 116.199ZM164.87 129.232L148.213 119.661C147.604 119.254 146.995 119.661 146.995 120.272C146.995 121.086 147.604 121.901 148.213 122.308L164.87 131.88C165.479 132.287 166.088 131.88 166.088 131.269C166.088 130.454 165.479 129.436 164.87 129.232ZM164.87 135.138L148.213 125.567C147.604 125.159 146.995 125.567 146.995 126.178C146.995 126.992 147.604 127.807 148.213 128.214L164.87 137.785C165.479 138.193 166.088 137.785 166.088 137.175C166.088 136.36 165.479 135.545 164.87 135.138Z" fill="white"/>
<path d="M46.4478 58.7707C46.4478 60.6035 45.229 61.2145 43.604 60.3999C41.979 59.5853 40.7603 57.3452 40.7603 55.716C40.7603 53.8832 41.979 53.2723 43.604 54.0869C45.229 54.9014 46.4478 56.9379 46.4478 58.7707Z" fill="white"/>
<path d="M38.1196 53.8832C38.1196 55.716 36.9009 56.327 35.2759 55.5124C33.6509 54.6978 32.4321 52.4577 32.4321 50.8285C32.4321 48.9957 33.6509 48.3848 35.2759 49.1993C36.9009 50.0139 38.1196 52.0504 38.1196 53.8832Z" fill="white"/>
<path d="M29.7915 48.9957C29.7915 50.8285 28.5728 51.4395 26.9478 50.6249C25.3228 49.8103 24.104 47.5702 24.104 45.941C24.104 44.1082 25.3228 43.4973 26.9478 44.3119C28.5728 45.1264 29.7915 47.1629 29.7915 48.9957Z" fill="white"/>
<path d="M100.276 332.268C100.276 316.791 89.3071 297.851 75.9009 289.909C69.4009 286.244 63.5103 285.633 59.0415 287.873L52.9478 291.335L54.7759 294.389C53.9634 296.63 53.5571 299.481 53.5571 302.535C53.5571 318.012 64.5259 336.952 77.9321 344.894C80.7759 346.523 83.4165 347.541 85.854 347.948L87.6821 351.003L92.5571 348.356C97.229 345.912 100.276 340.413 100.276 332.268Z" fill="#C5C5C5"/>
<path d="M88.0419 350.787C97.5329 345.224 97.4242 327.334 87.799 310.827C78.1739 294.321 62.6771 285.45 53.186 291.013C43.695 296.575 43.8037 314.466 53.4289 330.972C63.0541 347.479 78.5508 356.35 88.0419 350.787Z" fill="white"/>
<path d="M42.5884 335.933C42.1821 335.933 41.979 335.73 41.7759 335.322C41.1665 334.1 40.5571 332.879 39.9478 331.657C39.7446 331.249 39.9478 330.638 40.354 330.231C40.7603 330.028 41.3696 330.231 41.7759 330.638C42.3853 331.86 42.9946 333.082 43.604 334.304C43.8071 334.711 43.604 335.322 43.1978 335.73C42.7915 335.933 42.7915 335.933 42.5884 335.933ZM38.3228 326.769C37.9165 326.769 37.5103 326.566 37.3071 326.158C36.9009 324.936 36.2915 323.511 36.0884 322.289C35.8853 321.678 36.2915 321.271 36.6978 321.067C37.3071 320.863 37.7134 321.271 37.9165 321.678C38.3228 322.9 38.729 324.122 39.1353 325.547C39.3384 326.158 39.1353 326.566 38.5259 326.769C38.5259 326.769 38.5259 326.769 38.3228 326.769ZM35.6821 316.994C35.2759 316.994 34.8696 316.587 34.6665 316.18C34.4634 314.754 34.2603 313.329 34.0571 312.107C34.0571 311.496 34.4634 311.088 34.8696 311.088C35.479 311.088 35.8853 311.496 35.8853 311.903C36.0884 313.125 36.2915 314.55 36.4946 315.772C36.6978 316.18 36.2915 316.791 35.6821 316.994Z" fill="#A8CFF0"/>
<path d="M87.6727 351.11C97.1638 345.547 97.0551 327.656 87.4299 311.15C77.8047 294.644 62.3079 285.772 52.8169 291.335C43.3259 296.898 43.4346 314.789 53.0598 331.295C62.6849 347.801 78.1817 356.673 87.6727 351.11Z" fill="#3F92D1"/>
<path d="M69.4009 301.721C61.0728 296.833 54.3696 300.703 54.3696 310.274C54.3696 319.438 60.4634 330.435 68.3853 335.526V344.079L74.8853 338.173C80.5728 338.988 84.4321 334.915 84.4321 327.584C84.4321 318.012 77.729 306.405 69.4009 301.721ZM63.3071 317.198C62.4946 317.809 60.8696 316.791 60.0571 315.365C59.2446 313.736 59.2446 312.107 60.0571 311.496C60.8696 310.885 62.4946 311.903 63.3071 313.329C64.3228 314.958 64.3228 316.791 63.3071 317.198ZM71.0259 321.678C70.2134 322.289 68.5884 321.271 67.7759 319.845C66.9634 318.216 66.9634 316.587 67.7759 315.976C68.5884 315.365 70.2134 316.383 71.0259 317.809C71.8384 319.438 71.8384 321.067 71.0259 321.678ZM78.5415 325.955C77.729 326.566 76.104 325.547 75.2915 324.122C74.479 322.493 74.479 320.863 75.2915 320.253C76.104 319.642 77.729 320.66 78.5415 322.085C79.5571 323.918 79.5571 325.547 78.5415 325.955Z" fill="white"/>
<path d="M151.057 238.183C151.057 222.706 140.088 203.767 126.682 195.825C120.182 192.159 114.292 191.548 109.823 193.788L103.729 197.25L105.557 200.305C104.745 202.545 104.338 205.396 104.338 208.451C104.338 223.928 115.307 242.867 128.713 250.809C131.557 252.438 134.198 253.457 136.635 253.864L138.463 256.919L143.338 254.271C148.01 252.031 151.057 246.329 151.057 238.183Z" fill="#C5C5C5"/>
<path d="M138.881 256.879C148.372 251.317 148.263 233.426 138.638 216.92C129.012 200.413 113.516 191.542 104.025 197.105C94.5336 202.668 94.6423 220.558 104.268 237.065C113.893 253.571 129.389 262.442 138.881 256.879Z" fill="white"/>
<path d="M131.963 270.563C130.542 270.563 129.12 270.359 127.698 270.156C127.088 270.156 126.682 269.545 126.885 268.934C126.885 268.323 127.495 267.915 128.104 268.119C129.323 268.323 130.745 268.323 131.963 268.323C132.573 268.323 132.979 268.73 132.979 269.341C132.979 269.952 132.37 270.563 131.963 270.563ZM122.01 268.934C121.807 268.934 121.807 268.934 121.604 268.934C120.385 268.526 118.963 267.915 117.745 267.305C117.338 267.101 116.932 266.49 117.338 265.879C117.542 265.472 118.151 265.064 118.76 265.472C119.979 266.083 121.198 266.49 122.417 267.101C123.026 267.305 123.229 267.915 123.026 268.323C122.823 268.526 122.417 268.934 122.01 268.934ZM112.87 264.25C112.667 264.25 112.463 264.25 112.26 264.046C111.042 263.232 110.026 262.417 109.01 261.602C108.604 261.195 108.401 260.584 108.807 260.177C109.213 259.77 109.823 259.566 110.229 259.973C111.245 260.788 112.463 261.602 113.479 262.417C113.885 262.824 114.088 263.435 113.682 263.843C113.479 264.046 113.276 264.25 112.87 264.25ZM105.151 257.733C104.948 257.733 104.542 257.733 104.338 257.529C103.323 256.511 102.51 255.493 101.495 254.475C101.088 254.068 101.088 253.457 101.495 253.049C101.901 252.642 102.51 252.642 102.917 253.049C103.729 254.068 104.745 255.086 105.76 255.9C106.167 256.308 106.167 256.919 105.76 257.326C105.557 257.733 105.354 257.733 105.151 257.733ZM98.4478 249.995C98.0415 249.995 97.8384 249.791 97.6353 249.587C96.8228 248.569 96.0103 247.347 95.1978 246.125C94.7915 245.718 94.9946 245.107 95.4009 244.7C95.8071 244.496 96.4165 244.496 96.8228 244.903C97.6353 246.125 98.2446 247.144 99.0571 248.162C99.4634 248.569 99.2603 249.18 98.854 249.587C98.854 249.995 98.6509 249.995 98.4478 249.995ZM92.9634 241.441C92.5571 241.441 92.1509 241.238 92.1509 240.83C91.5415 239.609 90.9321 238.387 90.3228 237.165C90.1196 236.554 90.3228 236.147 90.729 235.739C91.3384 235.536 91.7446 235.739 92.1509 236.147C92.7603 237.369 93.3696 238.59 93.979 239.812C94.1821 240.22 93.979 240.83 93.5728 241.238C93.3696 241.441 93.1665 241.441 92.9634 241.441ZM88.9009 232.074C88.4946 232.074 88.0884 231.87 87.8853 231.463C87.479 230.241 87.0728 228.815 86.6665 227.593C86.4634 226.983 86.8696 226.575 87.2759 226.372C87.8853 226.168 88.2915 226.575 88.4946 226.983C88.9009 228.204 89.3071 229.63 89.7134 230.852C89.9165 231.463 89.7134 231.87 89.104 232.074C89.104 232.074 89.104 232.074 88.9009 232.074ZM86.2603 222.299C85.854 222.299 85.4478 221.891 85.2446 221.484C85.0415 220.059 84.8384 218.633 84.6353 217.411C84.6353 216.8 85.0415 216.393 85.6509 216.393C86.2603 216.393 86.6665 216.8 86.6665 217.411C86.8696 218.633 86.8696 220.059 87.2759 221.28C87.2759 221.688 87.0728 222.299 86.2603 222.299C86.4634 222.299 86.2603 222.299 86.2603 222.299Z" fill="#A8CFF0"/>
<path d="M138.409 257.026C147.9 251.463 147.792 233.572 138.166 217.066C128.541 200.56 113.045 191.688 103.553 197.251C94.0624 202.814 94.1712 220.704 103.796 237.211C113.421 253.717 128.918 262.589 138.409 257.026Z" fill="#3F92D1"/>
<path d="M120.792 233.907C124.651 236.147 127.698 234.314 127.698 229.834V217.411C127.698 212.931 124.448 207.433 120.792 205.396C116.932 203.156 113.885 204.989 113.885 209.469V221.891C113.682 226.372 116.932 231.666 120.792 233.907Z" fill="white"/>
<path d="M130.948 227.39C130.338 226.983 129.729 227.39 129.729 228.001V231.055C129.729 236.758 125.666 239.201 120.588 236.147C115.51 233.296 111.448 226.168 111.448 220.466V217.411C111.448 216.597 110.838 215.782 110.229 215.375C109.62 214.967 109.01 215.375 109.01 215.986V219.04C109.01 225.557 113.276 233.499 118.76 237.572V243.478C117.338 243.274 116.526 244.089 116.526 245.718L124.651 250.402C124.651 248.773 123.635 246.94 122.417 245.514V239.609C127.901 241.849 132.166 238.794 132.166 232.277V229.223C132.166 228.612 131.557 227.797 130.948 227.39Z" fill="white"/>
<path d="M86.8696 203.563L61.6821 165.889L60.4634 167.314L61.6821 179.94L27.1509 159.983L25.9321 161.408L26.9478 177.904L61.479 197.861V211.913L85.6509 204.785L86.8696 203.563Z" fill="#0091C8"/>
<path d="M85.6509 204.785L60.4634 167.111V181.162L25.9321 161.205V179.126L60.4634 199.083V213.135L85.6509 204.785Z" fill="#41B4E6"/>
<g opacity="0.5">
<path opacity="0.5" d="M85.4478 204.989L85.6509 204.785L60.4634 167.111V167.721L85.4478 204.989Z" fill="white"/>
<path opacity="0.5" d="M60.4634 181.569V181.162L25.9321 161.205V161.612L60.4634 181.569Z" fill="white"/>
</g>
<path d="M104.948 337.359L103.932 338.784L128.917 376.052L130.135 375.033V360.982L163.651 382.365L164.87 381.143V363.018L130.338 343.061V329.009L104.948 337.359Z" fill="#0091C8"/>
<path d="M103.729 338.581L128.917 376.255V362.204L163.448 382.161V364.24L128.917 344.283V330.231L103.729 338.581Z" fill="#41B4E6"/>
<g opacity="0.5">
<path opacity="0.5" d="M128.917 344.283V330.231L103.729 338.581L103.932 338.988L128.917 330.639V344.69L163.448 364.647V382.161V364.24L128.917 344.283Z" fill="white"/>
</g>
<path d="M74.8853 393.362C74.8853 404.562 82.8071 418.41 92.5571 424.112C95.1978 425.741 97.8384 426.556 100.276 426.556C105.76 426.556 109.213 422.076 109.213 414.744C109.213 403.544 101.292 389.696 91.5415 383.994C88.9009 382.365 86.2603 381.55 83.8228 381.55C78.3384 381.55 74.8853 386.03 74.8853 393.362Z" fill="white"/>
<path d="M92.7603 425.334C82.4009 419.225 73.0571 403.544 73.0571 391.529C73.0571 382.976 79.9634 377.884 86.8696 377.884C89.7134 377.884 92.5571 378.699 95.604 380.532C105.963 386.641 114.495 401.304 114.495 413.115C114.495 421.668 107.385 428.389 100.682 428.389C97.8384 428.389 95.8071 426.963 92.7603 425.334ZM76.104 392.547C76.104 403.747 84.0259 417.595 93.7759 423.298C96.4165 424.927 99.0571 425.741 101.495 425.741C106.979 425.741 110.432 421.261 110.432 413.93C110.432 402.729 102.51 388.881 92.7603 383.179C90.1196 381.55 87.479 380.735 85.0415 380.735C79.5571 380.735 76.104 385.216 76.104 392.547Z" fill="#C5C5C5"/>
<path d="M91.7446 425.945C81.3853 419.836 72.854 405.173 72.854 393.362C72.854 384.808 77.3228 379.31 84.0259 379.31C86.8696 379.31 89.7134 380.125 92.7603 381.957C103.12 388.067 111.651 402.729 111.651 414.541C111.651 423.094 107.182 428.592 100.479 428.592C97.8384 428.592 94.7915 427.778 91.7446 425.945ZM75.0884 393.362C75.0884 404.562 83.0103 418.41 92.7603 424.112C95.4009 425.741 98.0415 426.556 100.479 426.556C105.963 426.556 109.417 422.076 109.417 414.744C109.417 403.544 101.495 389.696 91.7446 383.994C89.104 382.365 86.4634 381.55 84.0259 381.55C78.5415 381.346 75.0884 386.03 75.0884 393.362Z" fill="white"/>
<path d="M91.5415 426.149C81.1821 420.039 72.6509 405.377 72.6509 393.565C72.6509 385.012 77.1196 379.514 83.8228 379.514C86.6665 379.514 89.5103 380.328 92.5571 382.161C102.917 388.27 111.448 402.933 111.448 414.744C111.448 423.297 106.979 428.796 100.276 428.796C97.4321 428.796 94.5884 427.981 91.5415 426.149ZM74.8853 393.361C74.8853 404.562 82.8071 418.41 92.5571 424.112C95.1978 425.741 97.8384 426.556 100.276 426.556C105.76 426.556 109.213 422.076 109.213 414.744C109.213 403.544 101.292 389.696 91.5415 383.994C88.9009 382.365 86.2603 381.55 83.8228 381.55C78.3384 381.55 74.8853 386.03 74.8853 393.361Z" fill="#F47892"/>
<path d="M82.4008 399.064L89.3071 414.133L102.307 400.489C102.713 400.082 102.51 398.86 101.698 398.045L97.8383 394.38C97.2289 393.972 96.8227 393.769 96.4164 394.176L89.5102 405.988L86.4633 398.656C86.2602 398.045 85.6508 397.434 85.0415 397.434L83.0102 397.027C82.4008 397.434 81.9946 398.249 82.4008 399.064Z" fill="#C5C5C5"/>
<path d="M81.7915 399.471L88.6977 414.541L101.698 400.896C102.104 400.489 101.901 399.267 101.088 398.453L97.229 394.787C96.6196 394.38 96.2134 394.176 95.8071 394.583L88.9009 406.395L85.854 399.064C85.6509 398.453 85.0415 397.842 84.4321 397.842L82.4009 397.434C81.5884 397.638 81.3853 398.656 81.7915 399.471Z" fill="#F47892"/>
<path opacity="0.3" d="M295.043 330.531C289.143 331.931 284.743 337.431 280.143 341.031C279.843 341.331 279.443 341.531 279.143 341.831C275.843 338.231 272.243 334.831 268.943 331.231C266.143 328.231 261.243 332.631 263.643 335.931C266.443 339.731 270.043 342.931 273.543 346.331C269.243 349.731 264.943 353.331 260.943 357.031C258.943 357.931 260.343 362.131 262.943 360.631C268.043 357.631 272.943 354.131 277.743 350.531C282.143 355.531 286.743 360.431 292.943 363.131C295.043 364.031 296.943 361.431 295.143 359.831C290.743 355.831 287.043 351.131 283.243 346.531C287.943 343.031 292.243 339.331 297.543 336.631C300.943 334.831 298.643 329.731 295.043 330.531Z" fill="white"/>
<path opacity="0.3" d="M270.513 113.592C266.494 114.545 263.497 118.291 260.364 120.744C260.159 120.948 259.887 121.084 259.682 121.288C257.435 118.836 254.983 116.52 252.735 114.068C250.828 112.025 247.49 115.022 249.125 117.27C251.032 119.858 253.484 122.038 255.868 124.354C252.939 126.67 250.01 129.122 247.286 131.642C245.923 132.255 246.877 135.116 248.648 134.094C252.122 132.051 255.459 129.667 258.729 127.214C261.726 130.62 264.859 133.958 269.082 135.797C270.513 136.41 271.807 134.639 270.581 133.549C267.584 130.825 265.063 127.623 262.475 124.49C265.677 122.106 268.605 119.586 272.216 117.747C274.531 116.52 272.965 113.047 270.513 113.592Z" fill="white"/>
</g>
<defs>
<clipPath id="clip0">
<rect width="296" height="525" fill="white" transform="translate(0.170654 0.752533)"/>
</clipPath>
</defs>
</svg>
