<svg width="151" height="95" viewBox="0 0 151 95" fill="none" xmlns="http://www.w3.org/2000/svg">
<path d="M150.107 11.1359C149.217 8.56661 147.526 6.88329 144.855 6.7061C141.116 6.52891 137.377 6.7061 133.638 6.7061C125.894 6.7061 118.06 6.52891 110.315 6.08593C102.57 5.64295 94.7363 5.90874 86.9915 6.08593C83.1636 6.26312 79.3357 6.52891 75.5078 6.7061C72.5701 6.79469 69.6325 6.7061 66.6948 6.88329C64.4693 7.06048 61.7986 7.41486 60.3743 9.45256C59.4841 10.7815 59.8402 12.7306 59.9292 14.1481C60.1072 16.0972 59.9292 18.0463 60.0182 20.084C57.7927 20.084 55.5672 20.084 53.3417 20.1726C45.5969 20.2612 37.763 20.1726 30.0182 20.3498C26.1903 20.4384 22.3624 20.6156 18.4455 21.0586C15.0627 21.413 11.5909 21.7674 8.38618 23.0077C7.2289 23.4507 6.3387 23.8937 5.62653 24.8682C4.91436 25.8428 4.73632 27.1717 4.55828 28.3234C4.46926 29.5638 4.55828 30.8041 4.6473 31.9559C4.73632 33.5506 4.73632 35.1453 4.82534 36.6514C5.09241 40.461 5.62653 44.1821 5.80457 47.9917C5.98261 51.8013 5.98261 55.5223 5.98261 59.3319C6.07163 63.1415 6.16066 66.8626 6.07163 70.6722C6.07163 72.4441 5.98261 74.3046 6.07163 76.0765C6.16066 77.5826 6.96184 78.9116 7.67401 80.1519C8.56422 81.7466 10.5227 82.4554 12.2141 82.8984C14.7066 83.6071 17.1992 83.6957 19.7808 83.7843C22.7185 83.7843 25.6562 83.7843 28.5939 83.6957C30.0182 83.6071 31.4426 83.5185 32.7779 83.3414C33.9351 83.1642 35.0924 82.8098 36.3387 82.7212C37.0509 85.6448 38.3862 88.7457 40.7897 90.6948C42.036 91.7579 43.3713 92.6439 44.8847 93.4413C46.309 94.15 47.7334 94.8588 49.4248 94.9474C50.2259 94.9474 50.315 93.9728 49.6918 93.6184C48.4455 92.7325 47.7334 90.7834 47.4663 89.4545C47.1102 87.6825 47.1992 85.6448 47.6443 83.9615C47.7334 83.6071 47.8224 83.3413 48.0004 82.987C48.0894 82.8098 48.3565 82.4554 48.1785 82.4554C48.6236 82.3668 49.3357 82.544 49.6918 82.544C51.7393 82.6326 53.7868 82.544 55.8342 82.544C63.6681 82.544 71.5019 82.3668 79.2467 81.8352C81.1161 81.7466 82.9856 81.658 84.855 81.4808C86.3684 81.3923 87.8817 81.215 89.128 80.3291C91.0865 78.9116 91.2645 75.8993 91.6206 73.773C92.0657 70.8494 91.8877 67.7485 91.7096 64.8249C95.0034 64.8249 98.3862 64.6477 101.68 64.5591C104.974 64.4705 108.267 64.5591 111.561 64.2047C111.739 67.3055 111.294 70.6722 108.446 72.5327C107.733 72.9757 108.178 74.3046 109.069 74.0388C111.917 72.9757 115.122 72.5327 117.437 70.5836C119.395 68.9888 119.395 66.5082 119.662 64.2047C126.784 63.9389 133.905 64.5591 141.116 63.4959C143.609 63.1415 146.546 62.7872 147.615 60.0407C148.149 58.6232 148.149 56.9398 148.505 55.5223C148.95 53.7504 149.395 52.0671 149.573 50.2952C150.552 42.7645 150.908 35.1453 150.997 27.6147C150.997 24.9568 151.175 22.2989 151.175 19.5525C150.997 16.9832 150.908 13.6166 150.107 11.1359ZM89.4841 75.9879C89.217 77.2282 88.8609 78.4686 87.8817 79.266C87.2586 79.7975 86.0123 79.8861 85.2111 79.9747C84.1428 80.0633 82.9856 80.1519 81.9173 80.2405C78.0004 80.5063 74.0835 80.6835 70.1666 80.7721C66.2497 80.9493 62.3328 80.9493 58.4158 81.0379C54.944 81.0379 51.3832 80.9493 47.8224 81.0379C46.7541 81.0379 46.4871 82.0124 46.22 82.8984C45.7749 84.4045 45.5969 85.7334 45.5969 87.3282C45.6859 89.2773 46.131 91.6693 47.4663 93.3527C46.6651 93.0869 45.8639 92.6439 45.0627 92.2009C43.7274 91.5807 42.3921 90.6948 41.4129 89.6316C39.5434 87.5053 38.2081 84.4931 37.8521 81.7466C37.763 81.3036 37.3179 81.0379 36.9618 81.0379C35.3595 80.9493 33.7571 81.3036 32.1547 81.5694C30.1963 81.9238 28.2378 81.8352 26.2794 81.9238C22.6295 81.9238 18.9796 82.1896 15.3298 81.7466C14.0835 81.5694 12.7482 81.3036 11.5019 80.8607C10.0776 80.3291 9.45442 79.5317 8.74226 78.2914C7.85205 76.6081 8.03009 75.0134 8.03009 73.1528C8.03009 71.2037 8.03009 69.2546 8.03009 67.2169C8.03009 63.4073 7.85205 59.6863 7.76303 55.8767C7.85205 51.9785 7.76303 48.1689 7.40695 44.3593C7.05086 40.6382 6.60576 36.9172 6.60576 33.1962C6.60576 30.8927 5.89359 28.1462 7.13988 25.9314C7.76303 24.7796 9.3654 24.4252 10.5227 24.0708C12.3031 23.5393 14.1725 23.3621 15.9529 23.0963C19.8699 22.5647 23.7868 22.2989 27.7037 22.1217C35.4485 21.7674 43.2823 21.9446 51.0271 21.856C58.861 21.7674 66.6058 21.5902 74.4396 21.7674C76.309 21.7674 78.1785 21.856 80.0479 21.9446C82.0064 22.0331 84.0538 21.856 85.7452 22.9191C87.0805 23.8051 88.1488 25.0454 88.5049 26.5515C88.95 28.2348 88.95 30.0068 89.039 31.6901C89.3951 35.5883 89.7512 39.4865 89.9292 43.3847C90.0182 45.2452 90.0182 47.1057 89.9292 48.8776C89.8402 50.8267 89.3061 52.6873 89.3061 54.725C89.128 61.8126 90.8194 68.9888 89.4841 75.9879ZM149.039 24.0708C148.95 27.4375 148.95 30.8927 148.861 34.2594C148.683 38.069 148.416 41.8786 148.06 45.6882C147.882 47.5487 147.793 49.4092 147.437 51.2697C147.17 53.1302 146.635 54.9021 146.19 56.6741C145.834 58.1802 146.101 59.8635 144.677 60.7495C143.431 61.5468 141.828 61.6354 140.404 61.8126C136.665 62.3442 132.926 62.4328 129.187 62.4328C125.627 62.3442 122.155 62.2556 118.594 62.4328C118.238 62.4328 117.793 62.6986 117.704 63.0529C117.348 65.1792 117.615 67.6599 115.923 69.3432C114.677 70.5836 112.808 71.2037 111.027 71.6467C112.362 69.2546 112.362 66.331 112.54 63.4959C112.54 63.1415 112.184 62.8758 111.917 62.7872C108.446 62.4328 104.885 62.7872 101.413 62.8758C98.0301 62.9643 94.6473 63.0529 91.3535 63.0529C91.3535 62.8757 91.3535 62.7872 91.3535 62.61C91.1755 58.8004 90.6414 55.0793 91.2645 51.3583C91.8877 47.6373 91.6206 43.7391 91.4426 40.0181C91.1755 36.2085 90.8194 32.4874 90.5523 28.6778C90.4633 27.3489 90.3743 26.02 89.8402 24.7796C89.3061 23.3621 88.2378 22.2989 86.9915 21.413C85.7452 20.527 84.3209 20.2612 82.8075 20.1726C80.7601 20.084 78.7126 20.084 76.7541 19.9954C71.6799 19.8183 66.5167 19.8183 61.4426 19.9069C61.5316 18.4007 61.8877 16.806 61.7096 15.2999C61.5316 13.7938 61.1755 11.8446 61.7096 10.3385C62.3328 8.47801 65.8046 8.38942 67.4069 8.30082C70.5227 8.12363 73.7274 8.21222 76.8431 8.03503C80.671 7.85784 84.4989 7.59205 88.3268 7.50346C96.0716 7.32627 103.905 7.14908 111.65 7.59205C119.395 8.03503 127.14 8.21222 134.974 8.30082C136.843 8.30082 138.713 8.30082 140.582 8.30082C142.273 8.30082 144.232 8.12363 145.834 8.47801C148.594 9.09818 148.95 14.0595 149.128 16.2744C149.395 18.9323 149.128 21.5016 149.039 24.0708Z" fill="#F47892"/>
<path d="M31.3535 47.5487L31.2645 47.6373C30.9974 47.8145 30.7304 47.9917 30.4633 48.2575C29.6621 49.232 29.3061 50.561 29.4841 51.7127C29.6621 53.1302 31.0865 53.839 32.3328 53.9276C33.579 54.0162 34.8253 53.1302 35.3595 51.9785C35.8936 50.6496 35.6265 49.3206 34.8253 48.1689C33.9351 47.1057 32.5108 46.5742 31.3535 47.5487ZM34.1132 51.8013C33.6681 52.5987 32.8669 52.8645 32.0657 52.7759C32.0657 52.6873 31.9767 52.6873 31.9767 52.5987C31.4426 52.0671 30.8194 51.8013 30.7304 50.9154C30.7304 50.2066 31.0865 49.4092 31.5316 48.8776C31.7096 48.6119 31.9767 48.3461 32.3328 48.2575C32.5108 48.2575 32.6888 48.1689 32.8669 48.1689C33.312 48.2575 33.7571 48.8776 33.9351 49.232C34.5583 50.0294 34.5583 50.9154 34.1132 51.8013Z" fill="#F47892"/>
<path d="M46.6651 47.7259C45.9529 47.9917 45.5078 48.5233 45.0627 49.1434C44.5286 49.7636 44.2615 50.6495 44.6176 51.5355C45.2408 53.0416 47.3773 54.1048 48.8906 53.1302C50.493 52.0671 50.493 49.5864 49.2467 48.3461C48.7126 47.5487 47.5553 47.3715 46.6651 47.7259ZM48.3565 52.0671C47.6443 52.7758 46.4871 51.9785 45.9529 51.4469C45.7749 51.1811 45.6859 50.9153 45.6859 50.6495C45.7749 50.5609 45.8639 50.4724 45.9529 50.3838C46.131 49.8522 46.5761 49.4092 47.0212 49.1434C47.1992 49.0548 47.4663 49.0548 47.6443 49.0548C47.7334 49.0548 47.8224 49.0548 47.8224 48.9662C48.0894 49.0548 48.3565 49.1434 48.5345 49.4092C49.2467 50.0294 48.9796 51.3583 48.3565 52.0671Z" fill="#F47892"/>
<path d="M62.6889 47.2829C61.6206 47.3715 60.8194 48.0803 60.4633 48.9662C60.1072 49.3206 59.8402 49.8522 59.8402 50.561C59.8402 52.5987 62.1547 54.0162 64.0242 53.4846C66.1607 52.8645 66.6058 50.118 65.4485 48.5233C64.8253 47.7259 63.7571 47.2829 62.6889 47.2829ZM63.312 52.5101C62.0657 52.7759 60.8194 51.4469 60.9975 50.2952C60.9975 50.2066 60.9975 50.2066 60.9975 50.118C61.2645 50.118 61.4426 49.9408 61.5316 49.675C61.6206 49.5864 61.6206 49.4092 61.7096 49.3206C62.3328 48.9662 63.134 48.8776 63.6681 48.8776C63.9351 49.0548 64.2022 49.232 64.3802 49.5864C65.2704 50.6496 64.6473 52.2443 63.312 52.5101Z" fill="#F47892"/>
<path d="M4.6473 24.5138C5.27045 23.1849 6.69478 22.7419 7.94107 22.2103C9.3654 21.6788 10.8788 21.413 12.3031 21.0586C15.4188 20.4384 18.7126 20.527 21.8283 20.1726C22.3624 20.084 22.1844 19.1981 21.5612 19.2867C18.0894 19.7297 14.6176 19.6411 11.1458 20.3498C9.72148 20.6156 8.29715 20.97 6.96184 21.5016C5.98261 21.8559 4.6473 22.3875 4.02415 23.3621C2.68884 25.577 2.86688 28.3234 2.86688 30.8041C3.13395 34.4365 3.40101 38.069 3.66807 41.7014C3.66807 41.9672 4.11318 41.9672 4.11318 41.7014C4.29122 38.6005 4.02415 35.4997 4.02415 32.3988C3.93513 29.8296 3.57905 26.9059 4.6473 24.5138Z" fill="#F47892"/>
<path d="M12.4811 19.4639C13.1043 19.2867 12.8372 18.4007 12.2141 18.5779C8.92029 19.5525 4.29121 19.6411 2.33275 23.0077C1.88765 23.8051 1.70961 24.7796 1.53157 25.6656C1.35353 26.6401 1.08646 27.7033 0.997444 28.6778C0.730381 30.9813 1.44255 33.3734 1.62059 35.6769C1.62059 35.9427 1.97667 35.9427 2.06569 35.6769C2.24373 33.7278 1.97667 31.8673 1.88765 30.0068C1.79863 27.9691 2.33275 25.8428 2.86688 23.8937C3.93513 20.3498 9.63246 20.1726 12.4811 19.4639Z" fill="#F47892"/>
<path d="M11.5909 65.0906C13.1043 62.8757 15.1517 60.9266 16.9322 58.889C17.1992 58.5346 16.7541 58.003 16.398 58.3574C15.4188 59.4205 14.4396 60.4837 13.4603 61.4582C12.4811 62.4328 11.4129 63.4073 10.7897 64.5591C10.5227 65.0906 11.2348 65.5336 11.5909 65.0906Z" fill="#F47892"/>
<path d="M11.5909 68.2801C11.3239 68.6345 11.947 68.9889 12.2141 68.6345C14.2615 66.0652 16.22 63.2302 18.6236 60.9267C18.8906 60.6609 18.4455 60.2179 18.1785 60.4837C17.0212 61.6354 16.042 62.8758 14.9737 64.1161C13.8164 65.445 12.6592 66.8626 11.5909 68.2801Z" fill="#F47892"/>
<path d="M12.125 72.6213C13.5494 71.3809 14.6176 69.609 15.7749 68.1029C17.1992 66.1538 18.8906 64.4705 20.493 62.61C20.582 62.4328 20.404 62.2556 20.3149 62.4328C17.2882 65.5336 14.5286 68.8117 11.5909 72.0011C11.2348 72.3555 11.769 72.8871 12.125 72.6213Z" fill="#F47892"/>
<path d="M22.0063 65.0021C22.2734 64.7363 21.8283 64.2047 21.5612 64.5591C18.2675 68.2801 14.8847 71.8239 11.6799 75.6335C11.4129 75.9879 11.7689 76.6081 12.2141 76.2537C13.1043 75.7221 13.5494 74.7476 14.1725 73.9502C15.0627 72.9757 15.8639 72.0011 16.7541 71.0266C18.5345 69.166 20.3149 67.0398 22.0063 65.0021Z" fill="#F47892"/>
<path d="M22.8075 67.5713C20.404 70.938 17.2883 73.8616 14.6176 76.9625C14.2615 77.4054 14.8847 77.937 15.2408 77.494C17.8224 74.216 20.493 71.1151 22.8075 67.5713Z" fill="#F47892"/>
<path d="M24.677 69.6976C22.2734 72.3555 19.5138 74.7476 17.5553 77.7598C17.2882 78.2028 17.9114 78.6458 18.2675 78.2028C20.404 75.3677 22.6295 72.7099 24.855 69.9634C25.0331 69.7862 24.855 69.5204 24.677 69.6976Z" fill="#F47892"/>
<path d="M25.4782 71.4695C23.9648 73.8616 21.8283 75.8107 20.1369 78.1142C19.7808 78.5572 20.582 79.0888 20.9381 78.5572C22.6295 76.2537 24.5879 74.216 26.0123 71.7353C26.1903 71.4695 25.6562 71.2037 25.4782 71.4695Z" fill="#F47892"/>
<path d="M27.9707 72.8871C26.6354 74.7476 25.2111 76.5195 23.6977 78.2914C23.2526 78.7344 23.9648 79.3545 24.3209 78.823C25.6562 76.9625 27.1695 75.1019 28.1488 73.0642C28.2378 72.8871 28.0598 72.7985 27.9707 72.8871Z" fill="#F47892"/>
<path d="M28.95 75.102C28.4158 76.2537 27.7037 77.3168 27.0805 78.38C26.9025 78.7344 27.5256 79.1774 27.7037 78.7344C28.2378 77.5826 28.95 76.4309 29.306 75.1906C29.3951 75.0134 29.039 74.9248 28.95 75.102Z" fill="#F47892"/>
<path d="M30.5523 76.3423C30.2853 76.8739 29.9292 77.3169 29.7512 77.8484C29.6621 78.2028 30.1963 78.38 30.3743 78.0256C30.5523 77.4941 30.8194 77.0511 30.9974 76.6081C31.1755 76.2537 30.7304 75.9879 30.5523 76.3423Z" fill="#F47892"/>
<path d="M37.9411 89.6316C37.3179 88.9229 36.6948 88.0369 36.3387 87.151C35.8046 86.0878 35.7156 84.8475 35.4485 83.7843C35.3595 83.3414 34.7363 83.5185 34.8253 83.9615C35.2704 85.9106 35.5375 87.6825 36.7838 89.2773C37.4069 90.0746 38.0301 90.7834 38.8313 91.4036C39.7215 92.2009 40.8788 92.7325 41.6799 93.5299C41.769 93.6185 42.036 93.5299 41.947 93.3527C40.7897 91.9351 39.0983 90.9606 37.9411 89.6316Z" fill="#F47892"/>
<path d="M33.9351 84.2273C33.8461 83.7843 33.312 83.9615 33.223 84.3159C32.8669 86.9738 34.7363 90.0746 36.6057 91.7579C36.7838 91.9351 36.9618 91.6694 36.8728 91.4922C35.0924 89.5431 34.3802 86.7966 33.9351 84.2273Z" fill="#F47892"/>
<path d="M31.9767 87.3281C31.7096 86.6194 31.7096 85.822 31.4425 85.1133C31.2645 84.6703 30.6414 84.8475 30.7304 85.2904C30.9084 86.9738 31.7096 88.3913 32.6888 89.8088C32.8669 89.986 33.1339 89.8088 33.0449 89.6316C32.5998 88.9229 32.2437 88.1255 31.9767 87.3281Z" fill="#F47892"/>
<path d="M79.6918 84.2273C81.2052 84.1387 82.7185 84.1387 84.3209 84.0501C85.9233 83.9615 87.5256 83.6957 89.128 83.6071C89.7512 83.6071 89.7512 82.7212 89.128 82.7212C87.7037 82.7212 86.2793 82.987 84.855 83.1642C83.1636 83.3414 81.4722 83.43 79.7808 83.43C76.7541 83.6071 73.5494 83.3414 70.5227 83.8729C70.3446 83.8729 70.3446 84.2273 70.5227 84.2273C73.5494 83.8729 76.6651 84.3159 79.6918 84.2273Z" fill="#F47892"/>
<path d="M89.3951 84.4045C86.7244 84.6703 84.0538 85.0247 81.3832 85.0247C80.0479 85.0247 78.7126 85.0247 77.3773 85.0247C75.9529 85.0247 74.5286 84.7589 73.1043 84.9361C72.8372 84.9361 72.8372 85.379 73.1043 85.379C74.4396 85.4676 75.6859 85.6448 76.9322 85.822C78.3565 85.9992 79.8698 85.9106 81.2942 85.9992C84.0538 85.9992 86.7244 85.7334 89.3951 85.4676C90.0182 85.2904 89.9292 84.3159 89.3951 84.4045Z" fill="#F47892"/>
<path d="M87.7037 64.3819C87.9707 66.6854 88.3268 68.9888 88.3268 71.2923C88.2378 73.0642 88.1488 75.2791 86.5464 76.2537C84.766 77.4054 82.0064 77.4054 79.9589 77.6712C77.5553 77.937 75.3298 77.937 72.9262 77.6712C72.6592 77.6712 72.6592 78.0256 72.8372 78.1142C75.5078 78.6458 78.0894 78.6458 80.7601 78.38C82.8075 78.2028 85.5672 78.1142 87.2586 76.7853C88.6829 75.7221 88.861 73.9502 89.039 72.3555C89.3061 69.609 89.039 66.8626 88.5939 64.2047C88.5049 63.5845 87.6147 63.8503 87.7037 64.3819Z" fill="#F47892"/>
<path d="M77.3773 75.9879C79.6918 76.1651 82.6295 76.4309 84.588 74.8362C86.7245 73.0642 86.8135 69.4318 86.5464 66.9511C86.4574 66.2424 85.3891 66.331 85.5672 67.0397C85.9233 69.3432 85.8343 72.6213 83.9648 74.216C82.2734 75.7221 79.4248 75.4563 77.3773 75.6335C77.1992 75.6335 77.1992 75.9879 77.3773 75.9879Z" fill="#F47892"/>
<path d="M94.1132 39.8409C96.4277 36.74 98.8313 33.8164 100.968 30.6269C101.146 30.3611 100.701 30.0068 100.523 30.3611C98.2971 33.462 95.5375 36.2085 93.49 39.3979C93.1339 39.9295 93.7571 40.2839 94.1132 39.8409Z" fill="#F47892"/>
<path d="M93.9351 43.6505C95.4485 42.0558 96.7838 40.1953 98.2971 38.5119C99.7215 36.9172 101.146 35.3225 102.303 33.5506C102.481 33.2848 102.125 33.1076 101.947 33.2848C99.3654 36.8286 95.9826 39.6637 93.312 43.1189C93.1339 43.4733 93.668 43.9163 93.9351 43.6505Z" fill="#F47892"/>
<path d="M99.8995 38.4233C98.1191 41.347 95.6265 43.7391 93.579 46.4855C93.401 46.7513 93.8461 47.1057 94.1132 46.8399C96.4277 44.4478 98.6532 41.5242 100.256 38.6005C100.256 38.4233 99.9885 38.2461 99.8995 38.4233Z" fill="#F47892"/>
<path d="M93.7571 50.118C96.0716 47.1943 98.3862 44.1821 100.256 40.9926C100.434 40.6382 99.9886 40.3725 99.7215 40.6382C97.763 43.8277 95.1814 46.5742 93.0449 49.675C92.7779 50.118 93.49 50.4724 93.7571 50.118Z" fill="#F47892"/>
<path d="M98.8313 45.1566C97.1399 47.7259 95.1814 50.0294 93.49 52.5986C93.223 52.953 93.7571 53.396 94.0241 53.0416C95.9826 50.6495 97.763 48.0803 99.4544 45.511C99.6325 45.1566 99.0983 44.8022 98.8313 45.1566Z" fill="#F47892"/>
<path d="M99.4544 46.9285C97.585 50.2952 94.8253 52.953 92.5108 55.9653C92.2437 56.3197 92.8669 56.7627 93.1339 56.4969C95.6265 53.6618 98.2081 50.6495 99.9885 47.2829C100.256 46.8399 99.7215 46.5741 99.4544 46.9285Z" fill="#F47892"/>
<path d="M94.9144 57.2942C96.6058 55.1679 98.3862 52.953 99.8995 50.6496C100.167 50.2952 99.6325 50.0294 99.3654 50.2952C97.763 52.5987 95.9826 54.6364 94.2912 56.8512C94.0242 57.2942 94.6473 57.6486 94.9144 57.2942Z" fill="#F47892"/>
<path d="M99.6325 53.3074C97.852 55.6109 95.8936 57.7372 94.2912 60.1293C94.0242 60.5723 94.6473 60.9267 95.0034 60.5723C96.6948 58.2688 98.4752 55.9653 100.167 53.6618C100.434 53.3074 99.8995 52.9531 99.6325 53.3074Z" fill="#F47892"/>
<path d="M101.502 55.6109C100.167 57.2942 98.7423 58.889 97.4069 60.6609C97.1399 61.0153 97.763 61.3696 98.0301 61.0153C99.1874 59.1547 100.612 57.56 101.858 55.8767C102.036 55.6109 101.68 55.3451 101.502 55.6109Z" fill="#F47892"/>
<path d="M102.125 58.0916C101.68 58.8004 101.146 59.4205 100.879 60.2179C100.701 60.5723 101.235 60.8381 101.502 60.5723C102.036 59.9521 102.303 59.1547 102.748 58.446C102.837 58.003 102.303 57.7372 102.125 58.0916Z" fill="#F47892"/>
<path d="M103.727 58.446C103.46 58.8889 103.282 59.3319 103.015 59.7749C102.748 60.2179 103.46 60.6609 103.727 60.2179C103.994 59.7749 104.173 59.3319 104.44 58.8889C104.707 58.446 103.994 58.003 103.727 58.446Z" fill="#F47892"/>
<path d="M105.33 59.3319C105.241 59.2433 104.974 59.1547 104.885 59.3319C104.885 59.3319 104.885 59.3319 104.796 59.4205C104.707 59.5091 104.618 59.6863 104.618 59.7749C104.707 59.9521 104.885 60.0407 105.063 60.0407C105.152 60.0407 105.241 59.9521 105.241 59.9521L105.33 59.8635C105.419 59.6863 105.419 59.4205 105.33 59.3319Z" fill="#F47892"/>
<path d="M108.356 69.8748C108.98 68.6345 109.781 67.1283 109.336 65.7108C109.158 65.2678 108.535 65.445 108.624 65.888C108.98 66.9512 108.356 68.1029 107.911 69.0775C107.466 70.052 106.932 71.2923 105.775 71.4695C105.508 71.5581 105.597 72.0011 105.864 71.9125C107.11 71.8239 107.822 70.8494 108.356 69.8748Z" fill="#F47892"/>
<path d="M120.463 65.0021C120.374 71.6467 112.897 74.9248 107.11 75.2792C106.843 75.2792 106.843 75.7221 107.11 75.7221C110.671 75.8107 114.232 74.659 117.17 72.6213C119.751 70.8494 121.175 68.1029 121.354 65.0021C121.443 64.4705 120.463 64.3819 120.463 65.0021Z" fill="#F47892"/>
<path d="M146.012 45.5996C145.745 46.3084 145.834 47.1943 145.745 47.9917C145.567 49.1434 145.389 50.2952 145.122 51.4469C144.766 53.7504 144.677 56.2311 143.965 58.5346C143.52 59.8635 141.828 59.9521 140.671 60.1293C139.425 60.3951 138.178 60.4837 136.932 60.5723C134.44 60.7495 131.858 60.6609 129.365 60.3951C129.187 60.3951 129.098 60.7495 129.276 60.7495C131.858 61.3696 134.707 61.3696 137.377 61.1924C138.535 61.1038 139.692 60.9266 140.849 60.7495C141.739 60.5723 143.164 60.5723 143.876 59.9521C144.588 59.3319 144.855 58.6232 145.033 57.6486C145.211 56.3197 145.389 54.9907 145.567 53.7504C145.745 52.1557 146.101 50.561 146.368 48.9662C146.546 47.9917 146.546 46.7513 146.902 45.8654C147.081 45.3338 146.19 44.9794 146.012 45.5996Z" fill="#F47892"/>
<path d="M133.549 59.3319C136.398 59.3319 140.404 59.5091 142.362 57.0285C144.588 54.1048 144.232 50.4724 144.766 47.0171C144.766 46.7514 144.499 46.6628 144.41 46.9285C143.787 49.675 143.698 52.6873 142.451 55.2565C141.65 56.8513 140.493 57.6486 138.713 58.003C137.021 58.2688 135.241 58.3574 133.549 58.3574C132.926 58.3574 132.926 59.3319 133.549 59.3319Z" fill="#F47892"/>
<path d="M117.259 5.28858C126.517 5.55436 135.775 5.37717 144.944 6.52892C145.656 6.61751 145.656 5.55436 144.944 5.46577C135.775 4.49121 126.428 4.57981 117.259 4.93419C117.081 4.93419 117.081 5.19998 117.259 5.28858Z" fill="#F47892"/>
<path d="M122.6 3.42808C130.078 3.42808 137.644 3.95965 145.122 4.40263C145.834 4.49122 145.834 3.33948 145.122 3.33948C141.383 3.16229 137.555 2.80791 133.816 2.71931C130.078 2.63072 126.25 2.54212 122.6 3.25089C122.511 3.33948 122.511 3.42808 122.6 3.42808Z" fill="#F47892"/>
<path d="M127.318 1.74475C130.078 1.74475 132.926 1.83334 135.686 1.83334C137.021 1.83334 138.356 1.83334 139.603 1.92194C140.76 2.01054 142.184 1.92194 143.253 2.27632C143.876 2.54211 144.143 1.47896 143.52 1.30177C142.719 1.03598 141.65 1.03598 140.849 1.03598C139.425 1.03598 138 0.947388 136.576 0.947388C133.46 0.947388 130.345 1.03598 127.229 1.21317C126.962 1.21317 126.962 1.74475 127.318 1.74475Z" fill="#F47892"/>
<path d="M73.7274 18.6665C70.1666 18.7551 66.6058 18.6665 63.134 18.9323V18.8437C62.9559 18.0463 63.312 17.1604 63.312 16.363C63.401 15.2113 63.223 13.9709 63.134 12.8192C63.134 12.642 62.8669 12.642 62.8669 12.8192C62.6888 13.9709 62.5998 15.2113 62.5108 16.363C62.4218 17.249 62.0657 18.1349 62.2437 19.0209C62.3328 19.3753 62.7779 19.3753 62.9559 19.1981C66.5167 19.4639 70.0776 19.2867 73.6384 19.4639C74.2615 19.4639 74.2615 18.6665 73.7274 18.6665Z" fill="#F47892"/>
<path d="M64.7363 17.692C65.0034 17.8692 65.3595 17.7806 65.7155 17.7806C66.3387 17.692 66.9618 17.7806 67.585 17.7806C69.0093 17.7806 70.4336 17.6034 71.858 17.6034C72.036 17.6034 72.036 17.3376 71.858 17.3376C69.8995 17.3376 67.9411 17.0718 65.9826 17.0718C65.7155 17.0718 65.1814 17.249 65.1814 16.7174C65.1814 16.363 65.2704 16.0087 65.2704 15.6543C65.3595 14.7683 65.3595 13.7938 65.3595 12.9078C65.3595 12.3762 64.5583 12.3762 64.5583 12.9078C64.5583 13.971 64.5583 15.0341 64.4693 16.1858C64.3802 16.5402 64.2912 17.4262 64.7363 17.692Z" fill="#F47892"/>
</svg>
