<svg width="415" height="274" viewBox="0 0 415 274" fill="none" xmlns="http://www.w3.org/2000/svg">
<path d="M87.5797 92.226C88.1716 90.7452 89.0596 89.5606 89.6516 88.376C91.1316 85.7106 93.2036 83.3414 95.2757 81.2683C97.3476 79.1952 99.7157 77.1221 102.38 75.6414C104.748 74.1606 107.412 72.6798 110.372 72.0875C112.74 71.4952 115.7 71.7914 117.18 74.1606C118.068 75.3452 118.364 76.826 119.252 78.0106C120.14 79.1952 121.028 80.3798 122.212 81.5644C123.396 82.7491 124.876 83.6375 126.356 84.526C127.54 85.1183 129.316 86.3029 128.428 87.7837C128.132 88.376 127.54 87.7837 127.244 88.0798C127.244 88.0798 127.244 88.0798 127.244 88.376C128.132 88.6721 129.02 88.6721 129.612 88.9683C131.98 90.4491 134.052 92.5221 136.124 94.5952C138.492 97.2606 140.86 99.6298 143.228 102.295C148.26 107.626 152.996 113.253 158.028 118.584C167.796 129.541 177.564 140.203 187.332 151.161C190.884 155.011 194.436 159.157 197.988 163.007C198.284 163.007 198.58 163.007 198.876 163.599C198.876 163.895 198.876 163.895 198.876 164.191C200.356 165.968 202.132 167.745 203.612 169.522C203.612 168.93 203.612 168.634 204.204 168.338C213.084 164.784 221.668 161.526 230.548 157.972C234.988 156.195 239.132 154.714 243.572 152.938C244.46 152.641 245.348 152.049 246.236 152.345C247.42 152.938 248.604 153.53 249.788 154.122C251.86 155.011 253.932 156.195 256.004 157.084C272.876 165.376 289.748 173.668 306.62 181.961C311.356 184.33 316.092 186.699 320.828 189.068C325.564 191.438 330.596 193.511 335.036 196.176C335.628 196.472 335.332 197.361 335.036 197.657C334.148 199.434 332.668 200.322 331.188 201.507C329.708 202.691 328.228 203.876 326.452 205.061C323.492 207.43 320.236 209.799 316.98 212.168C310.764 216.907 304.252 221.941 298.036 226.68C285.308 236.453 272.284 245.93 259.556 255.407C256.004 258.072 252.452 260.738 248.9 263.403C247.124 264.588 245.348 266.068 243.572 267.253C242.98 267.845 242.092 268.141 241.204 268.734C241.5 269.03 241.796 269.326 242.092 269.326C242.684 269.918 241.796 271.103 241.204 270.511C240.612 270.214 240.316 269.918 239.724 269.326C239.132 269.622 238.54 270.511 237.652 270.511C237.06 270.511 237.06 270.214 237.06 269.622C236.764 269.622 236.468 269.918 235.876 269.918C234.692 269.918 233.212 269.918 232.028 269.918C229.66 269.918 227.292 269.918 224.628 270.214C219.892 270.214 215.156 270.511 210.124 270.511C205.388 270.511 200.652 270.807 195.62 270.807C190.884 270.807 186.148 271.399 181.412 270.807C179.932 270.511 178.748 269.918 177.564 269.326C177.268 269.326 176.972 269.622 176.676 269.622C176.084 269.622 176.084 269.03 175.788 268.734C169.276 266.364 163.356 262.811 157.436 258.664C149.444 253.038 141.452 247.707 133.46 242.08C124.58 235.861 115.404 229.641 106.524 223.718C105.636 223.126 105.636 221.941 106.524 221.349C122.804 208.911 139.972 197.657 157.436 187.588C159.804 186.107 162.468 185.218 164.836 183.738C153.292 174.261 142.044 164.488 131.092 154.122C127.54 150.568 123.692 147.311 120.14 143.757C118.364 141.98 116.588 140.203 114.812 138.426C113.036 136.649 111.26 134.872 110.076 132.799C109.78 132.207 110.372 131.614 110.964 131.911C113.036 132.799 114.516 134.28 115.996 136.057C117.476 137.538 119.252 139.314 121.028 140.795C124.284 143.757 127.244 147.014 130.5 149.976C137.012 156.195 143.524 162.118 150.332 168.041C155.956 173.076 161.876 177.814 167.5 182.553C168.684 181.961 169.572 181.368 170.756 180.776C162.468 173.668 154.18 166.264 145.892 158.861C135.828 149.68 126.06 140.203 116.292 130.43C111.556 125.395 106.82 120.657 102.38 115.326C102.084 114.734 101.788 114.141 101.492 113.845C100.9 114.141 100.308 114.438 99.7156 113.845C96.7556 111.18 94.3877 108.218 91.4277 105.257C89.9477 103.776 88.7637 102.295 87.2837 100.814C86.0997 99.6298 85.2116 98.1491 85.2116 96.6683C86.0996 95.1875 86.6917 93.7067 87.5797 92.226ZM98.5316 106.738C98.5316 106.441 98.5316 106.145 98.5316 105.849C97.6436 105.257 97.0517 104.368 96.1637 103.48C97.0517 104.664 97.9396 105.849 98.5316 106.738ZM105.044 95.4837C104.452 95.1875 103.86 94.5952 103.268 94.0029C102.38 93.1144 101.492 91.9298 100.604 91.0414C98.8277 89.2644 97.0517 87.4875 94.9796 86.0068C94.6837 85.7106 94.9797 85.4144 94.6837 85.4144C94.3876 85.7106 94.0916 86.3029 93.7956 86.5991H94.0916C97.6436 89.8568 100.9 93.1144 104.156 96.3721C104.748 95.7798 105.044 95.4837 105.044 95.4837ZM102.972 98.1491C102.676 97.8529 102.084 98.1491 102.084 97.8529C102.084 97.5568 102.38 97.2606 102.676 97.2606C99.7156 94.0029 96.4597 91.0414 93.4996 87.7837C93.2036 88.376 92.6116 88.9683 92.3156 89.5606C94.6836 90.4491 97.0517 91.9298 99.1237 93.7067C100.604 94.8914 101.788 96.9644 102.676 98.7414C102.676 98.4452 102.676 98.1491 102.972 98.1491ZM95.5716 84.526C95.8676 84.526 95.8677 84.2298 96.1637 84.526C98.5316 86.0068 100.604 87.4875 102.38 89.2644C103.268 90.1529 104.156 91.0414 105.044 92.226C105.636 92.8183 105.932 93.7068 106.228 94.5952C106.524 94.2991 106.524 94.2991 106.82 94.0029C106.82 93.7068 106.82 93.7068 107.116 93.4106C106.82 93.1144 106.228 92.5221 105.932 92.226C105.044 91.3375 103.86 90.1529 102.972 89.2644C101.196 87.4875 99.4196 85.7106 97.6436 83.6375C96.7557 83.6375 96.1636 83.9337 95.5716 84.526C95.8676 84.526 95.8676 84.526 95.5716 84.526ZM100.9 80.676C102.972 81.8606 104.748 83.0452 106.228 84.526C107.116 85.4144 108.004 86.3029 108.596 87.4875C109.188 88.376 110.372 89.8568 110.372 91.0414C110.372 91.6337 109.78 92.226 109.188 91.9298C108.3 91.3375 107.708 90.1529 107.116 89.2644C106.524 88.376 105.636 87.1914 105.044 86.3029C103.564 84.526 101.788 83.0452 100.012 81.8606C99.7156 82.1567 99.4196 82.4529 99.1237 82.4529C100.9 84.2298 102.676 85.7106 104.748 87.4875C105.636 88.376 106.524 89.2645 107.708 90.1529C108.3 90.7452 108.892 91.3375 109.484 92.226C110.668 91.3375 111.852 90.4491 113.036 89.5606C112.74 89.8568 112.444 90.1529 112.148 90.1529C111.26 89.5606 110.668 88.6721 110.076 87.7837C109.484 86.5991 108.596 85.7106 107.708 84.8221C106.228 83.0452 104.748 81.5644 102.972 80.0837C101.788 79.7875 101.492 80.0837 100.9 80.676ZM107.116 75.9375C105.932 76.5298 105.044 77.4183 104.156 78.3068C105.932 79.7875 107.708 80.9721 109.188 82.7491C110.076 83.6375 110.668 84.526 111.556 85.7106C112.444 86.8952 113.036 87.7837 113.036 88.9683C113.332 88.6721 113.628 88.376 113.924 88.376C114.22 88.376 114.22 88.376 114.516 88.376C114.22 87.7837 113.628 87.4875 113.332 87.1914C112.74 86.0068 111.852 85.1183 110.964 83.9337C109.484 82.1568 107.708 80.0837 105.932 78.6029C105.34 78.0106 106.228 76.5298 107.116 77.1221C109.188 78.6029 111.26 80.3798 113.036 82.7491C113.924 83.6375 114.516 84.8221 115.404 86.0068C115.996 86.5991 115.996 87.4875 116.292 88.0798C116.884 87.7837 117.772 87.7837 118.364 87.4875C117.772 86.8952 117.476 86.3029 116.884 85.4144C116.292 84.526 115.7 83.3414 115.108 82.4529C113.628 80.676 112.148 78.8991 110.372 77.7144C109.484 77.1221 110.372 75.6414 111.26 76.2337C113.332 77.7144 115.108 79.1952 116.884 81.2683C117.476 82.1568 118.364 83.0452 118.956 84.2298C119.548 85.1183 119.844 86.3029 119.844 87.1914C122.212 86.8952 124.58 86.8952 126.948 87.7837C126.948 87.7837 126.948 87.7837 126.948 87.4875C126.652 87.1914 126.356 86.8952 126.06 86.5991C125.764 86.3029 125.468 86.3029 124.876 86.0068C123.692 85.4144 122.804 84.8221 121.916 83.9337C121.62 83.6375 121.62 83.3414 121.324 83.0452C121.62 83.9337 120.732 84.526 120.14 83.9337C118.66 82.7491 117.18 80.9721 115.996 79.4914C115.404 78.8991 114.812 78.0106 114.22 77.4183C113.924 77.1221 113.628 76.826 113.332 76.2337C113.332 76.2337 113.628 76.2337 113.628 76.5298C113.332 76.826 112.74 76.5298 112.74 76.2337C112.444 75.6414 113.036 75.3452 113.628 75.0491C113.924 74.7529 114.22 74.7529 114.516 75.0491C115.996 75.9375 116.884 77.4183 118.068 78.6029C117.18 77.1221 116.588 74.7529 114.516 74.4567C110.668 74.1606 108.892 75.0491 107.116 75.9375ZM116.292 96.6683C116.588 96.9644 116.884 96.9644 116.884 97.2606C116.588 96.9644 115.996 96.6683 116.292 96.076C116.884 94.2991 117.18 92.8183 117.18 91.0414C117.18 90.4491 117.772 90.7452 118.364 91.0414C118.364 91.0414 118.66 91.0414 118.66 90.7452C118.66 90.7452 118.66 90.7452 118.66 91.0414C118.66 92.226 119.252 93.4106 119.548 94.5952C120.14 95.7798 120.436 96.9644 121.028 98.1491C121.324 98.7414 121.62 99.3337 121.916 99.6298C121.916 99.0375 121.916 98.4452 121.916 97.8529C121.916 95.4837 121.62 93.1144 121.324 91.0414C121.028 89.5606 123.396 88.9683 123.692 90.4491C124.284 92.8183 124.58 95.1875 124.876 97.8529C124.876 99.926 124.876 101.999 124.58 104.072C125.468 104.961 126.356 105.849 127.54 106.738C127.244 104.664 126.948 102.591 126.652 100.518C126.356 97.5568 125.764 94.5952 125.468 91.6337C125.468 91.0414 125.764 90.7452 126.356 90.4491C124.876 89.8568 123.692 88.6721 121.916 88.6721C119.548 88.6721 117.18 89.5606 115.108 90.7452C115.404 90.7452 115.996 90.7452 115.996 91.3375C116.292 92.8183 116.588 94.0029 116.884 95.4837C116.588 96.076 116.292 96.3721 116.292 96.6683ZM118.364 96.9644C118.068 97.5568 117.476 97.5568 117.18 97.2606C117.772 97.8529 118.66 98.4452 119.252 99.0375C119.844 99.6298 120.436 100.222 121.028 100.518C120.732 99.6298 120.732 99.0375 120.436 98.1491C120.14 96.9644 119.844 96.076 119.548 94.8914C119.252 94.2991 118.956 94.0029 118.956 93.4106C118.66 94.8914 118.956 96.076 118.364 96.9644ZM126.948 91.0414C127.244 91.0414 127.54 91.0414 127.54 91.6337C128.132 94.5952 128.428 97.5568 129.02 100.518C129.612 103.48 130.204 106.441 130.204 109.403C130.204 109.699 129.908 109.699 129.908 109.699C130.5 110.291 130.796 110.588 131.388 111.18C129.612 104.961 128.724 98.7414 127.836 92.226C127.836 91.9298 128.132 92.226 128.132 91.9298C127.836 91.3375 127.54 91.3375 126.948 91.0414ZM111.852 75.9375C111.852 75.9375 111.556 75.9375 111.852 75.9375V75.9375ZM126.356 86.8952C126.356 86.8952 126.652 86.8952 126.356 86.8952C126.652 86.8952 126.652 86.8952 126.356 86.8952C126.652 86.8952 126.652 86.8952 126.356 86.8952ZM155.956 120.361C156.252 121.249 156.548 122.138 156.844 123.026C157.14 124.211 157.436 125.691 157.732 126.876C157.732 127.468 158.028 128.061 158.028 128.653C158.028 129.541 157.732 129.838 157.732 130.726C157.436 131.614 156.252 131.318 155.956 130.726C155.66 130.134 155.364 129.838 155.364 129.245C155.068 128.653 155.068 127.764 155.068 127.172C154.772 125.988 154.772 124.507 154.476 123.322C153.884 120.953 153.292 118.288 152.404 115.918C151.516 115.03 150.924 114.141 150.036 113.253C150.924 115.326 152.108 117.399 152.7 119.768C153.292 122.138 154.476 125.691 152.996 127.764C152.7 128.357 152.108 128.061 151.812 127.764C151.22 126.876 150.924 125.691 150.924 124.507C150.628 123.026 150.628 121.841 150.332 120.361C149.74 117.695 148.852 115.03 147.668 112.661C147.372 111.772 147.964 111.476 148.556 111.18C147.372 109.995 146.188 108.514 145.004 107.33C146.188 109.995 147.372 112.661 148.26 115.622C148.556 117.103 148.852 118.584 149.148 120.361C149.444 121.841 149.74 123.322 148.556 124.211C148.26 124.507 147.964 124.211 147.668 124.211C146.484 123.618 146.484 122.138 146.484 120.953C146.188 119.472 145.892 117.991 145.596 116.511C145.004 113.549 144.116 110.588 142.932 107.922C142.34 106.738 143.524 106.145 144.412 106.738C141.452 103.48 138.492 100.222 135.532 96.9644C135.236 96.6683 134.94 96.6683 134.94 96.3721C135.828 99.3337 136.42 102.295 137.308 104.961C137.604 106.441 138.196 107.922 138.492 109.403C138.788 110.291 138.788 111.18 139.084 111.772C139.084 112.068 139.38 112.661 139.084 112.957C139.084 113.253 138.788 113.549 138.788 114.141C138.788 114.734 137.9 114.734 137.604 114.438C137.012 113.845 136.716 113.549 136.42 112.957C136.124 112.068 135.828 111.18 135.532 110.588C135.236 109.107 134.644 107.33 134.348 105.849C133.46 102.591 132.868 99.3337 131.98 96.3721C131.684 95.4837 132.276 94.8914 132.868 94.8914C132.276 94.2991 131.388 93.4106 130.796 92.8183C131.684 99.0375 133.164 105.257 134.348 111.476C134.348 112.068 134.052 112.068 133.756 112.364C134.052 112.661 134.052 112.661 134.348 112.957C136.716 115.326 139.084 117.399 141.452 119.768C140.564 118.88 140.564 117.399 140.268 116.214C139.972 114.734 139.676 113.253 139.38 111.772C138.788 108.811 138.196 106.145 137.604 103.184C137.308 101.703 139.38 101.111 139.972 102.591C140.564 105.553 141.452 108.218 142.044 111.18C142.34 112.661 142.636 113.845 142.932 115.326C143.228 116.511 143.82 118.288 143.524 119.472C143.228 120.361 142.34 120.361 141.748 120.064C146.188 124.211 150.628 128.357 155.068 132.503C165.724 142.572 176.084 152.345 186.74 162.414C186.444 161.526 186.444 160.934 186.444 160.045C186.444 159.157 186.444 158.268 186.444 157.084C186.444 155.899 186.148 154.714 186.148 153.53L185.852 153.234C185.852 153.826 185.852 154.714 185.852 155.307C185.852 156.491 185.852 157.676 185.556 158.861C185.26 160.045 183.78 159.749 183.78 158.564C183.484 157.084 183.78 155.603 184.076 154.122C184.076 153.53 184.076 152.641 184.076 152.049C184.076 151.753 184.076 151.457 184.076 151.161C183.78 151.161 183.188 151.161 183.484 150.568C183.484 150.568 183.484 150.568 183.78 150.568C182.596 149.088 181.412 147.903 180.228 146.422C180.524 147.014 180.82 147.903 181.116 148.495C181.412 149.976 182.004 151.753 181.116 153.234C180.82 153.826 179.932 153.826 179.636 153.234C179.044 152.049 179.34 150.568 179.044 149.088C178.748 147.607 178.156 146.126 177.564 144.645C177.268 144.349 177.564 144.053 177.86 144.053C176.676 142.572 175.492 141.388 174.012 139.907C174.604 141.98 175.492 144.053 175.492 146.422C175.492 147.014 175.196 147.311 174.604 147.607C174.308 147.903 173.716 147.903 173.716 147.607C173.42 147.311 173.124 147.014 173.124 146.718C173.42 143.757 172.828 140.499 171.644 137.538C171.052 136.945 170.756 136.353 170.164 136.057C170.164 136.649 170.46 136.945 170.46 137.538C170.756 139.611 171.348 142.276 170.46 144.349C170.164 145.238 168.684 144.941 168.388 144.053C168.092 143.164 168.388 141.98 168.388 141.091C168.388 139.907 168.388 139.018 168.092 137.834C167.796 136.057 167.5 134.28 166.908 132.503C166.316 131.911 165.724 131.318 165.132 130.726C165.428 131.614 165.724 132.207 166.02 133.095C166.316 134.28 166.316 135.464 166.612 136.649C166.612 137.834 166.908 139.018 166.02 140.203C165.724 140.795 164.836 140.795 164.54 140.203C163.948 139.314 163.948 138.13 163.948 137.241C163.948 136.057 163.652 134.872 163.652 133.688C163.356 131.318 162.764 129.245 162.172 127.172C161.876 126.876 161.58 126.58 161.284 126.284C161.58 127.172 161.876 128.357 162.172 129.245C162.468 130.43 162.468 131.614 162.468 132.799C162.468 133.688 162.468 135.168 161.58 135.761C161.284 136.057 160.692 136.057 160.396 135.761C159.804 135.168 159.804 133.984 159.804 133.095C159.804 131.911 159.804 131.022 159.508 129.838C159.212 127.468 158.916 125.395 158.028 123.026C157.14 121.841 156.548 121.249 155.956 120.361ZM200.06 171.595C200.06 172.78 198.58 173.372 197.988 172.188C197.988 171.891 197.988 171.891 197.988 171.595C197.988 171.003 197.988 170.707 197.988 170.114C197.988 169.818 197.692 169.226 197.692 168.93C197.692 168.041 197.692 166.857 197.396 165.968C197.1 165.672 196.804 165.08 196.212 164.784C195.916 166.264 195.324 167.449 193.548 167.449C192.956 167.449 192.66 166.857 192.956 166.561C193.252 165.376 193.844 164.488 194.14 163.303C194.14 162.711 193.844 162.414 193.548 161.822L193.252 161.526C192.66 160.934 192.068 160.341 191.476 159.749C191.772 160.934 192.068 162.414 191.772 163.599C191.476 164.488 190.588 164.488 189.996 163.895C189.108 162.711 189.108 161.23 188.812 160.045C188.516 158.861 188.516 157.676 188.516 156.491C188.516 156.491 188.516 156.491 188.516 156.195C188.516 156.491 188.812 156.788 188.812 157.084C188.812 157.972 188.812 159.157 188.812 160.045C188.812 160.934 188.812 162.118 188.22 162.711C187.924 163.007 187.332 163.007 187.036 162.711C189.996 165.376 192.956 168.338 195.916 171.003C198.876 173.964 201.836 176.63 204.796 179.591C204.796 179.295 204.796 179.295 204.796 178.999C204.796 179.295 204.796 179.295 204.796 178.999C204.796 178.703 205.092 178.407 205.092 178.111C205.092 176.63 204.796 175.149 204.796 173.964C204.204 173.372 203.908 173.076 203.316 172.484C203.612 173.372 204.204 173.964 204.204 174.853C204.204 175.741 203.612 176.926 202.428 176.63C201.54 176.63 200.948 175.741 201.244 174.853C201.244 174.557 201.54 174.261 201.836 174.261C201.836 173.964 201.836 173.964 201.836 173.668C201.836 173.076 201.54 172.188 201.54 171.595C201.244 170.707 200.948 169.818 200.652 169.226C200.356 168.93 200.06 168.634 199.764 168.338C199.468 169.522 200.06 170.411 200.06 171.595ZM200.948 200.914C200.652 201.211 200.356 201.211 200.06 200.914C201.244 201.803 202.428 202.395 203.908 202.988C203.908 202.691 203.612 202.395 203.612 202.099C203.612 201.211 203.316 200.322 203.316 199.434C203.02 197.657 202.428 195.88 201.836 194.399C201.54 193.807 201.836 193.214 202.428 192.918C202.132 192.622 201.836 192.622 201.54 192.326C200.652 191.438 199.764 190.845 198.876 189.957C199.764 191.438 200.652 193.214 200.948 194.991C201.244 197.064 201.836 199.138 200.948 200.914ZM205.092 198.841C205.388 200.026 205.684 202.099 205.092 203.284C205.98 203.58 206.868 202.988 207.756 202.988C207.756 202.691 207.756 202.099 207.756 201.803C207.46 200.914 207.164 200.026 206.868 198.841C206.868 198.545 207.164 197.953 207.46 198.249C208.644 199.138 209.236 200.914 209.236 202.691C209.532 202.395 210.124 202.691 210.42 202.395C211.012 201.803 211.012 201.211 211.308 200.322C209.828 199.138 208.052 198.249 206.572 196.768C205.388 195.88 204.5 194.991 203.316 194.103C204.204 195.88 204.796 197.361 205.092 198.841ZM207.756 207.134C217.82 216.018 228.772 224.311 240.316 231.714C239.724 230.53 238.836 229.345 238.54 227.864C238.244 226.68 239.724 225.199 240.908 226.088C241.796 226.68 242.092 227.568 242.98 228.457C243.276 228.457 243.276 228.457 243.572 228.457C243.868 228.457 243.868 229.049 244.164 229.049C239.132 221.645 234.396 214.241 229.364 206.838C227.292 203.876 225.22 200.914 223.148 197.657C222.556 196.768 221.668 194.695 220.484 194.399C219.3 194.103 218.412 195.288 217.82 195.88C216.044 197.953 216.044 201.211 214.268 203.58C212.492 205.653 210.124 206.838 207.756 207.134ZM216.932 191.438L217.228 191.734C217.524 191.734 217.524 191.734 217.82 191.438C217.82 191.141 218.412 191.141 218.116 191.141C217.82 191.141 218.116 190.845 218.116 190.845C218.412 190.845 218.116 191.141 218.412 191.438C219.004 191.141 219.596 190.845 220.188 190.845C218.708 189.364 217.524 187.884 216.044 186.403C216.044 186.995 216.34 187.291 216.34 187.884C216.34 189.068 214.86 189.364 214.268 188.18C213.972 187.291 213.972 186.403 213.676 185.218C213.676 184.922 213.972 184.626 214.268 184.626C213.38 183.738 212.492 182.849 211.604 181.961C211.604 182.553 211.9 182.849 211.9 183.441C211.9 184.034 211.9 184.33 211.308 184.626C209.828 185.811 207.756 183.145 209.236 181.961C209.236 181.368 208.94 180.48 208.94 179.888C208.94 179.591 209.236 179.591 209.236 179.591C208.348 178.703 207.46 177.814 206.572 176.63C206.572 177.814 207.164 178.999 207.164 180.184C207.164 180.48 206.572 180.776 206.276 181.072C205.388 181.368 204.5 181.072 204.204 179.888C205.092 180.776 205.684 181.368 206.572 182.257C208.348 184.034 210.42 185.811 212.196 187.588C213.084 188.476 213.972 189.364 214.86 190.253C215.748 190.549 216.34 191.141 216.932 191.438ZM206.868 267.253C212.196 267.253 217.524 266.957 222.852 266.957C225.516 266.957 228.18 266.957 230.844 266.661C232.324 266.661 233.508 266.661 234.988 266.661C235.284 266.661 235.284 266.661 235.58 266.661C229.068 262.514 222.556 258.072 216.044 253.334C214.268 252.149 212.196 250.076 210.124 249.78C208.052 249.484 205.684 251.261 203.908 252.445C199.764 255.111 195.324 258.072 191.18 260.738C188.812 262.218 186.444 263.699 184.076 265.476C183.188 266.068 182.3 266.661 181.708 267.253C185.26 267.549 188.812 267.845 192.364 267.549C197.396 267.549 202.132 267.549 206.868 267.253ZM169.276 184.034C176.676 190.253 184.076 196.768 191.476 202.691C195.324 205.653 199.172 208.911 203.02 211.872C205.092 213.353 207.164 215.13 209.236 216.611C211.308 218.091 213.084 219.572 214.86 221.349C215.156 221.645 214.86 221.941 214.564 221.941C212.788 220.757 210.716 219.572 208.94 218.388C207.164 217.203 205.092 215.722 203.316 214.241C199.764 211.576 195.916 208.911 192.364 206.245C185.26 200.914 178.156 195.584 171.348 189.661C169.572 188.18 168.092 186.699 166.316 185.218C164.244 186.403 162.172 187.884 159.804 189.068C155.364 191.734 150.924 194.103 146.78 196.768C138.196 202.099 129.908 207.726 121.62 213.353C117.476 216.314 113.332 219.276 109.484 222.238C124.876 232.603 140.268 242.968 155.66 253.334C159.508 255.999 163.356 258.664 167.204 261.034C170.46 263.107 174.012 264.884 177.564 266.068L177.86 265.772C179.044 264.884 180.228 264.291 181.412 263.403C183.78 261.922 185.852 260.441 188.22 258.961C192.66 255.999 197.1 253.038 201.836 250.076C203.908 248.891 205.684 247.114 208.052 246.818C210.42 246.522 212.196 247.707 214.268 248.891C218.708 251.853 222.852 255.111 227.292 258.072C231.14 260.738 234.988 263.699 238.836 266.661C239.428 266.364 239.724 265.772 240.316 265.18C241.796 263.995 243.572 262.811 245.052 261.626C248.308 259.257 251.564 256.888 254.82 254.518C261.332 249.78 267.548 245.041 274.06 240.303C287.084 230.826 299.812 221.053 312.54 211.576C316.092 208.911 319.644 206.245 323.196 203.58C324.972 202.395 326.748 200.914 328.524 199.73C330.004 198.545 331.484 197.657 333.26 197.064C332.372 197.064 331.188 196.768 330.3 196.176C330.004 196.176 330.004 195.584 330.3 195.584C328.524 194.695 327.044 194.103 325.268 193.214C322.308 191.734 319.644 190.549 316.684 189.068C310.764 186.107 304.844 183.441 299.22 180.48C287.676 174.853 276.132 169.226 264.588 163.599C258.372 160.341 251.86 157.38 245.644 154.122C232.028 159.453 218.412 164.784 204.796 169.818C204.796 169.818 204.796 169.818 204.5 169.818C204.796 170.114 205.388 170.707 205.684 171.003C205.98 171.003 206.276 171.003 206.276 171.299C206.276 171.299 206.276 171.595 206.276 171.891C209.532 175.741 213.084 179.295 216.34 183.145C218.708 185.811 221.076 188.772 223.444 191.438C223.74 192.03 223.74 192.326 223.444 192.622C224.628 194.103 225.812 195.584 226.7 197.064C234.692 208.911 242.684 220.757 250.38 232.603C252.452 235.564 254.228 238.526 256.3 241.191C257.188 242.672 255.412 244.153 254.228 243.264C239.132 234.972 224.628 225.199 211.308 214.241C207.46 211.28 203.908 208.022 200.356 204.764C200.356 204.764 200.356 204.764 200.356 204.468C197.692 202.988 195.028 201.211 192.956 199.434C187.628 194.991 182.596 190.549 177.268 186.107C175.492 184.626 173.716 183.145 172.236 181.664C171.348 182.849 170.46 183.441 169.276 184.034ZM147.964 156.195C147.964 155.899 147.964 155.603 147.964 155.603C147.964 154.714 147.964 154.122 147.668 153.234C147.372 151.753 147.076 149.976 146.188 148.495C145.596 147.311 147.372 146.126 148.26 147.311C149.148 149.088 149.74 150.864 150.332 152.641C150.628 154.418 150.924 156.491 150.332 157.972C150.924 158.564 151.516 159.157 152.108 159.749C152.108 159.157 151.812 158.268 151.812 157.676C151.516 155.899 151.516 154.418 151.22 152.641C150.924 151.457 153.292 151.161 153.588 152.345C153.884 154.122 154.18 155.603 154.476 157.38C154.476 158.268 154.772 158.861 154.772 159.749C154.772 160.638 154.772 160.934 154.476 161.822C155.068 162.414 155.956 163.007 156.548 163.599C156.252 162.711 156.252 162.118 155.956 161.23C155.364 159.157 154.772 156.788 154.18 154.714C153.884 153.234 155.956 152.641 156.252 154.122C156.844 156.195 157.436 158.268 158.324 160.638C158.62 161.822 158.916 162.711 159.212 163.895C159.508 164.784 159.508 165.376 159.212 166.264C159.804 166.857 160.396 167.449 160.988 168.041C160.988 167.449 160.692 166.857 160.396 165.968C160.1 164.191 159.804 162.414 159.508 160.638C159.212 159.157 161.284 158.564 161.58 160.045C161.876 161.822 162.172 163.599 162.468 165.376C162.764 166.264 162.764 167.153 163.06 167.745C163.06 168.338 163.356 169.226 163.06 169.818C163.948 170.707 165.132 171.595 166.02 172.484C166.02 171.891 165.724 171.299 165.428 170.411C164.836 168.338 163.948 166.264 163.06 164.488C162.468 163.303 164.244 162.118 165.132 163.303C166.316 165.376 167.5 167.449 168.092 169.522C168.388 170.707 168.684 171.595 168.684 172.78C168.684 173.372 168.388 173.964 168.388 174.557C168.98 175.149 169.868 175.741 170.46 176.334C170.46 176.038 170.164 175.741 170.164 175.445C169.572 173.372 169.276 171.299 168.684 168.93C168.388 167.449 170.46 167.153 170.756 168.338C171.348 170.411 171.94 172.484 172.532 174.853C172.828 176.038 173.124 176.926 173.42 178.111C173.42 178.407 173.42 178.703 173.42 178.999C173.716 179.295 174.308 179.591 174.604 180.184C174.9 180.48 175.196 180.776 175.788 181.072C175.196 178.111 174.308 174.853 173.716 171.891C173.42 170.707 175.492 170.114 175.788 171.299C176.972 175.149 177.86 179.295 178.748 183.145L178.452 183.441C179.34 184.33 180.228 184.922 181.116 185.811C181.116 185.218 180.82 184.922 180.82 184.33C180.82 183.441 180.82 182.553 180.524 181.664C180.228 179.888 179.636 178.407 179.044 176.926C178.452 175.741 180.228 174.557 181.116 175.741C182.004 177.518 182.596 179.295 183.188 181.072C183.484 182.553 184.076 185.218 182.892 186.403C182.596 186.699 182.596 186.403 182.3 186.403C184.372 188.18 186.148 189.661 188.22 191.438C187.332 190.253 186.74 188.18 186.444 186.699C185.852 184.626 185.26 182.257 184.668 180.184C184.372 178.999 186.148 178.407 186.74 179.591C187.332 181.664 188.22 183.738 188.812 185.811C189.108 186.699 189.404 187.884 189.7 188.772C189.996 189.661 190.292 190.549 189.996 191.438C189.996 191.734 189.404 191.734 189.108 191.734C189.404 192.03 189.996 192.622 190.292 192.918C190.884 193.511 191.772 194.103 192.66 194.991C192.66 193.807 192.364 192.918 192.068 191.734C191.772 189.661 190.884 187.884 189.996 186.107C189.404 184.922 190.884 184.034 191.772 185.218C192.956 186.995 193.844 189.068 194.436 191.438C194.732 192.326 194.732 193.511 195.028 194.695C195.028 195.584 195.028 196.472 194.732 197.064C196.212 198.249 197.988 199.434 199.468 200.322C198.58 198.841 198.876 197.064 198.58 195.288C198.284 193.511 197.396 191.734 196.508 189.957C196.212 189.068 196.804 188.772 197.396 188.772C195.028 186.699 192.364 184.626 189.996 182.553C182.892 176.63 175.492 170.411 168.388 164.191C157.436 154.714 146.78 145.238 136.124 135.761C136.42 137.538 136.716 139.314 137.308 141.091C137.604 142.868 137.9 144.349 137.604 146.126C137.9 146.422 138.492 147.014 138.788 147.311C138.492 146.422 138.196 145.83 137.9 144.941C137.604 143.164 137.308 141.388 137.012 139.611C136.716 138.13 138.788 137.538 139.38 139.018C139.676 140.795 140.268 142.572 140.564 144.349C140.86 145.83 141.452 147.607 140.86 149.088C141.452 149.68 142.044 150.272 142.636 150.864V150.568C142.636 149.68 142.636 148.791 142.636 147.903C142.34 146.126 141.748 144.349 140.86 142.868C139.972 141.388 142.044 140.499 142.932 141.684C144.116 143.461 144.708 145.534 145.3 147.607C145.596 149.088 145.596 151.161 144.708 152.641C146.188 154.714 147.076 155.307 147.964 156.195ZM130.5 139.018C130.204 139.314 130.204 139.018 130.5 139.018C131.092 139.907 131.98 140.795 132.868 141.684C132.868 140.795 132.572 140.203 132.572 139.611C132.276 138.13 131.684 136.649 131.092 135.464C130.204 134.28 132.276 133.095 133.164 134.28C134.052 135.464 134.348 136.945 134.94 138.426C134.94 138.13 134.94 137.538 134.644 137.241C134.348 136.353 135.236 136.057 136.124 136.057C134.052 134.28 131.98 132.503 129.908 130.43C130.204 131.911 130.5 133.391 130.796 134.872C130.796 136.057 131.388 138.13 130.5 139.018ZM134.94 140.203C135.236 141.388 135.236 142.572 134.644 143.757C134.94 144.053 135.532 144.645 135.828 144.941C135.532 144.053 135.236 143.461 135.236 142.572C135.236 141.684 134.94 141.091 134.94 140.203ZM102.972 111.18C105.044 113.845 107.412 116.214 109.484 118.584C111.852 120.953 113.924 123.322 116.292 125.691C120.436 129.838 124.876 133.984 129.02 138.13C128.724 137.241 128.132 136.353 128.132 135.464C127.836 133.688 127.54 132.207 127.244 130.43C127.244 129.838 127.54 129.245 128.132 128.949C127.836 128.653 127.244 128.357 126.948 127.764C126.948 128.357 127.54 128.653 127.54 128.949C127.54 129.541 127.54 130.134 127.244 130.726C126.948 131.318 126.652 131.614 126.06 132.207C125.468 132.503 124.876 131.911 124.876 131.318C124.876 131.022 124.876 130.43 125.172 130.134V129.838C124.876 130.134 124.58 130.726 123.988 130.726C123.396 130.726 122.804 130.134 123.1 129.541C123.1 129.245 123.396 129.245 123.692 129.245H123.396C123.396 129.245 123.396 129.245 123.692 129.245C123.396 129.245 123.692 129.838 123.396 129.245C123.396 128.653 123.396 128.061 123.396 127.468C123.396 126.284 123.1 125.099 122.508 123.914C121.916 123.322 121.324 122.73 120.732 122.434C121.028 123.026 121.028 123.914 121.028 124.507C121.028 125.099 120.436 125.099 120.14 124.803C119.548 123.914 119.252 123.026 118.956 121.841C118.66 121.545 119.252 121.249 119.548 120.953C118.956 120.361 118.068 119.768 117.476 118.88C117.772 119.176 118.068 119.768 118.068 120.064C118.068 120.361 118.068 120.953 117.772 121.249C117.476 121.841 117.18 121.841 116.588 121.841C116.292 121.841 115.996 121.545 115.996 121.249C115.996 120.953 115.7 120.953 115.7 120.657C115.7 120.361 115.7 120.361 115.7 120.064C115.7 119.768 115.7 119.768 115.404 119.472C115.108 119.176 115.108 118.584 115.404 118.288C115.108 117.991 114.812 117.991 114.22 117.695C114.22 117.695 114.22 117.399 114.22 117.695C114.516 117.991 114.812 117.991 115.108 118.288V117.991C115.404 117.695 115.7 117.991 115.996 117.991C111.556 114.141 107.116 109.995 102.972 105.849C101.492 104.664 103.564 102.591 105.044 103.776C118.956 116.511 132.868 129.245 147.076 141.684C161.284 154.122 175.492 166.561 189.7 178.703C193.844 182.257 197.692 185.514 201.836 189.068C203.908 190.845 205.98 192.326 207.756 194.103C209.532 195.584 211.012 197.064 212.492 198.545C212.788 197.064 213.38 195.88 213.972 194.695C214.268 194.103 215.156 193.511 215.748 192.918C215.748 192.918 215.748 192.918 215.452 192.918C213.38 191.438 211.604 189.661 209.828 187.884C208.052 186.107 205.98 184.33 204.204 182.849C196.804 176.038 189.404 168.93 181.708 161.822C166.908 147.903 152.108 133.984 137.012 119.768C132.868 115.918 128.724 112.068 124.58 107.922C122.508 105.849 120.436 104.072 118.364 101.999C116.292 99.926 113.924 98.1491 112.444 95.7798C112.148 94.8914 112.74 94.2991 113.628 94.5952C113.924 94.5952 114.22 94.8914 114.22 95.1875C113.924 94.0029 113.924 93.1144 113.628 91.9298C113.628 91.3375 113.924 91.0414 114.22 91.0414C111.556 92.5221 109.188 94.5952 107.412 96.6683C106.82 97.5567 106.228 98.4452 105.34 99.0375V99.3337C105.34 99.3337 105.34 99.3337 105.044 99.3337C104.156 100.222 103.268 101.407 102.676 102.295C102.676 102.888 102.676 104.072 101.788 103.776C100.9 106.441 101.196 108.811 102.972 111.18ZM123.988 129.245C123.988 129.245 123.988 129.541 124.284 129.541C123.988 129.541 123.988 129.541 123.988 129.245ZM91.4277 100.814C92.6117 101.999 93.7957 103.184 94.6837 104.368C95.8677 105.553 97.0517 107.034 98.2356 108.218C97.0517 107.034 95.8677 105.553 94.6837 104.072C93.2037 102.295 91.7236 100.518 90.5396 98.7414C89.9476 98.1491 90.8357 97.2606 91.4277 97.8529C92.6117 99.3337 93.7957 100.518 94.6837 101.999C94.6837 101.999 94.6837 101.703 94.6837 101.999C94.9797 102.295 95.2757 102.591 95.8677 102.591C94.3877 100.518 93.2037 98.4452 91.4277 96.9644C90.8357 96.3721 91.7236 95.7798 92.3156 96.076C94.9796 98.1491 97.0517 101.111 98.8277 103.776C99.1237 103.184 99.4196 102.295 100.012 101.703C97.3476 98.7414 94.6837 95.7798 91.4277 93.4106C90.8357 92.8183 91.4276 91.6337 92.0197 92.226C95.2757 94.2991 98.2357 96.9644 100.9 99.926C100.604 99.3337 100.012 98.7414 99.7156 98.1491C99.1236 96.9644 98.2357 96.076 97.3477 95.1875C95.5717 93.4106 93.4997 91.9298 91.4277 90.7452C90.8357 90.4491 91.4277 89.8568 91.7236 89.5606C91.7236 89.8568 91.4277 89.8568 91.4277 90.1529C90.8357 91.0414 90.2437 92.226 89.9477 93.1144C89.3557 94.2991 88.4677 95.7798 88.7637 97.2606C88.7637 98.7414 90.5397 99.926 91.4277 100.814Z" fill="#3F92D1"/>
<path d="M304.889 233.787C303.705 234.676 305.185 236.749 306.369 235.86C308.145 234.676 310.513 233.491 311.401 231.418C311.697 230.53 311.105 229.641 310.217 229.937C308.145 230.53 306.369 232.603 304.889 233.787Z" fill="#3F92D1"/>
<path d="M136.465 186.995C145.641 181.961 154.521 176.926 163.697 171.891C166.065 170.411 168.729 169.226 171.097 167.745C172.281 167.153 173.761 166.264 174.945 165.672C176.129 165.08 177.609 164.488 178.497 163.303C179.089 162.711 178.497 161.526 177.609 161.822C176.129 162.118 174.945 163.007 173.761 163.599C172.577 164.191 171.097 165.08 169.913 165.672C167.249 167.153 164.585 168.634 161.921 170.114C156.593 173.076 151.561 176.038 146.233 178.999C135.577 184.922 124.921 190.845 114.561 196.768C113.081 197.657 111.601 198.545 110.121 199.138C109.233 199.73 108.345 200.322 108.345 201.507C108.641 202.988 110.417 202.395 110.121 201.211C110.417 200.914 110.713 201.211 111.009 200.914C111.601 200.618 112.193 200.322 112.785 200.026C113.969 199.434 115.153 198.841 116.337 198.249C118.705 197.064 121.073 195.88 123.145 194.399C127.585 191.734 132.025 189.364 136.465 186.995Z" fill="#3F92D1"/>
<path d="M132.026 197.953C136.466 195.584 140.61 192.918 145.05 190.549C153.634 185.811 162.218 180.776 170.802 176.038C175.538 173.372 180.866 170.707 185.306 167.153C185.898 166.561 185.602 165.08 184.714 165.672C180.274 167.449 175.834 170.114 171.69 172.484C167.25 174.853 163.106 177.518 158.666 179.888C150.082 184.922 141.498 189.661 132.914 194.695C128.178 197.361 123.146 200.026 118.706 203.284C119.002 203.58 119.002 203.58 119.298 203.876C119.298 204.172 119.002 204.764 119.594 204.468C123.442 202.988 127.586 200.322 132.026 197.953Z" fill="#3F92D1"/>
<path d="M192.114 173.372C193.594 172.484 192.41 170.411 190.93 171.299C186.194 173.668 181.754 176.334 177.314 178.999C172.874 181.664 168.138 184.33 163.698 186.995C154.818 192.326 145.938 197.657 137.058 202.987C132.026 205.949 126.994 208.91 122.258 212.464C122.258 212.464 122.258 212.464 122.554 212.761C122.258 213.353 122.554 214.241 123.442 213.649C128.178 211.576 132.618 208.614 136.762 205.949C141.202 203.284 145.642 200.618 150.082 197.953C158.962 192.622 168.138 187.291 177.018 182.257C182.05 179.295 187.378 176.63 192.114 173.372Z" fill="#3F92D1"/>
<path d="M219.641 233.492C224.081 231.122 228.817 228.753 233.257 226.088C242.137 221.053 251.313 216.315 260.193 211.28C265.225 208.615 270.553 205.949 275.585 202.692C277.065 201.803 275.881 199.73 274.401 200.619C269.665 202.988 265.225 205.357 260.785 208.022C256.345 210.392 251.905 213.057 247.169 215.426C238.289 220.461 229.409 225.199 220.529 230.234C218.161 231.715 215.497 232.899 213.129 234.38C210.465 235.861 208.097 237.046 205.729 238.822C205.137 239.119 205.433 240.599 206.321 240.007C210.761 238.526 215.201 235.861 219.641 233.492Z" fill="#3F92D1"/>
<path d="M232.369 230.234C227.929 232.899 223.193 235.564 219.049 238.23C218.457 238.526 219.049 239.71 219.641 239.118C227.929 235.268 235.921 230.53 244.209 226.384C252.497 221.941 260.489 217.499 268.777 213.353C273.513 210.984 277.953 208.614 282.689 205.949C284.169 205.061 282.985 202.987 281.505 203.876C273.217 207.726 265.225 212.464 256.937 216.61C248.353 221.053 240.361 225.791 232.369 230.234Z" fill="#3F92D1"/>
<path d="M259.897 223.126C252.793 227.272 245.393 231.418 238.289 235.564C234.145 237.933 230.297 240.303 226.153 242.672C225.561 242.968 226.153 244.153 226.745 243.856C241.249 236.156 255.753 228.16 270.257 220.164C274.401 217.795 278.545 215.722 282.393 213.353C283.873 212.464 282.689 210.391 280.913 210.983C274.105 214.833 267.001 218.98 259.897 223.126Z" fill="#3F92D1"/>
<path d="M277.658 222.534C274.106 224.607 270.554 226.384 267.002 228.457C259.602 232.603 252.498 236.453 245.098 240.599C240.954 242.968 237.106 245.338 232.962 247.707C232.074 248.299 232.962 249.188 233.554 248.891C248.354 241.488 262.562 233.491 277.066 225.791C279.138 224.607 281.21 223.718 282.986 222.534C285.058 221.349 287.426 220.461 289.202 218.98C290.386 218.091 289.794 216.018 288.314 216.611C286.538 217.203 284.762 218.388 282.986 219.276C281.21 220.461 279.434 221.349 277.658 222.534Z" fill="#3F92D1"/>
<path d="M202.77 240.599C201.882 239.415 200.698 238.23 198.922 237.934C197.146 237.638 195.666 238.526 194.186 239.711C192.41 241.192 190.634 242.672 188.858 243.857C187.97 244.449 187.082 245.338 186.194 245.93C185.898 246.226 184.714 247.115 184.122 247.115C183.826 247.115 183.826 247.115 184.122 246.818C184.418 246.522 184.418 246.226 184.714 245.634C185.01 245.042 185.306 244.153 185.306 243.561C185.306 240.599 182.05 238.526 179.386 238.23C177.61 238.23 175.538 239.118 174.058 240.007C172.578 241.192 170.802 242.672 170.21 244.449C169.914 245.042 170.506 245.93 171.394 245.634C174.058 243.857 176.13 240.007 179.978 240.599C181.162 240.895 182.642 241.784 182.938 243.265C183.234 244.745 181.458 245.93 181.754 247.411C182.05 248.892 183.234 249.484 184.418 249.484C186.194 249.484 187.378 248.299 188.562 247.411C190.338 245.93 192.114 244.745 194.186 243.265C195.37 242.376 197.442 240.303 198.922 240.895C200.402 241.488 201.29 243.561 202.77 244.745C204.25 245.93 206.322 246.522 207.802 245.634C209.282 244.745 208.098 242.672 206.618 243.561C205.138 243.857 203.658 241.488 202.77 240.599Z" fill="#3F92D1"/>
<path d="M84.9615 191.142C84.6655 191.734 84.6655 192.326 85.2575 192.326C85.5535 192.326 86.1455 192.03 86.4415 191.734C87.0335 191.438 87.6255 191.142 88.2175 191.438C88.5135 191.438 88.2175 191.142 88.5135 191.142C89.6975 190.549 90.8815 190.253 91.7695 189.661C93.8415 188.772 95.9135 187.588 97.9855 186.403C102.13 184.33 106.274 182.257 110.418 179.888C114.562 177.815 118.706 175.445 122.85 173.372C124.922 172.188 126.994 171.299 129.066 170.115C130.25 169.522 131.138 168.93 132.322 168.338C133.21 167.745 134.098 167.449 134.394 166.265C134.394 165.968 134.394 165.376 133.802 165.376C132.618 165.08 131.73 165.672 130.842 166.265C129.658 166.857 128.77 167.449 127.586 168.042C125.514 169.226 123.442 170.411 121.666 171.299C117.522 173.668 113.674 175.742 109.53 177.815C105.386 179.888 101.242 182.257 97.0975 184.33C95.0255 185.515 92.9535 186.403 90.8815 187.588C89.6975 188.18 88.8095 188.772 87.6255 189.365C86.7375 189.957 85.8495 190.253 84.9615 191.142C84.6655 190.845 84.9615 190.845 84.9615 191.142C84.9615 190.845 84.9615 191.142 84.9615 191.142Z" fill="#3F92D1"/>
<path d="M138.241 163.006C138.537 163.006 138.537 163.006 138.241 163.006C138.537 163.006 138.537 162.71 138.833 162.71C139.129 162.71 139.425 162.414 139.721 162.118C140.017 161.822 140.017 161.23 140.017 160.933C139.721 160.341 139.425 160.045 138.833 159.749C138.537 159.749 138.537 159.749 138.241 159.749C137.945 159.749 138.241 159.749 138.241 159.749C137.945 159.749 137.945 159.749 137.649 159.749C137.353 159.749 137.057 159.749 137.057 160.045C136.169 160.341 135.577 161.23 135.577 162.118C135.281 163.006 135.873 163.895 136.761 163.895C137.353 163.895 138.241 163.599 138.241 163.006C138.537 163.006 138.241 163.006 138.241 163.006Z" fill="#3F92D1"/>
<path d="M293.938 241.784C292.162 242.968 290.386 244.153 288.314 245.337C284.762 247.707 281.21 249.78 277.658 252.149C270.554 256.591 263.154 261.33 256.05 265.772C253.978 266.957 252.202 268.141 250.13 269.622C249.242 270.214 248.058 270.807 247.17 271.399C246.282 271.991 245.394 272.584 245.098 273.472C245.098 273.768 245.098 273.768 245.394 273.768C245.986 274.064 246.578 273.768 247.466 273.472C248.65 272.88 249.538 272.287 250.722 271.695C252.498 270.511 254.274 269.622 256.05 268.437C259.602 266.364 263.45 263.995 267.002 261.626C274.402 257.184 281.506 252.445 288.906 248.003C290.978 246.818 292.754 245.337 294.826 244.153C296.898 242.968 298.97 241.487 301.042 240.007C302.226 239.118 300.746 237.341 299.562 237.934C297.49 239.414 295.714 240.599 293.938 241.784Z" fill="#3F92D1"/>
<path d="M294.655 115.701C291.991 113.628 289.623 110.963 287.847 108.001C284.591 102.671 283.111 96.1552 283.999 90.2321C285.775 77.4975 296.727 67.4283 309.455 66.2437C317.151 65.3552 325.143 68.3168 331.951 71.8706C337.871 75.1283 342.015 80.4591 344.087 86.9745C345.863 92.8975 345.863 99.4129 344.383 105.632C342.607 112.444 339.351 119.255 332.839 122.513C326.919 125.771 319.519 125.771 313.007 125.178C307.087 124.586 300.279 123.105 296.135 118.071C295.247 117.182 294.951 116.294 294.655 115.701ZM317.447 121.624C320.703 121.624 323.663 121.328 326.623 120.736C329.583 119.848 332.247 118.663 334.615 116.294C336.983 113.924 338.463 111.259 339.647 108.298C341.719 102.967 342.607 97.0437 341.719 91.4168C340.831 86.086 338.759 80.7552 334.319 77.2014C331.655 74.8321 328.103 73.0552 324.847 71.8706C322.479 70.9821 320.111 70.686 317.743 70.0937C317.447 70.3898 317.447 70.686 317.151 70.686C307.679 71.2783 299.095 76.3129 294.655 84.9014C290.215 93.1937 291.695 103.559 297.319 110.963C298.799 113.036 300.575 114.813 302.647 116.59C304.719 118.071 307.383 119.255 309.455 120.736C309.751 120.736 309.455 121.032 309.455 121.032C307.087 121.032 304.719 119.848 302.647 118.367C300.575 116.886 298.503 115.405 297.023 113.332C293.767 109.482 291.399 105.04 290.511 100.005C288.439 89.936 292.879 79.5706 301.167 73.3514C303.239 71.8706 305.607 70.3898 308.271 69.5014C299.095 70.9822 290.807 77.4975 287.847 86.6783C286.071 92.6014 286.663 99.1168 289.327 104.744C290.807 107.705 292.583 110.074 294.655 112.444C294.951 112.74 294.951 112.74 295.247 112.74C295.247 112.74 295.247 112.444 295.543 112.74C296.135 113.332 297.023 113.924 297.615 114.517C299.095 115.701 300.575 116.886 302.351 118.071C304.423 119.255 307.087 120.144 309.455 120.44C311.823 121.624 314.487 121.624 317.447 121.624Z" fill="#F47892"/>
<path d="M285.479 119.256C283.111 116.886 281.335 114.517 279.855 111.556C278.079 112.444 276.007 113.629 274.231 114.517C273.343 114.813 272.159 114.517 272.159 113.629C270.679 106.521 269.199 99.4132 268.015 92.6017C267.719 91.7132 268.607 90.8247 269.495 90.8247C272.159 90.8247 274.823 90.8247 277.191 90.8247C277.487 89.0478 277.487 87.2709 277.783 85.494C276.007 85.494 273.935 84.9017 272.751 83.7171C270.383 80.7555 270.679 77.2017 272.159 73.944C273.047 72.1671 274.231 70.3901 275.711 68.6132C276.895 66.8363 278.079 65.0594 279.263 63.5786C281.335 60.9132 284.295 60.0247 287.255 62.0978C288.735 62.9863 289.623 64.1709 290.807 65.0594C291.695 65.9478 292.879 66.5401 294.063 66.8363C296.135 63.5786 299.391 61.5055 302.943 60.0247C302.943 57.6555 302.351 55.5824 301.463 53.5094C300.871 52.3247 301.463 51.1401 302.647 50.844C310.935 48.4748 319.815 49.0671 328.103 52.0286C328.991 52.3247 329.287 52.9171 329.287 53.8055C329.583 56.4709 328.991 59.1363 328.103 61.8017C331.951 63.8747 335.799 65.6517 339.647 67.4286C341.127 65.3555 342.903 63.5786 344.679 62.0978C345.567 61.5055 346.455 61.5055 347.047 62.0978C349.119 63.8747 350.303 66.244 351.783 68.3171C352.079 66.244 352.375 63.8747 352.375 61.8017C348.823 60.6171 345.863 58.2478 343.791 55.2863C342.607 56.4709 341.719 57.3594 340.535 58.544C339.943 59.1363 339.647 59.7286 338.463 59.4324C337.871 59.4324 336.983 59.1363 336.391 58.8401C333.727 57.0632 332.839 53.8055 333.431 50.844C333.727 49.0671 334.023 47.5863 334.615 45.8094C334.615 45.5132 334.911 44.9209 335.207 44.6247C335.207 44.6247 334.911 44.6248 334.911 44.3286C334.911 42.2555 334.615 40.4786 334.615 38.4055C332.247 38.7017 330.175 37.8132 328.991 35.7401C326.919 32.7786 327.807 28.6324 328.399 25.3747C328.399 24.7824 328.991 24.4863 329.583 24.1901C332.247 23.894 334.911 24.4863 337.575 25.6709C338.463 24.4863 339.055 23.3017 339.055 22.1171C339.055 20.3401 338.463 19.1555 337.871 17.6748C336.983 15.6017 338.167 13.8248 339.647 12.344C341.127 10.5671 342.311 8.79013 343.791 7.01321C344.679 5.8286 345.863 4.05168 347.343 3.45937C348.823 2.86707 350.599 3.45937 351.487 4.64398C352.375 5.8286 352.671 7.30936 353.855 8.49397C354.743 9.38245 356.223 9.97475 357.407 9.6786C360.663 9.38245 362.143 5.53244 360.367 2.86707C359.775 1.97861 360.663 0.201675 361.847 0.497833C367.471 1.09013 373.095 1.38629 378.719 1.97861C380.199 1.97861 380.791 3.75552 379.903 4.64398V4.94014C379.903 5.8286 379.607 6.71706 379.903 7.60551C380.199 8.49399 381.087 9.38245 381.975 9.6786C384.343 10.2709 386.711 8.79013 389.079 8.19783C389.375 8.19783 389.375 8.49399 389.375 8.79015C389.967 8.49399 390.559 7.60551 391.151 8.19783C393.815 10.8632 396.479 13.8248 399.439 16.4901C401.215 18.2671 403.583 21.5248 401.807 24.1901C401.511 24.7824 400.919 25.3748 400.327 25.6709C400.031 25.6709 399.735 25.9671 399.439 25.9671C399.439 26.2632 399.143 26.8555 399.143 27.1517C399.143 28.3363 399.439 29.8171 400.031 31.0017C400.919 33.0748 403.287 34.8517 405.655 35.444C406.247 35.444 405.951 36.3324 405.359 36.6286C405.951 37.5171 406.247 38.4055 406.839 38.9978C407.431 39.8863 408.023 40.7748 408.319 41.9594C408.319 42.5517 407.727 42.8478 407.135 42.5517C406.839 44.0324 405.951 45.2171 405.063 46.4017C403.879 47.8825 402.695 49.0671 401.511 50.5478C400.327 51.7324 398.847 52.6209 397.071 52.6209C396.775 53.2132 396.479 53.8055 396.183 54.3978C396.183 55.2863 396.183 56.1748 396.183 57.0632C396.183 57.9517 396.479 58.8401 397.071 59.7286C397.367 60.0247 397.663 60.3209 397.959 60.9132C398.255 61.2094 398.255 61.5055 398.551 61.8017L398.255 62.0978C398.847 62.394 399.439 62.394 399.735 62.6901C400.031 62.9863 400.327 63.5786 400.031 64.1709C397.959 67.4286 394.703 69.7978 391.151 70.9824C389.375 71.5748 387.599 71.8709 385.823 71.8709C384.639 71.8709 383.751 71.2786 382.863 70.9824C381.975 71.2786 381.383 72.1671 380.495 72.4632C379.903 72.4632 379.311 72.4632 379.015 71.8709C378.127 70.3901 377.239 68.6132 376.351 67.1324C373.095 67.1324 370.135 66.8363 367.175 65.9478C366.583 68.0209 365.991 69.7978 365.103 71.8709C364.807 72.4632 364.215 73.0555 363.327 72.7594C361.551 72.1671 359.479 71.5748 357.703 70.9824L357.999 71.2786C358.887 72.1671 359.775 73.0555 360.367 73.944C361.255 74.8324 362.143 75.7209 362.735 76.6094C363.327 77.4978 364.511 78.0901 364.807 79.2747C365.695 81.3478 363.327 82.2363 361.847 83.1247C361.847 83.1247 361.551 83.1247 361.551 83.4209C361.551 83.4209 361.551 83.4209 361.255 83.4209C359.479 84.3094 357.999 85.494 356.223 86.3824C356.223 86.9747 356.223 87.2709 356.223 87.8632C356.223 89.6401 356.815 91.7132 357.407 93.4901C358.591 97.044 360.959 100.302 363.919 102.967C364.215 103.263 363.623 104.152 363.327 103.856C360.071 101.782 357.999 98.5247 356.519 95.2671C356.519 95.5632 356.519 95.8594 356.519 96.4517C356.519 98.5247 356.519 100.302 357.407 102.079C357.999 103.263 359.479 105.04 360.959 104.448C361.551 104.152 361.551 105.04 361.847 105.336C361.847 105.04 361.551 104.744 361.847 104.744C362.439 104.448 363.031 104.448 363.623 104.448C364.511 104.448 365.103 104.152 365.695 103.856C366.583 103.263 367.471 104.152 367.175 105.04C365.991 109.779 364.215 114.517 361.255 118.367C361.551 118.367 361.847 118.663 361.847 118.959C362.143 120.44 360.663 121.329 359.775 122.217C358.887 123.106 357.999 124.29 357.111 125.179C356.815 126.067 356.519 126.956 356.223 127.844C355.631 129.029 354.151 128.732 353.559 127.844C352.375 125.771 349.415 125.475 347.343 126.067C347.047 126.956 346.751 127.844 346.455 128.436C345.863 129.621 345.567 130.806 345.271 131.99C344.679 134.656 344.975 137.025 345.863 139.394C346.159 139.986 345.567 140.579 345.271 140.579C344.087 140.875 342.903 140.875 341.719 141.171C341.423 141.467 341.719 141.763 341.127 142.059C337.575 142.059 334.319 142.948 331.063 143.54C329.287 143.836 327.807 144.132 326.031 144.132C324.551 144.429 322.775 144.725 320.999 144.429C318.335 144.132 316.855 142.059 316.855 139.394C316.855 137.617 317.743 135.544 317.151 133.767C312.415 132.879 307.975 131.99 303.535 130.509C302.647 132.879 301.463 135.248 299.687 137.321C299.095 137.913 298.207 138.209 297.615 137.913C292.287 134.656 286.959 131.102 281.631 127.844C281.039 127.548 280.743 126.659 281.039 126.067C281.927 123.402 283.703 121.329 285.479 119.256ZM381.087 11.4555C381.383 11.7517 381.383 12.0478 381.383 12.0478C383.159 13.2324 385.231 12.344 387.007 11.1594C385.231 11.7517 383.159 12.344 381.087 11.4555ZM401.807 35.7401C400.623 34.8517 399.439 33.6671 398.551 32.1863C398.255 31.8901 398.551 31.2978 398.255 31.0017C398.255 31.0017 398.255 31.0017 398.255 31.2978C398.255 33.9632 398.847 38.1094 402.399 38.4055C402.695 38.4055 402.695 38.7017 402.991 38.9978C403.287 38.1094 403.879 37.2209 404.175 36.6286C403.287 36.0363 402.399 36.3324 401.807 35.7401ZM406.543 41.6632C406.247 41.0709 405.951 40.4786 405.655 40.1824C405.359 39.5901 405.063 38.9978 404.767 38.4055C404.471 38.9978 404.175 39.5901 403.879 39.8863C404.175 42.2555 404.175 44.6247 403.583 46.994C403.879 46.4017 404.175 46.1055 404.471 45.8094C405.063 44.3286 405.655 42.5517 406.543 41.6632ZM395.295 60.9132C394.703 59.7286 394.111 58.544 394.111 57.3594C394.111 57.0632 394.111 56.4709 394.407 56.1748C394.111 57.0632 393.519 57.3594 393.519 58.2478C393.519 59.1363 393.815 59.7286 394.111 60.3209C394.407 60.3209 394.703 60.9132 395.295 60.9132ZM385.823 70.094C387.599 70.094 389.079 69.7978 390.855 69.2055C393.519 68.3171 395.591 66.244 397.071 64.1709C395.887 63.5786 394.999 62.6901 393.519 62.6901C393.223 63.2824 393.223 64.1709 392.631 64.7632C390.559 67.4286 387.303 68.6132 384.047 70.094C384.935 69.7978 385.231 70.094 385.823 70.094ZM366.583 62.6901C370.135 63.8747 373.687 64.1709 377.239 64.1709C377.831 64.1709 378.127 64.4671 378.423 64.7632C379.311 66.244 379.903 67.7247 380.791 69.2055C385.231 68.0209 388.783 65.3555 391.447 61.5055C390.263 57.3594 390.855 52.9171 394.111 49.9555C394.703 49.3632 395.295 49.3632 395.887 49.6594C397.663 50.5478 399.735 49.0671 400.623 47.5863C401.807 45.5132 401.215 42.8478 400.919 40.4786C398.255 39.5901 396.479 37.5171 395.591 34.8517C395.295 33.0748 395.295 31.594 395.295 29.8171C395.295 28.3363 395.295 26.2632 396.183 25.0786C396.479 24.4863 397.367 23.894 397.959 23.5978C398.551 23.3017 399.439 23.3017 399.735 22.7094C400.327 21.8209 398.847 19.7478 398.255 19.1555C395.887 16.4901 392.927 14.1209 390.263 11.4555C387.895 14.7132 383.455 16.7863 379.607 14.4171C376.351 12.344 375.759 8.19783 377.239 4.64398C372.799 4.34782 368.655 3.75552 364.215 3.45937C364.511 5.8286 364.511 8.19783 363.031 9.97475C360.959 12.6401 357.111 13.2325 354.151 11.7517C352.671 11.1594 351.487 9.97475 350.599 8.49397C350.303 7.90167 350.007 7.01321 349.415 6.71706C348.823 6.12476 348.527 6.12476 347.935 6.71706C346.455 8.19783 345.271 9.97476 344.087 11.7517C343.495 12.6401 342.607 13.5286 342.015 14.4171C341.719 14.7132 341.127 15.3055 341.127 15.6017C341.127 16.194 341.423 16.4901 341.719 17.0824C343.495 20.6363 342.607 25.0786 339.943 28.0401C339.351 28.6324 338.759 28.6324 338.167 28.3363C336.095 27.4478 334.023 27.1517 331.951 27.1517C331.359 29.2248 330.767 31.2978 331.655 33.0748C332.247 34.5555 334.319 36.0363 336.095 35.1478C336.983 34.5555 338.167 35.444 338.167 36.3324C338.167 38.1094 338.167 39.5901 338.167 41.3671C339.647 41.3671 340.535 43.4401 339.055 43.7363C338.759 43.7363 339.055 43.4401 338.759 43.4401C338.759 43.7363 338.463 44.0324 338.463 44.3286C338.167 44.9209 338.167 45.8094 337.871 46.4017C337.575 47.5863 336.983 49.0671 336.983 50.2517C336.687 52.3248 337.279 54.694 339.351 55.5824C340.535 54.3978 342.015 52.9171 343.199 51.7324C343.791 51.1401 344.975 51.4363 345.271 52.0286C347.343 55.5824 350.599 58.2478 354.743 59.1363C355.335 59.1363 355.631 59.7286 355.631 60.3209C355.335 62.394 355.039 64.7632 354.743 66.8363C357.703 67.7247 360.367 68.3171 363.327 69.2055C363.919 67.1324 364.511 65.3555 365.103 63.2824C365.103 62.9863 365.695 62.394 366.583 62.6901ZM363.031 79.5709C362.735 79.2747 362.439 78.6824 362.143 78.3863C360.663 76.9055 359.479 75.4248 357.999 73.944C357.407 73.3517 356.519 72.4632 355.927 71.5747C355.335 70.9824 354.743 70.3901 354.447 69.5017C354.151 69.5017 353.855 69.2055 353.263 69.2055C356.223 73.0555 359.775 76.3132 362.143 80.7555C362.143 80.7555 362.439 80.7555 362.439 80.4594C363.031 80.4594 363.327 80.1632 363.031 79.5709ZM360.959 118.071C360.663 118.071 360.071 118.071 360.367 117.775C362.143 113.629 363.623 109.779 364.807 105.632C364.215 105.929 363.623 105.632 363.031 105.336C363.031 105.632 363.623 105.336 363.327 105.632C362.439 110.667 360.367 115.109 358.591 119.848C359.183 119.256 360.071 118.367 360.959 118.071ZM341.719 138.802C342.311 138.506 342.903 138.506 343.495 138.209C342.607 135.84 342.015 133.471 342.607 130.806C342.903 129.621 343.199 128.732 343.495 127.844C342.607 128.732 341.423 129.325 340.535 130.213C340.831 133.175 341.423 135.84 341.719 138.802ZM301.463 128.436C301.759 127.844 302.647 127.252 303.239 127.548C307.679 129.325 312.415 130.509 317.151 131.102C318.039 131.102 319.223 131.102 319.815 131.99C320.111 132.582 320.407 133.471 320.407 134.063C320.703 135.544 320.111 136.729 320.111 138.209C320.111 139.098 319.815 140.282 320.703 140.875C321.591 141.467 322.775 141.171 323.959 140.875C324.847 140.875 326.031 140.579 326.919 140.579C331.063 139.986 334.911 139.098 338.759 138.209C338.463 137.025 338.463 135.84 338.167 134.656C337.871 132.879 337.575 131.398 337.279 129.621C337.279 128.14 338.463 127.252 339.351 126.363C340.239 125.475 341.423 124.29 342.607 123.698C345.863 121.329 350.599 121.329 353.855 123.698C356.519 118.071 358.591 111.852 359.775 105.632C356.519 105.04 353.855 102.375 353.263 98.8209C352.671 94.9709 355.039 89.344 351.783 86.0863C351.191 85.494 351.191 84.0132 352.079 83.4209C352.967 82.8286 353.855 82.5324 354.743 81.9401C354.743 81.3478 354.743 80.7555 355.039 80.4594C355.335 79.8671 356.519 80.1632 356.519 80.7555V81.0517C357.111 80.7555 357.703 80.4594 358.591 80.1632C355.039 74.2401 350.599 68.9094 345.567 64.1709C344.087 65.6517 342.311 67.1324 341.127 68.9094C340.535 69.7978 339.647 69.7978 338.759 69.5017C334.319 67.1324 329.583 65.0594 325.143 62.6901C324.551 62.394 324.255 61.5055 324.255 60.6171C325.143 58.2478 325.439 55.8786 325.439 53.5094C318.927 51.1401 311.823 51.1401 305.015 52.6209C305.607 54.694 306.495 56.7671 306.495 58.8401C306.495 59.7286 305.903 60.3209 305.311 60.6171C301.463 61.8017 297.911 64.4671 295.839 68.0209C295.543 68.6132 294.951 68.9094 294.359 68.9094C291.103 68.9094 289.031 66.5401 286.663 64.4671C285.775 63.8747 284.887 62.9863 283.703 62.9863C282.223 62.9863 281.335 65.0594 280.447 66.244C279.263 68.0209 277.783 69.7978 276.599 71.5747C275.415 73.3517 274.231 75.1286 273.935 77.2017C273.639 78.6824 274.231 79.8671 275.415 80.7555C276.303 81.3478 277.191 81.644 278.375 81.0517C279.263 80.4594 280.743 81.3478 280.743 82.5324C280.447 85.494 280.151 88.4555 279.855 91.4171C279.855 92.3055 279.263 92.8978 278.375 92.8978C276.007 92.8978 273.639 92.8978 270.975 93.194C272.159 99.1171 273.343 104.744 274.527 110.667C276.007 110.075 277.191 109.482 278.671 108.594C279.263 108.298 279.559 108.89 279.855 108.89C280.447 108.298 281.335 107.706 281.927 108.89C283.703 112.148 285.775 115.109 288.439 117.479C289.031 118.071 289.031 118.959 288.439 119.552C286.663 121.032 285.775 123.106 284.887 125.179C289.327 128.14 293.767 130.806 298.207 133.767C299.391 132.582 300.871 130.806 301.463 128.436Z" fill="#F47892"/>
<path d="M359.183 57.9514C356.815 57.063 354.743 55.8784 352.671 54.3976C348.823 51.4361 345.567 47.2899 344.087 42.5514C340.831 32.7784 345.271 22.1168 353.559 16.1938C361.847 9.97454 373.095 10.5668 381.383 16.7861C385.527 19.7476 388.783 23.8938 390.263 28.6322C391.743 33.3707 391.743 38.7015 390.263 43.4399C388.487 49.0668 384.935 53.8053 380.199 57.063C375.463 60.0245 368.359 61.8014 363.623 57.9514C361.847 58.2476 360.367 58.5438 359.183 57.9514ZM345.863 38.7015C346.751 43.7361 349.415 47.8822 352.967 51.4361C354.151 52.3245 355.335 53.213 356.815 53.8053C355.631 52.9168 354.447 52.0284 353.263 50.8438C350.303 47.2899 348.231 42.5515 347.639 37.813C346.751 28.3361 352.671 20.3399 360.959 16.4899C359.775 16.7861 358.591 16.4899 357.407 17.0822C349.711 21.2284 344.383 30.113 345.863 38.7015ZM377.535 54.6938C381.383 52.3245 384.047 48.7707 385.823 44.9207C387.599 41.0707 388.191 36.3322 387.303 32.1861C386.415 27.7438 384.047 23.8938 380.791 20.9322C378.719 18.8591 375.759 18.2668 373.095 17.0822C372.503 17.0822 371.615 16.7861 371.023 16.7861C368.951 16.7861 366.583 17.0822 364.511 17.6745C360.367 18.8591 356.815 21.2284 353.855 24.4861C347.935 31.2976 348.527 41.0707 353.263 48.1784C354.743 50.2515 356.519 52.0284 358.295 53.5091C359.775 54.3976 361.255 55.2861 362.735 55.8784C363.031 55.8784 363.031 55.5822 363.327 55.8784C368.359 58.5438 373.391 57.3591 377.535 54.6938Z" fill="#F47892"/>
<path d="M271.271 126.659C272.751 128.732 274.231 130.509 276.007 132.286C277.783 134.063 279.559 135.84 281.335 137.617C281.927 138.209 281.039 139.098 280.447 138.802C276.303 137.025 273.047 133.175 270.383 129.917C267.719 126.363 265.351 122.217 263.279 118.071C259.135 109.186 257.359 99.4131 257.063 89.3438C257.063 86.3823 257.063 83.7169 257.063 80.7554C257.063 79.2746 257.359 77.7938 257.359 76.6092C257.655 75.1284 257.951 73.6477 258.247 72.1669C258.247 71.5746 259.135 71.8708 259.135 72.1669C259.135 74.5361 259.135 77.2015 259.135 79.5708C259.135 81.94 259.135 84.6054 259.135 86.9746C259.431 92.0092 259.727 97.0438 260.911 101.782C262.687 110.963 266.239 119.552 271.271 126.659Z" fill="#F47892"/>
<path d="M289.327 142.948C289.919 143.836 289.919 144.725 289.919 145.909C289.919 146.798 289.031 147.39 288.143 147.094C287.847 147.094 287.255 146.798 286.959 146.502C286.663 146.205 286.367 145.909 286.367 145.317C286.367 145.317 286.367 145.317 286.367 145.021V145.317C286.367 145.317 286.367 145.317 286.071 145.317C284.295 144.428 284.887 142.059 286.663 141.467C287.847 141.467 288.735 142.059 289.327 142.948ZM286.959 143.836C286.959 143.836 286.959 143.54 286.959 143.836C286.959 143.54 286.959 143.836 286.959 143.836Z" fill="#F47892"/>
<path d="M298.503 147.686C298.799 148.278 299.391 149.167 299.687 149.759C299.983 150.352 299.983 151.24 299.095 151.536C298.503 151.832 297.615 151.536 297.319 150.944C296.727 150.352 296.431 149.463 296.135 148.575C295.839 147.982 296.135 147.094 296.727 146.798C297.319 146.798 297.911 147.094 298.503 147.686Z" fill="#F47892"/>
<path d="M411.575 47.29C411.871 43.7361 411.871 39.8861 411.279 36.3323C410.095 29.2246 407.431 22.413 402.991 16.49C400.623 13.2323 397.663 10.2708 394.703 7.30921C394.407 7.01306 394.703 6.7169 394.999 7.01305C401.511 10.8631 406.543 17.3784 409.799 23.8938C413.055 30.7054 414.535 38.4054 414.535 45.8092C414.535 47.8823 414.239 50.2515 413.943 52.3246C413.647 54.3977 413.055 56.7669 411.871 58.2477C411.279 58.84 410.095 58.2477 410.095 57.3592C410.095 55.5823 410.687 53.8054 411.279 52.0284C411.279 50.8438 411.575 49.0669 411.575 47.29Z" fill="#F47892"/>
<path d="M408.319 15.8977C406.839 13.2323 405.063 10.8631 403.583 8.19769C403.287 7.60538 403.879 7.30923 404.175 7.60538C406.543 9.67846 408.023 12.3438 409.503 14.7131C410.391 15.8977 410.983 17.3785 411.871 18.5631C412.463 19.7477 413.647 21.2285 413.647 22.7092C413.647 23.3015 413.055 23.8938 412.463 23.3015C411.575 22.4131 410.983 20.9323 410.391 19.4515C409.799 18.5631 409.207 17.0823 408.319 15.8977Z" fill="#F47892"/>
<path d="M258.247 116.886C259.727 120.144 261.799 123.106 262.983 126.659C263.279 127.252 262.391 127.548 262.095 127.252C259.727 124.883 258.247 121.625 257.063 118.663C255.583 115.702 254.399 112.444 253.511 109.186C251.735 102.671 250.847 95.8594 251.143 89.3441C251.143 85.4941 251.735 81.6441 252.919 78.0902C252.919 77.7941 253.807 77.7941 253.511 78.0902C252.919 84.6056 252.327 91.121 253.215 97.9325C254.103 104.448 255.583 110.667 258.247 116.886Z" fill="#F47892"/>
<path opacity="0.5" d="M23.0629 99.6151C19.3002 100.548 16.494 104.215 13.5604 106.615C13.369 106.815 13.1139 106.948 12.9226 107.148C10.818 104.748 8.5221 102.482 6.41751 100.082C4.63179 98.0817 1.50679 101.015 3.03741 103.215C4.82312 105.748 7.11904 107.882 9.35118 110.148C6.60883 112.415 3.86649 114.815 1.31547 117.282C0.0399581 117.882 0.932815 120.682 2.59098 119.682C5.84353 117.682 8.96853 115.348 12.0298 112.948C14.8359 116.282 17.7695 119.548 21.7236 121.348C23.0629 121.948 24.2746 120.215 23.1267 119.148C20.3206 116.482 17.9609 113.348 15.5374 110.282C18.5349 107.948 21.2772 105.482 24.6573 103.682C26.8257 102.482 25.3588 99.0817 23.0629 99.6151Z" fill="#3F92D1"/>
<path opacity="0.5" d="M405.919 202.585C402.156 203.518 399.35 207.185 396.416 209.585C396.225 209.785 395.97 209.918 395.778 210.118C393.674 207.718 391.378 205.451 389.273 203.051C387.488 201.051 384.363 203.985 385.893 206.185C387.679 208.718 389.975 210.851 392.207 213.118C389.465 215.385 386.722 217.785 384.171 220.251C382.896 220.851 383.789 223.651 385.447 222.651C388.699 220.651 391.824 218.318 394.885 215.918C397.692 219.251 400.625 222.518 404.579 224.318C405.919 224.918 407.13 223.185 405.982 222.118C403.176 219.451 400.817 216.318 398.393 213.251C401.391 210.918 404.133 208.451 407.513 206.651C409.681 205.451 408.215 202.051 405.919 202.585Z" fill="#3F92D1"/>
<path opacity="0.5" d="M239.064 28.7306C236.543 29.3559 234.663 31.8124 232.698 33.4203C232.569 33.5543 232.399 33.6437 232.27 33.7777C230.86 32.1698 229.322 30.6512 227.912 29.0433C226.716 27.7033 224.622 29.6686 225.648 31.1425C226.844 32.8397 228.382 34.269 229.878 35.7875C228.04 37.3061 226.203 38.914 224.494 40.5666C223.64 40.9686 224.238 42.8445 225.349 42.1745C227.528 40.8346 229.621 39.2713 231.672 37.6634C233.552 39.8966 235.518 42.0852 238.167 43.2911C239.064 43.6931 239.876 42.5318 239.107 41.8172C237.227 40.0306 235.646 37.9314 234.022 35.8769C236.03 34.3136 237.868 32.6611 240.132 31.4551C241.585 30.6512 240.602 28.3733 239.064 28.7306Z" fill="#3F92D1"/>
</svg>
