<svg width="104" height="111" viewBox="0 0 104 111" fill="none" xmlns="http://www.w3.org/2000/svg">
<path d="M103.141 54.8605C103.84 50.4275 99.1741 47.3943 95.6743 45.2945C94.9744 44.8278 94.2744 44.3612 93.8078 44.1279C90.5413 41.7947 87.5082 39.9282 84.4751 38.5283C84.0084 38.2949 83.7751 38.0616 83.3085 38.0616C82.1419 37.595 80.9753 36.895 79.8087 36.4284C79.3421 36.1951 78.8754 36.1951 78.4088 35.9618C78.1755 35.9618 77.9422 35.7284 77.7088 35.7284C77.2422 35.7284 77.0089 35.4951 76.7756 35.4951V35.2618C75.8423 33.3953 75.609 31.0621 75.3757 28.9622C75.3757 28.029 75.1424 27.0957 74.909 26.1624C74.6757 24.7625 74.4424 23.5959 74.2091 22.196C73.9758 20.5628 73.5091 18.9296 73.2758 17.2963C72.5759 12.3967 70.9426 6.3304 66.043 4.69718C65.8096 4.69718 65.5763 4.46386 65.343 4.46386C63.7098 3.99723 60.4434 3.29727 57.6435 4.46386C55.077 5.63045 52.9772 7.73031 51.1106 9.59685C50.8773 9.83017 50.4107 10.0635 50.1773 10.5301C49.0108 11.6967 47.6109 12.63 46.2109 13.7966L45.9777 14.0299C44.8111 14.7298 43.8778 15.8964 43.1778 16.8297C42.7112 17.2963 42.2446 17.763 41.7779 18.2296C41.3113 18.6962 40.8447 18.9296 40.6113 19.3962C39.2114 20.5628 37.8115 21.9627 36.8782 23.5959C36.8782 23.5959 36.8783 23.5959 36.6449 23.5959C34.7784 23.1293 32.6785 22.896 30.5787 22.4293C29.4121 22.196 28.0122 21.9627 26.6123 21.7294C23.5791 21.2627 20.546 21.0294 17.7462 20.7961H16.113C11.4466 20.5628 5.14703 20.0962 1.88058 24.2959C0.0140406 26.8624 0.480687 29.8955 1.18064 31.9954C1.64728 33.6286 2.34722 35.0285 2.81386 36.6617C3.51381 38.2949 3.98045 39.9282 4.68041 41.7947C5.38036 44.3612 6.54695 46.4611 7.94686 48.7942C8.18018 49.2609 8.41348 49.7275 8.6468 50.1941L9.11345 51.1274C10.28 53.2273 11.4466 55.5605 13.0798 57.427C11.6799 60.2268 10.5134 63.2599 9.11345 66.0597C7.71354 69.0929 6.31363 72.126 4.91372 75.1591L4.68041 75.6258C2.58055 80.2921 0.247358 85.6584 4.21376 90.3248C5.38035 91.958 7.2469 92.8913 9.11345 93.5912C12.6132 94.7578 17.0463 94.2912 20.3127 93.5912C23.1125 93.1246 25.679 92.4247 28.2455 91.958C28.7121 91.7247 29.4121 91.7247 29.8787 91.4914H30.112C31.5119 91.2581 32.9118 90.7914 34.5451 90.5581C35.7117 90.3248 36.4116 90.3248 36.8782 90.3248C37.3449 90.5581 37.8115 90.7914 38.2782 91.4914C41.7779 95.4578 45.9776 99.4242 51.3439 103.624C51.8106 103.857 52.2772 104.324 52.7439 104.791C55.077 106.657 57.6435 108.757 60.4433 109.69C62.0766 110.157 63.7098 110.157 65.343 109.923C71.6426 108.29 72.1092 102.224 72.8092 97.091C73.0425 94.7578 73.5091 92.4247 73.9758 90.0915C74.2091 89.3915 74.2091 88.4583 74.4424 87.7583C74.6757 87.0583 74.6757 86.3584 74.909 85.6584C75.1424 84.4919 75.3757 83.5586 75.609 82.392C75.8423 81.692 75.8423 80.9921 76.0756 80.5255C76.309 79.8255 76.5423 78.8922 76.7756 77.959V77.7256C79.5754 76.5591 82.1419 74.9258 84.2418 73.5259C85.6417 72.5927 87.2749 71.6594 88.6748 70.7261C90.0747 70.0262 91.4746 69.0929 92.6412 68.1596C93.3412 67.693 94.2744 67.2263 94.9744 66.7597C96.8409 65.8264 98.7075 64.6598 100.107 63.0266C101.741 59.7602 102.674 57.6603 103.141 54.8605ZM74.2091 74.6925C73.9758 74.9258 73.7424 75.1591 73.7424 75.6258V75.8591C73.5091 77.0257 73.2758 78.4256 73.0425 79.5922C72.8092 80.7588 72.3425 82.1587 72.3425 83.3253C72.1092 85.4251 71.6426 87.2917 71.1759 89.3915C70.9426 90.3248 70.7093 91.4914 70.476 92.658C70.2427 93.5913 70.2427 94.2912 70.0094 95.4578C69.3094 100.357 68.6094 106.19 63.0098 105.724C62.3099 105.724 61.8433 105.49 61.1433 105.257C58.3435 104.324 56.0103 102.224 53.6771 100.124C52.7438 99.1909 51.8106 98.2576 50.644 97.5577C49.2441 96.3911 48.0775 95.2245 46.6776 94.0579C45.9776 93.3579 45.2777 92.658 44.3444 91.958C43.4111 91.2581 42.7112 90.3248 42.0112 89.3915C41.078 88.4583 40.1447 87.2917 39.2114 86.3584C38.9781 86.1251 38.7448 85.8918 38.2782 85.8918C37.3449 85.6584 35.945 85.8918 35.0117 86.1251C34.7784 86.1251 34.5451 86.1251 34.3118 86.3584C32.2119 86.5917 30.112 87.2917 28.2455 87.7583C27.3122 87.9916 26.6123 88.2249 25.679 88.4583L24.7457 88.6916C20.0794 89.8582 14.9464 91.0248 10.5133 89.6249C9.58006 89.3915 8.64681 88.9249 7.94686 88.4583C3.2805 85.4251 5.847 79.5922 7.94686 75.1591C8.18018 74.6925 8.41348 74.2259 8.6468 73.7592C8.88012 73.0593 9.34676 72.3593 9.58008 71.6594C10.5133 69.5595 11.6799 67.2263 12.3799 65.1265C12.6132 64.6598 12.8465 63.9599 13.0798 63.4933C13.7798 61.6267 14.7131 59.7602 15.1797 57.8936C15.413 57.8936 15.8797 57.6603 16.113 57.427C16.3463 56.9604 16.3463 56.4937 16.113 56.2604C14.7131 54.6272 13.7798 52.5273 12.8465 50.6608C12.6132 50.1941 12.3799 49.7275 12.1466 49.4942C11.6799 48.5609 11.2133 47.6276 10.7467 46.4611C10.0467 45.0612 9.34675 43.6612 8.6468 42.2613C8.18016 40.8614 7.71353 39.4615 7.2469 38.0616C7.01358 36.895 6.54694 35.9618 6.31362 34.7952C6.08031 34.3285 5.847 33.6286 5.61368 33.1619C4.68041 30.8288 3.2805 28.029 4.68041 25.9291C6.78027 22.4293 13.0798 22.896 17.0462 23.3626C17.7462 23.3626 18.2128 23.3626 18.6795 23.5959C22.1792 23.8292 24.9791 24.0626 27.7789 24.5292C28.9455 24.7625 30.112 24.9958 31.2786 24.9958C32.9119 25.2291 34.5451 25.4625 35.945 25.9291C35.945 25.9291 35.945 25.9291 36.1783 25.9291C36.4116 26.1624 36.6449 26.3957 36.8782 26.3957C37.5782 26.6291 38.0448 26.3957 38.2782 25.6958C39.2114 23.8292 41.078 22.196 42.9445 20.7961C43.6445 20.3295 44.1111 19.8628 44.5777 19.3962C45.0444 18.9296 45.511 18.4629 45.9777 17.9963C46.4443 17.5297 46.9109 16.8297 47.6109 16.3631C48.3108 15.6631 49.0108 15.1965 49.7107 14.7298C50.4107 14.2632 51.1106 13.5633 51.8106 13.0966C52.5106 12.3967 53.2105 11.6967 53.9104 11.2301C55.3103 9.83017 56.7103 8.66358 58.1102 7.49699C59.7434 6.56372 62.0765 6.3304 64.1764 7.03036C65.1097 7.26367 65.8097 7.73031 66.2763 8.19695C69.3094 10.2968 69.776 15.1965 70.2427 18.9296C70.2427 19.6295 70.476 20.0962 70.476 20.5628C70.7093 21.9627 70.9426 23.3626 71.1759 24.5292C71.4093 25.9291 71.6426 27.5623 71.8759 28.9622C72.1092 31.762 72.5759 34.5619 73.7424 36.895C73.9758 37.1283 74.2091 37.3617 74.4424 37.595C74.4424 37.8283 74.6757 37.8283 74.6757 38.0616C75.1423 38.5283 75.609 38.7616 76.0756 38.7616C76.309 38.7616 76.5423 38.9949 76.7756 38.9949C78.1755 39.4615 79.5754 40.1615 80.742 40.6281C83.3085 41.7947 85.875 43.1946 88.6748 44.8278C89.8414 45.5278 91.0079 46.4611 92.1745 47.161C93.3411 47.861 94.5077 48.7942 95.6743 49.4942C95.9076 49.7275 96.141 49.7275 96.3743 49.9608C98.2408 51.1274 100.574 52.5273 100.574 54.6272C100.807 57.6603 98.7074 59.7602 96.8409 61.1601C96.1409 61.86 95.2077 62.3267 94.2744 62.7933C94.0411 63.0266 93.5744 63.0266 93.3411 63.2599C92.6412 63.7266 92.1746 63.9599 91.4746 64.4265C90.7747 64.8932 90.308 65.3598 89.6081 65.5931C87.0416 66.993 84.7084 68.6263 82.3752 70.2595C79.8087 71.4261 77.0089 73.2926 74.2091 74.6925Z" fill="white"/>
<path d="M38.0449 27.329C38.2782 27.329 38.2782 27.329 38.0449 27.329C38.9782 26.3957 39.6781 25.6958 40.3781 24.9958C41.078 24.2959 41.778 23.3626 42.4779 22.4293C42.7113 22.196 42.2446 21.9627 42.2446 22.196C41.3113 23.1293 40.6114 24.0626 39.6781 24.7625C38.9782 25.2291 38.5115 25.9291 37.8116 26.629C33.8452 25.6958 29.6455 25.6958 25.4457 25.4625C25.2124 25.4625 25.2124 25.9291 25.4457 25.9291C29.4121 26.629 33.6119 26.629 37.5783 27.5623C37.8116 27.5623 38.0449 27.329 38.0449 27.329Z" fill="white"/>
<path d="M42.4779 23.5959C41.778 24.5292 40.8447 25.2292 39.9114 25.9291C39.2115 26.6291 38.5115 27.329 37.8116 28.029L37.5782 27.7957C34.7784 27.7957 31.9786 27.329 28.9455 27.0957C28.7122 27.0957 28.7122 27.5623 28.9455 27.5623C31.7453 28.029 34.5451 28.9623 37.5782 28.7289C37.8116 28.7289 37.8116 28.7289 38.0449 28.4956H38.2782C39.2115 27.7957 39.9114 26.8624 40.8447 25.9291C41.5446 25.4625 42.2446 24.7625 42.4779 23.5959C42.9446 23.5959 42.7113 23.5959 42.4779 23.5959Z" fill="white"/>
<path d="M54.1439 6.09704C58.3436 0.964054 66.5097 2.36396 70.7094 6.56368C70.9427 6.797 71.4094 6.33036 71.176 6.09704C66.2764 1.43069 58.3436 0.497418 54.1439 6.09704C53.9105 6.09704 53.9105 6.09704 54.1439 6.09704Z" fill="white"/>
<path d="M57.8769 2.36407C61.61 0.730841 65.3431 1.89743 68.6095 3.99729C68.8428 4.23061 69.3094 3.76397 68.8428 3.53065C65.8097 1.19748 61.61 0.0308875 57.8769 2.36407C57.6436 2.13075 57.8769 2.36407 57.8769 2.36407Z" fill="white"/>
<path d="M60.91 0.497439C61.8432 0.497439 62.7765 0.497439 63.7098 0.730757C64.6431 0.964075 65.8096 1.19739 66.5096 1.66403C66.7429 1.89735 67.2096 1.43071 66.7429 1.19739C65.8097 0.730757 64.8764 0.497439 63.7098 0.264122C62.7765 -0.202514 61.8432 0.0308039 60.91 0.497439C60.6767 0.264122 60.6767 0.497439 60.91 0.497439Z" fill="white"/>
<path d="M28.0121 43.4278C26.8456 43.8945 25.679 44.3611 24.5124 44.8278C24.2791 44.8278 24.5124 45.2944 24.5124 45.0611C25.679 44.8278 26.8456 44.3611 28.0121 43.8945C28.2455 43.6612 28.2455 43.1945 28.0121 43.4278Z" fill="white"/>
<path d="M28.7122 44.1279C27.3123 45.0612 25.6791 45.5278 24.0459 46.2278C23.8125 46.2278 24.0459 46.6944 24.2792 46.4611C25.9124 45.7612 27.5456 45.2945 28.9456 44.3612C28.9456 44.3612 28.9455 44.1279 28.7122 44.1279Z" fill="white"/>
<path d="M21.246 49.7274C23.5792 48.5608 25.9123 47.6275 28.0122 45.9943V45.761C25.9123 47.1609 23.3458 48.0942 21.246 49.2608C20.7793 49.4941 21.0127 49.7274 21.246 49.7274Z" fill="white"/>
<path d="M29.1786 47.1611C27.7787 48.3277 26.1455 48.7943 24.7456 49.4942C23.1124 50.1942 21.7125 50.8942 20.0793 51.5941C19.846 51.8274 20.0793 52.0607 20.3126 51.8274C21.9459 51.1275 23.5791 50.1942 25.2123 49.2609C26.6122 48.7943 28.2454 48.3277 29.1786 47.1611C29.412 47.1611 29.412 46.9278 29.1786 47.1611Z" fill="white"/>
<path d="M28.0122 50.1939C28.2455 49.9606 28.0122 49.7273 27.7789 49.7273C24.5124 51.3605 21.246 52.9937 18.2129 54.627C17.9795 54.8603 18.2129 55.3269 18.4462 55.0936C21.7126 53.6937 24.7457 51.8272 28.0122 50.1939Z" fill="white"/>
<path d="M27.5454 52.0605C24.9789 53.9271 21.7125 54.8604 18.9127 56.7269C18.6794 56.9602 18.9127 57.1935 19.146 57.1935C20.7792 56.2603 22.6458 55.327 24.279 54.3937C25.4456 53.9271 26.8455 53.2271 27.5454 52.0605C28.012 52.2939 27.7787 52.0605 27.5454 52.0605Z" fill="white"/>
<path d="M17.9796 60.2268C21.0128 58.5936 24.2792 56.9603 27.079 54.8605C27.3123 54.6272 27.079 54.3938 26.8457 54.6272C24.0458 56.4937 20.7794 58.1269 17.7463 59.7602C17.2797 59.9935 17.513 60.4601 17.9796 60.2268Z" fill="white"/>
<path d="M15.6464 63.7264C18.9128 61.1599 23.1125 59.5267 26.8456 57.1935C27.0789 56.9602 26.8456 56.7269 26.6123 56.9602C22.8792 59.2933 18.6795 60.6933 15.1797 63.2598C15.1797 63.4931 15.413 63.9597 15.6464 63.7264Z" fill="white"/>
<path d="M27.5456 59.0601C23.8125 62.0932 18.6796 63.7264 14.4798 66.2929C14.2465 66.5262 14.4798 66.9929 14.7131 66.7596C17.0463 65.3596 19.6128 64.1931 21.946 62.7931C24.0459 61.8599 26.1457 60.9266 27.5456 59.0601C27.7789 59.2934 27.5456 59.0601 27.5456 59.0601Z" fill="white"/>
<path d="M25.679 62.5598C23.5791 63.9597 21.4793 65.1263 19.3794 66.0596C17.2796 66.9929 15.413 68.3928 13.5465 69.5593C13.3132 69.7927 13.5465 70.2593 13.7798 70.026C15.8797 68.8594 17.9795 67.2262 20.0794 66.0596C22.1792 65.1263 24.2791 64.193 25.679 62.5598C26.1456 62.7931 25.9123 62.5598 25.679 62.5598Z" fill="white"/>
<path d="M23.8124 65.3597C19.846 68.1595 15.6462 70.2594 11.9132 73.0592C11.6799 73.2925 11.9132 73.7592 12.1465 73.5259C16.1129 70.9594 20.3126 68.6262 24.0457 65.8264C24.5123 65.5931 24.0457 65.1264 23.8124 65.3597Z" fill="white"/>
<path d="M10.7466 76.7923C14.4797 74.4591 18.4461 72.1259 22.1791 69.5594C22.4125 69.3261 22.1792 69.0928 21.9458 69.0928C18.4461 71.8926 14.2463 73.7591 10.5133 76.3256C10.0466 76.3256 10.28 77.0256 10.7466 76.7923Z" fill="white"/>
<path d="M19.1462 72.3595C16.1131 74.926 12.8466 76.5592 9.81346 79.1257C9.58014 79.359 9.81345 79.8257 10.2801 79.5923C13.3132 77.2592 16.5797 75.3926 19.6128 72.8261C19.6128 72.5928 19.3795 72.1262 19.1462 72.3595Z" fill="white"/>
<path d="M18.4463 75.1592C15.6465 77.959 11.9134 79.8255 8.64695 82.392C8.41363 82.6253 8.64696 83.092 9.1136 82.8586C12.38 80.5255 15.8798 78.4256 18.6796 75.6258C18.9129 75.1592 18.6796 74.9258 18.4463 75.1592Z" fill="white"/>
<path d="M17.5129 78.4256C14.9464 80.7588 11.9133 82.6254 9.34678 84.4919C9.11346 84.7252 9.34679 85.1919 9.81342 84.9586C11.4466 84.0253 12.6132 82.6254 14.2464 81.6921C15.6463 80.7588 16.8129 79.8256 17.9795 78.8923C17.9795 78.659 17.7462 78.1923 17.5129 78.4256Z" fill="white"/>
<path d="M15.6464 83.5586C14.0132 84.7252 12.6132 85.8917 11.2133 87.0583C10.98 87.2917 11.2134 87.525 11.4467 87.525C12.1466 87.0583 12.6133 86.3584 13.3132 85.8917C14.2465 85.1918 14.9464 84.4918 15.8797 84.0252C16.3463 83.5586 15.8797 83.3253 15.6464 83.5586Z" fill="white"/>
<path d="M17.2795 86.125C16.8129 86.3583 16.3463 86.8249 16.1129 87.2916C15.8796 87.5249 16.3462 87.7582 16.3462 87.5249C16.5796 87.0582 17.0462 86.8249 17.5128 86.3583C17.5128 86.125 17.2795 85.8916 17.2795 86.125Z" fill="white"/>
<path d="M40.6114 93.1248C39.4448 91.9582 38.2782 91.0249 37.3449 89.8583C37.3449 89.625 37.3449 89.625 37.1116 89.625C35.7117 89.625 34.5451 90.3249 33.1452 90.5583C31.0453 91.0249 29.1788 91.4915 27.3123 92.1915V92.4248C29.1788 91.9582 30.812 91.4915 32.6785 91.2582C34.0784 91.0249 35.4784 90.5583 36.8783 90.325C37.5782 91.2582 38.5115 91.9582 39.4448 92.8914C40.3781 93.8247 41.778 94.758 42.4779 95.9246C42.4779 96.1579 42.9445 95.9246 42.7112 95.6913C42.2446 94.758 41.3113 93.8247 40.6114 93.1248Z" fill="white"/>
<path d="M36.4117 91.4914L36.1783 91.2581C34.0785 91.4914 32.2119 92.658 30.3454 92.8913C30.1121 92.8913 30.1121 93.3579 30.3454 93.1246C32.2119 92.8913 34.0785 91.7247 35.945 91.7247C36.8783 93.3579 38.5115 94.2912 39.6781 95.6911C39.6781 95.6911 39.9114 95.6911 39.9114 95.4578C38.9782 94.0579 37.5783 92.8913 36.4117 91.4914Z" fill="white"/>
<path d="M37.5782 95.4577C36.8782 94.7577 36.6449 93.8244 36.1782 93.3578C36.1782 93.1245 36.1783 92.8912 35.9449 93.1245C34.545 93.5911 33.3784 94.0577 32.2119 94.5244C31.9785 94.5244 32.2119 94.7577 32.2119 94.7577C33.3784 94.2911 34.545 93.8244 35.7116 93.5911C35.9449 94.0577 36.1783 94.5244 36.4116 94.7577C36.6449 95.2243 36.8782 95.691 37.5782 95.4577C37.3448 95.9243 37.5782 95.691 37.5782 95.4577Z" fill="white"/>
<path d="M8.64682 51.8274C9.58009 53.4606 10.98 54.8605 11.9133 56.2604C12.1466 56.7271 12.8465 56.2604 12.6132 55.7938C11.4466 54.1606 10.28 52.994 9.34678 51.3607C8.41351 49.9608 7.71356 48.3276 7.0136 46.6944C6.31365 45.0612 5.61369 43.4279 4.91374 41.7947C4.21379 39.9282 3.28052 38.2949 2.81388 36.4284C2.81388 36.1951 2.58057 36.1951 2.58057 36.4284C3.0472 39.6949 4.68042 43.1946 6.08033 46.2277C6.78028 48.0943 7.48023 49.9608 8.64682 51.8274Z" fill="white"/>
<path d="M11.2134 57.8936C11.4467 58.3602 12.1466 57.6603 11.68 57.427C10.0468 55.5604 8.64687 53.4606 7.48027 51.3607C6.31368 49.4942 4.68044 47.6276 4.21381 45.5278C4.21381 45.2945 3.74717 45.2945 3.98049 45.5278C4.44713 47.6276 6.08036 49.7275 7.24696 51.594C8.41355 53.6939 9.58014 55.7938 11.2134 57.8936Z" fill="white"/>
<path d="M10.5134 59.2936C10.7467 59.5269 11.2133 59.0603 10.98 58.827C9.81344 57.6604 8.88016 56.4938 7.94689 55.0939C7.01363 53.694 6.08036 52.0607 5.61372 50.6608C5.61372 50.4275 5.14707 50.4275 5.38039 50.6608C5.61371 52.0607 6.54698 53.4606 7.24694 54.8605C8.1802 56.4938 9.11346 57.8937 10.5134 59.2936Z" fill="white"/>
<path d="M9.8134 59.9936C9.11344 59.2936 8.41347 58.5936 7.94684 57.6604C7.24688 56.7271 6.78024 55.7938 5.84696 54.8606C5.61364 54.6272 5.61365 54.8606 5.61365 55.0939C6.3136 56.0271 6.78023 56.9604 7.48019 57.8937C7.94683 58.827 8.64679 59.5269 9.34675 60.2269C9.58007 60.6935 10.0467 60.2269 9.8134 59.9936Z" fill="white"/>
<path d="M84.2417 67.2263C86.3415 65.3598 89.1413 64.4265 91.4745 63.0266C93.5744 61.86 95.4409 60.2268 97.3075 58.8269C100.341 56.727 99.6406 52.7606 96.8408 50.6608C96.6075 50.4274 96.1409 50.8941 96.3742 51.1274C98.0074 52.5273 98.9407 54.8605 98.0074 56.9603C97.0741 58.5936 94.7409 59.7601 93.341 60.9267C90.3079 63.2599 86.5748 64.4265 83.775 66.993C83.775 66.993 84.0083 67.2263 84.2417 67.2263Z" fill="white"/>
<path d="M86.8084 63.26C89.6082 62.3268 92.408 60.4602 94.5078 58.5937C96.3744 56.9604 97.541 54.1606 95.9078 52.0608C95.6744 51.8275 95.2078 52.0608 95.4411 52.5274C98.0076 55.5605 94.2746 58.3604 91.9414 59.9936C90.3082 61.1602 88.6749 62.3268 86.8084 63.0267C86.5751 63.0267 86.5751 63.26 86.8084 63.26Z" fill="white"/>
<path d="M90.3081 59.9935C90.7747 59.5269 91.4747 59.0603 92.1746 58.8269C92.8746 58.3603 93.3412 57.8937 93.8078 57.1937C94.7411 56.2604 94.9744 55.3272 94.5078 54.1606C94.5078 53.9273 93.8078 53.9273 94.0411 54.3939C94.5078 56.0271 93.3412 57.1937 92.4079 58.3603C91.708 59.0603 91.0081 59.2936 90.3081 59.9935C90.0748 60.2268 89.8415 59.9935 90.3081 59.9935Z" fill="white"/>
<path d="M74.209 93.1248C74.4424 93.1248 74.209 93.1248 74.209 93.1248C73.0425 95.9246 73.2758 98.9577 72.3425 101.991C71.1759 105.491 67.4428 109.224 63.4764 109.224C63.0098 109.224 63.0098 109.69 63.4764 109.69C66.5096 109.924 69.3094 107.59 71.1759 105.491C74.209 101.991 73.5091 97.0912 74.209 93.1248Z" fill="white"/>
<path d="M74.9091 99.4241C73.5092 103.157 72.3426 108.057 68.3762 109.69C67.9095 109.923 68.3762 110.39 68.6095 110.157C72.8092 108.757 74.2091 103.39 74.9091 99.4241C75.1424 99.4241 74.9091 99.4241 74.9091 99.4241Z" fill="white"/>
<path d="M69.7761 85.4252C69.3095 88.4584 69.0761 91.4915 68.3762 94.5246C67.9096 96.6245 67.2096 98.7243 67.443 100.591C67.443 100.824 67.9096 100.824 67.9096 100.591C67.9096 98.2577 68.6095 96.1579 68.8428 93.8247C69.3094 91.0249 69.5428 88.225 69.7761 85.4252C70.0094 85.1919 69.7761 85.1919 69.7761 85.4252Z" fill="white"/>
<path d="M66.5096 97.791C66.9762 95.9244 67.2096 94.0579 67.4429 92.1913C67.4429 91.958 67.2096 91.958 66.9762 92.1913C66.5096 94.7578 66.0429 97.3243 65.5763 99.8908C65.343 100.824 64.8763 101.991 65.343 102.924C65.343 103.157 65.8096 103.157 65.8096 102.924C65.5763 101.291 66.2763 99.6575 66.5096 97.791Z" fill="white"/>
<path d="M64.8763 96.1578C64.8763 95.9245 64.643 95.6912 64.4097 95.9245C64.1764 96.8578 63.943 98.0244 63.7097 99.191C63.4764 100.591 63.2431 101.991 63.0098 103.391C63.0098 103.624 63.4764 103.857 63.4764 103.391C63.7097 102.224 63.9431 101.291 63.9431 100.124C64.4097 98.9577 64.4097 97.5578 64.8763 96.1578Z" fill="white"/>
<path d="M62.5432 98.0241C62.5432 97.7908 62.0765 97.7908 62.0765 98.0241C61.8432 98.9574 61.8432 99.6573 61.6099 100.591C61.6099 101.291 61.3766 102.224 61.3766 102.924C61.3766 103.157 61.8432 103.39 61.8432 102.924C62.0765 101.291 62.3098 99.6573 62.5432 98.0241Z" fill="white"/>
<path d="M70.2426 19.3961C70.2426 19.1628 70.0093 18.9295 69.776 19.1628C69.3094 20.3294 68.1428 21.2627 67.2095 22.1959C66.0429 23.3625 64.8764 24.2958 63.9431 25.4624C63.7098 25.6957 63.9431 25.929 64.1764 25.929C65.5763 24.5291 66.9762 23.1292 68.3761 21.7293C69.0761 21.0293 69.776 20.3294 70.2426 19.3961Z" fill="white"/>
<path d="M69.5428 22.4294C68.1429 24.2959 66.2764 25.9292 64.6432 27.5624C64.4098 27.7957 64.6431 28.2624 64.8765 28.029C66.5097 26.3958 68.3763 24.5293 69.7762 22.6627C70.2428 22.4294 69.7762 22.1961 69.5428 22.4294Z" fill="white"/>
<path d="M69.3094 24.7624C67.9095 26.629 66.2763 28.2622 64.4097 29.8954C64.1764 30.1287 64.4098 30.5954 64.6431 30.362C66.2763 28.7288 67.9095 26.8623 69.3094 24.9957C69.776 24.7624 69.5427 24.5291 69.3094 24.7624Z" fill="white"/>
<path d="M68.6095 27.3291C67.4429 28.729 66.5096 29.8956 65.1097 31.0622C64.8764 31.2955 65.1097 31.5288 65.343 31.5288C66.7429 30.3622 67.6762 28.9623 68.8428 27.5624C69.0761 27.3291 68.6095 27.0957 68.6095 27.3291Z" fill="white"/>
<path d="M67.9095 30.1286C67.4429 30.5953 67.2095 31.0619 66.7429 31.5285C66.5096 31.7619 66.9762 31.9952 67.2095 31.7619C67.4429 31.2952 67.9095 30.8286 68.3761 30.3619C68.3761 30.1286 68.1428 29.8953 67.9095 30.1286Z" fill="white"/>
<path d="M68.8428 31.2954C68.1428 31.9953 67.4429 32.9286 66.7429 33.8619C66.5096 34.0952 66.9762 34.3285 67.2095 34.0952C67.9095 33.3952 68.6095 32.2286 69.3094 31.5287C69.3094 31.2954 69.0761 31.0621 68.8428 31.2954Z" fill="white"/>
<path d="M68.8428 33.1618C68.6095 33.3951 68.3762 33.8618 68.1429 34.0951C67.9096 34.3284 68.1429 34.5617 68.3762 34.3284C68.6095 34.0951 68.8429 33.6285 69.3095 33.3951C69.3095 33.1618 69.0761 32.9285 68.8428 33.1618Z" fill="white"/>
<path d="M69.3094 34.3286C69.0761 34.5619 69.0761 34.7952 68.8428 35.0285C68.6094 35.2618 69.0761 35.7285 69.3094 35.2619C69.5427 35.0285 69.5427 34.7952 69.7761 34.5619C70.0094 34.3286 69.3094 34.0953 69.3094 34.3286Z" fill="white"/>
</svg>
