<svg width="181" height="199" viewBox="0 0 181 199" fill="none" xmlns="http://www.w3.org/2000/svg">
<path d="M177.471 137.033C166.53 117.484 141.968 77.741 131.172 59.8411C124.862 49.5122 120.518 40.5885 114.162 30.9792C108.742 22.7922 105.648 16.0336 100.052 7.14034C100.002 7.05374 100.002 7.05374 99.952 6.96713C99.2654 5.9779 97.4493 4.83245 96.3065 4.45303C95.4369 4.14681 93.8147 4.737 93.0718 5.0504L92.9852 5.1004C89.7041 6.41739 88.2953 7.5772 85.2642 9.3272C81.2805 11.6272 77.2968 13.9272 73.3131 16.2272C65.742 20.7138 58.3076 25.237 50.7866 29.8102C35.8812 38.9932 22.7979 47.9325 7.8425 57.0289C7.7059 56.9923 6.97648 57.5289 6.88988 57.5789C5.93725 58.1289 5.07481 59.4351 4.78199 60.5279C4.52577 61.4841 4.85616 63.2564 5.39276 63.9858C5.44276 64.0724 5.44276 64.0724 5.49276 64.159C10.6526 72.496 31.1856 107.06 36.1588 115.274C41.632 124.354 47.1918 133.384 52.665 142.464C57.8516 151.247 62.9516 160.081 67.7918 169.064C72.482 177.788 76.9186 185.272 82.7712 193.209C82.8212 193.296 82.8712 193.382 83.0078 193.419C83.0078 193.419 84.8542 195.817 88.2853 194.76C88.2853 194.76 88.2853 194.76 88.3719 194.71C111.688 180.094 152.231 156.917 175.92 142.547C176.786 142.047 178.108 140.938 178.214 139.722C178.274 139.225 178.044 137.626 177.794 137.193C177.571 137.207 177.521 137.12 177.471 137.033C177.521 137.12 177.471 137.033 177.471 137.033ZM173.871 141.998C150.528 156.168 112.77 177.968 89.2942 192.907L89.2076 192.957C89.121 193.007 89.0344 193.057 89.0344 193.057C88.8612 193.157 88.688 193.257 88.5148 193.357C84.3274 194.505 82.7105 190.704 82.7105 190.704C77.0944 182.977 73.9274 176.491 69.3006 168.077C64.1739 158.798 58.7372 149.581 53.214 140.415C47.6542 131.385 42.0078 122.405 36.5346 113.325C34.298 109.651 32.4248 106.807 26.4516 96.8608C26.5846 96.0912 26.3944 95.1617 26.5274 94.3921C26.6203 92.9529 26.8863 91.4137 26.6193 89.9512C26.6559 89.8146 26.3461 89.878 26.3961 89.9646C26.4765 91.3039 26.3337 92.6565 26.1408 93.9225C26.0444 94.5555 25.998 95.2751 26.0382 95.9448C25.7882 95.5117 25.5382 95.0787 25.2882 94.6457C25.3212 93.7029 25.2542 92.5869 25.2872 91.644C25.3935 90.428 25.6729 89.112 25.6425 87.8594C25.6791 87.7228 25.4059 87.6496 25.4193 87.8728C25.1801 89.8584 24.9408 91.844 24.7516 93.9163C24.4516 93.3967 24.1516 92.8771 23.8516 92.3574C23.8882 92.2208 24.081 90.9548 24.1676 90.9048C24.264 90.2718 24.3105 89.5522 24.4435 88.7826C24.5997 87.6531 24.9291 86.4237 24.7255 85.2711C24.6755 85.1845 24.5889 85.2345 24.5023 85.2845C24.2265 87.4067 23.814 89.4924 23.4516 91.6646C23.1516 91.145 22.9016 90.712 22.6016 90.1924C22.6614 89.696 22.6346 89.2496 22.7078 88.9764C23.0471 87.1639 23.2863 85.1783 23.4889 83.3292C23.5255 83.1926 23.2523 83.1194 23.2157 83.256C22.7399 85.0319 22.6239 86.8309 22.2846 88.6433C22.298 88.8665 22.1748 89.0531 22.1016 89.3264C21.9516 89.0665 21.8016 88.8067 21.6516 88.5469C21.6578 87.1577 21.714 85.8551 21.9435 84.4524C22.0997 83.323 22.2559 82.1936 22.2755 81.0276C22.2621 80.8044 21.9023 80.7812 21.9157 81.0044C21.8265 83.2498 21.2408 85.4355 21.1016 87.5943C20.8516 87.1613 20.5516 86.6417 20.3016 86.2087C20.4578 85.0792 20.4274 83.8266 20.5837 82.6972C20.6899 81.4812 21.0559 80.1151 21.0255 78.8625C21.0621 78.7259 20.8389 78.7393 20.8023 78.8759C20.8327 80.1285 20.4167 81.408 20.2239 82.674C20.0542 83.5802 20.0212 84.523 19.9016 85.5158C19.5516 84.9096 19.2016 84.3034 18.8516 83.6972C19.2006 81.3017 19.9595 79.0161 20.0353 76.5474C20.0719 76.4108 19.8487 76.4242 19.8121 76.5608C19.5863 78.7697 18.9506 80.8687 18.4516 83.0044C18.2016 82.5714 17.9516 82.1383 17.7016 81.7053C17.7882 81.6553 17.8748 81.6053 17.9614 81.5553C18.5337 79.1465 18.6961 76.6278 19.0817 74.0958C19.0683 73.8726 18.7951 73.7994 18.8085 74.0226C18.3729 76.468 18.0739 78.9501 17.5016 81.3589C17.2016 80.8393 16.9516 80.4063 16.7016 79.9733C16.881 78.4841 17.1971 77.0314 17.5997 75.5288C17.8925 74.436 18.3951 73.1066 18.1915 71.9539C18.1415 71.8673 18.0549 71.9173 18.1049 72.0039C17.5657 73.4699 16.8899 74.8994 16.5239 76.2654C16.2676 77.2216 16.0614 78.2644 15.8552 79.3073C15.7052 79.0474 15.6052 78.8742 15.4552 78.6144C15.4552 78.6144 15.5418 78.5644 15.4918 78.4778C15.814 75.636 16.4095 72.8673 16.7817 70.1121C16.8183 69.9755 16.5451 69.9023 16.4219 70.0889C15.9497 72.6709 15.3042 75.353 14.9686 77.9716C14.6686 77.452 14.3686 76.9324 14.1186 76.4994C14.398 75.1833 14.5908 73.9173 14.8703 72.6013C15.1863 71.1487 15.3523 69.4362 15.8549 68.1068C15.8915 67.9702 15.6549 67.7604 15.6183 67.897C15.0657 69.1398 14.8863 70.6291 14.6069 71.9451C14.2774 73.1745 13.998 74.4905 13.7186 75.8066C13.4186 75.2869 13.1186 74.7673 12.8686 74.3343C13.8006 71.9487 14.1729 69.1934 14.7817 66.648C14.8183 66.5114 14.4085 66.4016 14.4219 66.6248C13.7997 68.947 13.0042 71.3692 12.432 73.7781C12.132 73.2585 11.882 72.8255 11.632 72.3925C12.1676 70.1202 12.7533 67.9346 13.4255 65.6989C13.4621 65.5623 13.1389 65.4025 13.1523 65.6257C12.4667 67.6382 11.6944 69.7006 11.282 71.7862C10.782 70.9202 8.19539 66.6401 6.69539 64.042C6.29539 63.3492 5.8918 61.8501 6.22122 60.6207C6.50065 59.3047 8.78891 57.8681 9.43173 57.3815L9.51834 57.3315C24.8738 48.9279 36.6812 40.3789 51.6866 31.3691C59.2076 26.7958 66.642 22.2727 74.2631 17.8726C77.8138 15.8226 81.4511 13.7226 85.0518 11.7593C88.0829 10.0093 89.5283 8.71284 92.7094 7.22265C92.7094 7.22265 96.3065 4.45303 99.1431 9.16617C105.316 19.4585 111.89 30.4436 116.866 39.4637C122.193 49.0899 124.626 52.304 130.003 62.0169C134.83 70.7772 140.499 79.3972 145.586 88.0075C150.673 96.6177 165.575 120.23 175.772 137.091C178.378 140.205 173.871 141.998 173.871 141.998Z" fill="white"/>
<path d="M131.078 164.28C132.068 163.593 132.907 162.647 133.286 161.504C133.41 161.317 133.333 160.784 133.319 160.561C133.372 158.452 132.112 156.87 129.936 155.702C127.624 154.496 125.026 155.996 123.621 157.962C122.512 159.642 122.819 161.774 123.942 163.319L124.092 163.579C125.139 164.592 125.612 165.011 126.741 165.167C127.597 165.25 128.094 165.31 128.85 165.22C129.643 164.993 130.386 164.68 131.078 164.28ZM128.163 164.231C126.328 164.251 124.922 163.216 124.345 161.817C123.514 159.178 124.773 157.759 126.419 156.809C126.678 156.659 127.075 156.545 127.298 156.532C127.385 156.482 127.385 156.482 127.521 156.519C127.968 156.492 128.327 156.515 128.774 156.488C130.313 156.754 131.733 158.013 132.31 159.412C133.077 161.741 130.309 164.147 128.163 164.231Z" fill="white"/>
<path d="M53.3081 38.9777C55.4232 37.6411 57.4151 36.4911 59.5301 35.1545C59.6167 35.1045 59.6167 35.1045 59.6167 35.1045C60.0497 34.8545 60.5426 34.1081 60.0693 33.6884C59.7827 33.392 59.3863 33.5054 59.0399 33.7054C59.0399 33.7054 59.0399 33.7054 58.9533 33.7554C56.7017 35.0554 54.5866 36.392 52.3849 37.7786C52.2983 37.8286 52.2983 37.8286 52.2117 37.8786C51.9153 38.1652 51.8055 38.575 52.0055 38.9214C52.1689 39.4045 52.9251 39.3143 53.3081 38.9777ZM52.6581 37.8518C52.7447 37.8018 52.6081 37.7652 52.6581 37.8518C54.8732 36.6884 56.9883 35.3518 59.0667 34.1518C59.0667 34.1518 59.0667 34.1518 59.1533 34.1018C59.3265 34.0018 59.4631 34.0384 59.6863 34.025C60.0461 34.0482 60.0229 34.4081 59.8131 34.6447C59.6899 34.8313 59.1703 35.1313 58.9971 35.2313C56.9552 36.2947 55.05 37.3947 53.1081 38.6313C52.8483 38.7813 52.6385 39.0179 52.3153 38.8581C51.9421 38.6116 52.2617 37.9652 52.6581 37.8518Z" fill="white"/>
<path d="M51.4029 40.0776C51.4029 40.0776 51.4895 40.0276 51.4029 40.0776C51.7359 39.6544 51.5591 38.9482 51.1493 38.8384C50.6029 38.692 49.9466 38.9554 49.9368 39.5384C49.8904 40.258 50.9833 40.5509 51.4029 40.0776ZM50.1966 39.3884C50.2199 39.0286 50.7029 38.8652 50.9761 38.9384C51.4725 38.9982 51.4627 39.5812 51.1663 39.8678L51.0797 39.9178C50.6466 40.1678 50.0502 39.9348 50.1966 39.3884Z" fill="white"/>
<path d="M28.3551 59.1578C24.941 61.2444 21.5269 63.331 18.1128 65.4176C17.853 65.5676 18.103 66.0006 18.3628 65.8506C18.8262 66.8532 19.5494 67.7058 20.0994 68.6585C21.0994 70.3905 22.136 71.986 23.3092 73.618L23.3958 73.568C22.569 71.736 21.4458 70.1905 20.4458 68.4585C19.8958 67.5058 19.4324 66.5032 18.7958 65.6006C22.1233 63.564 25.3642 61.5774 28.5417 59.281C28.5417 59.281 28.4417 59.1078 28.3551 59.1578Z" fill="white"/>
<path d="M25.5642 61.9238C24.4384 62.5738 23.3126 63.2238 22.1867 63.8738C21.2341 64.4238 20.1449 64.9372 19.3422 65.747C19.169 65.847 19.319 66.1068 19.4556 66.1435C20.6556 68.2219 21.8922 70.1638 23.1788 72.1922C23.2788 72.3654 23.5387 72.2154 23.4387 72.0422C22.2387 69.9638 21.0887 67.9719 19.8021 65.9435C20.5681 65.2702 21.4841 64.8568 22.3867 64.2202C23.5126 63.5702 24.5884 62.8336 25.6642 62.097C25.7508 62.047 25.6508 61.8738 25.5642 61.9238Z" fill="white"/>
<path d="M84.4056 22.6401C86.1743 21.5035 88.0795 20.4035 89.9482 19.4401C91.99 18.3767 93.9319 17.1401 95.9372 16.2133C95.9372 16.2133 95.9372 16.2133 95.9872 16.2999C98.9372 21.4094 102.653 25.8458 105.343 31.1053C105.393 31.1919 105.567 31.0919 105.517 31.0053C103.223 25.6324 99.3202 21.0728 96.5068 15.9999L96.4568 15.9133C96.4934 15.7767 96.2568 15.5669 96.0836 15.6669C93.8551 16.6071 91.8767 17.9803 89.7982 19.1803C87.9795 20.2303 86.0743 21.3303 84.4056 22.6401C84.269 22.6035 84.319 22.6901 84.4056 22.6401Z" fill="white"/>
<path d="M87.0733 20.0607C88.6822 19.2473 90.241 18.3473 91.7132 17.4973C93.1855 16.6473 94.5943 15.4875 96.2166 14.8973L96.3032 14.8473C98.0398 17.6552 99.9496 20.363 101.823 23.2075C101.923 23.3807 102.096 23.2807 102.083 23.0575C100.729 19.913 98.4228 17.3186 96.7228 14.3741C96.6228 14.2009 96.3996 14.2143 96.2764 14.4009L96.1898 14.4509C94.7407 14.9411 93.5051 16.0009 92.1195 16.8009C90.4374 17.8875 88.6554 18.8009 87.0233 19.9741C86.9367 20.0241 86.9867 20.1107 87.0733 20.0607Z" fill="white"/>
<path d="M124.014 54.0433C123.915 56.8718 122.959 59.6172 122.637 62.4591C122.537 62.2859 122.437 62.1126 122.337 61.9394C122.137 61.593 121.887 61.16 121.687 60.8136C121.774 60.7636 121.86 60.7136 121.897 60.577C121.953 59.2744 122.183 57.8718 122.325 56.5191C122.555 55.1165 122.921 53.7505 122.964 52.2246C122.95 52.0014 122.64 52.0648 122.604 52.2014C122.511 53.6407 122.058 55.0567 121.779 56.3727C121.586 57.6387 121.393 58.9048 121.337 60.2074C120.987 59.6012 120.587 58.9084 120.237 58.3021C120.746 55.5835 121.032 52.8782 121.267 50.0864C121.254 49.8632 120.944 49.9266 120.907 50.0632C120.608 52.5452 120.173 54.9907 119.787 57.5227C119.387 56.8299 118.987 56.1371 118.637 55.5309C118.637 55.5309 118.637 55.5309 118.724 55.4809C119.017 54.388 118.95 53.272 119.019 52.1926C119.162 50.84 119.441 49.5239 119.771 48.2945C119.807 48.1579 119.534 48.0847 119.498 48.2213C119.132 49.5873 118.802 50.8168 118.659 52.1694C118.49 53.0756 118.284 54.1184 118.424 54.9612C115.524 49.9383 112.624 44.9153 109.897 39.7924C106.107 32.6276 102.007 25.5262 97.1773 18.9614C97.1273 18.8748 97.0773 18.7882 96.9907 18.8382C96.5541 18.282 96.1675 17.8123 95.3979 17.6793C94.6283 17.5463 93.9721 17.8097 93.3293 18.2963C73.3277 30.6525 37.8206 51.1525 17.719 63.3355C16.9396 63.7855 16.1236 64.3721 15.954 65.2784C15.9308 65.6382 16.3308 66.331 16.5308 66.6774C16.5808 66.764 16.6308 66.8506 16.6308 66.8506C25.621 83.0221 46.2236 116.507 55.17 131.203C60.3432 139.763 63.9236 147.164 69.1932 155.091C73.6762 161.856 76.4334 168.232 81.0432 175.616C81.0932 175.703 81.0932 175.703 81.1432 175.789C81.7298 176.605 82.253 177.112 83.1726 177.504C83.8556 177.687 84.5752 177.734 85.2315 177.471L85.3181 177.421C88.1161 176.267 90.6508 174.457 93.2489 172.957C96.6264 171.007 100.004 169.057 103.381 167.107C109.74 163.321 116.135 159.397 122.444 155.524C135.198 147.814 147.565 139.635 160.318 131.925C160.318 131.925 160.405 131.875 160.492 131.825C161.271 131.375 161.951 130.752 162.12 129.846C162.39 129.113 162.25 128.27 161.763 127.627L161.713 127.54C159.026 123.087 150.867 109.554 144.243 98.4821C144.246 96.2867 143.889 94.068 144.288 91.7592C144.274 91.536 144.001 91.4628 144.015 91.686C143.552 93.685 143.759 95.6439 143.743 97.6161C143.393 97.0099 143.043 96.4037 142.743 95.884C142.833 93.6386 143.232 91.3298 143.011 89.1477C143.048 89.0111 142.774 88.9379 142.788 89.1611C142.908 91.1699 142.533 93.119 142.293 95.1046C142.043 94.6716 141.743 94.152 141.493 93.719C141.513 92.553 141.533 91.3869 141.602 90.3075C141.708 89.0915 141.951 87.9121 141.784 86.6228C141.771 86.3996 141.411 86.3764 141.424 86.5996C141.595 88.6951 141.046 90.7441 140.907 92.903C140.607 92.3833 140.357 91.9503 140.057 91.4307C140.263 90.3879 140.159 89.4085 140.279 88.4157C140.422 87.063 140.665 85.8836 140.498 84.5944C140.448 84.5078 140.361 84.5578 140.361 84.5578C140.391 85.8104 140.199 87.0764 140.006 88.3424C139.873 89.1121 139.79 89.9683 139.707 90.8245C139.357 90.2183 138.957 89.5255 138.657 89.0058C138.956 86.5238 139.205 83.9551 139.144 81.4499C139.131 81.2267 138.771 81.2035 138.784 81.4267C138.745 83.7587 138.433 86.0176 138.12 88.2764C137.72 87.5836 137.32 86.8908 136.97 86.2846C137.096 83.9025 137.568 81.3205 137.334 78.9152C137.321 78.692 137.011 78.7554 136.974 78.892C137.008 80.9509 136.336 83.1865 136.284 85.2953C136.034 84.8623 135.834 84.5159 135.684 84.2561C135.634 84.1695 135.584 84.0829 135.534 83.9963C135.534 83.9963 135.62 83.9463 135.57 83.8597C135.646 81.391 135.722 78.9224 135.748 76.3671C135.734 76.1439 135.424 76.2073 135.388 76.3439C135.299 78.5894 134.9 80.8982 134.947 83.1803C134.497 82.4008 134.047 81.6214 133.51 80.892C133.613 78.8698 134.385 76.8073 134.128 74.7619C134.115 74.5387 133.891 74.5521 133.905 74.7753C133.825 76.4377 133.473 78.0269 133.17 79.7028C133.134 79.8394 133.097 79.976 133.06 80.1126C132.81 79.6796 132.61 79.3332 132.36 78.9001C132.45 76.6547 133.122 74.4191 132.715 72.1138C132.651 71.804 132.255 71.9174 132.318 72.2272C132.612 74.136 132.013 76.0985 131.81 77.9475C131.61 77.6011 131.36 77.1681 131.16 76.8217L131.197 76.6851C131.15 74.403 131.772 72.0808 131.674 69.7121C131.661 69.4889 131.351 69.5523 131.315 69.6889C131.262 71.7978 130.713 73.8468 130.66 75.9557C130.41 75.5226 130.16 75.0896 129.96 74.7432C130.053 73.304 130.096 71.7782 130.189 70.3389C130.258 69.2595 130.601 68.2533 130.448 67.1873C130.434 66.9641 130.124 67.0275 130.138 67.2507C130.291 68.3167 129.949 69.3229 129.829 70.3157C129.673 71.4451 129.48 72.7112 129.46 73.8772C129.16 73.3576 128.81 72.7514 128.51 72.2318C128.959 70.0095 129.135 67.7141 129.224 65.4686C129.211 65.2454 128.988 65.2588 128.915 65.532C128.812 67.5543 128.536 69.6765 128.124 71.7621C127.774 71.1559 127.424 70.5497 127.074 69.9435C127.167 68.5042 127.223 67.2016 127.452 65.799C127.658 64.7562 127.865 63.7134 127.761 62.7339C127.798 62.5973 127.524 62.5241 127.538 62.7473C127.655 63.95 127.375 65.266 127.046 66.4954C126.79 67.4516 126.757 68.3944 126.587 69.3007C126.337 68.8676 126.137 68.5212 125.887 68.0882C126.193 67.2186 126.3 66.0026 126.383 65.1464C126.502 64.1535 126.622 63.1607 126.741 62.1679C126.838 61.5349 126.948 61.1251 126.821 60.5055C126.807 60.2823 126.498 60.3457 126.511 60.5689C126.601 61.3251 126.332 62.0581 126.199 62.8277C126.029 63.7339 125.859 64.6401 125.776 65.4964C125.717 65.9928 125.484 66.5892 125.387 67.2222C125.087 66.7026 124.787 66.183 124.487 65.6633C124.574 65.6134 124.66 65.5634 124.61 65.4767C124.673 62.7849 125.641 60.2627 125.84 57.6074C125.877 57.4708 125.604 57.3976 125.617 57.6208C125.368 60.1894 124.386 62.4885 124.137 65.0571C123.787 64.4509 123.437 63.8447 123.037 63.1519C123.209 60.0502 124.238 57.0316 124.187 53.9433C124.31 53.7567 124 53.8201 124.014 54.0433ZM161.12 128.114C161.42 128.633 161.67 129.066 161.437 129.663C161.254 130.346 160.511 130.659 159.992 130.959L159.905 131.009C146.851 138.199 134.771 146.675 122.054 154.248C115.695 158.035 109.3 161.958 102.941 165.745C99.9101 167.495 96.879 169.245 93.8479 170.995C91.3365 172.445 88.7518 174.168 86.0537 175.495C85.8305 175.508 85.5707 175.658 85.3109 175.808C85.1377 175.908 85.0511 175.958 84.8279 175.971C84.7413 176.021 84.6547 176.071 84.5681 176.121C84.3083 176.271 84.0851 176.285 83.8119 176.212C83.402 176.102 83.202 175.755 83.002 175.409C82.952 175.322 82.9886 175.186 82.8886 175.013C77.7654 166.539 71.2422 155.64 67.1654 148.179C62.7886 140.198 60.7056 137.591 56.3288 129.61C52.352 122.322 47.669 115.21 43.4824 108.159C39.2458 101.021 26.2798 80.5632 17.87 66.597C17.67 66.2506 17.57 66.0774 17.4566 65.681C17.3798 65.148 17.7262 64.948 18.0726 64.748C37.9144 52.715 73.025 32.3284 92.8766 19.7123L92.9632 19.6623C93.0498 19.6123 93.0498 19.6123 93.1364 19.5623C93.3096 19.4623 93.3963 19.4123 93.5695 19.3123C93.9159 19.1123 94.2257 19.0489 94.7221 19.1088C95.2185 19.1686 95.5953 20.2212 96.0185 20.5542C100.748 26.9458 104.561 33.7508 108.338 40.6924C112.615 48.5 117.015 56.121 121.588 63.6421C126.111 71.0765 130.771 78.5475 135.294 85.9819C139.491 92.4503 156.674 121.212 161.12 128.114Z" fill="white"/>
<path d="M162.82 131.058C157.204 134.531 151.689 138.178 146.173 141.824C146 141.924 146.15 142.184 146.323 142.084C152.089 138.871 157.454 134.964 163.12 131.578C163.38 131.428 163.08 130.908 162.82 131.058Z" fill="white"/>
<path d="M163.247 132.197C159.19 134.771 155.047 137.394 151.09 140.14C151.003 140.19 151.103 140.363 151.19 140.313C155.547 138.26 159.44 135.204 163.547 132.717C163.843 132.43 163.593 131.997 163.247 132.197Z" fill="white"/>
<path d="M164.01 133.72C164.27 133.57 164.02 133.137 163.76 133.287C161.645 134.623 159.58 136.046 157.465 137.383C156.946 137.683 155.2 138.46 154.967 139.056C154.967 139.056 154.967 139.056 155.017 139.143C155.7 139.326 157.196 138.116 157.715 137.816C159.83 136.479 161.895 135.056 164.01 133.72Z" fill="white"/>
<path d="M164.57 134.089C162.195 135.576 159.957 137.099 157.632 138.672C157.459 138.772 157.609 139.032 157.782 138.932C160.257 137.619 162.445 136.009 164.82 134.522C165.08 134.372 164.78 133.853 164.57 134.089Z" fill="white"/>
<path d="M126.359 157.305C124.577 158.219 124.005 160.627 125.264 162.209C125.314 162.296 125.488 162.196 125.438 162.109C125.124 161.367 124.984 160.524 125.067 159.668C125.237 158.761 126.016 158.311 126.695 157.688C126.905 157.452 126.619 157.155 126.359 157.305Z" fill="white"/>
<path d="M133.885 159.542C133.872 159.318 133.476 159.432 133.489 159.655C133.85 162.68 131.985 164.449 129.36 165.503C129.273 165.553 129.323 165.64 129.41 165.59C132.385 165.142 134.383 162.603 133.885 159.542Z" fill="white"/>
<path d="M134.426 161.077C134.343 161.933 134.023 162.58 133.617 163.276C133.247 163.836 132.604 164.323 132.235 164.882C132.148 164.932 132.285 164.969 132.285 164.969C133.707 164.032 134.656 162.676 134.735 161.014C134.859 160.827 134.499 160.804 134.426 161.077Z" fill="white"/>
<path d="M90.2446 175.154C88.2795 176.75 85.2753 178.946 82.5164 177.768C81.4102 177.252 80.7834 175.766 80.2334 174.814C79.5834 173.688 78.8102 172.749 78.1602 171.623C78.1102 171.536 78.0236 171.586 77.987 171.723C78.7138 173.382 79.6638 175.027 80.6504 176.536C81.2504 177.575 82.0968 178.241 83.1896 178.534C85.8351 179.316 88.7894 177.033 90.5812 175.537C90.9276 175.337 90.5044 175.004 90.2446 175.154Z" fill="white"/>
<path d="M76.2856 185.176C74.3624 182.245 72.7356 179.027 70.899 176.046C70.799 175.873 70.6258 175.973 70.6392 176.196C72.216 179.327 73.8428 182.545 75.766 185.476C76.7026 186.898 77.6758 188.184 78.4392 189.706C79.2392 191.092 80.1258 192.427 81.4454 193.513C81.682 193.723 82.1516 193.336 81.915 193.126C79.4124 190.992 77.9588 187.674 76.2856 185.176Z" fill="white"/>
<path d="M75.933 186.765C75.833 186.592 75.6231 186.828 75.8097 186.952C76.7329 188.151 77.3097 189.55 78.1463 190.799C78.8829 191.875 79.7928 192.85 80.5794 194.013C80.7294 194.273 81.299 194.059 81.0124 193.763C80.1758 192.514 79.0794 191.415 78.3294 190.116C77.4928 188.867 76.9294 187.691 75.933 186.765Z" fill="white"/>
<path d="M6.53007 57.5557C7.3693 56.6093 9.02814 55.8825 10.0674 55.2825C12.3556 53.8459 14.7805 52.4459 17.0688 51.0093C21.5221 48.3227 25.7888 45.5129 29.9922 42.3932C30.1654 42.2932 30.0154 42.0334 29.8422 42.1334C25.3656 45.1798 20.7891 48.053 16.2992 50.8762C13.8743 52.2762 11.536 53.6262 9.16116 55.1129C8.20853 55.6629 6.85949 56.3262 6.05686 57.1361C5.84705 57.3727 6.32026 57.7923 6.53007 57.5557Z" fill="white"/>
<path d="M6.16667 56.7263C8.88436 54.2335 12.5351 52.3567 15.6894 50.4201C19.0169 48.3835 22.3944 46.4335 25.8085 44.3469C25.9817 44.2469 25.8317 43.9871 25.6585 44.0871C22.0212 46.1871 18.4704 48.2371 14.8831 50.4237C11.7655 52.2237 8.37455 53.9504 5.74346 56.3933C5.53366 56.6299 5.87026 57.0129 6.16667 56.7263Z" fill="white"/>
<path d="M93.7195 19.5721C89.1795 22.3087 84.7396 25.2185 80.1997 27.9551C75.7963 30.7284 71.2064 33.3784 66.8531 36.2382C66.7664 36.2882 66.7798 36.5114 66.9531 36.4114C76.2463 31.5078 84.9262 25.3418 93.9695 20.0051C94.3659 19.8918 94.0659 19.3721 93.7195 19.5721Z" fill="white"/>
<path d="M93.9864 21.0346C90.7455 23.0212 87.5546 25.0944 84.3504 26.9444C80.9729 28.8944 77.632 30.7078 74.5545 33.1774C74.4679 33.2274 74.5679 33.4006 74.6545 33.3506C77.8454 31.2774 81.2229 29.3274 84.5138 27.4274C87.8046 25.5274 90.9955 23.4542 94.1498 21.5176C94.5828 21.2676 94.3328 20.8346 93.9864 21.0346Z" fill="white"/>
<path d="M80.2645 11.8674C82.6161 10.7406 84.8178 9.35401 87.0195 7.96741C89.2711 6.66741 91.5228 5.36741 93.7745 4.06741C94.0343 3.91741 93.7843 3.4844 93.5245 3.6344C89.0577 6.09779 84.5178 8.8344 80.1645 11.6942C80.0779 11.7442 80.0913 11.9674 80.2645 11.8674Z" fill="white"/>
<path d="M52.0717 120.636C51.9217 120.376 51.4887 120.626 51.6387 120.886C54.4985 125.239 57.0485 129.656 59.6485 134.159C62.2985 138.749 64.702 143.712 67.7851 148.052C67.9351 148.312 68.3681 148.062 68.2181 147.802C65.8413 143.286 63.0681 138.882 60.5181 134.466C57.7681 129.702 54.9815 125.076 52.0717 120.636Z" fill="white"/>
</svg>
