<svg width="68" height="68" viewBox="0 0 68 68" fill="none" xmlns="http://www.w3.org/2000/svg">
<path d="M33.9566 63.9774C50.4715 63.9774 63.8593 50.5895 63.8593 34.0747C63.8593 17.5599 50.4715 4.172 33.9566 4.172C17.4418 4.172 4.05396 17.5599 4.05396 34.0747C4.05396 50.5895 17.4418 63.9774 33.9566 63.9774Z" fill="#41B4E6" stroke="#ECEFF1" stroke-width="7"/>
<path d="M60.3601 34.0747C60.3601 33.4313 60.3358 32.7938 60.2906 32.1619L49.3479 21.2194L18.5662 33.3276L30.3434 45.105L30.4979 45.6611L30.6979 45.4594L30.6988 45.4603L30.4979 45.6611L43.5259 58.689C53.3775 54.8564 60.3601 45.2815 60.3601 34.0747Z" fill="#0091C8"/>
<path d="M31.3927 37.9214L43.3247 46.9301L49.3478 21.2194L18.5659 33.3276L27.9325 36.43L45.0267 24.9637L31.3927 37.9214Z" fill="white"/>
<path d="M27.9326 36.43L30.4979 45.6612L31.3929 37.9214L45.0268 24.9637L27.9326 36.43Z" fill="#D2D2D7"/>
<path d="M35.2707 40.8492L30.4978 45.6612L31.3927 37.9214L35.2707 40.8492Z" fill="#B9B9BE"/>
</svg>
