<svg width="85" height="85" viewBox="0 0 85 85" fill="none" xmlns="http://www.w3.org/2000/svg">
<path d="M42.7192 80.7883C63.9822 80.7883 81.2192 63.5512 81.2192 42.2883C81.2192 21.0253 63.9822 3.78827 42.7192 3.78827C21.4563 3.78827 4.21924 21.0253 4.21924 42.2883C4.21924 63.5512 21.4563 80.7883 42.7192 80.7883Z" fill="#41B4E6" stroke="#ECEFF1" stroke-width="7"/>
<g clip-path="url(#clip0)">
<path d="M42.7192 77.2883C62.0492 77.2883 77.7192 61.6182 77.7192 42.2883C77.7192 22.9583 62.0492 7.28827 42.7192 7.28827C23.3893 7.28827 7.71924 22.9583 7.71924 42.2883C7.71924 61.6182 23.3893 77.2883 42.7192 77.2883Z" fill="#F0F0F0"/>
<path d="M14.9545 20.9796C12.2052 24.5565 10.1321 28.6793 8.92505 33.1581H27.133L14.9545 20.9796Z" fill="#0052B4"/>
<path d="M76.5136 33.158C75.3065 28.6794 73.2333 24.5567 70.4841 20.9797L58.3059 33.158H76.5136Z" fill="#0052B4"/>
<path d="M8.92505 51.4189C10.1323 55.8975 12.2053 60.0203 14.9545 63.5971L27.1326 51.4189H8.92505Z" fill="#0052B4"/>
<path d="M64.028 14.5236C60.451 11.7743 56.3284 9.70122 51.8496 8.49399V26.7018L64.028 14.5236Z" fill="#0052B4"/>
<path d="M21.4106 70.053C24.9876 72.8023 29.1104 74.8753 33.589 76.0826V57.8749L21.4106 70.053Z" fill="#0052B4"/>
<path d="M33.5889 8.49399C29.1102 9.70122 24.9875 11.7743 21.4106 14.5234L33.5889 26.7016V8.49399Z" fill="#0052B4"/>
<path d="M51.8499 76.0826C56.3285 74.8753 60.4512 72.8023 64.0281 70.0531L51.8499 57.8749V76.0826Z" fill="#0052B4"/>
<path d="M58.3059 51.4189L70.4841 63.5973C73.2333 60.0204 75.3065 55.8975 76.5136 51.4189H58.3059Z" fill="#0052B4"/>
<path d="M77.423 37.7231H47.2847H47.2845V7.58454C45.7901 7.38999 44.2665 7.28827 42.7192 7.28827C41.1717 7.28827 39.6484 7.38999 38.1541 7.58454V37.7228V37.723H8.01551C7.82096 39.2174 7.71924 40.741 7.71924 42.2883C7.71924 43.8358 7.82096 45.3591 8.01551 46.8534H38.1538H38.1539V76.992C39.6484 77.1866 41.1717 77.2883 42.7192 77.2883C44.2665 77.2883 45.7901 77.1867 47.2844 76.992V46.8537V46.8536H77.423C77.6175 45.3591 77.7192 43.8358 77.7192 42.2883C77.7192 40.741 77.6175 39.2174 77.423 37.7231Z" fill="#D80027"/>
<path d="M51.8499 51.4189L67.4681 67.0371C68.1864 66.3191 68.8716 65.5683 69.5254 64.7901L56.154 51.4188H51.8499V51.4189Z" fill="#D80027"/>
<path d="M33.5888 51.4189H33.5885L17.9705 67.037C18.6885 67.7553 19.4392 68.4405 20.2174 69.0943L33.5888 55.7227V51.4189Z" fill="#D80027"/>
<path d="M33.5886 33.1581V33.1578L17.9704 17.5394C17.2521 18.2575 16.5669 19.0082 15.9131 19.7864L29.2846 33.1579H33.5886V33.1581Z" fill="#D80027"/>
<path d="M51.8499 33.1581L67.4682 17.5396C66.7501 16.8213 65.9994 16.136 65.2212 15.4824L51.8499 28.8539V33.1581Z" fill="#D80027"/>
</g>
<defs>
<clipPath id="clip0">
<rect width="70" height="70" fill="white" transform="translate(7.71924 7.28827)"/>
</clipPath>
</defs>
</svg>
