<svg width="65" height="64" viewBox="0 0 65 64" fill="none" xmlns="http://www.w3.org/2000/svg">
<g clip-path="url(#clip0)">
<path d="M55.0544 9.93733C49.0455 4.18205 41.1391 0.931 32.7188 0.931C8.55157 0.931 -6.62344 26.8741 5.44436 47.5111L0.974609 63.6019L17.6703 59.288C24.9442 63.1815 30.9029 62.8368 32.7346 63.0666C60.7575 63.0666 74.707 29.475 55.0148 10.0392L55.0544 9.93733Z" fill="#ECEFF1"/>
<path d="M32.7768 57.7291L32.7609 57.7265H32.7188C24.3327 57.7265 18.9748 53.7913 18.4477 53.5641L8.56473 56.1101L11.2134 46.592L10.5835 45.6127C7.97439 41.4973 6.58813 36.7578 6.58813 31.8774C6.58813 8.91631 34.9062 -2.56552 51.2935 13.6636C67.6413 29.723 56.1639 57.7291 32.7768 57.7291Z" fill="#4CAF50"/>
<path d="M47.1136 38.2907L47.0899 38.4865C46.2966 38.0948 42.4331 36.2225 41.7136 35.964C40.098 35.3713 40.554 35.87 37.452 39.39C36.9908 39.8992 36.5323 39.9384 35.7495 39.5859C34.9589 39.1942 32.4209 38.3716 29.4165 35.7081C27.0762 33.6321 25.5055 31.0861 25.0416 30.3027C24.2694 28.9814 25.885 28.7934 27.3556 26.0359C27.6191 25.4875 27.4847 25.0567 27.2897 24.6676C27.092 24.2759 25.5186 20.4373 24.8598 18.9071C24.2273 17.3821 23.5763 17.5753 23.0887 17.5753C21.5707 17.4448 20.4612 17.4657 19.4834 18.4736C15.2298 23.106 16.3024 27.8847 19.942 32.9663C27.0947 42.2415 30.9055 43.9493 37.8737 46.3204C39.7554 46.9131 41.4711 46.8296 42.8284 46.6363C44.3411 46.3987 47.4852 44.7536 48.1415 42.9126C48.8135 41.0717 48.8135 39.5441 48.6159 39.1916C48.4208 38.839 47.9043 38.6432 47.1136 38.2907Z" fill="#FAFAFA"/>
</g>
<defs>
<clipPath id="clip0">
<rect width="63.2512" height="62.6709" fill="white" transform="translate(0.974609 0.931)"/>
</clipPath>
</defs>
</svg>
