<svg width="183" height="195" viewBox="0 0 183 195" fill="none" xmlns="http://www.w3.org/2000/svg">
<g opacity="0.5" clip-path="url(#clip0)">
<path d="M123.949 135.341C123.949 130.906 123.521 126.471 122.666 122.179C122.238 119.89 121.952 115.455 119.528 114.167C115.819 112.164 109.829 113.452 106.12 115.741C105.977 114.024 105.977 112.307 105.835 110.734C105.835 110.734 105.977 110.734 105.977 110.591C107.261 109.732 106.833 107.872 105.692 107.443C105.55 107.157 105.55 107.014 105.264 106.728C101.841 102.865 94.9946 100.719 90.145 99.5745C83.7264 98.0007 76.5947 97.8577 69.8909 97.7146C59.0507 97.4285 44.7872 99.1453 36.6571 107.014C36.2292 107.443 36.3718 107.872 36.6571 108.158C36.2292 122.894 35.9439 137.63 36.5144 152.509C36.7997 159.806 37.085 170.679 37.7982 177.975C38.2261 182.41 38.5113 186.273 42.5051 188.848C52.4895 195.429 66.325 193.999 78.0211 194.428C88.2908 194.857 97.562 192.425 104.979 185.128C105.835 185.271 106.976 184.842 106.976 183.555C106.976 179.12 106.976 174.828 106.833 170.393C106.976 170.393 107.119 170.393 107.404 170.393C113.965 168.676 120.241 167.245 122.951 160.235C125.946 152.652 124.092 143.353 123.949 135.341ZM106.548 146.786C106.405 139.49 106.548 132.337 106.548 125.04C107.832 124.611 108.973 124.182 110.256 123.896C113.965 122.894 115.391 125.326 115.534 128.76C115.677 132.623 115.819 136.486 115.819 140.348C115.962 143.782 116.532 147.216 116.39 150.649C116.247 156.372 111.54 158.661 106.691 159.949C106.691 155.514 106.548 151.222 106.548 146.786ZM69.8909 101.148C75.7389 101.291 81.8722 101.72 87.7202 102.865C92.2845 103.723 98.5604 105.726 102.269 109.017C99.4162 110.591 96.5635 111.735 93.4256 112.594C93.4256 112.307 93.4256 112.164 93.1403 112.021C89.8597 110.591 86.1512 110.734 82.728 110.448C78.3063 110.018 74.0273 109.732 69.6056 109.875C65.3266 110.018 61.0476 110.161 56.9112 110.591C54.9143 110.877 52.6321 111.163 50.7779 112.021C50.4926 112.021 50.2074 111.878 49.9221 111.878C46.7841 111.163 40.7935 110.877 39.2245 107.586C47.4973 101.577 60.3344 100.862 69.8909 101.148ZM92.7124 112.594C85.1528 114.596 77.1653 114.596 69.1777 114.31C63.3297 114.024 57.4817 113.166 51.7763 112.021C54.0585 111.306 56.4833 111.163 58.7654 110.877C62.7592 110.448 66.6103 110.448 70.6041 110.304C74.3126 110.161 78.1637 110.448 81.8722 110.877C85.4381 111.449 89.2892 111.306 92.7124 112.594ZM76.7374 191.137C65.7545 190.708 52.9174 191.853 43.5035 185.701C39.3671 182.982 40.2229 170.106 40.0803 165.814C39.795 159.233 39.3671 152.652 39.2245 146.071C38.9392 134.197 38.7966 122.322 38.5113 110.448C39.795 112.021 42.0772 112.88 43.9314 113.452C50.2074 115.312 56.6259 116.456 63.1871 117.315C76.88 118.888 91.8566 118.888 104.266 112.021C102.839 135.484 103.981 158.947 103.981 182.41C96.8488 190.136 86.5791 191.423 76.7374 191.137ZM121.382 157.516C119.813 165.099 113.394 166.53 106.833 168.247C106.833 166.387 106.833 164.384 106.691 162.524C110.827 161.522 116.247 159.663 117.816 155.37C119.813 149.791 118.244 143.353 118.101 137.487C118.101 133.052 118.815 126.471 115.819 122.751C113.68 120.176 109.115 121.893 106.263 123.467C106.263 121.321 106.12 119.175 106.12 117.029C110.399 115.455 117.816 113.738 119.528 118.888C121.667 125.326 121.382 132.623 121.525 139.347C121.952 145.213 122.666 151.365 121.382 157.516Z" fill="white"/>
<path d="M71.0319 111.163C67.1808 111.306 63.3297 112.021 59.4785 112.021C59.1933 112.021 59.1933 112.45 59.4785 112.45C63.6149 112.88 67.7513 112.021 71.8877 111.878C74.0273 111.878 76.0241 112.021 78.1636 112.021C78.5915 112.021 79.0195 112.021 79.4474 112.021C80.0179 112.021 80.4458 112.021 81.0163 112.164C81.4442 113.023 81.3016 113.452 80.4458 113.452C80.0179 113.595 80.0179 114.31 80.4458 114.167C83.5838 113.738 82.8706 111.449 80.0179 111.306C77.1652 111.02 74.0272 111.02 71.0319 111.163Z" fill="white"/>
<path d="M76.1668 112.737C74.3126 111.878 71.8878 112.594 69.8909 112.737C69.6056 112.737 69.6056 113.166 69.8909 113.166C72.0304 113.166 73.8847 112.88 76.0242 113.309C76.3094 113.309 76.4521 112.88 76.1668 112.737Z" fill="white"/>
<path d="M47.0694 193.283C39.0819 190.422 35.516 182.41 36.0865 174.255C36.0865 173.826 35.516 173.826 35.516 174.112C34.0897 182.839 38.3687 191.423 46.7841 194.571C47.4973 195 47.9252 193.569 47.0694 193.283Z" fill="white"/>
<path d="M41.9345 193.712C38.654 192.139 35.0881 187.99 34.8028 184.27C34.8028 183.841 34.2323 183.841 34.2323 184.27C34.0897 188.419 37.6555 193.14 41.2214 195C42.0772 195.429 42.7904 194.142 41.9345 193.712Z" fill="white"/>
<path d="M98.2752 123.037C95.1372 124.182 91.8566 126.471 89.1466 128.331C88.7187 128.617 89.0039 129.332 89.5745 129.046C91.1435 128.188 92.5698 127.329 94.1388 126.471C95.7078 125.613 97.2767 124.897 98.7031 123.896C99.131 123.753 98.8457 122.894 98.2752 123.037Z" fill="white"/>
<path d="M98.4178 126.757C95.2798 127.616 92.2845 129.762 89.5745 131.621C89.1466 131.908 89.5745 132.766 90.0024 132.48C92.8551 130.62 95.8504 129.475 98.7031 127.759C99.2736 127.472 98.9883 126.614 98.4178 126.757Z" fill="white"/>
<path d="M91.4287 135.198C93.7109 133.624 95.993 132.194 98.5604 131.192C99.131 130.906 98.7031 130.191 98.1325 130.334C95.4225 130.763 93.1403 132.909 90.8582 134.483C90.5729 134.769 91.0008 135.627 91.4287 135.198Z" fill="white"/>
<path d="M90.4302 139.919C93.1403 138.059 95.2798 136.056 98.4178 135.055C98.9883 134.912 98.8457 134.197 98.2751 134.054C96.7062 133.91 95.1372 135.198 93.9961 136.056C92.5698 137.058 91.4287 138.346 90.0023 139.347C89.7171 139.633 90.145 140.062 90.4302 139.919Z" fill="white"/>
<path d="M98.4178 137.058C95.8504 137.773 93.5682 139.776 91.2861 141.064C90.8582 141.35 91.2861 141.922 91.5713 141.636C92.7124 140.921 93.8535 140.205 94.9946 139.633C96.1356 138.918 97.4194 138.489 98.5604 137.773C99.131 137.63 98.8457 136.915 98.4178 137.058Z" fill="white"/>
<path d="M98.8457 139.919C95.993 140.921 93.5682 142.924 91.1434 144.784C90.8582 145.07 91.1434 145.642 91.4287 145.356C93.9961 143.782 96.7062 142.495 99.131 140.778C99.5589 140.492 99.2736 139.776 98.8457 139.919Z" fill="white"/>
<path d="M98.2752 143.353C95.5651 144.068 93.1403 146.5 91.0008 148.217C90.7155 148.503 91.1434 148.789 91.4287 148.646C92.5698 147.788 93.8535 146.93 95.1372 146.071C96.2783 145.356 97.562 144.927 98.7031 144.211C99.131 143.925 98.8457 143.21 98.2752 143.353Z" fill="white"/>
<path d="M91.0008 151.937C93.283 150.506 95.7077 149.219 97.9899 147.931C98.5604 147.645 98.1325 146.786 97.562 147.073C95.1372 148.36 92.8551 149.791 90.7155 151.365C90.145 151.508 90.5729 152.223 91.0008 151.937Z" fill="white"/>
<path d="M90.8581 155.227C91.9992 154.512 93.1403 153.654 94.2814 152.938C94.9945 152.509 95.5651 152.08 96.4209 151.794C96.9914 151.508 97.562 151.508 98.1325 151.365C98.4178 151.222 98.5604 150.935 98.2751 150.792C97.4193 149.934 95.5651 151.222 94.8519 151.651C93.2829 152.652 91.9992 153.797 90.5729 154.941C90.4302 155.084 90.7155 155.371 90.8581 155.227Z" fill="white"/>
<path d="M91.1434 158.804C92.2845 157.946 93.4256 157.087 94.5667 156.372C95.1372 155.943 95.7077 155.657 96.2783 155.371C96.8488 155.084 97.562 154.941 98.1325 154.655C98.4178 154.512 98.4178 153.94 97.9899 153.797C96.7062 153.368 95.2798 154.512 94.2814 155.227C92.9977 156.086 91.8566 157.23 90.5729 158.232C90.4303 158.518 90.8582 159.09 91.1434 158.804Z" fill="white"/>
<path d="M91.8566 161.522C92.855 160.807 93.8535 160.092 94.8519 159.519C95.8503 158.804 96.9914 158.518 98.1325 158.089C98.5604 157.946 98.4177 157.23 97.8472 157.23C95.4224 157.373 93.2829 159.663 91.4287 160.95C91.1434 161.093 91.5713 161.808 91.8566 161.522Z" fill="white"/>
<path d="M98.5604 159.806C96.1356 160.235 93.8535 162.381 91.9992 163.811C91.5713 164.241 91.9992 164.956 92.4271 164.67C93.4256 163.954 94.424 163.239 95.4224 162.667C96.5635 161.952 97.8472 161.522 98.9883 160.807C99.4162 160.378 99.1309 159.662 98.5604 159.806Z" fill="white"/>
<path d="M92.5698 167.674C94.5667 166.1 96.7062 165.242 98.8457 163.954C99.4162 163.525 99.131 162.524 98.2752 162.667C95.8504 163.525 93.5682 165.099 91.714 166.816C91.2861 167.245 92.1419 168.103 92.5698 167.674Z" fill="white"/>
<path d="M52.0616 97.7146C52.2042 97.7146 52.2042 97.4285 52.0616 97.4285C45.5004 99.8606 38.226 101.72 33.947 107.729C33.6617 108.015 34.2323 108.302 34.5176 108.015C38.9392 102.293 45.643 100.29 52.0616 97.7146Z" fill="white"/>
<path d="M34.0897 106.156C37.085 101.577 44.0741 99.0022 48.9236 96.8562C49.0663 96.7131 48.9236 96.5701 48.781 96.5701C45.643 97.5715 42.7904 98.8591 39.795 100.433C37.3702 101.72 34.6602 103.008 33.2338 105.726C32.9486 106.156 33.6617 106.585 34.0897 106.156Z" fill="white"/>
<path d="M83.8691 121.464C90.5729 121.178 96.7062 117.887 102.697 115.312C103.553 114.883 102.839 113.738 101.984 114.167C95.5651 117.172 89.5744 120.176 82.4427 120.462C76.7373 120.748 70.8893 120.319 65.3266 119.461C65.1839 119.461 65.1839 119.747 65.3266 119.747C71.032 121.75 77.7358 121.607 83.8691 121.464Z" fill="white"/>
<path d="M101.128 117.172C94.7093 121.178 86.1512 122.465 78.5916 123.18C78.1637 123.18 78.021 123.896 78.5916 123.896C86.1512 124.325 95.2798 122.465 101.841 118.459C102.697 118.03 101.984 116.599 101.128 117.172Z" fill="white"/>
<path d="M115.106 133.91C114.535 131.478 114.821 129.046 113.965 126.614C113.109 124.325 110.684 124.611 108.973 125.613C108.83 125.613 108.973 125.899 109.115 125.899C110.256 125.47 111.825 124.897 112.824 125.899C113.537 126.471 113.68 127.616 113.822 128.474C114.108 130.334 113.822 132.48 114.535 134.197C114.678 134.34 115.106 134.197 115.106 133.91Z" fill="white"/>
<path d="M109.543 126.757C109.401 126.9 109.543 127.043 109.686 127.043C111.112 126.471 111.825 126.9 112.396 128.331C112.824 129.332 112.681 130.62 113.109 131.621C113.252 132.051 113.822 131.908 113.68 131.478C113.252 129.332 112.539 124.754 109.543 126.757Z" fill="white"/>
<path d="M116.532 116.742C114.393 115.312 111.255 116.742 108.973 117.029C108.687 117.029 108.83 117.458 109.115 117.315C111.398 117.029 113.965 116.17 116.247 117.172C117.673 117.887 118.387 120.462 118.815 121.75C119.242 123.18 119.67 124.611 120.098 126.042C120.241 126.471 120.954 126.328 120.811 125.899C119.956 123.324 119.242 118.459 116.532 116.742Z" fill="white"/>
<path d="M120.384 166.244C116.532 168.39 112.539 170.965 108.117 171.537C107.832 171.537 107.832 171.823 107.974 171.966C107.974 171.966 107.974 171.966 108.117 171.966C109.829 172.252 112.253 170.822 113.68 170.249C116.104 169.248 118.244 167.674 120.384 166.244C120.526 166.244 120.526 166.1 120.384 166.244Z" fill="white"/>
<path d="M117.959 168.676C115.534 171.394 111.54 172.682 107.974 173.111C107.689 173.111 107.689 173.826 108.117 173.683C111.683 173.254 115.962 171.68 118.244 168.676C118.244 168.819 118.101 168.676 117.959 168.676Z" fill="white"/>
<path d="M116.104 171.68C114.963 172.252 113.822 172.825 112.681 173.397C111.255 174.112 109.686 174.398 108.117 174.828C107.689 174.971 107.832 175.543 108.26 175.4C109.543 175.114 110.827 174.828 111.968 174.255C113.394 173.54 114.821 172.682 116.247 171.823C116.39 171.823 116.247 171.537 116.104 171.68Z" fill="white"/>
<path d="M102.554 181.123C93.9962 187.99 83.0133 190.422 72.1731 189.563C72.0304 189.563 72.0304 189.85 72.1731 189.85C82.728 191.853 94.7093 188.419 103.125 181.695C103.553 181.409 102.982 180.836 102.554 181.123Z" fill="white"/>
<path d="M80.3032 188.133C87.8628 187.99 95.4225 184.413 101.698 180.407C102.126 180.121 101.698 179.406 101.27 179.692C95.1372 183.698 87.7202 187.561 80.3032 187.704C80.1606 187.704 80.1606 188.133 80.3032 188.133Z" fill="white"/>
<path d="M85.2954 185.128C90.8582 184.699 96.1356 181.981 100.843 179.12C101.27 178.833 100.843 178.118 100.415 178.404C95.7078 181.266 90.7155 183.841 85.2954 184.842C85.0102 184.842 85.0102 185.271 85.2954 185.128Z" fill="white"/>
<path d="M39.9376 114.883C41.5066 121.75 40.2229 129.046 40.3655 136.057C40.3655 136.2 40.6508 136.343 40.6508 136.057C40.6508 129.046 42.0771 121.75 40.5082 114.74C40.6508 114.31 39.9376 114.453 39.9376 114.883Z" fill="white"/>
<path d="M41.9346 115.455C41.9346 121.034 42.3625 126.614 42.5051 132.194C42.5051 132.48 42.933 132.48 42.933 132.194C43.0756 126.614 42.6477 121.034 42.6477 115.455C42.7904 115.026 41.9346 115.026 41.9346 115.455Z" fill="white"/>
<path d="M43.9314 116.027C43.9314 120.605 44.074 125.326 43.9314 129.905C43.9314 130.191 44.3593 130.191 44.3593 129.905C44.6446 125.326 44.7872 120.605 44.7872 116.027C44.6446 115.598 43.9314 115.598 43.9314 116.027Z" fill="white"/>
<path d="M46.4988 116.599C46.3562 120.462 46.4988 124.468 46.6415 128.331C46.6415 128.617 47.0694 128.617 47.0694 128.331C47.212 124.468 47.0694 120.462 47.3546 116.599C47.3546 116.027 46.6415 116.027 46.4988 116.599Z" fill="white"/>
<path d="M71.1746 4.57813C69.3203 4.29199 67.3235 4.29199 65.3266 4.14893C65.1839 4.14893 65.1839 4.29199 65.3266 4.29199C67.3235 4.57813 69.1777 4.72119 71.1746 4.86426C71.4599 4.86426 71.4599 4.57813 71.1746 4.57813Z" fill="white"/>
<path d="M71.1746 5.29346C69.7482 5.15039 68.3219 4.86426 66.8956 4.86426C66.7529 4.86426 66.7529 5.00732 66.8956 5.00732C68.3219 5.15039 69.7482 5.43652 71.1746 5.72266C71.3172 5.72266 71.3172 5.29346 71.1746 5.29346Z" fill="white"/>
<path d="M71.3173 6.0088C70.8894 5.86574 70.4615 5.86574 69.8909 5.86574C69.3204 5.72267 68.7498 5.72267 68.1793 5.72267C68.0367 5.72267 68.0367 5.86574 68.1793 5.86574C69.1777 6.0088 70.1762 6.00881 71.1746 6.29494C71.4599 6.43801 71.6025 6.0088 71.3173 6.0088Z" fill="white"/>
<path d="M71.4599 6.72415C70.7467 6.58109 70.0335 6.58109 69.3204 6.58109C69.1777 6.58109 69.1777 6.72415 69.3204 6.72415C70.0335 6.72415 70.7467 6.86722 71.4599 7.01029C71.6025 7.01029 71.7451 6.72415 71.4599 6.72415Z" fill="white"/>
<path d="M71.3172 7.43948C70.8893 7.43948 70.604 7.43948 70.1761 7.29642C70.0335 7.29642 70.0335 7.43948 70.1761 7.43948C70.604 7.43948 70.8893 7.58255 71.3172 7.58255C71.4598 7.86869 71.6025 7.43948 71.3172 7.43948Z" fill="white"/>
<path d="M80.8737 22.8907C80.7311 23.8922 80.1605 24.8936 79.7326 25.752C79.1621 26.7535 78.7342 27.755 78.3063 28.7564C77.4505 30.9024 76.88 33.0484 75.8815 35.0514C75.7389 35.1944 76.1668 35.3375 76.1668 35.1944C77.1652 33.1915 77.7358 30.9024 78.5916 28.8995C79.0195 27.898 79.4474 26.7535 79.8753 25.752C80.3032 24.7506 80.8737 23.8922 80.8737 22.7476C81.0164 22.7476 80.8737 22.7476 80.8737 22.8907Z" fill="white"/>
<path d="M79.1621 28.1842C78.5916 31.1886 77.0226 33.7638 75.8815 36.6251C75.7389 36.7682 76.1668 36.9113 76.1668 36.7682C77.3079 34.0499 79.0195 31.3316 79.1621 28.1842C79.3047 28.1842 79.1621 28.1842 79.1621 28.1842Z" fill="white"/>
<path d="M104.123 27.3258C103.553 29.1856 102.554 30.9024 101.841 32.6192C101.128 34.336 100.415 36.1959 99.8441 38.0558C99.5589 37.1974 99.5589 36.0528 99.2736 35.1944C98.9883 34.0499 98.8457 32.7623 98.5604 31.6178C98.2751 30.4732 97.9899 29.3287 97.8472 28.0411C97.7046 26.8966 97.2767 25.609 97.2767 24.4644C97.2767 24.3214 97.1341 24.3214 97.1341 24.4644C96.9914 25.609 97.2767 26.7535 97.562 27.755C97.7046 29.0426 98.1325 30.3302 98.4178 31.6178C98.703 32.9054 98.9883 34.193 99.2736 35.4806C99.4162 36.339 99.4162 37.4835 99.8441 38.3419C99.8441 38.485 99.9868 38.485 100.129 38.485C100.272 38.485 100.415 38.485 100.415 38.3419C100.985 36.482 101.698 34.7652 102.412 33.0484C103.125 31.0455 104.123 29.3287 104.694 27.3258C104.266 27.3258 104.123 27.3258 104.123 27.3258Z" fill="white"/>
<path d="M103.41 30.9024C102.697 32.4762 101.984 34.193 101.413 35.7667C100.843 37.3404 100.272 38.7711 99.7015 40.2018C99.5589 39.4864 99.2736 38.7711 98.9883 38.0558C98.7031 37.1974 98.5604 36.339 98.4178 35.4806C97.9899 33.7638 97.562 31.9039 97.2767 30.1871C97.2767 30.044 97.1341 30.1871 97.1341 30.1871C97.1341 31.9039 97.7046 33.7638 98.1325 35.4806C98.2752 36.339 98.5604 37.1974 98.7031 38.0558C98.8457 38.9142 99.2736 39.6295 99.4162 40.4879C99.4162 40.631 99.7015 40.631 99.7015 40.4879C99.8442 40.4879 99.8442 40.4879 99.8442 40.3448C100.415 38.9142 101.128 37.4835 101.556 36.0528C102.126 34.6222 102.839 32.7623 103.41 30.9024C103.553 30.9024 103.41 30.9024 103.41 30.9024Z" fill="white"/>
<path d="M101.984 27.0396C101.984 27.1827 102.269 27.3257 102.269 27.1827C102.839 25.4659 103.267 23.7491 103.981 22.1753C104.551 20.7447 105.264 19.314 105.55 17.7403C105.122 19.314 104.408 20.6016 103.695 22.0323C102.982 23.606 102.554 25.3228 101.984 27.0396Z" fill="white"/>
<path d="M101.841 25.0367C101.841 25.3228 102.126 25.3228 102.269 25.0367C102.412 23.8921 103.125 22.7476 103.553 21.7461C103.981 20.7447 104.266 19.6001 104.551 18.5987C104.123 19.7432 103.695 20.8877 103.125 22.0323C102.697 22.8907 102.126 23.8921 101.841 25.0367Z" fill="white"/>
<path d="M101.698 23.0337C101.698 23.1768 101.841 23.3199 101.984 23.1768C102.126 22.6045 102.554 22.1753 102.839 21.6031C103.267 20.8877 103.553 20.0293 103.838 19.314C103.838 19.1709 103.695 19.1709 103.695 19.314C103.41 20.0293 103.125 20.6016 102.839 21.3169C102.412 21.7461 101.984 22.3184 101.698 23.0337Z" fill="white"/>
<path d="M101.698 22.3184C102.269 21.46 102.697 20.4585 102.982 19.4571C102.982 19.314 102.839 19.314 102.839 19.4571C102.554 20.4585 101.984 21.3169 101.413 22.1753C101.27 22.1753 101.556 22.4615 101.698 22.3184Z" fill="white"/>
<path d="M94.424 7.01029C92.2845 7.01029 90.0024 6.58109 87.8628 6.58109C87.7202 6.58109 87.7202 6.72415 87.8628 6.72415C89.1465 6.86722 90.4303 7.01029 91.714 7.15335C92.5698 7.29642 93.5682 7.43948 94.424 7.43948C94.7093 7.29642 94.5667 7.01029 94.424 7.01029Z" fill="white"/>
<path d="M93.1403 7.43948C91.8566 7.29642 90.4302 7.29642 89.1465 7.29642C89.0039 7.29642 89.0039 7.43948 89.1465 7.43948C90.4302 7.58255 91.8566 7.72562 93.1403 7.86868C93.2829 7.86868 93.4256 7.43948 93.1403 7.43948Z" fill="white"/>
<path d="M92.4272 8.15482C91.5713 8.15482 90.8582 8.01175 90.0024 8.01175C89.8597 8.01175 89.8597 8.29788 90.0024 8.29788C90.8582 8.29788 91.5713 8.44095 92.4272 8.58402C92.5698 8.44095 92.5698 8.15482 92.4272 8.15482Z" fill="white"/>
<path d="M90.8582 8.72708C90.7155 8.72708 90.5729 8.72708 90.2876 8.72708C90.145 8.72708 90.145 9.01322 90.2876 9.01322C90.4303 9.01322 90.5729 9.01322 90.8582 9.01322C91.0008 9.01322 91.1434 9.01322 91.2861 9.01322C91.4287 9.01322 91.4287 8.72708 91.2861 8.72708C91.1434 8.72708 91.0008 8.72708 90.8582 8.72708Z" fill="white"/>
<path d="M85.5807 4.14892C86.5792 3.29052 87.8629 2.86132 88.8613 2.00292C89.0039 1.85985 88.8613 1.57372 88.7187 1.71679C87.5776 2.57519 86.4365 3.14745 85.5807 4.14892C85.2954 4.00586 85.4381 4.14892 85.5807 4.14892Z" fill="white"/>
<path d="M85.438 3.43359C86.2939 2.86132 87.1497 2.43212 88.0055 2.00292C88.1481 1.85985 88.0055 1.57372 87.8628 1.71679C87.007 2.14599 86.1512 2.71825 85.2954 3.29052C85.2954 3.29052 85.2954 3.43359 85.438 3.43359Z" fill="white"/>
<path d="M87.007 2.00295C87.1496 1.85988 87.007 1.71681 86.8644 1.71681C86.1512 2.14601 85.5807 2.43215 84.8675 2.86135C84.7249 2.86135 84.8675 3.00441 85.0101 3.00441C85.5807 2.57521 86.2938 2.28908 87.007 2.00295Z" fill="white"/>
<path d="M110.97 5.57959C111.54 5.29346 111.968 4.86426 112.539 4.57813C113.537 4.57813 114.535 4.72119 115.534 4.72119C115.819 4.72119 116.675 5.00733 116.96 4.72119C116.675 4.43506 115.677 4.57813 115.249 4.43506C114.393 4.29199 113.394 4.14893 112.539 4.14893C112.396 4.14893 112.396 4.14893 112.396 4.29199C111.968 4.57813 111.54 4.86426 111.112 5.15039C110.542 5.57959 109.971 5.86573 109.543 6.43799C109.543 6.43799 109.543 6.58106 109.686 6.58106C110.114 6.15186 110.542 5.86573 110.97 5.57959Z" fill="white"/>
<path d="M109.829 5.5796C110.684 5.00733 111.683 4.29199 112.681 3.86279C113.822 3.71973 114.963 4.00586 115.962 4.00586C116.104 4.00586 116.104 3.86279 115.962 3.86279C115.249 3.71973 114.678 3.71973 113.965 3.57666C113.537 3.57666 112.966 3.43359 112.396 3.43359C112.396 3.43359 112.396 3.43359 112.253 3.43359C111.255 3.86279 110.256 4.57813 109.401 5.29346C109.543 5.5796 109.686 5.72266 109.829 5.5796Z" fill="white"/>
<path d="M109.829 49.358C108.973 51.6471 108.402 54.2223 107.974 56.6544C107.974 56.9406 108.26 56.9406 108.26 56.6544C108.83 54.3654 109.543 51.9332 109.829 49.358C109.971 49.358 109.829 49.358 109.829 49.358Z" fill="white"/>
<path d="M110.256 51.361C110.256 51.2179 110.114 51.2179 110.256 51.361C109.971 52.3624 109.543 53.507 109.258 54.5084C108.973 55.3668 108.83 56.2252 108.545 57.0836C108.545 57.3698 108.83 57.3698 108.973 57.0836C109.115 56.2252 109.401 55.3668 109.543 54.5084C109.686 53.507 110.256 52.3624 110.256 51.361Z" fill="white"/>
<path d="M109.401 56.7975C109.401 57.0836 109.686 57.0836 109.829 56.7975C110.114 55.3669 110.399 53.9362 110.684 52.5055C109.971 53.7931 109.686 55.3669 109.401 56.7975Z" fill="white"/>
<path d="M102.412 56.7975C101.128 56.7975 99.9868 56.6544 98.7031 56.5114C97.7046 56.5114 96.5635 56.6544 95.5651 56.5114C95.4225 56.5114 95.4225 56.6544 95.5651 56.6544C96.5635 56.9406 97.7046 56.7975 98.7031 56.7975C99.9868 56.9406 101.27 57.0836 102.554 57.0836C102.697 57.2267 102.697 56.7975 102.412 56.7975Z" fill="white"/>
<path d="M102.982 55.7961C101.27 55.7961 99.7015 56.0822 97.9898 55.9391C97.8472 55.9391 97.8472 56.0822 97.9898 56.0822C99.7015 56.2253 101.27 56.0822 102.982 56.0822C103.125 56.2253 103.125 55.7961 102.982 55.7961Z" fill="white"/>
<path d="M103.125 54.9376C101.698 54.7946 100.272 55.0807 98.8457 54.9376C98.703 54.9376 98.703 55.0807 98.8457 55.0807C100.272 55.3668 101.698 55.2238 103.125 55.3668C103.41 55.3668 103.41 54.9376 103.125 54.9376Z" fill="white"/>
<path d="M103.553 53.9362C102.554 53.7931 101.413 53.9362 100.415 53.9362C100.272 53.9362 100.272 54.0792 100.415 54.2223C101.413 54.3654 102.554 54.3654 103.553 54.3654C103.695 54.2223 103.695 53.9362 103.553 53.9362Z" fill="white"/>
<path d="M103.695 52.9347C102.839 52.9347 102.126 52.9347 101.27 52.9347C101.128 52.9347 101.128 53.0778 101.27 53.2208C102.126 53.2208 102.839 53.3639 103.695 53.3639C103.838 53.2208 103.838 52.9347 103.695 52.9347Z" fill="white"/>
<path d="M102.269 52.3624C102.554 52.3624 102.697 52.3624 102.982 52.3624C103.125 52.3624 103.41 52.3624 103.553 52.3624C103.695 52.3624 103.695 52.2194 103.553 52.0763C103.41 52.0763 103.125 52.0763 102.982 52.0763C102.697 52.0763 102.554 52.0763 102.269 52.0763C101.984 52.2194 102.126 52.3624 102.269 52.3624Z" fill="white"/>
<path d="M102.982 51.361C102.839 51.361 102.697 51.504 102.839 51.6471C102.982 51.6471 103.125 51.7902 103.267 51.7902C103.41 51.7902 103.553 51.9332 103.838 51.9332C103.981 51.9332 103.98 51.7902 103.98 51.6471C103.553 51.361 103.267 51.504 102.982 51.361Z" fill="white"/>
<path d="M66.0397 44.923C65.8971 43.3492 65.7545 41.6324 65.6118 39.9156C65.4692 39.2003 65.3266 38.485 65.1839 37.7696C65.1839 37.1974 65.0413 36.7682 64.756 36.339L64.6134 36.339C64.8987 36.9112 64.8987 37.4835 64.8987 38.0558C64.8987 38.7711 65.1839 39.6295 65.3266 40.3448C65.4692 41.9186 65.6118 43.6354 65.7545 45.3522C66.0397 47.069 66.0397 48.7858 66.4677 50.5026C66.7529 52.2194 67.1808 53.9362 67.3235 55.653C67.3235 55.796 67.6087 55.796 67.6087 55.653C67.3235 53.9362 67.0382 52.2194 66.7529 50.5026C66.325 48.6427 66.1824 46.7828 66.0397 44.923Z" fill="white"/>
<path d="M65.184 44.7799C64.8987 43.3492 64.6134 42.0616 64.7561 40.631C64.7561 40.4879 64.6134 40.4879 64.6134 40.631C64.3281 43.0631 65.184 45.3522 65.3266 47.7843C65.6119 50.3595 65.8971 53.0778 66.4677 55.5099C66.4677 55.653 66.7529 55.653 66.7529 55.5099C66.1824 53.2209 65.8971 50.7887 65.7545 48.4997C65.6119 47.2121 65.4692 45.9244 65.184 44.7799Z" fill="white"/>
<path d="M10.4123 15.5943C8.55808 15.7373 6.56119 16.0235 4.56431 16.3096C4.42168 16.3096 4.42168 16.4527 4.56431 16.4527C6.56119 16.3096 8.41544 16.1665 10.4123 15.8804C10.6976 15.8804 10.6976 15.5943 10.4123 15.5943Z" fill="white"/>
<path d="M10.555 16.3096C9.12861 16.4527 7.70227 16.4527 6.27592 16.7388C6.13329 16.7388 6.13329 16.8819 6.27592 16.8819C7.70227 16.7388 9.12861 16.7388 10.555 16.7388C10.8402 16.5957 10.6976 16.3096 10.555 16.3096Z" fill="white"/>
<path d="M10.6976 17.3111C10.9828 17.3111 10.9828 17.0249 10.6976 17.0249C10.2697 17.0249 9.84176 17.168 9.27123 17.168C8.70069 17.168 8.13015 17.3111 7.55961 17.4541C7.41698 17.4541 7.41698 17.5972 7.55961 17.5972C8.70069 17.4541 9.84176 17.3111 10.6976 17.3111Z" fill="white"/>
<path d="M11.1255 17.5972C10.4123 17.5972 9.69918 17.7403 8.986 17.8833C8.84337 17.8833 8.84337 18.1695 8.986 18.0264C9.69918 17.8833 10.4123 17.8833 11.1255 17.8833C11.4108 18.0264 11.2682 17.5972 11.1255 17.5972Z" fill="white"/>
<path d="M11.1255 18.4556C10.6976 18.4556 10.4123 18.5987 9.98442 18.5987C9.84178 18.5987 9.84178 18.8848 9.98442 18.7417C10.4123 18.7417 10.6976 18.7417 11.1255 18.7417C11.4108 18.7417 11.4108 18.4556 11.1255 18.4556Z" fill="white"/>
<path d="M23.5347 31.6178C23.5347 32.6192 23.2494 33.6207 22.9642 34.6222C22.6789 35.7667 22.3936 36.7682 22.251 37.9127C21.8231 40.0587 21.6805 42.3478 21.1099 44.6368C21.1099 44.7799 21.3952 44.923 21.3952 44.6368C21.9657 42.4908 22.1084 40.2018 22.5363 37.9127C22.8215 36.7682 22.9642 35.7667 23.2494 34.6222C23.5347 33.6207 23.82 32.6192 23.6773 31.4747C23.6773 31.4747 23.5347 31.4747 23.5347 31.6178Z" fill="white"/>
<path d="M22.8215 37.1974C22.8215 40.3448 21.8231 43.0631 21.2526 46.0675C21.2526 46.2106 21.5378 46.3536 21.5378 46.0675C22.251 43.2062 23.3921 40.2018 22.8215 37.1974C22.9642 37.1974 22.8215 37.1974 22.8215 37.1974Z" fill="white"/>
<path d="M43.7888 40.6309C44.2167 41.4893 44.3593 42.6339 44.9298 43.3492C44.9298 43.4923 45.0725 43.4923 45.2151 43.3492C45.3577 43.3492 45.5004 43.3492 45.5004 43.2062C45.643 41.3463 46.0709 39.4864 46.3562 37.6265C46.6414 35.6236 47.212 33.6207 47.4972 31.4747C47.4972 31.3316 47.3546 31.3316 47.3546 31.4747C47.0693 33.3345 46.4988 35.1944 46.2135 37.1973C45.9283 39.0572 45.5004 40.9171 45.3577 42.92C44.9298 42.0616 44.6446 41.0601 44.2167 40.2017C43.7887 39.0572 43.2182 37.9127 42.7903 36.9112C42.3624 35.7667 41.7919 34.7652 41.364 33.6207C40.9361 32.4761 40.2229 31.3316 40.0803 30.1871C40.0803 30.044 39.9376 30.044 39.9376 30.1871C40.0803 31.3316 40.5082 32.3331 40.9361 33.3345C41.364 34.6221 42.0771 35.7667 42.505 36.9112C42.7903 38.1988 43.2182 39.3433 43.7888 40.6309Z" fill="white"/>
<path d="M45.3578 45.4952C45.5004 45.4952 45.5004 45.4952 45.5004 45.3522C45.7857 43.7784 46.0709 42.3478 46.3562 40.774C46.6415 38.9142 46.9267 37.0543 47.212 35.1944C47.212 35.0514 47.0694 35.0514 47.0694 35.1944C46.6415 36.9112 46.2136 38.628 46.0709 40.3448C45.7857 41.9186 45.5004 43.4923 45.2151 45.066C44.9299 44.3507 44.502 43.7784 44.2167 43.2062C43.7888 42.3478 43.5035 41.6324 43.0756 40.774C42.3624 39.2003 41.5066 37.4835 40.9361 35.7667C40.9361 35.6236 40.7935 35.7667 40.7935 35.7667C41.2214 37.4835 42.0772 39.2003 42.7903 40.774C43.0756 41.6324 43.5035 42.3478 43.9314 43.2062C44.2167 43.9215 44.7872 44.6368 45.0725 45.4952C45.2151 45.6383 45.3578 45.6383 45.3578 45.4952Z" fill="white"/>
<path d="M45.0725 31.6178C45.0725 31.7608 45.3578 31.9039 45.3578 31.6178C45.643 29.901 45.643 28.0411 45.9283 26.3243C46.2136 24.7506 46.6415 23.1768 46.6415 21.6031C46.6415 21.6031 46.6415 21.6031 46.4988 21.6031C46.3562 23.1768 45.9283 24.7506 45.5004 26.1812C45.3578 28.0411 45.2151 29.7579 45.0725 31.6178Z" fill="white"/>
<path d="M44.502 29.6148C44.502 29.901 44.9299 29.7579 44.9299 29.6148C44.9299 28.4703 45.3578 27.3258 45.5004 26.1812C45.643 25.0367 45.7857 24.0352 45.9283 22.8907C45.7857 24.1783 45.5004 25.3228 45.2151 26.4674C44.9299 27.4688 44.502 28.4703 44.502 29.6148Z" fill="white"/>
<path d="M43.9314 27.755C43.9314 27.898 44.2167 28.0411 44.2167 27.755C44.2167 27.1827 44.5019 26.6104 44.6446 26.0382C44.7872 25.1798 44.9298 24.3214 45.0725 23.606C45.0725 23.463 44.9298 23.463 44.9298 23.606C44.7872 24.3214 44.6446 25.0367 44.3593 25.752C44.3593 26.3243 44.074 27.0396 43.9314 27.755Z" fill="white"/>
<path d="M43.7888 26.8965C44.2167 25.8951 44.5019 24.8936 44.5019 23.8922C44.5019 23.7491 44.3593 23.7491 44.3593 23.8922C44.2167 24.8936 43.9314 25.8951 43.5035 26.7535C43.5035 27.0396 43.7888 27.1827 43.7888 26.8965Z" fill="white"/>
<path d="M33.6617 13.4483C31.5222 13.8775 29.24 13.8775 27.1005 14.3067C27.1005 14.1636 27.1005 14.3067 27.1005 14.3067C28.3842 14.1636 29.6679 14.1636 30.9517 14.0205C31.8075 13.8775 32.8059 13.8775 33.6617 13.7344C33.947 13.7344 33.947 13.3052 33.6617 13.4483Z" fill="white"/>
<path d="M32.5207 14.0205C31.237 14.1636 29.8106 14.3067 28.5269 14.5928C28.3843 14.5928 28.3843 14.7359 28.5269 14.7359C29.8106 14.7359 31.237 14.4497 32.5207 14.3067C32.8059 14.4497 32.6633 14.0205 32.5207 14.0205Z" fill="white"/>
<path d="M31.9501 14.8789C31.0943 15.022 30.3811 15.1651 29.5253 15.1651C29.3827 15.1651 29.3827 15.4512 29.5253 15.4512C30.3811 15.3081 31.0943 15.3081 31.9501 15.1651C32.0927 15.1651 32.0927 14.8789 31.9501 14.8789Z" fill="white"/>
<path d="M30.5238 15.7373C30.3811 15.7373 30.2385 15.7373 29.9532 15.8804C29.8106 15.8804 29.8106 16.1665 29.9532 16.1665C30.0959 16.1665 30.2385 16.1665 30.5238 16.1665C30.6664 16.1665 30.809 16.1665 30.9517 16.1665C31.0943 16.1665 31.0943 15.8804 30.9517 15.8804C30.809 15.7373 30.6664 15.7373 30.5238 15.7373Z" fill="white"/>
<path d="M24.3905 12.3037C25.2463 11.3023 26.2447 10.5869 27.2432 9.58548C27.3858 9.44241 27.1005 9.29934 26.9579 9.44241C26.1021 10.4439 25.1036 11.3023 24.3905 12.3037C24.1052 12.3037 24.2478 12.4468 24.3905 12.3037Z" fill="white"/>
<path d="M24.1052 11.7315C24.8184 11.0161 25.6742 10.4439 26.3874 9.8716C26.53 9.72854 26.3874 9.4424 26.2447 9.58547C25.3889 10.1577 24.6757 10.8731 24.1052 11.7315C23.9626 11.5884 24.1052 11.7315 24.1052 11.7315Z" fill="white"/>
<path d="M23.6773 11.3023C24.2479 10.8731 24.961 10.4439 25.3889 9.87161C25.5316 9.72855 25.2463 9.58548 25.2463 9.58548C24.6758 10.1577 23.9626 10.73 23.6773 11.3023C23.3921 11.3023 23.5347 11.4453 23.6773 11.3023Z" fill="white"/>
<path d="M50.9205 7.15334C50.7779 7.15334 50.7779 7.15334 50.9205 7.15334C50.35 7.58254 50.0647 8.01174 49.7794 8.44094C49.3515 8.87014 48.9236 9.44241 48.4957 10.0147C48.3531 10.0147 48.4957 10.1577 48.4957 10.0147C48.781 9.58547 49.2089 9.15627 49.6368 8.72707C50.0647 8.29787 50.4926 7.72561 50.9205 7.43947C51.9189 7.15334 52.9174 7.15334 53.9158 7.01027C54.2011 7.01027 55.0569 7.01027 55.3422 6.72414C54.9143 6.58107 54.0584 6.72414 53.6305 6.72414C52.6321 6.8672 51.7763 6.86721 50.9205 7.15334Z" fill="white"/>
<path d="M48.4957 9.01319C49.2089 8.29786 50.0647 7.43946 51.0631 6.86719C52.0616 6.58106 53.3453 6.58106 54.3437 6.43799C54.4864 6.43799 54.3437 6.29492 54.3437 6.29492C53.6306 6.29492 53.06 6.29492 52.3468 6.43799C51.9189 6.43799 51.3484 6.43799 50.9205 6.58106C50.9205 6.58106 50.9205 6.58106 50.7779 6.58106C49.9221 7.15332 49.0663 8.15479 48.3531 8.87012C48.2105 9.01319 48.3531 9.15626 48.4957 9.01319Z" fill="white"/>
<path d="M57.0538 51.9332C56.6259 54.3654 56.6259 56.9406 56.6259 59.5158C56.6259 59.8019 56.9111 59.6588 56.9111 59.5158C57.0538 56.9406 57.1964 54.5084 57.0538 51.9332C57.1964 51.9332 57.0538 51.9332 57.0538 51.9332Z" fill="white"/>
<path d="M57.6243 53.7931C57.6243 54.9376 57.4817 55.9391 57.339 57.0836C57.339 57.942 57.1964 58.8004 57.1964 59.8019C57.1964 60.088 57.6243 59.945 57.6243 59.8019C57.6243 58.9435 57.7669 58.0851 57.7669 57.2267C57.7669 55.9391 58.0522 54.7946 57.6243 53.7931C57.7669 53.65 57.6243 53.65 57.6243 53.7931Z" fill="white"/>
<path d="M58.3375 54.7946C58.0522 56.2252 58.0522 57.799 58.0522 59.2296C58.0522 59.5158 58.4801 59.3727 58.4801 59.2296C58.4801 57.799 58.4801 56.2252 58.3375 54.7946C58.4801 54.7946 58.3375 54.7946 58.3375 54.7946Z" fill="white"/>
<path d="M51.2057 60.6603C50.0647 60.9464 48.781 60.9464 47.4973 61.0895C46.4988 61.2326 45.3577 61.6618 44.3593 61.6618C44.2167 61.6618 44.2167 61.8048 44.3593 61.8048C45.3577 61.9479 46.4988 61.5187 47.4973 61.3756C48.781 61.2326 50.0647 61.2326 51.2057 60.9464C51.6337 60.9464 51.491 60.6603 51.2057 60.6603Z" fill="white"/>
<path d="M51.6337 59.5158C50.0647 59.8019 48.4957 60.3742 46.7841 60.6603C46.6415 60.6603 46.6415 60.8034 46.7841 60.8034C48.3531 60.5172 50.0647 60.2311 51.6337 59.8019C51.9189 59.945 51.7763 59.5158 51.6337 59.5158Z" fill="white"/>
<path d="M51.6336 58.6574C50.2073 58.8004 48.7809 59.3727 47.3546 59.5158C47.212 59.5158 47.212 59.6589 47.3546 59.6589C48.7809 59.6589 50.2073 59.2296 51.6336 59.0866C51.9189 58.9435 51.9189 58.6574 51.6336 58.6574Z" fill="white"/>
<path d="M51.7763 57.6559C50.7779 57.6559 49.7794 58.0851 48.781 58.2282C48.6384 58.2282 48.6384 58.5143 48.781 58.5143C49.7794 58.3712 50.9205 58.2282 51.9189 57.942C52.0616 57.942 52.0616 57.6559 51.7763 57.6559Z" fill="white"/>
<path d="M49.4941 57.2267C50.3499 57.0837 51.0631 57.0837 51.9189 56.9406C52.0616 56.9406 52.0616 56.6544 51.9189 56.6544C51.2058 56.7975 50.3499 56.9406 49.6368 57.0837C49.3515 57.0837 49.3515 57.3698 49.4941 57.2267Z" fill="white"/>
<path d="M50.2073 56.3683C50.35 56.3683 50.6352 56.2252 50.7779 56.2252C50.9205 56.2252 51.2058 56.2252 51.3484 56.0822C51.491 56.0822 51.491 55.7961 51.3484 55.7961C51.2058 55.7961 50.9205 55.9391 50.7779 55.9391C50.4926 55.9391 50.35 56.0822 50.0647 56.0822C50.0647 56.2252 50.0647 56.3683 50.2073 56.3683Z" fill="white"/>
<path d="M50.6353 55.5099C50.7779 55.5099 50.9205 55.5099 51.0632 55.5099C51.2058 55.5099 51.3484 55.5099 51.6337 55.5099C51.7763 55.5099 51.7763 55.3668 51.6337 55.2238C51.3484 55.0807 51.0632 55.2238 50.7779 55.2238C50.4926 55.2238 50.4926 55.5099 50.6353 55.5099Z" fill="white"/>
<path d="M13.265 56.2252C12.6945 54.6515 12.4092 53.0778 11.8387 51.504C11.5534 50.7887 11.2681 50.0734 10.9829 49.358C10.8402 48.9288 10.6976 48.3566 10.2697 48.0704C10.2697 48.0704 10.1271 48.0704 10.2697 48.0704C10.555 48.4996 10.6976 49.0719 10.8402 49.6442C11.1255 50.3595 11.4108 51.0748 11.696 51.7902C12.2666 53.3639 12.5518 54.9376 13.1224 56.5114C13.6929 58.2282 14.1208 59.8019 14.834 61.3757C15.4045 62.9494 16.1177 64.6662 16.6882 66.2399C16.6882 66.383 16.9735 66.383 16.9735 66.0969C16.403 64.3801 15.6898 62.8063 15.1193 61.2326C14.2635 59.8019 13.8356 57.942 13.265 56.2252Z" fill="white"/>
<path d="M13.6929 59.6588C13.4076 58.5143 12.9797 57.3698 12.5518 56.2252C11.9813 54.9376 11.4108 53.65 11.2681 52.2194C11.2681 52.0763 11.1255 52.0763 11.1255 52.2194C11.2681 54.6515 12.5518 56.7975 13.265 59.0866C13.9782 61.5187 14.834 64.0939 15.8324 66.383C15.9751 66.526 16.2603 66.526 16.1177 66.2399C14.9766 64.0939 14.2634 61.8048 13.6929 59.6588Z" fill="white"/>
<path d="M182.573 21.8892C182.573 22.0323 182.43 22.0323 182.43 22.1753C182.43 21.8892 182.145 21.6031 181.86 21.7461C181.86 21.6031 181.717 21.3169 181.432 21.3169C178.151 20.6016 175.156 20.0293 171.733 19.8863C171.59 19.8863 171.448 20.0293 171.448 20.1724C170.877 20.4585 170.306 20.8877 169.736 21.1739C169.308 21.46 168.88 21.7461 168.452 22.1753C168.31 22.1753 168.31 22.1753 168.167 22.1753C167.882 22.1753 167.882 22.6045 168.024 22.7476C168.024 22.8907 168.167 22.8907 168.167 22.8907C167.169 25.0367 166.455 27.1827 165.742 29.3287C164.886 31.9039 163.46 34.193 162.604 36.7682C161.891 38.9142 160.75 40.9171 159.894 43.0631C159.609 41.4894 159.752 39.7726 159.609 38.3419C159.466 36.1959 159.324 34.0499 159.181 31.9039C159.038 27.4688 158.468 22.8907 158.61 18.4556C158.896 18.1695 158.468 17.5972 158.04 17.8833C158.04 17.8833 158.04 17.8833 157.897 17.8833C156.186 17.8833 154.617 17.168 153.048 17.0249C151.621 16.8819 150.052 16.7388 148.626 16.4527C148.483 16.3096 148.198 16.1665 147.913 16.3096C147.913 16.3096 147.913 16.3096 147.77 16.3096C147.628 16.3096 147.485 16.3096 147.485 16.4527C146.344 17.168 145.06 17.8833 144.204 18.8848L144.062 18.8848C143.634 18.8848 143.491 19.4571 143.919 19.6001C144.062 19.6001 144.062 19.6001 144.204 19.6001C143.349 21.6031 142.635 23.7491 141.78 25.8951C140.639 28.4703 139.497 30.9024 138.499 33.4776C137.643 35.4806 136.645 37.4835 135.932 39.4864C135.646 37.9127 135.789 36.1959 135.646 34.4791C135.504 32.19 135.646 30.044 135.504 27.7549C135.361 25.6089 135.218 23.3199 135.076 21.1739C135.076 19.314 134.505 17.5972 134.363 15.7373C134.505 15.5943 134.505 15.4512 134.363 15.1651C134.505 14.8789 134.363 14.5928 133.935 14.4497C130.797 14.0205 127.659 13.4483 124.521 13.3052C124.378 13.1621 124.236 13.0191 123.95 13.0191C123.237 13.3052 122.524 13.5913 121.953 14.0205C121.668 14.1636 121.383 14.3067 121.098 14.5928C121.811 12.1607 122.381 9.58547 123.38 7.15334C123.522 6.8672 123.094 6.72414 122.952 7.01027C122.952 7.15334 122.809 7.15334 122.809 7.2964C122.809 7.01027 122.524 6.72414 122.239 6.8672C122.239 6.72414 122.096 6.58107 121.811 6.438C118.53 5.86574 115.392 5.43653 112.112 5.43653C111.969 5.43653 111.826 5.5796 111.826 5.72267C111.256 6.0088 110.685 6.438 110.115 6.8672C109.687 7.15334 109.259 7.58254 108.831 7.86867C108.688 7.86867 108.688 7.86867 108.546 7.86867C108.26 7.86867 108.26 8.29787 108.403 8.44094C108.403 8.584 108.546 8.584 108.688 8.584C107.833 10.73 107.262 13.0191 106.549 15.1651C105.693 17.7403 104.552 20.1724 103.696 22.7476C103.126 24.8936 102.127 27.0396 101.271 29.1856C100.986 27.6119 100.986 25.8951 100.844 24.4644C100.558 22.3184 100.273 20.1724 100.13 18.0264C99.8451 13.5913 98.9893 9.15627 98.9893 4.57813C99.2745 4.292 98.8466 3.71973 98.4187 4.00587C98.4187 4.00587 98.4187 4.00587 98.2761 4.00587C96.5645 4.00587 94.9955 3.57667 93.2839 3.29053C91.8575 3.14747 90.2886 3.14747 88.8622 2.86133C88.7196 2.71827 88.4343 2.5752 88.149 2.71827C88.149 2.71827 88.149 2.71827 88.0064 2.71827C87.8638 2.71827 87.7211 2.86133 87.7211 2.86133C86.5801 3.57667 85.439 4.292 84.5832 5.43654L84.4406 5.43654C84.0126 5.43654 83.87 6.0088 84.2979 6.15187C84.4405 6.15187 84.4405 6.15187 84.5832 6.15187C83.7274 8.29787 83.1568 10.4439 82.4437 12.5899C81.4452 15.1651 80.4468 17.7403 79.4483 20.3155C78.7352 22.3184 77.8794 24.3213 77.0236 26.3243C76.7383 24.7505 76.7383 23.0337 76.5957 21.3169C76.453 19.0279 76.3104 16.8819 76.1678 14.5928C76.0251 12.4468 75.5972 10.1577 75.4546 8.01174C75.3119 6.15187 74.7414 4.43507 74.4561 2.5752C74.5988 2.43213 74.5988 2.146 74.4561 2.00293C74.5988 1.7168 74.4561 1.43067 74.0282 1.43067C70.8903 1.14453 67.7523 0.715333 64.4717 0.572266C65.4702 0.143066 65.1849 -1.23067e-06 64.8996 -1.22528e-06C64.1865 0.286132 63.4733 0.715333 62.9027 1.00147C62.6175 1.14453 62.1896 1.43067 61.9043 1.7168C61.619 2.00293 61.3338 2.28907 61.0485 2.43213C60.7632 2.5752 60.9059 2.86133 61.0485 2.86133C60.9059 4.292 61.3338 5.72267 61.619 7.15334C61.4764 7.15334 61.3338 7.15334 61.1911 7.15334C61.1911 7.01027 61.0485 6.8672 60.7632 6.8672C57.4826 7.01027 54.3447 7.15334 51.0641 7.86867C50.9215 7.86867 50.7788 8.01174 50.9215 8.1548C50.3509 8.584 49.923 9.15627 49.4951 9.58547C49.0672 10.0147 48.7819 10.4439 48.4967 10.8731C48.354 10.8731 48.354 10.8731 48.2114 10.8731C47.9261 10.8731 48.0688 11.3023 48.2114 11.4453C48.2114 11.5884 48.354 11.5884 48.4967 11.5884C48.0688 13.8775 47.9261 16.1665 47.6409 18.4556C47.3556 21.1739 46.6424 23.7491 46.3572 26.4674C46.2145 28.7564 45.644 30.9024 45.2161 33.1915C44.6455 31.7608 44.3603 30.044 43.7897 28.6134C43.0766 26.6104 42.506 24.4644 41.9355 22.4615C40.7944 18.1695 39.0828 13.8775 38.227 9.58547C38.3696 9.15627 37.7991 8.72707 37.5138 9.15627C37.5138 9.15627 37.5138 9.15627 37.3712 9.15627C35.6596 9.44241 34.0906 9.29934 32.379 9.44241C30.9526 9.58547 29.5263 9.87161 27.9573 10.0147C27.8147 9.87161 27.5294 9.72854 27.2441 10.0147C27.1015 10.0147 26.9589 10.1577 26.9589 10.3008C25.9604 11.1592 24.962 12.1607 24.3915 13.4483L24.2488 13.4483C23.8209 13.4483 23.8209 14.1636 24.2488 14.1636C24.3915 14.1636 24.3915 14.1636 24.5341 14.1636C24.1062 16.3096 23.9635 18.5987 23.6783 20.8877C23.2504 23.606 22.6798 26.3243 22.2519 29.0426C21.9667 31.1886 21.3961 33.3346 21.1109 35.4806C20.3977 33.9068 20.1124 32.19 19.6845 30.7594C19.114 28.6134 18.5434 26.4674 17.9729 24.3213C17.4024 22.1753 16.5466 20.1724 15.976 18.0264C15.4055 16.1665 14.5497 14.5928 13.9791 12.876C14.1218 12.7329 13.9791 12.4468 13.9791 12.3037C13.9791 12.0176 13.8365 11.7315 13.4086 11.7315C10.2706 11.7315 7.13268 11.8745 3.99473 12.4468C3.85209 12.3037 3.56682 12.3037 3.42419 12.4468C2.71102 12.876 2.28311 13.3052 1.71258 13.8775C1.28467 14.0205 0.999404 14.3067 0.856769 14.5928C0.571501 14.8789 0.428866 15.3081 0.143597 15.4512C0.000962779 15.5943 0.000962785 15.8804 0.143597 15.8804C0.286232 17.4541 0.999404 18.8848 1.71258 20.3155C2.56838 22.1753 3.13892 24.3213 3.85209 26.1812C5.42107 30.6163 6.56215 35.3375 7.98849 39.9156C9.41484 44.4938 11.1265 48.7858 12.8381 53.2208C14.407 57.2267 15.4055 61.5187 17.1171 65.5246C16.9745 65.6676 16.9745 65.9538 17.2597 66.0968C20.8256 67.2414 24.6767 65.2384 28.2426 65.3815C28.3852 65.3815 28.5279 65.3815 28.5279 65.2384C28.6705 65.3815 28.8131 65.2384 28.9558 65.0954C29.8116 63.2355 31.5232 62.234 32.8069 60.8034C33.0922 60.5172 32.8069 60.088 32.5216 60.088C32.8069 57.2267 32.9495 54.5084 33.2348 51.6471C33.5201 49.358 34.0906 46.7828 34.2332 44.4938C34.9464 46.3536 35.6596 48.0704 36.2301 49.9303C37.0859 52.2194 37.6565 54.6515 38.6549 56.7975C39.5107 58.9435 40.0812 61.2326 41.0797 63.2355C40.937 63.3786 41.0797 63.8078 41.365 63.8078C44.7882 64.6662 48.4967 62.8063 52.0625 62.9494C52.0625 62.9494 52.0625 62.9494 52.2052 62.9494C52.2052 62.9494 52.2052 62.9494 52.3478 62.9494C52.9183 63.0924 53.6315 62.091 53.9168 61.8048C54.3447 61.3756 54.7726 60.8034 55.2005 60.3742C55.4858 60.3742 55.771 60.2311 55.771 59.945C55.771 59.8019 55.771 59.8019 55.771 59.6588C55.9137 59.5158 56.1989 59.3727 56.3416 59.2296C56.7695 58.9435 56.4842 58.3712 56.0563 58.3712C56.3416 56.7975 56.1989 55.0807 56.1989 53.65C56.1989 51.361 56.9121 49.215 57.4826 46.9259C58.0532 44.923 58.3384 42.777 58.4811 40.774C58.7664 38.3419 59.0516 36.0528 59.3369 33.6207C59.4795 31.4747 59.6222 29.3287 59.9074 27.3258C60.3353 25.0367 60.9059 22.8907 61.1911 20.6016C61.7617 16.8819 61.7617 13.1621 62.1896 9.44241C62.3322 10.8731 62.4748 12.1607 62.7601 13.5913C63.4733 18.3125 63.6159 23.0337 64.0438 27.755C64.4717 32.4762 65.3275 37.0543 66.1833 41.7755C66.8965 46.0675 67.1818 50.5026 68.0376 54.7946C67.895 54.9376 67.7523 55.2238 68.0376 55.3668C71.3182 57.2267 75.4546 55.9391 78.8778 56.7975C79.0204 56.7975 79.1631 56.7975 79.1631 56.7975C79.3057 56.9406 79.4483 56.9406 79.591 56.7975C80.7321 55.2238 82.7289 54.5084 84.2979 53.3639C84.5832 53.0778 84.4406 52.6486 84.1553 52.5055C85.0111 49.7872 85.7243 47.069 86.4374 44.4938C87.1506 42.2047 88.2917 39.9156 88.8622 37.6266C89.1475 39.4864 89.4328 41.4894 89.8607 43.3492C90.2886 45.7814 90.4312 48.2135 90.8591 50.6456C91.287 52.9347 91.4296 55.2238 92.0002 57.3698C91.8575 57.5128 91.8575 57.942 92.1428 57.942C95.2808 59.5158 99.2745 58.3712 102.698 59.2296C102.698 59.2296 102.698 59.2296 102.84 59.2296C102.84 59.2296 102.84 59.2296 102.84 59.3727C103.411 59.6588 104.267 58.8004 104.695 58.5143C105.123 58.2282 105.693 57.799 106.264 57.3698C106.549 57.5128 106.834 57.3698 106.977 57.0836C106.977 57.0836 106.977 56.9406 107.119 56.9406C107.262 56.7975 107.547 56.7975 107.69 56.6544C108.118 56.5114 107.975 55.796 107.547 55.796C108.118 54.3654 108.403 52.6486 108.688 51.2179C109.116 48.9288 110.257 46.9259 111.256 44.923C112.254 43.0631 112.825 41.0602 113.395 39.0572C114.109 36.7682 114.964 34.4791 115.535 32.19C116.105 30.1871 116.676 28.0411 117.389 26.1812C118.245 24.0352 119.243 22.0323 119.957 19.8863C120.099 19.314 120.384 18.7417 120.527 18.0264C120.67 18.7417 120.812 19.4571 120.955 20.1724C121.383 22.1753 121.383 24.3213 121.525 26.4673C121.953 31.1886 121.953 35.9098 122.239 40.774C122.524 45.4952 123.237 50.2164 123.808 54.7946C124.378 59.0866 124.378 63.5216 125.091 67.8136C124.949 67.9567 124.806 68.2428 125.091 68.3859C128.229 70.3888 132.508 69.2443 135.932 70.2458C136.074 70.2458 136.217 70.2458 136.217 70.2458C136.359 70.3888 136.502 70.3888 136.645 70.2458C137.786 68.672 139.925 68.0998 141.494 66.9552C141.78 66.6691 141.637 66.2399 141.494 66.0968C142.35 63.3786 143.206 60.8034 144.204 58.0851C145.06 55.9391 146.201 53.65 146.914 51.361C147.057 53.2208 147.342 55.2238 147.628 57.0836C147.913 59.5158 147.913 61.9479 148.341 64.38C148.626 66.6691 148.626 68.9582 149.197 71.2472C149.054 71.3903 149.054 71.8195 149.339 71.9626C152.477 73.6794 156.471 72.6779 159.894 73.6794C159.894 73.6794 159.894 73.6794 160.037 73.6794C160.037 73.6794 160.037 73.6794 160.037 73.8224C160.607 74.1086 161.463 73.3932 161.891 73.1071C162.462 72.821 162.889 72.3918 163.46 72.1056C163.745 72.2487 164.031 72.1056 164.173 71.8195L164.316 71.6764C164.458 71.5334 164.744 71.5334 164.886 71.3903C165.314 71.2473 165.172 70.5319 164.744 70.5319C165.314 69.1012 165.742 67.3844 166.027 65.9538C166.598 63.6647 167.739 61.8048 168.88 59.8019C170.021 57.942 170.592 55.9391 171.305 54.0792C172.018 51.7902 173.017 49.6442 173.872 47.3551C174.586 45.3522 175.156 43.3492 176.012 41.3463C176.868 39.2003 178.009 37.1974 178.865 35.0514C180.576 30.9024 181.575 26.4673 183.286 22.3184C183.001 21.7461 182.716 21.6031 182.573 21.8892ZM170.021 21.8892C170.734 21.46 171.305 21.1739 172.018 20.7447C172.161 20.6016 172.303 20.4585 172.161 20.3155C175.013 20.8877 178.009 21.6031 181.004 22.0323C180.719 22.1753 180.434 22.4615 180.148 22.7476C179.863 23.0337 179.578 23.1768 179.292 23.4629L179.15 23.4629C175.869 23.1768 172.731 22.4615 169.451 22.1753C169.736 22.0323 169.879 22.0323 170.021 21.8892ZM158.468 18.7417C157.897 23.0337 158.61 27.6119 158.61 31.9039C158.61 34.336 158.753 36.6251 159.038 39.0572C159.181 40.774 159.038 42.6339 159.609 44.3507C159.609 44.3507 159.609 44.3507 159.609 44.4938C159.038 45.6383 158.468 46.9259 158.04 48.0704C157.897 44.0646 156.756 40.0587 156.471 36.0528C156.043 30.9024 156.471 25.6089 155.758 20.4585C156.186 20.1724 156.614 19.8863 157.041 19.6001C157.612 19.314 158.04 19.0279 158.468 18.7417ZM148.626 17.0249C149.91 17.5972 151.193 17.5972 152.62 17.7403C154.046 17.8833 155.615 18.3125 157.041 18.5987C156.899 18.7417 156.756 18.7417 156.614 18.8848C156.186 19.1709 155.758 19.4571 155.473 19.8863C155.33 19.8863 155.33 19.8863 155.187 19.8863C152.049 19.4571 148.911 19.0279 145.773 18.7417C146.772 18.1695 147.77 17.5972 148.626 17.0249ZM134.648 20.3155C134.648 22.7476 134.933 25.1797 134.933 27.6119C135.076 30.044 134.933 32.6192 135.076 35.0514C135.218 36.7682 135.076 38.485 135.504 40.2018C135.504 40.3448 135.646 40.4879 135.789 40.4879C135.361 41.6324 134.79 42.777 134.363 43.9215C134.22 44.3507 134.077 44.7799 133.935 45.2091C133.935 43.4923 133.649 41.9186 133.507 40.2018C133.222 37.6266 133.222 34.9083 133.079 32.19C132.936 29.6148 133.079 26.8965 132.936 24.3213C132.794 21.7461 131.795 19.4571 131.795 16.8819C132.651 16.4527 133.507 16.0235 134.363 15.7373C134.363 17.168 134.648 18.7417 134.648 20.3155ZM122.381 14.7359C123.094 14.3067 123.95 13.8775 124.806 13.5913C124.949 13.5913 125.091 13.4483 125.091 13.3052C127.944 14.0205 130.654 14.4497 133.507 14.8789C132.651 15.3081 131.795 15.7373 131.082 16.3096C131.082 16.3096 131.082 16.3096 130.939 16.3096C127.801 15.4512 124.521 15.5943 121.525 15.022C121.811 15.022 122.096 14.8789 122.381 14.7359ZM110.971 7.15334C111.541 6.72414 112.254 6.438 112.967 6.0088C113.11 5.86573 113.11 5.72267 113.11 5.5796C115.963 6.15187 119.101 6.58107 121.953 6.8672C121.668 7.15334 121.383 7.2964 121.24 7.58254C120.955 7.86867 120.67 8.01174 120.384 8.29787L120.242 8.29787C116.961 8.1548 113.823 7.58254 110.543 7.43947C110.685 7.43947 110.828 7.2964 110.971 7.15334ZM99.1319 4.57813C98.704 8.87014 99.5598 13.3052 99.8451 17.7403C99.9877 20.1724 100.273 22.4615 100.701 24.8936C100.986 26.6104 100.844 28.4703 101.414 30.1871C101.414 30.1871 101.414 30.1871 101.414 30.3302C100.986 31.4747 100.416 32.7623 99.9877 34.0499C99.7024 30.044 98.4187 26.0381 97.8482 22.0323C97.2776 16.8819 97.4203 11.5884 96.5645 6.58107C96.9924 6.29494 97.4203 6.0088 97.8482 5.72267C98.2761 5.1504 98.704 4.86427 99.1319 4.57813ZM89.2901 3.29053C90.5738 3.71973 92.0002 3.71973 93.2839 3.8628C94.7102 4.00587 96.2792 4.43507 97.7056 4.57813C97.5629 4.7212 97.4203 4.7212 97.4203 4.86427C96.9924 5.1504 96.5645 5.5796 96.2792 6.0088C96.1366 6.0088 96.1366 6.0088 95.9939 6.0088C92.856 5.72267 89.718 5.43654 86.5801 5.29347C87.4359 4.57813 88.4343 3.8628 89.2901 3.29053ZM75.4546 7.15334C75.5972 9.58547 75.8825 12.0176 76.1678 14.4497C76.3104 16.8819 76.453 19.4571 76.5957 21.8892C76.7383 23.606 76.7383 25.3228 77.3088 27.0396C77.3088 27.1827 77.4515 27.3258 77.5941 27.3258C77.1662 28.4703 76.7383 29.6148 76.3104 30.7594C76.1677 31.1886 76.0251 31.6178 76.0251 32.047C75.8825 30.3302 75.5972 28.7564 75.3119 27.0396C74.884 24.4644 74.7414 21.7461 74.4561 19.0279C74.1709 16.4527 74.1709 13.8775 73.8856 11.3023C73.6003 8.72707 72.6019 6.438 72.3166 3.8628C73.1724 3.4336 74.0282 3.0044 74.884 2.5752C75.0267 4.00587 75.3119 5.5796 75.4546 7.15334ZM62.9027 2.146C63.6159 1.7168 64.4717 1.2876 65.1849 1.00147C65.3275 1.00147 65.4702 0.858399 65.4702 0.715333C68.3229 1.2876 71.1755 1.57373 74.0282 2.00293C73.1724 2.43213 72.4593 3.0044 71.7461 3.57667C71.7461 3.57667 71.7461 3.57667 71.6034 3.57667C68.4655 2.86133 65.1849 3.14747 62.1896 2.5752C62.4748 2.43213 62.6175 2.28907 62.9027 2.146ZM49.923 10.3008C50.4936 9.72854 51.0641 9.29934 51.6346 8.72707C51.7773 8.584 51.7773 8.44094 51.7773 8.29787C54.7726 8.15481 57.7679 8.1548 60.7632 7.86867C60.478 8.1548 60.3353 8.44094 60.1927 8.72707C60.0501 9.0132 59.7648 9.29934 59.6222 9.58547L59.4795 9.58547C56.1989 10.1577 53.061 10.1577 49.7804 10.73C49.6377 10.5869 49.7804 10.4439 49.923 10.3008ZM37.7991 10.0147C38.227 14.3067 39.9386 18.5987 41.0797 22.7476C41.6502 25.0367 42.3634 27.3258 43.2192 29.6148C43.7897 31.1886 44.075 33.1915 44.9308 34.6222C44.9308 34.6222 44.9308 34.6222 44.9308 34.7652C44.7882 36.0528 44.5029 37.3404 44.3603 38.628C43.2192 34.7652 41.2223 31.1886 39.9386 27.3258C38.3696 22.4615 37.5138 17.168 35.6596 12.4468C35.9448 12.0176 36.3727 11.7315 36.658 11.3023C37.0859 10.73 37.5138 10.4439 37.7991 10.0147ZM27.9573 10.73C29.241 11.0161 30.6674 10.73 31.9511 10.5869C33.3774 10.4439 34.9464 10.4439 36.3727 10.3008C36.2301 10.4439 36.2301 10.5869 36.0875 10.5869C35.8022 11.0161 35.3743 11.4453 35.2317 11.8745C35.089 11.8745 35.089 11.8745 34.9464 11.8745C31.8084 12.1607 28.6705 12.5899 25.5325 13.0191C26.3883 12.3037 27.1015 11.5884 27.9573 10.73ZM13.6939 12.876C14.1218 14.3067 14.6923 15.7373 15.1202 17.3111C15.6908 19.6001 16.5466 22.0323 17.1171 24.3213C17.8303 26.7535 18.2582 29.1856 18.9713 31.4747C19.3992 33.0484 19.8272 34.9083 20.683 36.339C20.8256 36.482 20.8256 36.482 20.9682 36.6251C20.8256 37.9127 20.5403 39.0572 20.3977 40.2018C20.3977 40.631 20.3977 41.0602 20.3977 41.6324C19.9698 40.0587 19.2566 38.485 18.8287 36.9112C17.9729 34.336 17.2597 31.7608 16.4039 29.3287C15.6908 26.7535 15.1202 24.1783 14.407 21.7461C13.5512 19.314 12.1249 17.168 11.4117 14.7359C12.2675 14.0205 12.9807 13.4483 13.6939 12.876ZM1.85521 14.7359C2.56838 14.3067 3.13892 13.5913 3.99473 13.1621C3.99473 13.1621 4.13736 13.0191 4.13736 12.876C6.99005 12.876 9.84274 12.7329 12.6954 12.4468C11.9823 13.0191 11.2691 13.7344 10.6985 14.4497C10.6985 14.4497 10.6985 14.4497 10.5559 14.5928C7.41795 14.4497 4.28 15.4512 1.14204 15.5943C1.42731 15.3081 1.56994 15.022 1.85521 14.7359ZM32.2363 51.504C31.8084 54.6515 31.6658 57.6559 31.3805 60.8034C31.3805 60.8034 31.3805 60.8034 31.3805 60.9464C30.9526 61.3756 30.3821 61.9479 29.8116 62.3771C30.2395 61.6618 30.6674 60.9464 30.81 60.088C30.81 59.945 30.6674 59.945 30.5247 60.088C30.2395 61.0895 29.5263 61.9479 28.9558 62.9494C28.9558 62.3771 29.0984 61.9479 29.0984 61.3756C29.3837 60.9464 29.6689 60.3742 30.0968 59.8019C30.3821 59.3727 30.81 58.8004 30.9526 58.2282C30.9526 58.0851 30.81 58.0851 30.81 58.2282C30.5247 59.0866 29.8116 59.8019 29.241 60.6603C29.241 60.3742 29.3837 59.945 29.3837 59.6588C30.0968 58.6574 30.81 57.6559 31.0953 56.6544C31.0953 56.5114 30.9526 56.5114 30.9526 56.6544C30.5247 57.5128 29.9542 58.2282 29.3837 59.0866C29.3837 58.8004 29.5263 58.5143 29.5263 58.0851C29.8116 57.6559 30.0968 57.0836 30.3821 56.6544C30.6674 56.2252 30.9526 55.796 31.2379 55.2238C31.2379 55.0807 31.0953 55.0807 31.0953 55.0807C30.81 55.5099 30.5247 56.0822 30.0968 56.5114C29.9542 56.7975 29.6689 57.0836 29.5263 57.3698C29.5263 56.9406 29.6689 56.5114 29.6689 56.0822C30.2395 55.0807 31.0953 54.0792 31.3805 52.9347C31.3805 52.7916 31.2379 52.7916 31.2379 52.9347C30.81 53.7931 30.2395 54.5084 29.8116 55.3668C29.8116 55.0807 29.9542 54.6515 29.9542 54.3654C30.5247 53.3639 31.2379 52.3624 31.8084 51.361C31.8084 51.2179 31.6658 51.2179 31.6658 51.2179C31.2379 52.0763 30.6674 52.7916 30.0968 53.507C30.0968 53.2208 30.0968 52.9347 30.2395 52.7916C30.6674 52.0763 30.9526 51.361 31.5232 50.6456C31.8084 50.3595 32.0937 49.9303 31.9511 49.5011C31.8084 50.0734 31.2379 50.6456 30.9526 51.2179C30.81 51.504 30.6674 51.7902 30.3821 51.9332C30.3821 51.6471 30.3821 51.361 30.5247 51.2179C31.2379 50.2164 31.8084 48.9288 32.5216 47.9274C32.6643 47.7843 32.5216 47.6412 32.379 47.7843C31.8084 48.3566 31.5232 49.0719 31.0953 49.6442C30.9526 49.9303 30.81 50.0734 30.5247 50.3595C30.5247 50.0734 30.5247 49.9303 30.6674 49.6442C31.3805 48.3566 32.379 47.069 32.9495 45.7814C32.9495 45.7814 32.9495 45.6383 32.8069 45.7814C32.2363 46.9259 31.3805 47.7843 30.6674 48.9288C30.6674 48.6427 30.6674 48.3566 30.81 48.0704C31.2379 47.4982 31.3805 46.9259 31.8084 46.3536C32.2363 45.7814 32.6643 45.3522 32.9495 44.6368C32.9495 44.4938 32.8069 44.4938 32.8069 44.4938C32.5216 45.2091 31.9511 45.6383 31.5232 46.2106C31.2379 46.4967 31.0953 46.7828 30.81 47.212C30.81 46.9259 30.9526 46.4967 30.9526 46.2106C31.0953 45.9244 31.2379 45.6383 31.5232 45.3522C31.8084 44.923 32.0937 44.4938 32.379 44.0646C32.379 43.9215 32.2363 43.9215 32.2363 43.9215C31.9511 44.3507 31.5232 44.923 31.0953 45.3522C31.2379 44.3507 31.3805 43.2062 31.5232 42.2047C31.6658 40.774 32.0937 39.3434 32.2363 37.9127C32.5216 39.6295 33.0922 41.4894 33.6627 43.2062C33.3774 45.9244 32.5216 48.6427 32.2363 51.504ZM52.0625 61.8048C50.7788 61.5187 49.0672 61.9479 47.9261 62.091C45.9292 62.234 44.075 62.8063 42.2208 62.9494C41.365 60.8034 40.7944 58.5143 39.796 56.3683C38.7975 54.0792 38.227 51.7902 37.3712 49.5011C36.5154 47.212 35.6596 44.923 34.9464 42.4908C34.2332 40.2018 33.0922 38.0558 32.379 35.7667C32.379 35.6236 32.379 35.4806 32.379 35.3375C32.379 35.1944 31.9511 35.0514 31.9511 35.3375C31.8084 37.4835 30.9526 39.6295 30.6674 41.7755C30.2395 44.2076 29.9542 46.7828 29.6689 49.215C29.0984 54.2223 28.2426 59.0866 27.9573 63.9508C26.3883 63.9508 24.8194 64.38 23.1077 64.6662C21.5388 64.8092 19.8272 65.3815 18.2582 65.3815C16.9745 61.3756 15.6908 57.3698 14.1218 53.3639C12.4102 48.9288 10.6985 44.6368 9.2722 40.0587C7.84586 35.7667 6.84742 31.3316 5.42107 27.0396C4.7079 25.0367 4.13736 23.0337 3.42419 21.0308C2.71102 19.314 1.56994 17.7403 0.999404 16.0235C2.14048 16.1665 3.28155 15.8804 4.42263 15.7373C6.41951 15.4512 8.70166 15.1651 10.6985 15.1651C11.4117 17.4541 12.6954 19.4571 13.4086 21.7461C14.2644 24.1783 14.5497 26.8966 15.4055 29.3287C16.8318 33.9068 18.2582 38.3419 20.2551 42.6339C20.2551 42.777 20.2551 42.777 20.2551 42.92C20.2551 43.2062 20.5403 43.3492 20.683 43.2062C20.683 43.2062 20.8256 43.2062 20.8256 43.0631C21.5388 41.4894 21.3961 39.3434 21.824 37.6266C22.3946 34.9083 22.8225 32.19 23.2504 29.4718C24.2488 24.1783 24.8194 18.8848 25.6752 13.7344C28.6705 13.5913 31.8084 13.1621 34.8038 12.876C36.3727 17.4541 37.3712 22.1753 38.7975 26.7535C40.2239 31.4747 42.506 35.9098 44.3603 40.4879C44.3603 40.4879 44.3603 40.4879 44.3603 40.631C44.3603 41.0602 45.0734 41.0602 45.0734 40.631C45.0734 38.1988 45.9293 35.7667 46.2145 33.3346C46.4998 30.9024 47.213 28.4703 47.3556 26.0382C47.4982 23.606 48.2114 21.1739 48.4967 18.7417C48.7819 16.3096 48.7819 14.0205 49.2098 11.5884C50.7788 11.5884 52.3478 11.3023 53.7741 11.1592C55.4858 11.0161 57.0547 11.0161 58.4811 10.8731C58.6237 11.0161 58.7664 11.0161 59.0516 10.8731C59.0516 11.0161 59.0516 11.1592 58.909 11.3023C58.3384 11.4453 57.6253 12.1607 57.1974 12.4468C56.3416 13.0191 55.4858 13.5913 54.6299 14.3067C54.4873 14.4497 54.63 14.5928 54.7726 14.4497C55.4858 13.8775 56.3416 13.4483 57.0547 12.876C57.6253 12.4468 58.1958 12.0176 58.909 11.5884C58.909 11.8745 58.7664 12.3037 58.7664 12.5899C57.6253 13.4483 56.4842 14.4497 55.3431 15.3081C55.2005 15.4512 55.3431 15.5943 55.4858 15.4512C56.4842 14.5928 57.7679 13.8775 58.7664 13.0191C58.7664 13.3052 58.6237 13.5913 58.6237 13.8775C58.1958 14.3067 57.6253 14.7359 57.1974 15.1651C56.4842 15.7373 55.771 16.3096 55.0579 16.8819C54.9152 17.0249 55.0579 17.168 55.2005 17.0249C55.9137 16.4527 56.4842 16.0235 57.1974 15.5943C57.6253 15.1651 58.1958 14.8789 58.6237 14.4497C58.6237 14.7359 58.4811 14.8789 58.4811 15.1651C57.6253 15.7373 56.9121 16.4527 56.1989 17.0249C55.9137 17.3111 55.0579 17.5972 55.2005 18.1695C55.3431 17.8833 55.6284 17.7403 55.9137 17.5972C56.3416 17.3111 56.6268 17.0249 57.0547 16.7388C57.4826 16.3096 58.0532 16.0235 58.4811 15.5943C58.4811 15.8804 58.3384 16.1665 58.3384 16.4527C57.34 17.3111 55.9137 18.1695 55.2005 19.314C55.2005 19.314 55.2005 19.4571 55.3431 19.4571C55.3431 19.4571 55.3431 19.4571 55.4858 19.4571L55.4858 19.314C55.771 19.314 56.1989 18.7417 56.3416 18.5987C56.6268 18.3125 56.9121 18.1695 57.1974 17.8833C57.6253 17.5972 57.9105 17.3111 58.3384 17.0249C58.3384 17.3111 58.1958 17.5972 58.1958 17.8833C57.1974 18.7417 56.1989 19.7432 55.2005 20.6016C55.0579 20.7447 55.2005 20.8877 55.3431 20.7447C56.1989 19.8863 57.1974 19.1709 58.0532 18.4556C58.0532 18.7417 57.9105 19.0279 57.9105 19.314C57.4826 19.6001 57.1974 20.0293 56.7695 20.4585C56.0563 21.0308 55.3431 21.7461 54.6299 22.3184C54.4873 22.3184 54.63 22.4615 54.7726 22.4615C55.9137 21.7461 56.7695 20.7447 57.7679 19.8863C57.7679 20.1724 57.6253 20.6016 57.6253 20.8877C57.1974 21.3169 56.9121 21.7461 56.3416 22.0323C55.771 22.4615 55.2005 22.8907 54.6299 23.3199C54.4873 23.3199 54.63 23.606 54.7726 23.4629C55.3431 23.0337 55.9137 22.6045 56.4842 22.1753C56.9121 21.8892 57.1974 21.6031 57.4826 21.3169C57.4826 21.7461 57.34 22.0323 57.34 22.4615C56.3416 23.0337 55.4858 23.8921 54.6299 24.6075C54.4873 24.7506 54.63 24.8936 54.7726 24.7505C55.4858 24.0352 56.4842 23.606 57.1974 22.8907C57.1974 23.1768 57.0547 23.4629 57.0547 23.7491C56.1989 24.4644 55.3431 25.1797 54.4873 25.752C54.3447 25.8951 54.4873 26.0381 54.6299 25.8951C55.3431 25.3228 56.1989 24.7505 57.0547 24.1783C57.0547 24.4644 56.9121 24.8936 56.9121 25.1797C55.9137 25.752 55.0579 26.6104 54.202 27.1827C54.0594 27.3258 54.202 27.4688 54.3447 27.3258C55.2005 26.7535 56.0563 26.1812 56.9121 25.4659C56.9121 25.752 56.7695 26.0381 56.7695 26.3243C55.9137 27.0396 55.0579 27.755 54.0594 28.3272C53.9168 28.4703 54.0594 28.6134 54.202 28.4703C55.0579 27.898 55.9137 27.3258 56.6268 26.7535C56.6268 27.1827 56.4842 27.4688 56.4842 27.898C55.771 28.4703 55.0579 29.0426 54.202 29.6148C54.0594 29.7579 54.202 29.901 54.3447 29.7579C55.0579 29.3287 55.771 28.7564 56.3416 28.3272C56.3416 28.6134 56.1989 28.8995 56.1989 29.1856C55.4858 29.6148 54.9152 30.1871 54.3447 30.7594C54.202 30.9024 54.3447 31.0455 54.4873 30.9024C55.0579 30.4732 55.6284 30.044 56.0563 29.6148C56.0563 29.901 56.0563 30.1871 55.9137 30.4732C55.3431 30.9024 54.7726 31.3316 54.202 31.7608C54.0594 31.9039 54.202 32.047 54.3447 31.9039C54.7726 31.4747 55.3431 31.1886 55.771 30.7594C55.771 31.0455 55.771 31.3316 55.6284 31.4747C55.2005 31.7608 54.7726 32.19 54.4873 32.4762C54.3447 32.6192 54.4873 32.7623 54.6299 32.6192C54.7726 32.4762 55.0579 32.19 55.2005 32.047C55.3431 31.9039 55.4858 31.9039 55.4858 31.7608C55.4858 32.047 55.3431 32.3331 55.3431 32.6192C55.2005 32.7623 55.0579 32.9054 54.9152 32.9054C54.7726 33.0484 54.6299 33.1915 54.3447 33.3346C54.202 33.4776 54.3447 33.6207 54.4873 33.4776C54.7726 33.3346 54.9152 33.1915 55.2005 32.9054C55.0579 33.9068 54.9152 34.9083 54.7726 35.7667C54.2021 44.7799 52.3478 53.2208 52.0625 61.8048ZM60.3353 20.0293C60.1927 22.0323 59.6222 24.0352 59.1943 26.1812C58.7664 28.4703 58.4811 30.7594 58.3384 33.0484C58.1958 35.1944 57.7679 37.3404 57.6253 39.4864C57.34 41.7755 57.1974 44.2076 56.6268 46.4967C56.0563 48.4996 55.3431 50.5026 55.2005 52.6486C54.9152 54.9376 55.3431 57.5128 54.7726 59.8019C54.3447 60.2311 53.9168 60.8034 53.6315 61.2326C53.4889 61.3756 53.3462 61.6618 53.2036 61.9479C53.2036 57.799 53.9168 53.507 54.7726 49.358C55.6284 44.923 56.0563 40.3448 56.6268 35.9098C57.1974 31.6178 57.6253 27.3258 58.1958 23.0337C58.7664 18.8848 59.9074 14.7359 60.0501 10.4439C60.3353 10.1577 60.478 9.87161 60.7632 9.58547C61.1911 9.15627 61.619 8.72707 62.0469 8.29787L62.0469 8.44094C60.9059 12.0176 60.6206 16.0235 60.3353 20.0293ZM85.5816 44.0646C84.5832 47.069 83.87 50.0734 83.0142 53.0778C83.0142 53.0778 83.0142 53.0778 83.0142 53.2208C82.4437 53.65 81.8731 53.9362 81.3026 54.3654C81.8731 53.7931 82.301 53.0778 82.7289 52.3624C82.7289 52.2194 82.5863 52.0763 82.4437 52.2194C81.8731 53.2208 81.0173 53.9362 80.3041 54.7946C80.4468 54.3654 80.5894 53.7931 80.732 53.3639C81.16 52.9347 81.5879 52.5055 82.0158 52.0763C82.4437 51.6471 82.8716 51.2179 83.1568 50.7887C83.1568 50.6456 83.0142 50.6456 83.0142 50.7887C82.5863 51.6471 81.7305 52.2194 81.0173 52.7916C81.16 52.5055 81.3026 52.0763 81.3026 51.7902C82.1584 51.0748 83.1568 50.0734 83.5847 49.0719C83.5847 48.9288 83.4421 48.9288 83.4421 48.9288C82.8716 49.6442 82.1584 50.3595 81.4452 50.9318C81.5879 50.6456 81.5879 50.3595 81.7305 50.0734C82.1584 49.6442 82.4437 49.215 82.8716 48.7858C83.2995 48.3566 83.5847 48.0704 84.0127 47.6412C84.0127 47.4982 84.0126 47.4982 83.87 47.4982C83.4421 47.9274 83.0142 48.3566 82.7289 48.7858C82.4437 49.0719 82.301 49.215 82.0158 49.5011C82.1584 49.0719 82.301 48.6427 82.4437 48.2135C83.2995 47.3551 84.1553 46.4967 84.7258 45.4952C84.7258 45.4952 84.5832 45.3522 84.5832 45.4952C84.0126 46.3536 83.2995 46.9259 82.5863 47.6412C82.7289 47.3551 82.8716 47.069 82.8716 46.6398C83.7274 45.7814 84.5832 44.923 85.2964 43.9215C85.2964 43.7784 85.2964 43.7784 85.1537 43.7784C84.5832 44.4938 83.87 45.066 83.1568 45.7814C83.2995 45.4952 83.2995 45.3522 83.4421 45.066C84.0126 44.3507 84.4406 43.7784 85.1537 43.2062C85.439 42.92 85.8669 42.6339 85.8669 42.2047C85.5816 42.777 85.0111 43.2062 84.5832 43.6354C84.2979 43.7784 84.1553 44.0646 83.87 44.3507C84.0126 44.0646 84.0126 43.9215 84.1553 43.6354C85.0111 42.777 85.8669 41.6324 86.7227 40.9171C86.8653 40.774 86.7227 40.631 86.5801 40.774C86.0095 41.2032 85.439 41.7755 85.0111 42.3478C84.8684 42.4908 84.5832 42.777 84.4406 42.92C84.4406 42.6339 84.5832 42.4908 84.5832 42.2047C85.5816 41.0602 86.7227 40.0587 87.5785 38.7711C87.5785 38.7711 87.5785 38.628 87.4359 38.7711C86.7227 39.7726 85.5816 40.4879 84.7258 41.3463C84.8685 41.0602 84.8684 40.774 85.0111 40.4879C85.439 40.0587 85.8669 39.4864 86.2948 39.0572C86.7227 38.628 87.2932 38.1988 87.7211 37.6266C87.7211 37.4835 87.5785 37.4835 87.5785 37.4835C87.1506 38.0558 86.5801 38.485 86.0095 38.9142C85.7243 39.2003 85.439 39.4864 85.1537 39.7726C85.2964 39.4864 85.2964 39.2003 85.439 38.7711C85.7243 38.485 85.8669 38.3419 86.1522 38.0558C86.5801 37.7696 86.8653 37.3404 87.2932 37.0543C87.4359 36.9112 87.2932 36.9112 87.1506 36.9112C86.7227 37.3404 86.1522 37.7696 85.7243 38.1988C86.0095 37.1974 86.4374 36.1959 86.7227 35.1944C87.1506 33.9068 87.8638 32.4762 88.2917 31.1886C88.2917 33.0484 88.4343 34.7652 88.7196 36.6251C87.8638 38.7711 86.4374 41.3463 85.5816 44.0646ZM102.983 58.0851C101.842 57.5128 99.9877 57.6559 98.8466 57.5128C96.9924 57.2267 94.9955 57.3698 92.9986 57.2267C92.5707 54.9376 92.4281 52.5055 92.0002 50.2164C91.5723 47.7843 91.287 45.3522 91.0017 42.92C90.5738 40.4879 90.2886 38.0558 89.8607 35.6236C89.5754 33.3346 88.8622 30.9024 88.7196 28.6134C88.7196 28.4703 88.7196 28.3272 88.7196 28.1842C88.7196 27.898 88.4343 27.898 88.2917 28.0411C87.7211 30.1871 86.4374 32.047 85.7243 34.193C84.8684 36.482 84.1553 38.9142 83.2995 41.3463C81.8731 46.0675 80.0189 50.7887 78.7352 55.5099C77.1662 55.2238 75.4546 55.3668 73.8856 55.2238C72.3166 55.0807 70.605 55.2238 68.8934 54.9376C68.3229 50.7887 67.895 46.4967 67.1818 42.3478C66.4686 37.6266 65.4702 33.0484 65.0423 28.3272C64.4717 23.8921 64.3291 19.314 63.9012 14.8789C63.6159 12.7329 63.4733 10.5869 63.0454 8.584C62.7601 6.72414 61.9043 5.00734 61.619 3.14747C62.7601 3.57667 63.9012 3.4336 65.0423 3.57667C67.0391 3.71973 69.3213 3.8628 71.3182 4.292C71.6034 6.72414 72.4593 8.87014 72.7445 11.3023C73.1724 13.8775 72.8872 16.5957 73.1724 19.1709C73.743 23.8921 74.1709 28.6134 75.4546 33.1915C75.4546 33.3346 75.4546 33.3346 75.3119 33.4776C75.1693 33.7638 75.4546 33.9068 75.7398 33.9068C75.7398 33.9068 75.8825 33.9068 75.8825 33.7638C76.8809 32.3331 77.1662 30.1871 77.8794 28.6134C78.8778 26.0381 79.8763 23.4629 80.8747 20.8877C82.8716 15.8804 84.5832 10.8731 86.4374 5.86574C89.4328 6.29494 92.5707 6.438 95.566 6.72414C96.1366 11.4453 96.2792 16.3096 96.7071 21.1739C97.2776 26.0381 98.5614 30.9024 99.5598 35.7667C99.5598 35.7667 99.5598 35.7667 99.5598 35.9098C99.5598 36.339 100.13 36.482 100.273 36.0528C100.701 33.7638 101.985 31.3316 102.84 29.1856C103.696 26.7535 104.695 24.6075 105.408 22.1753C106.121 19.7432 107.262 17.5972 107.975 15.1651C108.688 12.876 109.259 10.5869 110.115 8.29787C111.684 8.584 113.253 8.72707 114.679 8.87014C116.248 9.0132 117.674 9.29934 119.243 9.4424C119.386 9.58547 119.529 9.72854 119.814 9.58547C119.814 9.72854 119.671 9.8716 119.671 10.0147C119.101 10.0147 118.245 10.5869 117.817 10.8731C116.819 11.3023 115.82 11.7315 114.964 12.1607C114.822 12.3037 114.964 12.4468 115.107 12.4468C115.963 12.0176 116.819 11.7315 117.674 11.3023C118.388 11.0161 118.958 10.73 119.671 10.4439C119.529 10.73 119.386 11.0161 119.243 11.4453C117.96 12.0176 116.676 12.7329 115.25 13.4483C115.107 13.4483 115.25 13.7344 115.392 13.5913C116.533 12.876 117.96 12.4468 119.101 11.7315C118.958 12.0176 118.815 12.3037 118.815 12.5899C118.245 12.876 117.674 13.3052 117.104 13.5913C116.248 14.0205 115.392 14.4497 114.679 14.7359C114.536 14.8789 114.679 15.022 114.822 15.022C115.535 14.5928 116.248 14.3067 117.104 14.0205C117.674 13.7344 118.245 13.4483 118.673 13.1621C118.388 13.0191 118.388 13.3052 118.245 13.4483C117.389 13.8775 116.533 14.4497 115.535 14.8789C115.107 15.022 114.394 15.3081 114.251 15.7373C114.394 15.4512 114.822 15.4512 115.107 15.3081C115.535 15.1651 115.963 14.8789 116.391 14.7359C116.961 14.4497 117.532 14.1636 118.102 13.8775C117.96 14.1636 117.96 14.4497 117.817 14.7359C116.676 15.4512 115.107 15.8804 114.109 16.8819C114.109 16.8819 114.109 17.0249 114.251 17.0249C114.251 17.0249 114.251 17.0249 114.394 17.0249L114.394 16.8819C114.679 16.8819 115.25 16.4527 115.392 16.3096C115.677 16.1665 116.105 16.0235 116.391 15.8804C116.819 15.7373 117.246 15.4512 117.674 15.3081C117.532 15.5943 117.532 15.8804 117.389 16.1665C116.248 16.7388 115.107 17.5972 113.966 18.1695C113.823 18.3125 113.966 18.4556 114.109 18.3125C115.107 17.7403 116.105 17.0249 117.246 16.5957C117.104 16.8819 116.961 17.168 116.961 17.4541C116.533 17.7403 116.105 18.0264 115.677 18.3125C114.964 18.7417 114.109 19.314 113.253 19.7432C113.11 19.7432 113.253 19.8863 113.253 19.8863C114.394 19.314 115.535 18.5987 116.676 18.0264C116.533 18.3125 116.391 18.5987 116.391 19.0279C115.963 19.314 115.535 19.7432 114.964 19.8863C114.394 20.1724 113.681 20.4585 113.11 20.8877C112.967 20.8877 113.11 21.1739 113.253 21.0308C113.823 20.7447 114.536 20.4585 115.107 20.1724C115.535 20.0293 115.963 19.7432 116.248 19.4571C116.105 19.8863 115.963 20.1724 115.82 20.6016C114.822 21.0308 113.681 21.6031 112.825 22.1753C112.682 22.1753 112.825 22.4615 112.967 22.3184C113.823 21.7461 114.822 21.46 115.677 21.0308C115.535 21.3169 115.535 21.6031 115.392 21.7461C114.394 22.3184 113.395 22.7476 112.54 23.3199C112.397 23.3199 112.54 23.606 112.682 23.4629C113.538 23.0337 114.536 22.6045 115.392 22.1753C115.25 22.4615 115.107 22.7476 115.107 23.1768C114.109 23.606 113.11 24.1783 112.112 24.6075C111.969 24.6075 112.112 24.8936 112.254 24.8936C113.253 24.4644 114.109 24.0352 115.107 23.606C114.964 23.8921 114.964 24.1783 114.822 24.4644C113.823 25.0367 112.825 25.4659 111.826 25.8951C111.684 25.8951 111.826 26.1812 111.969 26.0382C112.825 25.6089 113.823 25.3228 114.679 24.7505C114.536 25.0367 114.394 25.4659 114.251 25.752C113.395 26.1812 112.54 26.6104 111.684 26.8965C111.541 26.8965 111.684 27.1827 111.826 27.0396C112.54 26.7535 113.395 26.3243 114.109 26.0382C113.966 26.3243 113.966 26.6104 113.823 26.8965C113.11 27.1827 112.397 27.6119 111.826 28.0411C111.684 28.0411 111.826 28.3272 111.969 28.1842C112.54 27.898 113.253 27.6119 113.823 27.3258C113.681 27.6119 113.681 27.898 113.538 28.0411C112.825 28.3272 112.254 28.6133 111.684 29.0425C111.541 29.0425 111.684 29.3287 111.826 29.1856C112.397 28.8995 112.967 28.6133 113.538 28.4703C113.395 28.7564 113.395 28.8995 113.253 29.1856C112.825 29.3287 112.397 29.7579 111.969 30.044C111.826 30.1871 111.969 30.3302 112.112 30.1871C112.397 30.044 112.54 29.901 112.825 29.7579C112.967 29.7579 113.11 29.6148 113.253 29.6148C113.11 29.901 113.11 30.1871 112.967 30.4732C112.825 30.6163 112.682 30.6163 112.54 30.7594C112.397 30.9024 112.112 30.9024 111.969 31.0455C111.826 31.0455 111.969 31.3316 112.112 31.1886C112.397 31.0455 112.682 30.9024 112.967 30.7594C112.682 31.6178 112.397 32.6192 111.969 33.4776C108.403 41.7755 104.98 49.7872 102.983 58.0851ZM119.243 18.7417C118.673 20.7447 117.817 22.6045 116.961 24.4644C115.963 26.6104 115.392 28.8995 114.822 31.0455C114.251 33.1915 113.395 35.1944 112.825 37.1974C112.112 39.4864 111.541 41.6324 110.543 43.7784C109.687 45.6383 108.546 47.3551 107.975 49.5011C107.262 51.6471 107.262 54.3654 106.121 56.3683C105.55 56.6544 105.123 57.2267 104.695 57.5128C104.552 57.6559 104.267 57.799 104.124 58.0851C104.98 53.9362 106.406 49.9303 108.118 46.0675C109.829 41.9186 111.113 37.4835 112.54 33.1915C113.966 29.0426 115.25 24.8936 116.676 20.8877C117.96 16.8819 119.957 13.0191 120.955 9.0132C121.24 8.72707 121.526 8.44094 121.811 8.29787C122.096 7.86867 122.667 7.58254 123.094 7.15334C123.094 7.15334 123.094 7.15334 123.237 7.01027C121.526 10.8731 120.384 14.7359 119.243 18.7417ZM143.063 57.5128C141.922 60.3742 141.066 63.3786 140.068 66.383C140.068 66.383 140.068 66.383 140.068 66.526C139.497 66.8122 138.784 67.2414 138.214 67.6706C138.784 67.0983 139.355 66.383 139.783 65.6676C139.925 65.5246 139.64 65.3815 139.64 65.5246C139.07 66.526 138.214 67.0983 137.501 67.9567C137.643 67.5275 137.786 66.9552 137.928 66.526C138.356 66.0968 138.784 65.6676 139.212 65.2384C139.64 64.8092 140.068 64.5231 140.353 63.9508C140.353 63.8078 140.211 63.8078 140.211 63.9508C139.64 64.8092 138.927 65.2384 138.071 65.9538C138.214 65.6676 138.356 65.2384 138.499 64.9523C139.355 64.237 140.353 63.3786 140.924 62.3771C140.924 62.234 140.781 62.234 140.781 62.234C140.211 62.9494 139.497 63.5216 138.784 64.237C138.927 63.9508 139.07 63.6647 139.07 63.3786C139.497 62.9494 139.783 62.5202 140.211 62.091C140.639 61.6618 141.066 61.3756 141.352 60.9464C141.352 60.8034 141.352 60.8034 141.209 60.8034C140.781 61.2326 140.353 61.6618 139.925 61.9479C139.64 62.091 139.497 62.3771 139.212 62.6632C139.355 62.234 139.497 61.8048 139.64 61.3756C140.496 60.5172 141.494 59.8019 142.065 58.8004C142.065 58.8004 142.065 58.6574 141.922 58.6574C141.352 59.3727 140.496 59.945 139.925 60.6603C140.068 60.3742 140.211 60.088 140.353 59.6588C141.209 58.8004 142.065 58.0851 142.778 57.0836C142.921 56.9406 142.778 56.9406 142.635 56.9406C142.065 57.6559 141.209 58.2282 140.639 58.8004C140.781 58.5143 140.781 58.3712 140.924 58.0851C141.494 57.5128 142.065 56.7975 142.635 56.3683C142.921 56.0822 143.349 55.796 143.349 55.3668C143.063 55.9391 142.35 56.3683 141.922 56.7975C141.637 56.9406 141.494 57.2267 141.209 57.3698C141.352 57.0836 141.352 56.9406 141.494 56.6544C142.493 55.796 143.206 54.7946 144.204 53.9362C144.347 53.7931 144.204 53.65 144.062 53.7931C143.349 54.2223 142.921 54.7946 142.35 55.3668C142.208 55.5099 141.922 55.796 141.637 55.9391C141.78 55.653 141.78 55.5099 141.922 55.2238C142.921 54.0792 144.204 53.2208 145.06 51.9332C145.06 51.9332 145.06 51.7902 144.918 51.9332C144.062 52.9347 143.063 53.507 142.065 54.3654C142.207 54.0792 142.208 53.7931 142.35 53.507C142.778 53.0778 143.206 52.5055 143.776 52.0763C144.347 51.6471 144.918 51.361 145.203 50.7887C145.203 50.6456 145.203 50.6456 145.06 50.6456C144.632 51.2179 144.062 51.504 143.491 52.0763C143.206 52.3624 142.921 52.5055 142.635 52.7916C142.778 52.5055 142.921 52.2194 142.921 51.7902C143.206 51.504 143.349 51.361 143.634 51.0748C144.062 50.7887 144.347 50.3595 144.775 50.0734C144.918 49.9303 144.775 49.7872 144.632 49.9303C144.204 50.3595 143.634 50.6456 143.206 51.0748C143.634 50.0734 143.919 49.0719 144.347 48.0704C144.918 46.7828 145.631 45.4952 146.059 44.0646C145.916 45.9244 146.059 47.6412 146.201 49.5011C145.631 52.5055 144.062 54.9376 143.063 57.5128ZM159.752 72.3918C158.61 71.8195 156.899 71.8195 155.615 71.6764C153.761 71.3903 151.764 71.3903 149.91 71.1042C149.482 68.8151 149.482 66.383 149.197 64.0939C148.769 61.6618 148.769 59.2296 148.483 56.7975C148.198 54.3654 147.913 51.9332 147.77 49.358C147.628 46.9259 147.057 44.6368 146.914 42.3478C146.914 42.2047 146.914 42.0616 146.914 41.9186C146.914 41.6324 146.629 41.4894 146.487 41.7755C145.773 43.7784 144.49 45.7814 143.634 47.7843C142.635 50.0734 141.78 52.5055 140.924 54.7946C139.212 59.5158 137.215 63.9508 135.789 68.8151C134.22 68.3859 132.508 68.529 130.939 68.3859C129.37 68.2428 127.659 68.2428 126.09 67.9567C125.805 63.8078 125.519 59.5158 124.949 55.3668C124.378 50.6456 123.665 46.0675 123.38 41.3463C123.094 36.9112 123.094 32.3331 122.809 27.898C122.667 25.752 122.524 23.606 122.239 21.46C121.953 19.6001 121.24 17.8833 121.098 16.0235C122.096 16.4527 123.38 16.4527 124.521 16.5957C126.518 16.8819 128.8 17.0249 130.797 17.5972C130.939 20.0293 131.653 22.3184 131.938 24.6075C132.223 27.1827 131.795 29.901 132.08 32.4762C132.366 37.1974 132.651 41.9186 133.649 46.4967C133.649 46.6398 133.507 46.6398 133.507 46.7828C133.364 47.069 133.649 47.212 133.792 47.212C133.792 47.212 133.935 47.212 133.935 47.069C134.933 45.6383 135.504 43.6354 136.217 41.9186C137.358 39.4864 138.499 36.7682 139.64 34.336C141.78 29.4718 143.776 24.4644 145.773 19.6001C148.769 20.1724 151.907 20.4585 154.902 20.8877C155.33 25.752 155.187 30.4732 155.473 35.3375C155.758 40.2018 156.899 45.2091 157.612 50.0734C157.612 50.0734 157.612 50.0734 157.612 50.2164C157.612 50.6456 158.183 50.7887 158.325 50.3595C158.896 48.0704 160.322 45.7814 161.178 43.4923C162.034 41.2032 163.317 39.0572 164.031 36.6251C164.744 34.193 166.027 32.047 166.883 29.7579C167.739 27.4688 168.31 25.1797 169.308 23.0337C170.877 23.3199 172.303 23.606 173.872 23.7491C175.441 24.0352 176.868 24.3213 178.437 24.4644C178.579 24.6075 178.722 24.7505 179.007 24.6075C179.007 24.7505 178.865 24.8936 178.865 25.0367C178.294 24.8936 177.438 25.4659 176.868 25.752C175.869 26.1812 174.871 26.4673 174.015 26.8965C173.872 26.8965 174.015 27.1827 174.158 27.1827C175.013 26.7535 175.869 26.4673 176.725 26.1812C177.438 25.8951 178.151 25.6089 178.865 25.3228C178.722 25.6089 178.579 25.8951 178.437 26.1812C177.153 26.7535 175.727 27.3257 174.443 28.0411C174.3 28.0411 174.443 28.3272 174.586 28.1842C175.869 27.6119 177.153 27.1827 178.294 26.6104C178.151 26.8965 178.009 27.1827 177.866 27.4688C177.296 27.755 176.725 28.0411 176.154 28.3272C175.299 28.7564 174.443 29.0425 173.587 29.4718C173.444 29.4718 173.587 29.7579 173.73 29.7579C174.443 29.4717 175.299 29.1856 176.012 28.7564C176.582 28.4703 177.153 28.1841 177.723 27.898C177.581 28.0411 177.581 28.3272 177.438 28.4703C176.44 28.8995 175.584 29.3287 174.728 29.7579C174.3 29.901 173.587 30.1871 173.444 30.6163C173.587 30.3301 174.015 30.3302 174.3 30.1871C174.728 30.044 175.156 29.901 175.584 29.6148C176.154 29.3287 176.725 29.0426 177.296 28.8995C177.153 29.1856 177.01 29.4717 177.01 29.7579C175.727 30.4732 174.3 30.7594 173.302 31.7608C173.302 31.7608 173.302 31.9039 173.444 31.9039C173.444 31.9039 173.444 31.9039 173.587 31.9039L173.587 31.7608C173.872 31.7608 174.443 31.3316 174.728 31.1885C175.013 31.0455 175.441 30.9024 175.727 30.7594C176.154 30.6163 176.582 30.4732 177.01 30.1871C176.868 30.4732 176.725 30.7594 176.725 30.9024C175.584 31.4747 174.3 32.19 173.159 32.7623C173.017 32.9054 173.159 33.0484 173.302 32.9054C174.3 32.3331 175.441 31.7608 176.44 31.3316C176.297 31.6178 176.154 31.9039 176.012 32.19C175.584 32.3331 175.156 32.7623 174.586 32.9054C173.73 33.3346 173.017 33.7638 172.161 34.193C172.018 34.193 172.161 34.336 172.161 34.336C173.444 33.9068 174.586 33.1915 175.727 32.6192C175.584 32.9054 175.441 33.1915 175.299 33.4776C174.728 33.7638 174.3 34.0499 173.872 34.336C173.302 34.6222 172.589 34.9083 172.018 35.1944C171.875 35.1944 172.018 35.4806 172.018 35.3375C172.731 35.0514 173.302 34.7652 174.015 34.6222C174.443 34.4791 174.871 34.193 175.299 34.0499C175.156 34.336 175.013 34.7652 174.871 35.0514C173.872 35.3375 172.731 35.9098 171.733 36.482C171.59 36.482 171.733 36.7682 171.875 36.6251C172.731 36.1959 173.872 35.9098 174.728 35.4806C174.586 35.7667 174.586 36.0528 174.443 36.1959C173.444 36.6251 172.446 37.0543 171.448 37.6266C171.305 37.6266 171.448 37.9127 171.59 37.7696C172.446 37.3404 173.444 37.0543 174.3 36.6251C174.158 36.9112 174.015 37.1974 173.872 37.6266C172.874 38.0558 171.733 38.485 170.734 38.9142C170.592 38.9142 170.734 39.2003 170.877 39.2003C171.875 38.7711 172.731 38.485 173.73 38.0558C173.587 38.3419 173.444 38.628 173.444 38.9142C172.446 39.3434 171.448 39.9156 170.449 40.2018C170.306 40.2018 170.449 40.4879 170.592 40.3448C171.59 39.9156 172.446 39.6295 173.444 39.2003C173.302 39.4864 173.159 39.9156 173.017 40.2018C172.161 40.4879 171.305 40.9171 170.449 41.2032C170.306 41.2032 170.449 41.4894 170.592 41.3463C171.305 41.0602 172.161 40.774 172.874 40.4879C172.731 40.774 172.589 41.0602 172.589 41.3463C171.875 41.6324 171.162 42.0616 170.449 42.3478C170.306 42.3478 170.449 42.6339 170.592 42.4908C171.162 42.2047 171.875 41.9186 172.446 41.6324C172.303 41.9186 172.303 42.0616 172.161 42.3478C171.448 42.6339 170.877 42.92 170.164 43.2062C170.021 43.2062 170.164 43.4923 170.306 43.3492C170.877 43.0631 171.448 42.92 172.018 42.6339C171.875 42.92 171.875 43.0631 171.733 43.3492C171.305 43.4923 170.734 43.7784 170.306 44.0646C170.164 44.2076 170.306 44.3507 170.449 44.2076C170.734 44.0646 170.877 43.9215 171.162 43.7784C171.305 43.7784 171.448 43.6354 171.59 43.6354C171.448 43.9215 171.448 44.2076 171.305 44.3507C171.162 44.3507 171.02 44.4938 170.877 44.6368C170.734 44.7799 170.449 44.7799 170.306 44.923C170.164 44.923 170.306 45.2091 170.449 45.066C170.734 44.923 171.02 44.923 171.305 44.7799C171.02 45.6383 170.592 46.6398 170.306 47.4982C166.027 56.3683 162.319 64.237 159.752 72.3918ZM177.866 33.7638C177.153 35.7667 176.154 37.4835 175.299 39.3434C174.3 41.4894 173.587 43.6354 172.874 45.9244C172.161 47.9274 171.305 49.9303 170.592 51.9332C169.736 54.0792 169.165 56.3683 168.024 58.5143C167.026 60.3742 165.885 62.091 165.172 64.0939C164.458 66.2399 164.173 68.8151 163.032 70.9611C162.462 71.2472 162.034 71.6764 161.606 72.1056C161.463 72.2487 161.178 72.3918 161.035 72.6779C162.034 68.529 163.745 64.6662 165.457 60.8034C167.311 56.6544 168.88 52.3624 170.449 48.2135C172.018 44.2076 173.587 40.0587 175.156 36.0528C176.725 32.19 178.865 28.3272 179.863 24.3213C180.148 24.0352 180.434 23.8921 180.861 23.606C181.432 23.3199 181.86 23.0337 182.43 22.6045C182.43 22.6045 182.43 22.6045 182.573 22.4615C180.434 26.0381 179.15 29.9009 177.866 33.7638Z" fill="white"/>
<path d="M130.511 17.4542C128.514 17.168 126.659 17.025 124.663 16.7388C124.52 16.7388 124.52 16.8819 124.663 16.8819C126.659 17.168 128.514 17.4542 130.511 17.7403C130.653 17.8834 130.796 17.5972 130.511 17.4542Z" fill="white"/>
<path d="M130.368 18.3125C128.942 18.0264 127.515 17.7403 126.089 17.5972C125.946 17.5972 125.946 17.7403 126.089 17.7403C127.515 17.8833 128.942 18.3125 130.368 18.5987C130.653 18.5987 130.653 18.3125 130.368 18.3125Z" fill="white"/>
<path d="M130.511 19.0279C130.083 18.8848 129.655 18.8848 129.084 18.8848C128.514 18.5987 127.943 18.5987 127.373 18.5987C127.23 18.5987 127.23 18.7417 127.373 18.7417C128.371 19.0279 129.369 19.0279 130.368 19.314C130.653 19.4571 130.796 19.0279 130.511 19.0279Z" fill="white"/>
<path d="M130.653 19.6002C129.94 19.4571 129.227 19.4571 128.514 19.314C128.371 19.314 128.371 19.4571 128.514 19.4571C129.227 19.6002 129.94 19.7432 130.653 19.8863C130.796 20.0294 130.938 19.7432 130.653 19.6002Z" fill="white"/>
<path d="M130.511 20.4586C130.083 20.4586 129.797 20.3155 129.369 20.3155C129.227 20.3155 129.227 20.4586 129.369 20.4586C129.797 20.6016 130.083 20.6016 130.511 20.7447C130.653 20.7447 130.796 20.4586 130.511 20.4586Z" fill="white"/>
<path d="M139.354 36.1959C139.069 37.1974 138.641 38.1988 138.07 39.0572C137.5 40.0587 137.072 41.0602 136.501 42.0616C135.503 44.0646 134.932 46.3536 133.791 48.2135C133.648 48.4996 134.076 48.6427 134.076 48.3566C135.217 46.3536 135.788 44.2076 136.786 42.2047C137.214 41.2032 137.642 40.2018 138.213 39.2003C138.783 38.3419 139.211 37.3404 139.354 36.1959C139.354 36.1959 139.496 36.1959 139.354 36.1959Z" fill="white"/>
<path d="M137.357 41.4893C136.644 44.4938 134.932 46.9259 133.791 49.7872C133.648 50.0734 134.076 50.0734 134.076 49.9303C135.36 47.212 137.214 44.6368 137.357 41.4893C137.5 41.4893 137.5 41.4893 137.357 41.4893Z" fill="white"/>
<path d="M162.318 41.7755C161.605 43.6354 160.606 45.2091 159.751 47.069C159.037 48.7858 158.182 50.6456 157.468 52.3624C157.183 51.504 157.183 50.3595 157.041 49.5011C156.898 48.3566 156.613 47.069 156.47 45.9244C156.327 44.7799 156.042 43.6354 155.899 42.3478C155.757 41.2032 155.329 39.9156 155.472 38.628C155.472 38.485 155.329 38.485 155.329 38.628C155.186 39.7726 155.472 40.9171 155.614 42.0616C155.757 43.3492 156.042 44.6368 156.327 45.9244C156.47 47.212 156.755 48.4996 156.898 49.7872C157.041 50.6456 157.041 51.7902 157.326 52.6486C157.326 52.7916 157.468 52.7916 157.468 52.7916C157.611 52.7916 157.611 52.7916 157.754 52.6486C158.324 50.9318 159.18 49.215 159.893 47.4982C160.606 45.4952 161.747 43.7784 162.461 41.7755C162.603 41.7755 162.318 41.6324 162.318 41.7755Z" fill="white"/>
<path d="M161.462 45.3522C160.606 46.9259 159.893 48.4996 159.18 50.2164C158.609 51.6471 157.896 53.0778 157.183 54.6515C157.041 53.9362 156.755 53.2208 156.613 52.5055C156.47 51.6471 156.327 50.7887 156.185 49.9303C155.899 48.2135 155.472 46.3536 155.329 44.6368C155.329 44.4938 155.186 44.6368 155.186 44.6368C155.186 46.3536 155.614 48.2135 155.899 49.9303C156.042 50.7887 156.185 51.6471 156.327 52.5055C156.47 53.3639 156.898 54.0792 156.898 54.9376C156.898 55.0807 157.041 55.0807 157.183 55.0807C157.326 55.0807 157.326 55.0807 157.468 54.9376C158.039 53.507 158.752 52.2194 159.323 50.6456C160.036 48.9288 160.892 47.069 161.462 45.3522C161.605 45.3522 161.605 45.2091 161.462 45.3522Z" fill="white"/>
<path d="M160.321 41.3463C160.179 41.4893 160.606 41.6324 160.606 41.4893C161.177 39.7725 161.748 38.1988 162.461 36.482C163.174 35.0513 163.887 33.6207 164.315 32.0469C163.744 33.6207 163.031 34.9083 162.318 36.3389C161.32 38.0557 160.892 39.7725 160.321 41.3463Z" fill="white"/>
<path d="M160.179 39.3434C160.179 39.6295 160.464 39.6295 160.606 39.3434C160.892 38.1988 161.605 37.1974 162.033 36.1959C162.461 35.1944 162.889 34.193 163.174 33.0484C162.746 34.193 162.175 35.3375 161.605 36.482C161.177 37.3404 160.464 38.1988 160.179 39.3434Z" fill="white"/>
<path d="M160.179 37.3404C160.179 37.4835 160.321 37.6265 160.464 37.4835C160.606 36.9112 161.034 36.482 161.32 35.9097C161.747 35.1944 162.033 34.336 162.318 33.6207C162.318 33.4776 162.175 33.4776 162.175 33.6207C161.89 34.336 161.462 34.9083 161.177 35.6236C160.892 36.0528 160.321 36.6251 160.179 37.3404Z" fill="white"/>
<path d="M160.178 36.482C160.892 35.6236 161.32 34.7652 161.605 33.7638C161.605 33.6207 161.462 33.6207 161.462 33.7638C161.177 34.7652 160.606 35.6236 159.893 36.339C159.893 36.482 160.036 36.7682 160.178 36.482Z" fill="white"/>
<path d="M153.617 21.317C153.76 21.317 153.76 21.0308 153.617 21.0308C151.478 20.8878 149.196 20.4586 147.056 20.3155C146.913 20.3155 146.913 20.4586 147.056 20.4586C148.34 20.7447 149.624 20.8878 150.907 21.0308C151.763 21.1739 152.619 21.317 153.617 21.317Z" fill="white"/>
<path d="M152.334 21.317C151.05 21.1739 149.624 21.0308 148.34 20.8878C148.197 20.8878 148.197 21.0308 148.34 21.0308C149.624 21.317 150.907 21.46 152.334 21.6031C152.476 21.7462 152.476 21.317 152.334 21.317Z" fill="white"/>
<path d="M151.478 22.0323C150.622 21.8892 149.909 21.8892 149.053 21.7462C148.91 21.7462 148.91 21.8892 149.053 22.0323C149.909 22.1754 150.622 22.3184 151.478 22.4615C151.62 22.4615 151.763 22.0323 151.478 22.0323Z" fill="white"/>
<path d="M149.909 22.4615C149.766 22.4615 149.624 22.4615 149.338 22.4615C149.196 22.4615 149.196 22.6046 149.338 22.7476C149.481 22.7476 149.624 22.7476 149.909 22.7476C150.051 22.7476 150.194 22.8907 150.337 22.7476C150.479 22.7476 150.479 22.4615 150.337 22.4615C150.337 22.4615 150.194 22.4615 149.909 22.4615Z" fill="white"/>
<path d="M144.774 17.7403C145.772 17.0249 147.056 16.4527 148.055 15.7373C148.197 15.5943 148.055 15.3081 147.912 15.4512C146.913 16.1665 145.63 16.7388 144.631 17.4541C144.631 17.5972 144.774 17.7403 144.774 17.7403Z" fill="white"/>
<path d="M144.774 17.0249C145.63 16.5957 146.486 16.1665 147.484 15.7373C147.627 15.5943 147.627 15.3081 147.341 15.4512C146.486 15.8804 145.487 16.3096 144.631 16.8819C144.631 16.8819 144.631 17.0249 144.774 17.0249Z" fill="white"/>
<path d="M146.343 15.5943C146.486 15.4512 146.343 15.3081 146.2 15.3081C145.487 15.5943 144.774 16.0235 144.203 16.4527C144.061 16.4527 144.203 16.5957 144.346 16.5957C145.059 16.3096 145.772 16.0235 146.343 15.5943Z" fill="white"/>
<path d="M170.163 20.3155C170.734 20.0293 171.161 19.6001 171.732 19.314C172.73 19.314 173.729 19.4571 174.727 19.6001C175.013 19.6001 175.868 19.8863 176.154 19.6001C175.868 19.314 174.87 19.314 174.442 19.314C173.586 19.1709 172.588 19.0279 171.732 19.0279C171.589 19.0279 171.589 19.0279 171.589 19.1709C171.161 19.314 170.734 19.7432 170.306 20.0293C169.735 20.4585 169.165 20.7447 168.737 21.1739C168.594 21.1739 168.737 21.3169 168.879 21.3169C169.165 20.8877 169.735 20.6016 170.163 20.3155Z" fill="white"/>
<path d="M169.022 20.3155C170.02 19.7432 171.019 19.171 172.017 18.7418C173.158 18.7418 174.299 19.0279 175.298 19.0279C175.44 19.0279 175.44 18.8848 175.298 18.8848C174.585 18.7418 174.014 18.5987 173.301 18.4556C172.873 18.3126 172.302 18.1695 171.875 18.3126C171.875 18.3126 171.875 18.3126 171.732 18.3126C170.733 18.7418 169.735 19.314 168.737 20.0294C168.737 20.1724 168.879 20.3155 169.022 20.3155Z" fill="white"/>
<path d="M167.168 64.0939C166.169 66.383 165.456 68.9582 165.028 71.3903C165.028 71.6765 165.313 71.6765 165.313 71.3903C165.884 68.9582 166.597 66.526 167.168 64.0939C167.31 63.9508 167.168 63.9508 167.168 64.0939Z" fill="white"/>
<path d="M167.453 65.9538C167.453 65.9538 167.31 65.8107 167.453 65.9538C167.168 66.9552 166.597 67.9567 166.312 69.1012C166.026 69.9596 165.741 70.818 165.599 71.6764C165.599 71.9626 165.884 71.9626 166.026 71.6764C166.312 70.818 166.454 69.9596 166.74 69.1012C166.882 68.0998 167.31 67.0983 167.453 65.9538Z" fill="white"/>
<path d="M166.312 71.3903C166.312 71.6764 166.597 71.6764 166.74 71.3903C167.168 69.9596 167.453 68.529 167.738 67.0983C167.025 68.3859 166.74 69.9596 166.312 71.3903Z" fill="white"/>
<path d="M159.323 71.1042C158.039 71.1042 156.898 70.818 155.614 70.675C154.616 70.5319 153.475 70.818 152.476 70.5319C152.334 70.5319 152.334 70.675 152.476 70.675C153.475 70.9611 154.616 70.818 155.614 70.9611C156.898 71.1042 158.182 71.3903 159.465 71.3903C159.608 71.5334 159.608 71.1042 159.323 71.1042Z" fill="white"/>
<path d="M159.893 70.1027C158.182 69.9596 156.613 70.2458 154.901 70.1027C154.758 70.1027 154.758 70.2458 154.901 70.2458C156.613 70.3888 158.182 70.3888 159.893 70.5319C160.178 70.5319 160.178 70.1027 159.893 70.1027Z" fill="white"/>
<path d="M160.178 69.2443C158.752 69.1013 157.326 69.2443 155.899 68.9582C155.757 68.9582 155.757 69.1013 155.899 69.1013C157.326 69.3874 158.752 69.3874 160.178 69.5305C160.464 69.6735 160.464 69.2443 160.178 69.2443Z" fill="white"/>
<path d="M160.606 68.2428C159.608 67.9567 158.467 68.2428 157.468 68.0998C157.326 68.0998 157.326 68.2428 157.468 68.3859C158.467 68.529 159.608 68.672 160.606 68.672C160.892 68.672 160.749 68.3859 160.606 68.2428Z" fill="white"/>
<path d="M160.749 67.2414C159.893 67.2414 159.18 67.0983 158.324 67.0983C158.182 67.0983 158.182 67.2414 158.324 67.3844C159.18 67.5275 159.893 67.6706 160.749 67.6706C161.034 67.6706 161.034 67.2414 160.749 67.2414Z" fill="white"/>
<path d="M160.036 66.6691C160.178 66.6691 160.464 66.6691 160.606 66.6691C160.749 66.6691 160.749 66.526 160.606 66.383C160.464 66.383 160.178 66.383 160.036 66.383C159.751 66.383 159.608 66.383 159.323 66.383C159.18 66.383 159.18 66.6691 159.323 66.6691C159.608 66.6691 159.751 66.6691 160.036 66.6691Z" fill="white"/>
<path d="M160.178 65.6676C160.036 65.6676 159.893 65.8107 160.036 65.9538C160.178 65.9538 160.321 66.0968 160.464 66.0968C160.606 66.0968 160.749 66.2399 160.892 66.2399C161.034 66.2399 161.034 66.0968 161.034 65.9538C160.749 65.8107 160.464 65.8107 160.178 65.6676Z" fill="white"/>
<path d="M123.521 57.6559C123.379 55.9391 123.379 54.3654 123.236 52.6486C123.236 51.9332 122.951 51.2179 122.951 50.3595C122.951 49.7872 122.808 49.358 122.523 48.9288L122.38 48.9288C122.523 49.5011 122.523 50.0734 122.523 50.6456C122.523 51.361 122.808 52.2194 122.808 52.9347C122.951 54.6515 122.951 56.2252 123.094 57.942C123.236 59.6588 123.236 61.3756 123.521 63.0924C123.807 64.8092 123.949 66.526 124.235 68.2428C124.235 68.3859 124.52 68.3859 124.52 68.2428C124.377 66.526 124.092 64.8092 123.807 63.0924C123.664 61.3756 123.664 59.5158 123.521 57.6559Z" fill="white"/>
<path d="M122.808 57.3698C122.523 55.9391 122.38 54.6515 122.523 53.2208C122.523 53.0778 122.38 53.0778 122.38 53.2208C121.952 55.653 122.666 57.942 122.808 60.3742C122.951 62.9494 123.094 65.6676 123.664 68.0998C123.664 68.2428 123.949 68.2428 123.949 68.0998C123.521 65.8107 123.379 63.3786 123.236 61.0895C123.094 59.8019 122.951 58.6574 122.808 57.3698Z" fill="white"/>
</g>
<defs>
<clipPath id="clip0">
<rect width="183" height="195" fill="white"/>
</clipPath>
</defs>
</svg>
